<svg width="309" height="302" viewBox="0 0 309 302" fill="none" xmlns="http://www.w3.org/2000/svg">
<path d="M38.6441 5.2C38.6441 5.08 38.7241 5 38.8441 5H44.2441C46.7241 5 48.8041 6.56 48.8041 9.58C48.8041 11.12 48.1241 12.64 46.6241 13.4C45.2041 14.1 44.7841 14.28 45.5441 15.16L46.6841 16.54L49.4041 19.76C49.5041 19.88 49.4441 20 49.2841 20H46.3041C46.2041 20 46.1241 19.96 46.0641 19.88L42.9241 16.02C42.1041 15 41.2041 15.32 41.2041 16.62V19.8C41.2041 19.92 41.1241 20 41.0041 20H38.8441C38.7241 20 38.6441 19.92 38.6441 19.8V5.2ZM43.8441 11.56C45.2641 11.56 46.2041 10.88 46.2041 9.58C46.2041 8.3 45.2641 7.66 43.8641 7.66H42.2041C41.5641 7.66 41.2041 8.02 41.2041 8.66V10.56C41.2041 11.2 41.5641 11.56 42.2041 11.56H43.8441ZM51.1637 5.22C51.1637 5.08 51.2437 5 51.3637 5H59.8637C59.9837 5 60.0637 5.08 60.0637 5.22V7.4C60.0637 7.52 59.9837 7.62 59.8637 7.62H55.0637C54.1637 7.62 53.6637 8.16 53.6637 9.16V9.6C53.6637 10.58 54.1637 11.14 55.0637 11.14H59.1437C59.2637 11.14 59.3437 11.22 59.3437 11.36V13.52C59.3437 13.64 59.2637 13.72 59.1437 13.72H55.0637C54.1637 13.72 53.6637 14.3 53.6637 15.28V15.84C53.6637 16.84 54.1637 17.38 55.0637 17.38H59.8637C59.9837 17.38 60.0637 17.48 60.0637 17.6V19.78C60.0637 19.92 59.9837 20 59.8637 20H51.3637C51.2437 20 51.1637 19.92 51.1637 19.78V5.22ZM66.8532 20.22C63.3532 20.22 61.8332 17.58 61.6732 15.44C61.6732 15.32 61.7532 15.24 61.8732 15.24H64.1332C64.2532 15.24 64.3132 15.3 64.3332 15.42C64.5332 16.76 65.3932 17.7 66.8532 17.7C68.0532 17.7 68.9932 16.98 68.9932 15.94C68.9932 12.84 61.8932 14.52 61.8932 9.1C61.8932 6.7 63.6732 4.78 66.5332 4.78C69.6332 4.78 71.1532 7.08 71.3132 9.28C71.3332 9.4 71.2532 9.48 71.1332 9.48H68.8932C68.7732 9.48 68.6932 9.42 68.6732 9.28C68.5332 8.18 67.7732 7.26 66.5332 7.26C65.2532 7.26 64.4532 8.06 64.4532 9.1C64.4532 12.02 71.5532 10.32 71.5532 15.94C71.5532 18.48 69.2732 20.22 66.8532 20.22ZM79.9651 20.22C75.9651 20.22 72.9451 16.92 72.9451 12.48C72.9451 8.06 75.9651 4.78 79.9651 4.78C83.9451 4.78 86.9651 8.06 86.9651 12.48C86.9651 16.92 83.9451 20.22 79.9651 20.22ZM79.9651 17.52C82.4251 17.52 84.3651 15.4 84.3651 12.48C84.3651 9.62 82.4251 7.46 79.9651 7.46C77.4851 7.46 75.5651 9.62 75.5651 12.48C75.5651 15.4 77.4851 17.52 79.9651 17.52ZM94.5129 20.22C91.3329 20.22 88.9729 17.88 88.9729 13.76V5.2C88.9729 5.08 89.0529 5 89.1729 5H91.3329C91.4529 5 91.5329 5.08 91.5329 5.2V13.66C91.5329 16.34 92.7529 17.56 94.5129 17.56C96.2729 17.56 97.4729 16.34 97.4729 13.66V5.2C97.4729 5.08 97.5529 5 97.6729 5H99.8529C99.9729 5 100.053 5.08 100.053 5.2V13.76C100.053 17.88 97.6729 20.22 94.5129 20.22ZM102.687 5.2C102.687 5.08 102.767 5 102.887 5H108.287C110.767 5 112.847 6.56 112.847 9.58C112.847 11.12 112.167 12.64 110.667 13.4C109.247 14.1 108.827 14.28 109.587 15.16L110.727 16.54L113.447 19.76C113.547 19.88 113.487 20 113.327 20H110.347C110.247 20 110.167 19.96 110.107 19.88L106.967 16.02C106.147 15 105.247 15.32 105.247 16.62V19.8C105.247 19.92 105.167 20 105.047 20H102.887C102.767 20 102.687 19.92 102.687 19.8V5.2ZM107.887 11.56C109.307 11.56 110.247 10.88 110.247 9.58C110.247 8.3 109.307 7.66 107.907 7.66H106.247C105.607 7.66 105.247 8.02 105.247 8.66V10.56C105.247 11.2 105.607 11.56 106.247 11.56H107.887ZM121.547 20.22C117.547 20.22 114.547 16.92 114.547 12.5C114.547 8.06 117.547 4.78 121.547 4.78C124.787 4.78 127.167 6.76 127.867 9.72C127.907 9.86 127.847 9.94 127.707 9.94H125.447C125.347 9.94 125.267 9.9 125.207 9.8C124.607 8.46 123.407 7.46 121.547 7.46C119.067 7.46 117.167 9.62 117.167 12.5C117.167 15.38 119.067 17.52 121.547 17.52C123.407 17.52 124.607 16.5 125.207 15.18C125.267 15.08 125.347 15.04 125.447 15.04H127.707C127.847 15.04 127.907 15.12 127.887 15.24C127.167 18.2 124.787 20.22 121.547 20.22ZM130.07 5.22C130.07 5.08 130.15 5 130.27 5H138.77C138.89 5 138.97 5.08 138.97 5.22V7.4C138.97 7.52 138.89 7.62 138.77 7.62H133.97C133.07 7.62 132.57 8.16 132.57 9.16V9.6C132.57 10.58 133.07 11.14 133.97 11.14H138.05C138.17 11.14 138.25 11.22 138.25 11.36V13.52C138.25 13.64 138.17 13.72 138.05 13.72H133.97C133.07 13.72 132.57 14.3 132.57 15.28V15.84C132.57 16.84 133.07 17.38 133.97 17.38H138.77C138.89 17.38 138.97 17.48 138.97 17.6V19.78C138.97 19.92 138.89 20 138.77 20H130.27C130.15 20 130.07 19.92 130.07 19.78V5.22ZM141.339 5.22C141.339 5.08 141.419 5 141.539 5H149.899C150.019 5 150.099 5.08 150.099 5.22V7.4C150.099 7.52 150.019 7.62 149.899 7.62H145.279C144.379 7.62 143.879 8.16 143.879 9.16V9.84C143.879 10.84 144.379 11.38 145.279 11.38H149.159C149.279 11.38 149.359 11.46 149.359 11.6V13.72C149.359 13.86 149.279 13.96 149.159 13.96H145.279C144.379 13.96 143.879 14.5 143.879 15.5V20H141.539C141.419 20 141.339 19.92 141.339 19.78V5.22ZM157.755 20.22C154.575 20.22 152.215 17.88 152.215 13.76V5.2C152.215 5.08 152.295 5 152.415 5H154.575C154.695 5 154.775 5.08 154.775 5.2V13.66C154.775 16.34 155.995 17.56 157.755 17.56C159.515 17.56 160.715 16.34 160.715 13.66V5.2C160.715 5.08 160.795 5 160.915 5H163.095C163.215 5 163.295 5.08 163.295 5.2V13.76C163.295 17.88 160.915 20.22 157.755 20.22ZM165.929 5.22C165.929 5.08 166.009 5 166.129 5H168.289C168.409 5 168.489 5.08 168.489 5.22V15.92C168.489 16.82 168.989 17.32 169.889 17.32H174.489C174.609 17.32 174.689 17.4 174.689 17.54V19.78C174.689 19.92 174.609 20 174.489 20H166.129C166.009 20 165.929 19.92 165.929 19.78V5.22ZM187.406 20.22C183.406 20.22 180.386 16.92 180.386 12.48C180.386 8.06 183.406 4.78 187.406 4.78C191.386 4.78 194.406 8.06 194.406 12.48C194.406 16.92 191.386 20.22 187.406 20.22ZM187.406 17.52C189.866 17.52 191.806 15.4 191.806 12.48C191.806 9.62 189.866 7.46 187.406 7.46C184.926 7.46 183.006 9.62 183.006 12.48C183.006 15.4 184.926 17.52 187.406 17.52ZM202.894 20.22C198.894 20.22 195.894 16.92 195.894 12.5C195.894 8.06 198.894 4.78 202.894 4.78C206.134 4.78 208.514 6.76 209.214 9.72C209.254 9.86 209.194 9.94 209.054 9.94H206.794C206.694 9.94 206.614 9.9 206.554 9.8C205.954 8.46 204.754 7.46 202.894 7.46C200.414 7.46 198.514 9.62 198.514 12.5C198.514 15.38 200.414 17.52 202.894 17.52C204.754 17.52 205.954 16.5 206.554 15.18C206.614 15.08 206.694 15.04 206.794 15.04H209.054C209.194 15.04 209.254 15.12 209.234 15.24C208.514 18.2 206.134 20.22 202.894 20.22ZM213.501 9.06C213.501 8.16 213.001 7.66 212.101 7.66H209.481C209.361 7.66 209.281 7.58 209.281 7.46V5.2C209.281 5.08 209.361 5 209.481 5H220.101C220.221 5 220.301 5.08 220.301 5.2V7.46C220.301 7.58 220.221 7.66 220.101 7.66H217.481C216.581 7.66 216.081 8.16 216.081 9.06V19.8C216.081 19.92 216.001 20 215.881 20H213.701C213.581 20 213.501 19.92 213.501 19.8V9.06ZM227.328 20.22C223.328 20.22 220.308 16.92 220.308 12.48C220.308 8.06 223.328 4.78 227.328 4.78C231.308 4.78 234.328 8.06 234.328 12.48C234.328 16.92 231.308 20.22 227.328 20.22ZM227.328 17.52C229.788 17.52 231.728 15.4 231.728 12.48C231.728 9.62 229.788 7.46 227.328 7.46C224.848 7.46 222.928 9.62 222.928 12.48C222.928 15.4 224.848 17.52 227.328 17.52ZM236.476 5.2C236.476 5.08 236.556 5 236.676 5H242.076C244.556 5 246.636 6.64 246.636 9.72C246.636 12.8 244.556 14.48 242.076 14.48H240.036C239.396 14.48 239.036 14.84 239.036 15.48V19.8C239.036 19.92 238.956 20 238.836 20H236.676C236.556 20 236.476 19.92 236.476 19.8V5.2ZM241.676 11.82C243.096 11.82 244.036 11.08 244.036 9.72C244.036 8.38 243.096 7.66 241.696 7.66H240.036C239.396 7.66 239.036 8.02 239.036 8.66V10.82C239.036 11.46 239.396 11.82 240.036 11.82H241.676ZM253.81 20.22C250.63 20.22 248.27 17.88 248.27 13.76V5.2C248.27 5.08 248.35 5 248.47 5H250.63C250.75 5 250.83 5.08 250.83 5.2V13.66C250.83 16.34 252.05 17.56 253.81 17.56C255.57 17.56 256.77 16.34 256.77 13.66V5.2C256.77 5.08 256.85 5 256.97 5H259.15C259.27 5 259.35 5.08 259.35 5.2V13.76C259.35 17.88 256.97 20.22 253.81 20.22ZM266.404 20.22C262.904 20.22 261.384 17.58 261.224 15.44C261.224 15.32 261.304 15.24 261.424 15.24H263.684C263.804 15.24 263.864 15.3 263.884 15.42C264.084 16.76 264.944 17.7 266.404 17.7C267.604 17.7 268.544 16.98 268.544 15.94C268.544 12.84 261.444 14.52 261.444 9.1C261.444 6.7 263.224 4.78 266.084 4.78C269.184 4.78 270.704 7.08 270.864 9.28C270.884 9.4 270.804 9.48 270.684 9.48H268.444C268.324 9.48 268.244 9.42 268.224 9.28C268.084 8.18 267.324 7.26 266.084 7.26C264.804 7.26 264.004 8.06 264.004 9.1C264.004 12.02 271.104 10.32 271.104 15.94C271.104 18.48 268.824 20.22 266.404 20.22Z" fill="#FFFF77"/>
<rect y="3.34375" width="19.2962" height="19.2962" fill="#6D6C69"/>
<rect y="281.961" width="19.2962" height="19.2962" fill="#6D6C69"/>
<rect x="288.94" y="3.34375" width="19.2962" height="19.2962" fill="#6D6C69"/>
<rect x="288.94" y="281.961" width="19.2962" height="19.2962" fill="#FFFF77"/>
<path d="M228.715 297.131C225.627 297.131 223.312 294.584 223.312 291.172C223.312 287.745 225.627 285.213 228.715 285.213C231.216 285.213 233.053 286.742 233.593 289.026C233.624 289.134 233.577 289.196 233.469 289.196H231.725C231.648 289.196 231.586 289.165 231.54 289.088C231.077 288.054 230.15 287.282 228.715 287.282C226.801 287.282 225.334 288.949 225.334 291.172C225.334 293.395 226.801 295.047 228.715 295.047C230.15 295.047 231.077 294.259 231.54 293.241C231.586 293.163 231.648 293.133 231.725 293.133H233.469C233.577 293.133 233.624 293.194 233.608 293.287C233.053 295.572 231.216 297.131 228.715 297.131ZM237.349 285.507C237.38 285.414 237.457 285.383 237.534 285.383H239.68C239.757 285.383 239.834 285.414 239.865 285.507L243.57 296.76C243.601 296.899 243.554 296.961 243.446 296.961H241.671C241.594 296.961 241.517 296.93 241.486 296.837L241.254 296.112C240.899 295 240.205 294.476 239.14 294.476H238.059C236.994 294.476 236.299 295 235.944 296.112L235.713 296.837C235.682 296.93 235.604 296.961 235.527 296.961H233.767C233.659 296.961 233.613 296.899 233.644 296.76L237.349 285.507ZM239.278 292.577C239.834 292.577 240.081 292.175 239.896 291.589L239.093 289.042C238.862 288.301 238.321 288.301 238.09 289.042L237.303 291.589C237.117 292.175 237.364 292.577 237.92 292.577H239.278ZM244.806 285.538C244.806 285.445 244.868 285.383 244.96 285.383H249.128C251.042 285.383 252.648 286.587 252.648 288.918C252.648 290.107 252.123 291.28 250.965 291.867C249.869 292.407 249.545 292.546 250.132 293.225L251.011 294.29L253.111 296.776C253.188 296.868 253.142 296.961 253.018 296.961H250.718C250.641 296.961 250.579 296.93 250.533 296.868L248.109 293.889C247.476 293.102 246.782 293.349 246.782 294.352V296.807C246.782 296.899 246.72 296.961 246.627 296.961H244.96C244.868 296.961 244.806 296.899 244.806 296.807V285.538ZM248.819 290.447C249.915 290.447 250.641 289.922 250.641 288.918C250.641 287.93 249.915 287.436 248.835 287.436H247.554C247.06 287.436 246.782 287.714 246.782 288.208V289.675C246.782 290.169 247.06 290.447 247.554 290.447H248.819ZM254.469 285.553C254.469 285.445 254.531 285.383 254.623 285.383H261.184C261.277 285.383 261.338 285.445 261.338 285.553V287.236C261.338 287.328 261.277 287.405 261.184 287.405H257.479C256.785 287.405 256.399 287.822 256.399 288.594V288.934C256.399 289.69 256.785 290.122 257.479 290.122H260.628C260.721 290.122 260.783 290.184 260.783 290.292V291.959C260.783 292.052 260.721 292.114 260.628 292.114H257.479C256.785 292.114 256.399 292.561 256.399 293.318V293.75C256.399 294.522 256.785 294.939 257.479 294.939H261.184C261.277 294.939 261.338 295.016 261.338 295.109V296.791C261.338 296.899 261.277 296.961 261.184 296.961H254.623C254.531 296.961 254.469 296.899 254.469 296.791V285.553ZM263.167 285.553C263.167 285.445 263.229 285.383 263.322 285.383H269.882C269.975 285.383 270.037 285.445 270.037 285.553V287.236C270.037 287.328 269.975 287.405 269.882 287.405H266.178C265.483 287.405 265.097 287.822 265.097 288.594V288.934C265.097 289.69 265.483 290.122 266.178 290.122H269.327C269.419 290.122 269.481 290.184 269.481 290.292V291.959C269.481 292.052 269.419 292.114 269.327 292.114H266.178C265.483 292.114 265.097 292.561 265.097 293.318V293.75C265.097 294.522 265.483 294.939 266.178 294.939H269.882C269.975 294.939 270.037 295.016 270.037 295.109V296.791C270.037 296.899 269.975 296.961 269.882 296.961H263.322C263.229 296.961 263.167 296.899 263.167 296.791V285.553ZM271.866 285.538C271.866 285.445 271.927 285.383 272.02 285.383H276.188C278.102 285.383 279.708 286.587 279.708 288.918C279.708 290.107 279.183 291.28 278.025 291.867C276.929 292.407 276.605 292.546 277.191 293.225L278.071 294.29L280.171 296.776C280.248 296.868 280.202 296.961 280.078 296.961H277.778C277.701 296.961 277.639 296.93 277.593 296.868L275.169 293.889C274.536 293.102 273.842 293.349 273.842 294.352V296.807C273.842 296.899 273.78 296.961 273.687 296.961H272.02C271.927 296.961 271.866 296.899 271.866 296.807V285.538ZM275.879 290.447C276.975 290.447 277.701 289.922 277.701 288.918C277.701 287.93 276.975 287.436 275.895 287.436H274.613C274.119 287.436 273.842 287.714 273.842 288.208V289.675C273.842 290.169 274.119 290.447 274.613 290.447H275.879Z" fill="#FFFF77"/>
<path d="M172.127 183.45C171.742 183.514 170.246 184.29 170.136 184.764C170.815 188.223 169.558 191.627 169.384 194.784C168.677 207.661 171.274 221.076 170.191 233.88C169.558 241.309 167.64 242.34 160.374 242.869C156.786 243.134 144.208 243.544 145.162 237.941C146.299 231.27 158.649 235.915 160.567 229.783C161.071 228.158 161.429 223.385 161.557 221.396C162.732 202.834 159.952 183.687 160.75 165.07C160.585 163.355 159.814 161.374 158.704 160.069C155.97 156.848 147.923 151.035 145.914 147.777C143.464 143.798 144.666 128.201 136.721 138.085L136.179 236.8C135.739 239.237 134.464 241.345 131.876 241.902C130.225 242.258 123.637 242.897 121.866 242.878C118.426 242.833 111.49 242.367 111.994 237.795C112.545 232.794 122.977 234.126 126.445 234.975C129.023 234.236 127.509 227.757 124.784 226.634C117.885 223.787 103.269 229.5 101.847 220.538C101.305 217.125 100.938 202.587 104.159 201.036C114.637 195.989 108.37 218.11 116.178 216.176C119.875 215.263 118.802 206.657 120.371 203.071C121.775 199.849 126.252 199.019 126.243 195.578C126.234 192.138 122.747 192.448 121.096 190.459C118.27 187.064 118.196 171.86 120.628 168.392C122.013 166.421 127.115 165.892 126.821 162.15C126.472 157.642 115.517 158.052 112.581 160.763C110.792 162.415 111.352 166.275 107.342 167.489C101.259 169.332 90.1302 166.987 97.0482 159.595C99.0483 157.459 102.599 157.039 100.626 152.987C98.6538 148.936 90.433 152.194 87.6071 147.968C82.6159 140.521 102.305 141.498 106.076 142.1C111.04 142.885 112.49 150.405 116.985 149.009C119.554 148.205 121.628 135.091 114.802 134.206C99.8649 132.262 81.3314 136.278 66.0643 133.449C61.3942 132.582 61.7795 125.692 69.1837 124.87C80.368 123.638 93.0295 126.194 104.572 125.683C106.361 125.6 117.563 124.688 117.94 124.14C118.747 122.114 118.655 118.729 116.16 117.999C108.563 115.781 81.7626 118.592 78.5514 116.328C75.8631 114.43 75.8539 95.9046 77.5146 93.2945C79.3313 90.429 93.0387 90.8305 96.6995 91.2503C100.067 91.6336 101.626 92.6922 101.012 96.3061C100.259 100.714 93.1946 99.4363 89.9559 100.194C84.6527 101.426 84.6436 106.089 89.9559 107.33C93.213 108.097 111.389 108.225 114.591 107.504C118.279 106.673 119.187 102.694 121.444 101.042C123.701 99.3907 131.363 99.2994 133.812 100.431C136.262 101.563 137.134 107.056 140.556 106.728C143.125 106.482 152.74 94.2345 155.979 92.3546C160.741 91.6792 161.42 98.8157 165.796 98.3047C167.622 98.0857 174.503 89.7171 176.623 87.9376C178.77 82.5898 174.402 76.3932 183.073 75.5993C190.404 74.9331 209.111 74.6776 216.149 75.5993C223.608 76.5666 218.809 90.1187 221.809 96.5343C223.333 99.7922 227.92 99.8196 228.883 105.131C229.489 108.453 229.645 121.448 227.544 123.757C226.278 125.153 222.718 125.537 220.846 125.692C206.423 126.878 189.486 124.067 175.329 125.756C168.466 126.577 169.815 133.476 172.109 133.476H241.251C244.426 133.476 245.38 137.501 245.619 140.083C246.05 144.829 246.233 157.514 245.527 161.958C245.004 165.235 242.242 167.425 239.306 165.125C232.847 160.06 243.508 140.622 227.204 142.118C214.699 143.268 228.094 151.801 228.324 154.238C228.599 160.288 215.314 159.43 213.304 156.592C210.02 151.975 214.855 144.062 207.909 142.42C203.092 141.279 179.972 141.434 174.448 142.064C172.98 142.228 170.833 142.575 170.283 144.163C169.558 146.262 169.76 167.032 170.191 169.77C170.466 171.559 171.393 173.165 173.063 173.95L244.6 175.866C246.169 177.436 246.252 197.157 244.261 198.407C242.554 199.484 222.8 199.566 220.378 198.782C216.736 197.604 216.378 192.859 219.25 190.532H236.93V183.496H172.109L172.127 183.45Z" fill="white"/>
</svg>
