<svg width="309" height="302" viewBox="0 0 309 302" fill="none" xmlns="http://www.w3.org/2000/svg">
<path d="M108.753 5.22C108.713 5.08 108.793 5 108.933 5H111.373C111.493 5 111.553 5.06 111.593 5.18L113.873 13.74C114.133 14.72 114.653 14.58 114.893 13.6L116.973 5.18C116.993 5.06 117.073 5 117.193 5H120.073C120.193 5 120.273 5.06 120.293 5.18L122.373 13.7C122.613 14.68 123.333 14.66 123.573 13.68L125.673 5.18C125.693 5.06 125.773 5 125.893 5H128.333C128.473 5 128.553 5.08 128.513 5.22L124.553 19.82C124.533 19.92 124.453 20 124.333 20H121.713C121.593 20 121.513 19.94 121.493 19.82L119.233 10.46C118.993 9.48 118.253 9.48 118.013 10.46L115.753 19.82C115.733 19.94 115.653 20 115.533 20H112.913C112.793 20 112.713 19.92 112.693 19.82L108.753 5.22ZM130.326 5.22C130.326 5.08 130.406 5 130.526 5H132.686C132.806 5 132.886 5.08 132.886 5.22V19.78C132.886 19.92 132.806 20 132.686 20H130.526C130.406 20 130.326 19.92 130.326 19.78V5.22ZM140.269 20.22C136.769 20.22 135.249 17.58 135.089 15.44C135.089 15.32 135.169 15.24 135.289 15.24H137.549C137.669 15.24 137.729 15.3 137.749 15.42C137.949 16.76 138.809 17.7 140.269 17.7C141.469 17.7 142.409 16.98 142.409 15.94C142.409 12.84 135.309 14.52 135.309 9.1C135.309 6.7 137.089 4.78 139.949 4.78C143.049 4.78 144.569 7.08 144.729 9.28C144.749 9.4 144.669 9.48 144.549 9.48H142.309C142.189 9.48 142.109 9.42 142.089 9.28C141.949 8.18 141.189 7.26 139.949 7.26C138.669 7.26 137.869 8.06 137.869 9.1C137.869 12.02 144.969 10.32 144.969 15.94C144.969 18.48 142.689 20.22 140.269 20.22ZM147.021 5.22C147.021 5.08 147.101 5 147.221 5H155.721C155.841 5 155.921 5.08 155.921 5.22V7.4C155.921 7.52 155.841 7.62 155.721 7.62H150.921C150.021 7.62 149.521 8.16 149.521 9.16V9.6C149.521 10.58 150.021 11.14 150.921 11.14H155.001C155.121 11.14 155.201 11.22 155.201 11.36V13.52C155.201 13.64 155.121 13.72 155.001 13.72H150.921C150.021 13.72 149.521 14.3 149.521 15.28V15.84C149.521 16.84 150.021 17.38 150.921 17.38H155.721C155.841 17.38 155.921 17.48 155.921 17.6V19.78C155.921 19.92 155.841 20 155.721 20H147.221C147.101 20 147.021 19.92 147.021 19.78V5.22ZM162.939 5.22C162.939 5.08 163.019 5 163.139 5H171.499C171.619 5 171.699 5.08 171.699 5.22V7.4C171.699 7.52 171.619 7.62 171.499 7.62H166.879C165.979 7.62 165.479 8.16 165.479 9.16V9.84C165.479 10.84 165.979 11.38 166.879 11.38H170.759C170.879 11.38 170.959 11.46 170.959 11.6V13.72C170.959 13.86 170.879 13.96 170.759 13.96H166.879C165.979 13.96 165.479 14.5 165.479 15.5V20H163.139C163.019 20 162.939 19.92 162.939 19.78V5.22ZM179.748 20.22C175.748 20.22 172.728 16.92 172.728 12.48C172.728 8.06 175.748 4.78 179.748 4.78C183.728 4.78 186.748 8.06 186.748 12.48C186.748 16.92 183.728 20.22 179.748 20.22ZM179.748 17.52C182.208 17.52 184.148 15.4 184.148 12.48C184.148 9.62 182.208 7.46 179.748 7.46C177.268 7.46 175.348 9.62 175.348 12.48C175.348 15.4 177.268 17.52 179.748 17.52ZM190.339 14.02C191.019 12.88 191.019 11.86 190.319 10.72L186.899 5.24C186.819 5.1 186.879 5 187.039 5H189.779C189.879 5 189.959 5.06 190.019 5.14L192.379 9.28C192.779 9.96 193.379 9.96 193.779 9.28L196.139 5.14C196.199 5.06 196.279 5 196.379 5H199.119C199.279 5 199.319 5.1 199.239 5.24L195.819 10.7C195.119 11.84 195.119 12.88 195.799 14.02L199.259 19.76C199.339 19.9 199.279 20 199.119 20H196.379C196.279 20 196.179 19.96 196.139 19.86L193.759 15.56C193.379 14.86 192.779 14.86 192.399 15.56L190.019 19.86C189.979 19.96 189.879 20 189.779 20H187.039C186.879 20 186.819 19.9 186.899 19.76L190.339 14.02Z" fill="#FFFF77"/>
<rect y="3.34375" width="19.2962" height="19.2962" fill="#6D6C69"/>
<rect y="281.961" width="19.2962" height="19.2962" fill="#6D6C69"/>
<rect x="288.94" y="3.34375" width="19.2962" height="19.2962" fill="#6D6C69"/>
<rect x="288.94" y="281.961" width="19.2962" height="19.2962" fill="#FFFF77"/>
<path d="M228.715 297.131C225.627 297.131 223.312 294.584 223.312 291.172C223.312 287.745 225.627 285.213 228.715 285.213C231.216 285.213 233.053 286.742 233.593 289.026C233.624 289.134 233.577 289.196 233.469 289.196H231.725C231.648 289.196 231.586 289.165 231.54 289.088C231.077 288.054 230.15 287.282 228.715 287.282C226.801 287.282 225.334 288.949 225.334 291.172C225.334 293.395 226.801 295.047 228.715 295.047C230.15 295.047 231.077 294.259 231.54 293.241C231.586 293.163 231.648 293.133 231.725 293.133H233.469C233.577 293.133 233.624 293.194 233.608 293.287C233.053 295.572 231.216 297.131 228.715 297.131ZM237.349 285.507C237.38 285.414 237.457 285.383 237.534 285.383H239.68C239.757 285.383 239.834 285.414 239.865 285.507L243.57 296.76C243.601 296.899 243.554 296.961 243.446 296.961H241.671C241.594 296.961 241.517 296.93 241.486 296.837L241.254 296.112C240.899 295 240.205 294.476 239.14 294.476H238.059C236.994 294.476 236.299 295 235.944 296.112L235.713 296.837C235.682 296.93 235.604 296.961 235.527 296.961H233.767C233.659 296.961 233.613 296.899 233.644 296.76L237.349 285.507ZM239.278 292.577C239.834 292.577 240.081 292.175 239.896 291.589L239.093 289.042C238.862 288.301 238.321 288.301 238.09 289.042L237.303 291.589C237.117 292.175 237.364 292.577 237.92 292.577H239.278ZM244.806 285.538C244.806 285.445 244.868 285.383 244.96 285.383H249.128C251.042 285.383 252.648 286.587 252.648 288.918C252.648 290.107 252.123 291.28 250.965 291.867C249.869 292.407 249.545 292.546 250.132 293.225L251.011 294.29L253.111 296.776C253.188 296.868 253.142 296.961 253.018 296.961H250.718C250.641 296.961 250.579 296.93 250.533 296.868L248.109 293.889C247.476 293.102 246.782 293.349 246.782 294.352V296.807C246.782 296.899 246.72 296.961 246.627 296.961H244.96C244.868 296.961 244.806 296.899 244.806 296.807V285.538ZM248.819 290.447C249.915 290.447 250.641 289.922 250.641 288.918C250.641 287.93 249.915 287.436 248.835 287.436H247.554C247.06 287.436 246.782 287.714 246.782 288.208V289.675C246.782 290.169 247.06 290.447 247.554 290.447H248.819ZM254.469 285.553C254.469 285.445 254.531 285.383 254.623 285.383H261.184C261.277 285.383 261.338 285.445 261.338 285.553V287.236C261.338 287.328 261.277 287.405 261.184 287.405H257.479C256.785 287.405 256.399 287.822 256.399 288.594V288.934C256.399 289.69 256.785 290.122 257.479 290.122H260.628C260.721 290.122 260.783 290.184 260.783 290.292V291.959C260.783 292.052 260.721 292.114 260.628 292.114H257.479C256.785 292.114 256.399 292.561 256.399 293.318V293.75C256.399 294.522 256.785 294.939 257.479 294.939H261.184C261.277 294.939 261.338 295.016 261.338 295.109V296.791C261.338 296.899 261.277 296.961 261.184 296.961H254.623C254.531 296.961 254.469 296.899 254.469 296.791V285.553ZM263.167 285.553C263.167 285.445 263.229 285.383 263.322 285.383H269.882C269.975 285.383 270.037 285.445 270.037 285.553V287.236C270.037 287.328 269.975 287.405 269.882 287.405H266.178C265.483 287.405 265.097 287.822 265.097 288.594V288.934C265.097 289.69 265.483 290.122 266.178 290.122H269.327C269.419 290.122 269.481 290.184 269.481 290.292V291.959C269.481 292.052 269.419 292.114 269.327 292.114H266.178C265.483 292.114 265.097 292.561 265.097 293.318V293.75C265.097 294.522 265.483 294.939 266.178 294.939H269.882C269.975 294.939 270.037 295.016 270.037 295.109V296.791C270.037 296.899 269.975 296.961 269.882 296.961H263.322C263.229 296.961 263.167 296.899 263.167 296.791V285.553ZM271.866 285.538C271.866 285.445 271.927 285.383 272.02 285.383H276.188C278.102 285.383 279.708 286.587 279.708 288.918C279.708 290.107 279.183 291.28 278.025 291.867C276.929 292.407 276.605 292.546 277.191 293.225L278.071 294.29L280.171 296.776C280.248 296.868 280.202 296.961 280.078 296.961H277.778C277.701 296.961 277.639 296.93 277.593 296.868L275.169 293.889C274.536 293.102 273.842 293.349 273.842 294.352V296.807C273.842 296.899 273.78 296.961 273.687 296.961H272.02C271.927 296.961 271.866 296.899 271.866 296.807V285.538ZM275.879 290.447C276.975 290.447 277.701 289.922 277.701 288.918C277.701 287.93 276.975 287.436 275.895 287.436H274.613C274.119 287.436 273.842 287.714 273.842 288.208V289.675C273.842 290.169 274.119 290.447 274.613 290.447H275.879Z" fill="#FFFF77"/>
<path d="M236.421 89.2131C237.817 87.6932 240.456 88.0758 241.484 89.8331C242.341 91.1369 242.37 93.3194 242.345 95.5514C242.387 97.826 242.26 100.696 240.878 101.808C238.182 104.104 235.142 101.546 235.17 98.3007C235.177 95.6223 234.603 91.3389 236.343 89.2946L236.421 89.2131Z" fill="white"/>
<path d="M89.1472 104.704C86.8442 107.032 87.521 110.876 86.0187 113.629C84.3854 116.973 80.7361 117.21 80.0913 121.703C79.6059 126.847 79.9779 133.774 79.8964 138.542C79.7476 143.758 81.4447 144.689 86.4155 144.565C90.5325 144.583 96.8709 144.583 101.307 144.565C109.899 145.054 107.178 139.244 113.558 137.749C116.598 137.051 121.481 137.699 124.57 137.037C127.741 136.548 129.428 133.919 131.546 131.882C133.456 129.862 135.61 128.909 136.336 125.242C137.183 121.026 135.745 115.644 138.044 111.921C139.674 109.703 141.871 108.098 143.901 106.195C146.99 103.517 149.428 100.215 152.645 97.657C155.66 94.7837 157.938 91.0919 161.754 89.1965C164.358 87.9812 167.982 88.3639 170.484 86.7058C173.442 85.069 172.985 80.7537 176.9 81.0229C185.634 80.9875 210.654 81.0052 225.496 81.0017C228.632 81.1221 233.039 80.658 234.152 81.7138C236.104 83.2656 234.903 85.7634 232.104 87.1345C228.458 89.0654 220.075 87.4002 216.575 88.9591C215.324 89.5649 215.193 91.0034 215.175 92.3497C215.168 105.094 215.161 152.356 215.179 163.038C214.895 165.834 216.933 166.085 219.243 166.11C224.192 166.206 230.194 166.153 235.363 166.145C240.125 166.255 244.951 164.268 239.849 159.531C232.32 152.133 244.114 154.748 242.949 141.905C243.158 136.704 242.906 132.045 238.57 128.75C238.07 128.183 237.56 127.623 237.592 126.861C237.574 125.526 239.884 123.868 241.245 121.795C244.125 117.756 242.215 112.172 243.455 107.701C245.67 99.6977 250.924 106.996 254.045 110.05C256.146 112.566 258.924 114.376 260.993 116.906C262.435 118.564 263.874 120.066 265.532 121.547C268.345 124.991 276.047 123.301 277.663 126.925C276.636 131.099 267.519 130.238 263.906 129.993C259.976 129.625 257.776 126.656 254.301 125.614C252.855 125.345 251.65 126.436 251.994 127.634C252.313 128.693 253.184 129.437 253.897 130.287C256.377 132.874 258.014 135.439 261.897 136.746C264.083 137.373 266.662 137.49 268.692 138.433C271.753 139.775 271.381 141.883 268.239 143.194C261.263 145.267 259.328 145.132 254.531 150.89C249.975 155.602 251.597 156.456 255.084 160.473C255.799 161.384 256.239 162.096 255.98 163.084C255.537 164.852 252.547 167.056 251.789 168.859C250.729 173.196 258.021 173.32 261.068 173.338C264.944 173.075 269.408 174.167 271.845 176.888C273.766 178.804 278.28 182.043 277.684 184.81C277.323 185.83 276.196 186.574 275.109 186.337C273.302 185.979 271.059 182.939 269.124 182.085C267.374 181.391 265.829 183.29 264.483 184.377C260.848 188.19 259.303 185.763 256.345 183.173C254.205 181.433 247.448 172.275 244.603 174.638C243.094 175.871 243.066 178.223 242.959 180.151C242.906 185.741 242.931 195.056 242.938 200.647C242.874 202.634 243.317 205.189 244.444 206.266C247.689 209.539 251.332 210.953 246.347 215.587C244.352 218.368 236.401 223.456 237.213 226.857C237.79 228.196 238.998 229.21 239.912 230.343C240.54 231.063 241.106 231.757 241.379 232.416C242.198 234.184 240.185 236.186 238.41 235.36C237.259 234.861 236.164 233.723 235.136 232.873C232.015 229.39 227.576 230.304 224.437 228.568C221.273 225.468 222.782 220.296 222.41 216.165C222.846 212.083 221.067 204.062 224.458 201.936C227.569 200.189 234.105 201.961 235.197 197.327C235.937 192.686 236.352 186.677 234.24 182.439C230.463 176.278 225.209 171.644 217.294 173.926C215.345 174.553 215.161 176.08 215.165 178.981C215.147 188.097 215.186 209.872 215.143 217.943C215.172 220.175 214.569 221.925 212.022 222.216C208.461 222.818 202.272 221.812 201.166 226.574C200.334 229.312 201.046 232.806 198.962 235.07C196.737 237.309 192.181 237.213 189.304 235.828C183.504 233.061 192.305 229.213 192.071 225.904C190.597 222.17 186.693 219.736 183.972 216.898C182.565 215.07 179.993 213.387 179.766 210.999C180.351 208.253 184.139 208.225 186.48 208.15C192.702 207.931 199.908 208.565 205.294 207.796C209.216 206.776 207.519 200.554 207.912 197.008C207.738 192.732 208.436 186.078 207.271 182.698C205.308 178.808 193.779 181.49 189.595 180.193C183.735 179.144 187.387 167.308 185.655 162.996C184.929 160.03 182.739 159.407 180.744 157.784C179.2 156.367 178.983 154.046 178.937 151.984C178.874 147.453 178.966 140.604 178.884 136.367C179.437 129.986 173.099 129.147 168.496 131.457C165.814 132.881 165.081 135.272 162.041 136.498C159.408 137.706 156.039 137.09 153.449 138.192C148.723 139.612 152.765 158.691 150.377 163.474C148.893 166.723 145.158 165.904 144.259 169.058C143.281 177.727 144.212 194.468 143.855 202.942C143.805 204.189 143.621 205.511 142.937 206.411C141.233 208.416 138.444 208.434 137.442 211.321C136.049 215.006 136.928 220.49 136.531 224.466C136.563 227.913 134.519 229.688 131.181 229.638C128.131 229.865 123.61 229.553 120.485 229.925C111.326 231.254 115.121 240.388 105.456 230.163C101.732 227.282 100.456 220.696 103.5 217.256C105.286 215.24 107.167 217.458 108.825 219.236C111.936 223.098 116.503 222.499 121.534 222.535C124.85 222.347 129.895 223.318 129.378 218.425C129.279 208.239 129.668 181.497 129.219 169.09C128.829 167.021 127.064 166.726 125.392 165.38C123.642 164.076 122.359 162.277 120.698 160.863C117.64 158.128 106.161 158.319 103.309 160.668C101.388 162.273 99.7939 164.225 98.0614 166.092C95.4998 169.114 92.2438 171.439 89.4909 174.269C85.9018 177.784 87.6273 184.25 86.9116 188.82C86.7202 190.939 85.629 192.781 83.4004 193.284C76.9912 194.053 74.5146 194.517 70.1107 199.708C67.3507 203.148 63.712 205.653 60.9308 209.075C56.7429 212.785 63.0459 215.537 63.8148 219.109C63.6376 221.334 60.3391 223.927 58.688 225.621C57.2815 226.556 56.13 228.781 54.2912 228.388C50.6206 225.298 52.7925 217.925 51.8146 213.564C50.6702 207.226 47.8961 208.728 44.2113 212.335C43.0351 213.355 41.9509 214.152 40.9128 213.95C39.6905 213.759 38.6984 212.444 39.0279 211.226C40.144 208.657 42.6843 206.574 44.5267 204.625C45.8553 203.321 47.5347 202.035 49.7987 201.433C51.9634 200.859 54.4471 200.423 56.2575 199.081C61.3453 195.197 63.9317 189.589 70.8795 188.105C78.3127 187.307 80.0452 186.854 79.8645 178.822C79.8291 175.304 80.1019 172.133 79.1099 169.472C77.969 166.546 75.5775 166.262 74.0682 163.701C72.5553 161.37 72.7927 157.936 71.7723 155.474C70.3268 152.236 67.6164 150.287 65.03 147.896C62.4294 145.625 59.9033 142.503 57.7527 140.115C56.7996 138.999 55.9068 138.224 54.2983 137.802C48.1831 136.714 40.6188 138.046 34.415 137.058C28.3919 135.492 31.2865 130.638 35.7967 130.415C40.3849 129.387 49.6002 132.201 51.4816 126.922C52.3461 124.346 51.843 120.867 53.9227 118.837C56.7819 115.8 63.262 118.39 64.8032 113.721C66.681 108.927 62.9503 97.9085 68.6226 96.0166C71.4995 94.7695 81.4695 95.9316 77.8415 100.718C76.5518 102.667 73.2143 104.647 74.2418 107.149C74.9787 108.537 76.5837 108.814 77.8592 107.882C83.5032 104.3 86.3837 96.4063 93.5901 95.6552C96.8816 95.0423 103.493 97.9971 98.7948 101.182C96.049 103.102 91.6663 102.213 89.2181 104.637L89.1401 104.715L89.1472 104.704ZM234.499 208.583C233.461 207.885 230.396 207.789 229.563 208.891C229.057 209.592 229.135 211.144 229.145 212.547C229.174 213.217 229.198 213.961 229.563 214.51C230.424 215.676 233.702 215.456 234.499 214.751C235.158 214.099 235.09 213.114 235.133 212.214C235.112 211.123 235.282 209.323 234.573 208.654L234.499 208.586V208.583Z" fill="white"/>
<path d="M257.516 152.505C258.667 151.488 261.895 151.357 263.078 152.413C264.212 153.813 264.254 156.877 263.152 158.27C261.785 159.357 258.741 159.41 257.438 158.131C256.371 156.757 256.371 153.919 257.438 152.583L257.516 152.505Z" fill="white"/>
</svg>
