<svg width="309" height="302" viewBox="0 0 309 302" fill="none" xmlns="http://www.w3.org/2000/svg">
<path d="M87.9973 15.76C87.9973 18.18 86.8773 19.94 84.3373 20.14C83.8173 20.18 82.4373 20.18 81.9173 20.06C81.7973 20.04 81.7373 19.98 81.7373 19.84V17.66C81.7373 17.54 81.8173 17.48 81.9373 17.48C82.3573 17.5 83.1973 17.56 83.6173 17.54C85.0773 17.5 85.4373 16.94 85.4373 15.52V5.2C85.4373 5.08 85.5173 5 85.6373 5H87.7973C87.9173 5 87.9973 5.08 87.9973 5.2V15.76ZM96.0461 20.22C92.8661 20.22 90.5061 17.88 90.5061 13.76V5.2C90.5061 5.08 90.5861 5 90.7061 5H92.8661C92.9861 5 93.0661 5.08 93.0661 5.2V13.66C93.0661 16.34 94.2861 17.56 96.0461 17.56C97.8061 17.56 99.0061 16.34 99.0061 13.66V5.2C99.0061 5.08 99.0861 5 99.2061 5H101.386C101.506 5 101.586 5.08 101.586 5.2V13.76C101.586 17.88 99.2061 20.22 96.0461 20.22ZM104.22 5.2C104.22 5.08 104.3 5 104.42 5H107.58C107.68 5 107.78 5.04 107.82 5.16L111.2 14.34C111.52 15.22 112.2 15.22 112.52 14.34L115.9 5.16C115.94 5.04 116.04 5 116.14 5H119.3C119.42 5 119.5 5.08 119.5 5.2V19.8C119.5 19.92 119.42 20 119.3 20H117.12C117 20 116.92 19.92 116.92 19.8V12.26C116.92 11.3 116.12 11.16 115.78 12.06L112.98 19.66C112.94 19.78 112.86 19.82 112.76 19.82H110.96C110.86 19.82 110.78 19.78 110.74 19.66L107.92 12.04C107.58 11.14 106.78 11.3 106.78 12.26V19.8C106.78 19.92 106.7 20 106.58 20H104.42C104.3 20 104.22 19.92 104.22 19.8V5.2ZM122.306 5.2C122.306 5.08 122.386 5 122.506 5H127.906C130.386 5 132.466 6.64 132.466 9.72C132.466 12.8 130.386 14.48 127.906 14.48H125.866C125.226 14.48 124.866 14.84 124.866 15.48V19.8C124.866 19.92 124.786 20 124.666 20H122.506C122.386 20 122.306 19.92 122.306 19.8V5.2ZM127.506 11.82C128.926 11.82 129.866 11.08 129.866 9.72C129.866 8.38 128.926 7.66 127.526 7.66H125.866C125.226 7.66 124.866 8.02 124.866 8.66V10.82C124.866 11.46 125.226 11.82 125.866 11.82H127.506ZM134.4 5.22C134.4 5.08 134.48 5 134.6 5H136.76C136.88 5 136.96 5.08 136.96 5.22V19.78C136.96 19.92 136.88 20 136.76 20H134.6C134.48 20 134.4 19.92 134.4 19.78V5.22ZM139.923 5.2C139.923 5.08 140.003 5 140.123 5H141.943C142.043 5 142.123 5.02 142.183 5.12L147.903 13.38C148.443 14.18 149.123 14.14 149.123 13.18V5.2C149.123 5.08 149.203 5 149.323 5H151.503C151.623 5 151.703 5.08 151.703 5.2V19.8C151.703 19.92 151.623 20 151.503 20H149.683C149.583 20 149.503 19.98 149.443 19.88C147.523 17.08 145.603 14.4 143.683 11.58C143.143 10.78 142.483 10.86 142.483 11.82V19.8C142.483 19.92 142.403 20 142.283 20H140.123C140.003 20 139.923 19.92 139.923 19.8V5.2ZM161.134 20.22C156.794 20.22 153.834 16.96 153.834 12.5C153.834 8.08 156.854 4.78 160.914 4.78C164.154 4.78 166.514 6.7 167.334 9.6C167.374 9.78 167.294 9.86 167.154 9.86H164.714C164.614 9.86 164.534 9.82 164.474 9.7C163.874 8.42 162.674 7.48 160.914 7.48C158.374 7.48 156.454 9.6 156.454 12.5C156.454 15.48 158.314 17.56 161.134 17.56C162.634 17.56 163.814 17.04 164.494 15.92C164.894 15.24 164.474 14.7 163.714 14.7H159.674C159.554 14.7 159.474 14.6 159.474 14.48V12.42C159.474 12.28 159.554 12.2 159.674 12.2H166.794C167.654 12.2 167.854 12.7 167.794 13.42C167.614 17.24 164.994 20.22 161.134 20.22ZM174.611 5.22C174.611 5.08 174.691 5 174.811 5H183.171C183.291 5 183.371 5.08 183.371 5.22V7.4C183.371 7.52 183.291 7.62 183.171 7.62H178.551C177.651 7.62 177.151 8.16 177.151 9.16V9.84C177.151 10.84 177.651 11.38 178.551 11.38H182.431C182.551 11.38 182.631 11.46 182.631 11.6V13.72C182.631 13.86 182.551 13.96 182.431 13.96H178.551C177.651 13.96 177.151 14.5 177.151 15.5V20H174.811C174.691 20 174.611 19.92 174.611 19.78V5.22ZM185.627 5.2C185.627 5.08 185.707 5 185.827 5H191.227C193.707 5 195.787 6.56 195.787 9.58C195.787 11.12 195.107 12.64 193.607 13.4C192.187 14.1 191.767 14.28 192.527 15.16L193.667 16.54L196.387 19.76C196.487 19.88 196.427 20 196.267 20H193.287C193.187 20 193.107 19.96 193.047 19.88L189.907 16.02C189.087 15 188.187 15.32 188.187 16.62V19.8C188.187 19.92 188.107 20 187.987 20H185.827C185.707 20 185.627 19.92 185.627 19.8V5.2ZM190.827 11.56C192.247 11.56 193.187 10.88 193.187 9.58C193.187 8.3 192.247 7.66 190.847 7.66H189.187C188.547 7.66 188.187 8.02 188.187 8.66V10.56C188.187 11.2 188.547 11.56 189.187 11.56H190.827ZM204.506 20.22C200.506 20.22 197.486 16.92 197.486 12.48C197.486 8.06 200.506 4.78 204.506 4.78C208.486 4.78 211.506 8.06 211.506 12.48C211.506 16.92 208.486 20.22 204.506 20.22ZM204.506 17.52C206.966 17.52 208.906 15.4 208.906 12.48C208.906 9.62 206.966 7.46 204.506 7.46C202.026 7.46 200.106 9.62 200.106 12.48C200.106 15.4 202.026 17.52 204.506 17.52ZM220.294 20.22C215.954 20.22 212.994 16.96 212.994 12.5C212.994 8.08 216.014 4.78 220.074 4.78C223.314 4.78 225.674 6.7 226.494 9.6C226.534 9.78 226.454 9.86 226.314 9.86H223.874C223.774 9.86 223.694 9.82 223.634 9.7C223.034 8.42 221.834 7.48 220.074 7.48C217.534 7.48 215.614 9.6 215.614 12.5C215.614 15.48 217.474 17.56 220.294 17.56C221.794 17.56 222.974 17.04 223.654 15.92C224.054 15.24 223.634 14.7 222.874 14.7H218.834C218.714 14.7 218.634 14.6 218.634 14.48V12.42C218.634 12.28 218.714 12.2 218.834 12.2H225.954C226.814 12.2 227.014 12.7 226.954 13.42C226.774 17.24 224.154 20.22 220.294 20.22Z" fill="#FFFF77"/>
<rect y="3.34375" width="19.2962" height="19.2962" fill="#6D6C69"/>
<rect y="281.961" width="19.2962" height="19.2962" fill="#6D6C69"/>
<rect x="288.94" y="3.34375" width="19.2962" height="19.2962" fill="#6D6C69"/>
<rect x="288.94" y="281.961" width="19.2962" height="19.2962" fill="#FFFF77"/>
<path d="M228.715 297.131C225.627 297.131 223.312 294.584 223.312 291.172C223.312 287.745 225.627 285.213 228.715 285.213C231.216 285.213 233.053 286.742 233.593 289.026C233.624 289.134 233.577 289.196 233.469 289.196H231.725C231.648 289.196 231.586 289.165 231.54 289.088C231.077 288.054 230.15 287.282 228.715 287.282C226.801 287.282 225.334 288.949 225.334 291.172C225.334 293.395 226.801 295.047 228.715 295.047C230.15 295.047 231.077 294.259 231.54 293.241C231.586 293.163 231.648 293.133 231.725 293.133H233.469C233.577 293.133 233.624 293.194 233.608 293.287C233.053 295.572 231.216 297.131 228.715 297.131ZM237.349 285.507C237.38 285.414 237.457 285.383 237.534 285.383H239.68C239.757 285.383 239.834 285.414 239.865 285.507L243.57 296.76C243.601 296.899 243.554 296.961 243.446 296.961H241.671C241.594 296.961 241.517 296.93 241.486 296.837L241.254 296.112C240.899 295 240.205 294.476 239.14 294.476H238.059C236.994 294.476 236.299 295 235.944 296.112L235.713 296.837C235.682 296.93 235.604 296.961 235.527 296.961H233.767C233.659 296.961 233.613 296.899 233.644 296.76L237.349 285.507ZM239.278 292.577C239.834 292.577 240.081 292.175 239.896 291.589L239.093 289.042C238.862 288.301 238.321 288.301 238.09 289.042L237.303 291.589C237.117 292.175 237.364 292.577 237.92 292.577H239.278ZM244.806 285.538C244.806 285.445 244.868 285.383 244.96 285.383H249.128C251.042 285.383 252.648 286.587 252.648 288.918C252.648 290.107 252.123 291.28 250.965 291.867C249.869 292.407 249.545 292.546 250.132 293.225L251.011 294.29L253.111 296.776C253.188 296.868 253.142 296.961 253.018 296.961H250.718C250.641 296.961 250.579 296.93 250.533 296.868L248.109 293.889C247.476 293.102 246.782 293.349 246.782 294.352V296.807C246.782 296.899 246.72 296.961 246.627 296.961H244.96C244.868 296.961 244.806 296.899 244.806 296.807V285.538ZM248.819 290.447C249.915 290.447 250.641 289.922 250.641 288.918C250.641 287.93 249.915 287.436 248.835 287.436H247.554C247.06 287.436 246.782 287.714 246.782 288.208V289.675C246.782 290.169 247.06 290.447 247.554 290.447H248.819ZM254.469 285.553C254.469 285.445 254.531 285.383 254.623 285.383H261.184C261.277 285.383 261.338 285.445 261.338 285.553V287.236C261.338 287.328 261.277 287.405 261.184 287.405H257.479C256.785 287.405 256.399 287.822 256.399 288.594V288.934C256.399 289.69 256.785 290.122 257.479 290.122H260.628C260.721 290.122 260.783 290.184 260.783 290.292V291.959C260.783 292.052 260.721 292.114 260.628 292.114H257.479C256.785 292.114 256.399 292.561 256.399 293.318V293.75C256.399 294.522 256.785 294.939 257.479 294.939H261.184C261.277 294.939 261.338 295.016 261.338 295.109V296.791C261.338 296.899 261.277 296.961 261.184 296.961H254.623C254.531 296.961 254.469 296.899 254.469 296.791V285.553ZM263.167 285.553C263.167 285.445 263.229 285.383 263.322 285.383H269.882C269.975 285.383 270.037 285.445 270.037 285.553V287.236C270.037 287.328 269.975 287.405 269.882 287.405H266.178C265.483 287.405 265.097 287.822 265.097 288.594V288.934C265.097 289.69 265.483 290.122 266.178 290.122H269.327C269.419 290.122 269.481 290.184 269.481 290.292V291.959C269.481 292.052 269.419 292.114 269.327 292.114H266.178C265.483 292.114 265.097 292.561 265.097 293.318V293.75C265.097 294.522 265.483 294.939 266.178 294.939H269.882C269.975 294.939 270.037 295.016 270.037 295.109V296.791C270.037 296.899 269.975 296.961 269.882 296.961H263.322C263.229 296.961 263.167 296.899 263.167 296.791V285.553ZM271.866 285.538C271.866 285.445 271.927 285.383 272.02 285.383H276.188C278.102 285.383 279.708 286.587 279.708 288.918C279.708 290.107 279.183 291.28 278.025 291.867C276.929 292.407 276.605 292.546 277.191 293.225L278.071 294.29L280.171 296.776C280.248 296.868 280.202 296.961 280.078 296.961H277.778C277.701 296.961 277.639 296.93 277.593 296.868L275.169 293.889C274.536 293.102 273.842 293.349 273.842 294.352V296.807C273.842 296.899 273.78 296.961 273.687 296.961H272.02C271.927 296.961 271.866 296.899 271.866 296.807V285.538ZM275.879 290.447C276.975 290.447 277.701 289.922 277.701 288.918C277.701 287.93 276.975 287.436 275.895 287.436H274.613C274.119 287.436 273.842 287.714 273.842 288.208V289.675C273.842 290.169 274.119 290.447 274.613 290.447H275.879Z" fill="#FFFF77"/>
<path d="M103.408 150.944C106.695 146.978 104.779 137.287 105.261 132.002C105.616 122.891 104.274 124.102 99.6612 117.839C97.3089 113.072 100.465 106.547 92.3714 107.114C88.3688 107.058 82.2601 107.144 78.4774 107.062C76.2399 107.088 73.8384 106.478 73.3856 104.336C72.7426 101.967 72.7623 99.0733 73.7892 96.7768C74.9735 94.0867 77.2011 93.4961 78.4905 90.9963C79.9603 88.5226 79.1893 84.904 81.4924 82.8831C83.4313 81.1771 87.0008 81.702 89.3465 80.2323C91.2428 79.212 92.1778 77.3092 93.9559 76.1708C97.1612 73.9793 102.532 74.6682 105.16 77.8079C109.664 82.1777 111.321 83.4178 112.591 89.9431C114.992 95.0315 120.33 97.8693 123.762 102.279C127.354 105.303 130.389 109.106 133.555 112.472C134.719 113.472 136.639 113.715 138.243 113.761C142.692 113.915 148.787 113.594 153.118 113.938C158.305 114.388 157.494 120.053 163.701 120.332C169.016 120.887 172.058 116.29 175.309 112.862C177.405 110.657 179.797 108.837 181.726 106.471C182.438 105.625 183.389 104.772 183.327 103.607C182.881 101.038 179.131 99.5424 179.009 96.9113C179.564 94.4114 182.53 93.5486 183.566 91.216C186.368 83.3621 181.359 78.7428 189.856 72.6375C194.108 69.5241 195.423 63.6845 200.761 61.8998C204.908 60.3349 209.301 63.0087 211.607 65.9449C213.379 67.8575 215.452 69.1304 216.404 72.2471C217.135 76.2397 217.381 80.2618 221.597 82.0039C223.211 82.9159 223.595 84.8089 223.569 86.6362C223.592 93.506 223.592 108.41 223.569 115.28C223.559 116.012 223.51 116.691 223.378 117.36C222.972 119.453 221.472 119.912 220.022 121.067C217.532 122.799 216.896 125.115 220.17 126.375C222.873 127.428 226.571 127.428 228.739 126.129C230.452 124.748 230.163 122.917 230.281 119.725C230.297 115.851 230.265 110.454 230.291 106.566C230.025 101.262 231.853 100.313 236.787 100.415C241.065 100.668 245.901 99.5031 249.027 102.21C250.635 104.595 247.206 106.396 245.077 106.78C242.279 107.278 238.965 107.236 237.833 110.385C236.734 113.052 236.78 117.101 238.591 118.872C241.324 121.451 249.093 120.854 250.028 116.235C250.546 114.056 250.566 111.002 251.993 109.217C253.135 107.416 254.985 108.131 255.421 110.051C256.393 113.964 255.815 121.513 255.956 126.254C256.137 128.711 255.287 133.714 253.223 132.819C251.419 131.959 250.376 129.882 248.565 128.783C246.121 126.52 238.811 127.038 238.014 129.964C237.735 132.038 241.285 134.784 242.899 136.522C244.116 137.608 245.34 138.766 247.019 139.557C249.057 140.525 251.619 140.732 253.555 141.939C255.878 143.491 253.489 145.019 251.96 147.755C250.579 150.029 250.477 152.795 249.841 155.327C248.926 158.447 246.921 159.743 245.192 161.584C243.709 163.024 242.354 164.809 239.71 165.625C237.174 166.373 233.549 166.472 231.679 164.379C229.608 162.171 230.055 155.124 232.935 153.913C235.53 153.461 237.545 157.496 239.648 158.159C245.146 159.235 244.362 145.308 242.344 143.097C240.852 141.056 238.391 140.63 235.258 140.541C229.415 140.495 223.3 140.597 217.48 140.574C214.081 140.423 210.387 140.987 210.239 137.116C209.872 124.679 210.682 97.0065 209.944 83.4933C209.393 81.7906 206.834 81.3936 205.511 79.8944C203.677 78.6838 201.194 74.6518 198.848 75.8887C195.22 79.3203 197.785 85.9112 196.23 90.3237C195.344 93.3059 193.487 94.1424 192.313 96.7998C189.528 102.554 193.524 105.73 195.377 110.365C195.541 112.685 192.907 114.473 192.484 116.7C192.152 120.208 197.529 120.851 196.794 124.725C196.712 138.763 196.978 168.184 196.689 177.931C196.512 180.644 190.387 179.29 187.208 179.614C182.943 179.614 177.579 179.614 172.701 179.614C168.629 179.624 164.912 179.595 162.422 179.631C160.155 179.67 158.898 180.015 158.324 181.547C157.537 184.122 157.557 187.206 158.538 189.722C161.569 195.165 168.819 200.558 175.174 197.504C177.805 196.385 178.219 194.007 181.103 193.305C188.461 192.662 198.796 192.996 206.131 193.154C209.005 193.58 209.803 195.132 211.538 196.595C214.386 199.22 217.204 202.202 216.922 206.424C216.951 210.929 216.83 215.456 216.81 219.973C217.06 226.541 216.505 229.251 212.148 233.726C209.209 237.253 210.734 242.961 209.77 247.18C209.402 249.765 206.253 253.404 204.389 249.529C202.145 244.789 205.347 237.391 201.512 233.244C199.202 231.446 189.8 232.168 193.248 226.61C194.285 224.934 197.109 221.594 194.409 220.298C192.306 219.996 189.285 223.877 187.766 225.432C183.271 229.658 188.12 231.367 190.046 234.979C191.417 237.669 191.109 241.144 192.897 243.689C194.088 245.874 196.083 247.561 195.387 249.569C195.052 250.362 194.19 250.838 193.337 250.444C190.174 248.499 187.933 245.3 185.256 242.738C182.792 240.097 179.6 238.68 178.334 235.291C177.5 231.492 177.668 226.797 178.14 222.87C178.901 219.524 181.047 218.776 182.897 216.771C184.475 215.289 185.899 213.402 188.511 212.533C191.355 211.982 198.304 210.384 195.764 206.493C194.091 204.79 192.08 205.42 188.386 205.286C177.737 205.243 163.003 205.361 154.942 205.243C151.881 205.358 151.274 202.366 149.443 200.562C147.55 198.495 144.722 197.448 144.483 193.987C144.332 188.443 143.964 181.648 144.719 176.317C145.467 173.614 147.954 172.679 149.807 170.694C151.563 169.123 153.39 167.41 155.007 165.963C158.587 163.112 157.589 158.063 157.711 153.457C157.583 143.947 151.96 148.927 150.496 137.425C148.426 132.028 142.508 135.866 137.613 129.571C137.029 129.023 136.35 128.436 135.546 128.373C134.365 128.265 133.2 129.535 132.292 130.319C129.185 133.147 126.498 136.362 123.342 139.14C121.426 141.686 118.575 143.258 116.183 145.243C114.995 146.401 113.942 147.706 112.689 148.799C109.513 151.883 105.462 155.026 105.343 159.842C104.661 165.452 106.574 171.885 103.956 177.072C102.709 178.912 101.059 180.441 99.6185 182.121C98.1094 183.823 96.4821 185.88 93.4573 186.133C89.2218 186.829 83.4608 185.126 80.3474 188.636C79.2549 189.971 78.2576 191.448 76.6303 192.212C74.7012 193.528 64.8459 193.961 68.2283 197.186C70.9645 198.928 74.921 198.19 77.5752 200.076C80.0095 201.526 78.6414 204.088 76.358 204.689C72.549 205.653 66.8832 205.43 62.6379 204.945C57.6643 203.878 60.2167 195.562 59.3571 191.714C59.3243 186.901 54.1473 185.936 54.0029 182.76C54.7181 180.494 57.0081 178.912 58.491 177.114C60.8925 174.044 64.2586 172.991 68.2053 172.525C72.2505 171.832 73.4184 168.053 77.1487 166.836C81.4169 165.429 86.9679 167.568 90.3078 164.044C93.7657 158.46 80.5541 159.382 77.4603 159.858C73.0477 159.999 71.2203 167.151 68.0774 164.589C65.1247 161.239 65.935 153.523 71.1449 152.998C79.6387 152.411 88.3459 153.162 96.8627 152.949C99.11 152.89 101.744 152.644 103.345 151.026L103.418 150.951L103.408 150.944ZM72.8476 179.995C72.3686 179.559 71.6468 179.503 71.0005 179.463C69.6653 179.427 68.1364 179.394 67.4836 179.995C66.5059 180.861 66.5485 184.601 67.4114 185.5C68.3103 186.363 72.0504 186.405 72.9165 185.428C73.5169 184.772 73.484 183.243 73.448 181.908C73.4086 181.261 73.3528 180.536 72.9165 180.06L72.8509 179.995H72.8476Z" fill="white"/>
<path d="M218 233.003C219.752 231.28 223.918 231.51 226.323 231.674C229.453 231.779 230.188 233.823 230.152 236.588C230.168 241.424 230.191 248.842 230.145 253.527C230.299 257.454 227.911 257.086 224.345 257.145C221.868 257.145 218.639 257.155 216.041 257.145C213.659 257.132 211.871 256.903 210.923 256.151C209.732 255.279 210.021 253.825 211.441 252.838C214.44 250.351 220.437 253.268 222.524 249.347C223.593 246.713 223.616 242.149 222.383 240.092C221.556 238.77 220.037 238.265 218.797 237.438C217.173 236.483 216.29 234.531 217.927 233.072L218 233.003Z" fill="white"/>
</svg>
