<svg width="309" height="302" viewBox="0 0 309 302" fill="none" xmlns="http://www.w3.org/2000/svg">
<path d="M70.693 5.22C70.693 5.08 70.773 5 70.893 5H79.253C79.373 5 79.453 5.08 79.453 5.22V7.4C79.453 7.52 79.373 7.62 79.253 7.62H74.633C73.733 7.62 73.233 8.16 73.233 9.16V9.84C73.233 10.84 73.733 11.38 74.633 11.38H78.513C78.633 11.38 78.713 11.46 78.713 11.6V13.72C78.713 13.86 78.633 13.96 78.513 13.96H74.633C73.733 13.96 73.233 14.5 73.233 15.5V20H70.893C70.773 20 70.693 19.92 70.693 19.78V5.22ZM87.5022 20.22C83.5022 20.22 80.4822 16.92 80.4822 12.48C80.4822 8.06 83.5022 4.78 87.5022 4.78C91.4822 4.78 94.5022 8.06 94.5022 12.48C94.5022 16.92 91.4822 20.22 87.5022 20.22ZM87.5022 17.52C89.9622 17.52 91.9022 15.4 91.9022 12.48C91.9022 9.62 89.9622 7.46 87.5022 7.46C85.0222 7.46 83.1022 9.62 83.1022 12.48C83.1022 15.4 85.0222 17.52 87.5022 17.52ZM102.99 20.22C98.99 20.22 95.99 16.92 95.99 12.5C95.99 8.06 98.99 4.78 102.99 4.78C106.23 4.78 108.61 6.76 109.31 9.72C109.35 9.86 109.29 9.94 109.15 9.94H106.89C106.79 9.94 106.71 9.9 106.65 9.8C106.05 8.46 104.85 7.46 102.99 7.46C100.51 7.46 98.61 9.62 98.61 12.5C98.61 15.38 100.51 17.52 102.99 17.52C104.85 17.52 106.05 16.5 106.65 15.18C106.71 15.08 106.79 15.04 106.89 15.04H109.15C109.29 15.04 109.35 15.12 109.33 15.24C108.61 18.2 106.23 20.22 102.99 20.22ZM116.913 20.22C113.733 20.22 111.373 17.88 111.373 13.76V5.2C111.373 5.08 111.453 5 111.573 5H113.733C113.853 5 113.933 5.08 113.933 5.2V13.66C113.933 16.34 115.153 17.56 116.913 17.56C118.673 17.56 119.873 16.34 119.873 13.66V5.2C119.873 5.08 119.953 5 120.073 5H122.253C122.373 5 122.453 5.08 122.453 5.2V13.76C122.453 17.88 120.073 20.22 116.913 20.22ZM129.508 20.22C126.008 20.22 124.488 17.58 124.328 15.44C124.328 15.32 124.408 15.24 124.528 15.24H126.788C126.908 15.24 126.968 15.3 126.988 15.42C127.188 16.76 128.048 17.7 129.508 17.7C130.708 17.7 131.648 16.98 131.648 15.94C131.648 12.84 124.548 14.52 124.548 9.1C124.548 6.7 126.327 4.78 129.188 4.78C132.288 4.78 133.808 7.08 133.967 9.28C133.988 9.4 133.908 9.48 133.787 9.48H131.548C131.428 9.48 131.348 9.42 131.328 9.28C131.188 8.18 130.428 7.26 129.188 7.26C127.908 7.26 127.108 8.06 127.108 9.1C127.108 12.02 134.208 10.32 134.208 15.94C134.208 18.48 131.928 20.22 129.508 20.22ZM136.259 5.22C136.259 5.08 136.339 5 136.459 5H144.959C145.079 5 145.159 5.08 145.159 5.22V7.4C145.159 7.52 145.079 7.62 144.959 7.62H140.159C139.259 7.62 138.759 8.16 138.759 9.16V9.6C138.759 10.58 139.259 11.14 140.159 11.14H144.239C144.359 11.14 144.439 11.22 144.439 11.36V13.52C144.439 13.64 144.359 13.72 144.239 13.72H140.159C139.259 13.72 138.759 14.3 138.759 15.28V15.84C138.759 16.84 139.259 17.38 140.159 17.38H144.959C145.079 17.38 145.159 17.48 145.159 17.6V19.78C145.159 19.92 145.079 20 144.959 20H136.459C136.339 20 136.259 19.92 136.259 19.78V5.22ZM147.529 5.22C147.529 5.08 147.609 5 147.729 5H152.029C156.189 5 159.069 8.3 159.069 12.5C159.069 16.7 156.189 20 152.029 20H147.729C147.609 20 147.529 19.92 147.529 19.78V5.22ZM152.169 17.34C154.689 17.34 156.449 15.18 156.449 12.5C156.449 9.82 154.689 7.68 152.169 7.68H151.089C150.449 7.68 150.089 8.08 150.089 8.8V16.2C150.089 16.92 150.449 17.32 151.089 17.32L152.169 17.34ZM165.849 5.2C165.849 5.08 165.929 5 166.049 5H169.209C169.309 5 169.409 5.04 169.449 5.16L172.829 14.34C173.149 15.22 173.829 15.22 174.149 14.34L177.529 5.16C177.569 5.04 177.669 5 177.769 5H180.929C181.049 5 181.129 5.08 181.129 5.2V19.8C181.129 19.92 181.049 20 180.929 20H178.749C178.629 20 178.549 19.92 178.549 19.8V12.26C178.549 11.3 177.749 11.16 177.409 12.06L174.609 19.66C174.569 19.78 174.489 19.82 174.389 19.82H172.589C172.489 19.82 172.409 19.78 172.369 19.66L169.549 12.04C169.209 11.14 168.409 11.3 168.409 12.26V19.8C168.409 19.92 168.329 20 168.209 20H166.049C165.929 20 165.849 19.92 165.849 19.8V5.2ZM187.555 5.16C187.595 5.04 187.695 5 187.795 5H190.575C190.675 5 190.775 5.04 190.815 5.16L195.615 19.74C195.655 19.92 195.595 20 195.455 20H193.155C193.055 20 192.955 19.96 192.915 19.84L192.615 18.9C192.155 17.46 191.255 16.78 189.875 16.78H188.475C187.095 16.78 186.195 17.46 185.735 18.9L185.435 19.84C185.395 19.96 185.295 20 185.195 20H182.915C182.775 20 182.715 19.92 182.755 19.74L187.555 5.16ZM190.055 14.32C190.775 14.32 191.095 13.8 190.855 13.04L189.815 9.74C189.515 8.78 188.815 8.78 188.515 9.74L187.495 13.04C187.255 13.8 187.575 14.32 188.295 14.32H190.055ZM197.216 5.2C197.216 5.08 197.296 5 197.416 5H199.236C199.336 5 199.416 5.02 199.476 5.12L205.196 13.38C205.736 14.18 206.416 14.14 206.416 13.18V5.2C206.416 5.08 206.496 5 206.616 5H208.796C208.916 5 208.996 5.08 208.996 5.2V19.8C208.996 19.92 208.916 20 208.796 20H206.976C206.876 20 206.796 19.98 206.736 19.88C204.816 17.08 202.896 14.4 200.976 11.58C200.436 10.78 199.776 10.86 199.776 11.82V19.8C199.776 19.92 199.696 20 199.576 20H197.416C197.296 20 197.216 19.92 197.216 19.8V5.2ZM214.827 9.06C214.827 8.16 214.327 7.66 213.427 7.66H210.807C210.687 7.66 210.607 7.58 210.607 7.46V5.2C210.607 5.08 210.687 5 210.807 5H221.427C221.547 5 221.627 5.08 221.627 5.2V7.46C221.627 7.58 221.547 7.66 221.427 7.66H218.807C217.907 7.66 217.407 8.16 217.407 9.06V19.8C217.407 19.92 217.327 20 217.207 20H215.027C214.907 20 214.827 19.92 214.827 19.8V9.06ZM223.412 5.22C223.412 5.08 223.492 5 223.612 5H225.772C225.892 5 225.972 5.08 225.972 5.22V19.78C225.972 19.92 225.892 20 225.772 20H223.612C223.492 20 223.412 19.92 223.412 19.78V5.22ZM233.355 20.22C229.855 20.22 228.335 17.58 228.175 15.44C228.175 15.32 228.255 15.24 228.375 15.24H230.635C230.755 15.24 230.815 15.3 230.835 15.42C231.035 16.76 231.895 17.7 233.355 17.7C234.555 17.7 235.495 16.98 235.495 15.94C235.495 12.84 228.395 14.52 228.395 9.1C228.395 6.7 230.175 4.78 233.035 4.78C236.135 4.78 237.655 7.08 237.815 9.28C237.835 9.4 237.755 9.48 237.635 9.48H235.395C235.275 9.48 235.195 9.42 235.175 9.28C235.035 8.18 234.275 7.26 233.035 7.26C231.755 7.26 230.955 8.06 230.955 9.1C230.955 12.02 238.055 10.32 238.055 15.94C238.055 18.48 235.775 20.22 233.355 20.22Z" fill="#FFFF77"/>
<rect y="3.34375" width="19.2962" height="19.2962" fill="#6D6C69"/>
<rect y="281.961" width="19.2962" height="19.2962" fill="#6D6C69"/>
<rect x="288.94" y="3.34375" width="19.2962" height="19.2962" fill="#6D6C69"/>
<rect x="288.94" y="281.961" width="19.2962" height="19.2962" fill="#FFFF77"/>
<path d="M228.715 297.131C225.627 297.131 223.312 294.584 223.312 291.172C223.312 287.745 225.627 285.213 228.715 285.213C231.216 285.213 233.053 286.742 233.593 289.026C233.624 289.134 233.577 289.196 233.469 289.196H231.725C231.648 289.196 231.586 289.165 231.54 289.088C231.077 288.054 230.15 287.282 228.715 287.282C226.801 287.282 225.334 288.949 225.334 291.172C225.334 293.395 226.801 295.047 228.715 295.047C230.15 295.047 231.077 294.259 231.54 293.241C231.586 293.163 231.648 293.133 231.725 293.133H233.469C233.577 293.133 233.624 293.194 233.608 293.287C233.053 295.572 231.216 297.131 228.715 297.131ZM237.349 285.507C237.38 285.414 237.457 285.383 237.534 285.383H239.68C239.757 285.383 239.834 285.414 239.865 285.507L243.57 296.76C243.601 296.899 243.554 296.961 243.446 296.961H241.671C241.594 296.961 241.517 296.93 241.486 296.837L241.254 296.112C240.899 295 240.205 294.476 239.14 294.476H238.059C236.994 294.476 236.299 295 235.944 296.112L235.713 296.837C235.682 296.93 235.604 296.961 235.527 296.961H233.767C233.659 296.961 233.613 296.899 233.644 296.76L237.349 285.507ZM239.278 292.577C239.834 292.577 240.081 292.175 239.896 291.589L239.093 289.042C238.862 288.301 238.321 288.301 238.09 289.042L237.303 291.589C237.117 292.175 237.364 292.577 237.92 292.577H239.278ZM244.806 285.538C244.806 285.445 244.868 285.383 244.96 285.383H249.128C251.042 285.383 252.648 286.587 252.648 288.918C252.648 290.107 252.123 291.28 250.965 291.867C249.869 292.407 249.545 292.546 250.132 293.225L251.011 294.29L253.111 296.776C253.188 296.868 253.142 296.961 253.018 296.961H250.718C250.641 296.961 250.579 296.93 250.533 296.868L248.109 293.889C247.476 293.102 246.782 293.349 246.782 294.352V296.807C246.782 296.899 246.72 296.961 246.627 296.961H244.96C244.868 296.961 244.806 296.899 244.806 296.807V285.538ZM248.819 290.447C249.915 290.447 250.641 289.922 250.641 288.918C250.641 287.93 249.915 287.436 248.835 287.436H247.554C247.06 287.436 246.782 287.714 246.782 288.208V289.675C246.782 290.169 247.06 290.447 247.554 290.447H248.819ZM254.469 285.553C254.469 285.445 254.531 285.383 254.623 285.383H261.184C261.277 285.383 261.338 285.445 261.338 285.553V287.236C261.338 287.328 261.277 287.405 261.184 287.405H257.479C256.785 287.405 256.399 287.822 256.399 288.594V288.934C256.399 289.69 256.785 290.122 257.479 290.122H260.628C260.721 290.122 260.783 290.184 260.783 290.292V291.959C260.783 292.052 260.721 292.114 260.628 292.114H257.479C256.785 292.114 256.399 292.561 256.399 293.318V293.75C256.399 294.522 256.785 294.939 257.479 294.939H261.184C261.277 294.939 261.338 295.016 261.338 295.109V296.791C261.338 296.899 261.277 296.961 261.184 296.961H254.623C254.531 296.961 254.469 296.899 254.469 296.791V285.553ZM263.167 285.553C263.167 285.445 263.229 285.383 263.322 285.383H269.882C269.975 285.383 270.037 285.445 270.037 285.553V287.236C270.037 287.328 269.975 287.405 269.882 287.405H266.178C265.483 287.405 265.097 287.822 265.097 288.594V288.934C265.097 289.69 265.483 290.122 266.178 290.122H269.327C269.419 290.122 269.481 290.184 269.481 290.292V291.959C269.481 292.052 269.419 292.114 269.327 292.114H266.178C265.483 292.114 265.097 292.561 265.097 293.318V293.75C265.097 294.522 265.483 294.939 266.178 294.939H269.882C269.975 294.939 270.037 295.016 270.037 295.109V296.791C270.037 296.899 269.975 296.961 269.882 296.961H263.322C263.229 296.961 263.167 296.899 263.167 296.791V285.553ZM271.866 285.538C271.866 285.445 271.927 285.383 272.02 285.383H276.188C278.102 285.383 279.708 286.587 279.708 288.918C279.708 290.107 279.183 291.28 278.025 291.867C276.929 292.407 276.605 292.546 277.191 293.225L278.071 294.29L280.171 296.776C280.248 296.868 280.202 296.961 280.078 296.961H277.778C277.701 296.961 277.639 296.93 277.593 296.868L275.169 293.889C274.536 293.102 273.842 293.349 273.842 294.352V296.807C273.842 296.899 273.78 296.961 273.687 296.961H272.02C271.927 296.961 271.866 296.899 271.866 296.807V285.538ZM275.879 290.447C276.975 290.447 277.701 289.922 277.701 288.918C277.701 287.93 276.975 287.436 275.895 287.436H274.613C274.119 287.436 273.842 287.714 273.842 288.208V289.675C273.842 290.169 274.119 290.447 274.613 290.447H275.879Z" fill="#FFFF77"/>
<path d="M79.2881 71.2674C81.9107 68.6031 79.8037 63.3387 83.1052 61.1869C85.5069 59.7171 95.5619 59.3136 98.0725 61.7248C99.9779 63.6493 99.1356 67.0981 100.285 69.6086C101.143 72.0006 103.475 72.8396 105.156 74.0949C105.94 74.8186 106.001 75.9617 106.04 77.0857C106.251 87.8899 105.687 116.06 106.222 128.414C106.536 129.65 107.679 130.028 108.688 130.598C109.722 131.171 110.638 131.975 111.474 132.826C116.258 138.875 119.953 135.369 124.587 139.131C125.814 140.323 126.707 141.796 128.315 142.542C132.881 144.754 139.087 141.671 138.709 149.074C138.77 153.01 138.706 159.389 138.748 163.209C138.783 165.335 138.632 168.39 141.479 168.374C149.677 168.588 165.163 168.422 172.077 168.444C173.05 168.422 174.088 168.3 174.875 167.919C176.56 167.01 177.511 165.322 179.109 164.246C180.761 162.792 183.691 162.623 183.409 159.942C183.403 148.488 183.432 116.62 183.416 101.362C183.521 98.8478 183.182 96.7024 183.601 94.3648C183.986 93.0903 185.507 93.0038 186.967 91.9439C188.952 90.6726 190.486 88.2262 192.673 87.416C193.705 87.2591 194.62 88.034 195.456 88.7289C196.667 89.7184 197.823 90.8167 198.959 91.8606C200.721 93.26 202.088 94.0445 201.934 96.2989C201.97 107.414 201.941 136.925 201.934 146.432C201.95 147.534 201.643 148.674 200.814 149.273C197.458 150.88 196.439 153.711 196.51 157.528C196.619 161.156 196.013 164.496 198.088 167.023C199.174 167.97 200.356 166.782 202.098 165.633C203.696 164.522 205.767 163.087 207.381 162.424C208.281 161.96 208.493 161.079 208.48 160.093C208.457 148.728 208.509 109.101 208.486 90.2531C208.509 87.9796 208.284 86.8588 210.103 86.4361C212.194 86.0423 214.494 86.0006 216.63 86.3401C220.447 86.9645 221.923 90.0354 224.481 91.8959C226.409 93.2344 228.42 93.1575 228.1 96.2156C228.1 107.439 228.106 149.212 228.097 159.773C228.404 162.536 225.718 162.917 223.998 164.496C222.624 165.62 223.197 166.83 224.241 167.82C225.167 168.79 226.127 169.844 227.059 170.817C231.453 176.379 234.812 173.651 239.522 176.562C241.482 178.121 242.923 179.889 244.726 181.765C245.584 182.774 246.936 183.786 246.763 185.198C245.466 188.324 240.746 187.555 238.03 188.637C234.847 189.569 234.729 192.803 231.51 193.915C227.341 195.199 222.115 193.726 218.045 195.061C215.288 196.047 214.82 198.324 217.305 199.771C220.517 201.545 225.151 200.626 227.713 203.611C229.973 205.804 232 208.385 234.444 210.505C236.272 212.279 238.767 214.204 239.647 216.525C239.737 218.501 236.842 219.897 236.096 221.697C234.735 224.499 240.384 226.926 240.016 229.286C239.904 230.461 238.674 231.47 237.495 231.204C235.654 230.596 234.44 228.617 232.766 227.605C229.954 225.382 225.112 226.558 222.884 223.573C222.314 222.597 222.797 221.501 223.972 220.707C226.3 219.01 230.108 219.75 232.413 217.915C234.7 216.215 230.511 213.326 229.122 211.677C223.236 204.911 218.416 208.917 211.503 206.775C206.632 204.597 210.475 196.473 205.825 194.846C200.631 194.017 193.429 194.645 188.559 194.481C185.327 194.494 183.246 194.6 183.435 198.407C183.08 205.692 184.043 221.947 183.031 230.096C181.827 233.148 177.287 232.623 176.995 228.995C176.672 220.522 177.005 205.881 176.854 198.993C176.826 198.093 176.71 197.11 176.323 196.387C175.397 194.811 173.556 194.337 172.314 193.008C170.274 191.087 168.974 188.096 165.743 188.083C161.897 187.84 156.815 188.022 152.562 187.965C149.981 187.904 148.364 187.955 146.718 186.71C143.506 183.322 140.509 179.281 136.794 176.383C133.854 174.464 128.366 174.285 126.749 178.003C125.814 180.296 126.009 183.12 124.754 185.326C122.595 188.839 119.185 189.989 119.188 194.648C118.986 199.992 119.175 205.42 119.127 210.787C119.153 213.438 118.833 218.434 115.345 218.162C112.371 217.175 110.398 214.54 106.908 214.149C103.423 213.903 98.271 213.483 95.6164 215.139C93.5445 216.464 92.7792 219.301 93.3908 221.613C94.1433 224.979 97.9797 226.218 98.5561 229.427C97.5249 232.77 91.1588 233.068 88.898 230.983C86.7045 228.934 87.3962 219.241 88.232 216.839C88.9909 214.751 90.6177 213.246 91.953 211.546C93.346 209.951 94.4059 208.135 97.6882 207.706C101.127 207.245 105.149 207.662 108.518 207.341C111.375 207.082 112.284 205.9 112.486 203.047C112.774 199.614 112.294 195.602 112.909 192.134C113.626 188.208 116.594 187.914 118.093 185.051C119.143 183.062 119.108 180.734 119.127 178.496C118.231 166.113 126.409 171.477 125.663 159.494C126.044 145.661 119.915 153.304 113.315 147.403C111.797 146.083 110.337 144.373 108.97 144.722C105.822 145.901 107.471 148.331 109.53 150.313C116.188 156.769 110.369 163.494 104.006 167.087C101.851 168.678 100.119 166.44 99.8113 164.32C99.0492 160.753 100.231 155.604 98.5625 152.328C97.669 150.339 94.2971 148.949 94.2779 147.002C94.5436 144.098 99.6544 143.506 99.4719 140.255C99.3278 129.362 100.023 105.902 99.1869 94.6594C98.0565 92.1488 94.6429 92.5011 91.8249 93.0583C86.5764 94.5889 87.5403 100.17 87.457 105.076C87.473 109.079 87.6139 113.107 87.5339 117.081C87.7388 120.773 84.3765 125.276 81.9844 122.522C80.3 120.008 81.1966 114.984 80.9821 111.359C80.9981 106.703 80.9501 101.573 81.0109 98.185C81.0717 96.5551 81.2159 94.8131 82.3911 93.6539C84.21 92.1296 86.1601 90.7303 87.8669 89.0011C89.4264 87.5921 90.4768 85.6324 91.8281 84.0217C93.7335 82.0043 95.8534 80.1855 97.5954 78.0336C98.8475 76.6214 98.4312 75.3662 96.9613 73.9444C95.0976 72.0167 93.0802 69.9096 90.8514 68.4174C89.1991 67.5784 88.3248 69.2179 86.6981 70.6013C86.0128 71.2481 85.3692 71.927 84.7383 72.6219C79.9638 76.9512 82.1445 79.3081 79.6179 83.7847C75.8969 88.2454 73.5625 80.2783 75.0163 76.9128C75.6535 74.5112 77.6709 73.0926 79.2368 71.341L79.2977 71.2674H79.2881Z" fill="white"/>
<path d="M206.856 240.049C207.846 241.036 208.38 242.4 209.287 243.456C210.721 245.269 213.536 245.756 214.359 248.225C214.823 249.521 214.846 251.094 214.839 252.512C215.051 258.036 213.056 258.539 208.486 258.504C206.408 258.504 203.939 258.504 201.899 258.504C199.472 258.436 198.005 258.568 196.856 257.13C195.017 254.261 198.681 252.371 200.407 250.655C201.172 249.736 201.441 248.503 201.531 247.206C201.745 244.789 201.227 241.878 202.805 239.848C203.875 238.602 205.636 238.823 206.786 239.979L206.856 240.049Z" fill="white"/>
<path d="M194.739 230.648C195.809 229.568 196.279 228.124 197.304 227.036C199.61 225.034 202.501 225.726 206.261 225.562C208.63 225.659 211.653 225.181 213.485 226.866C214.644 228.105 215.169 229.825 216.492 230.945C217.911 232.358 219.845 232.854 220.671 235.192C221.225 236.783 221.244 238.567 221.103 240.238C220.325 246.396 217.116 245.74 214.033 241.436C213.05 240.261 211.906 239.271 210.741 238.288C208.97 236.853 207.865 234.759 206.043 233.392C204.311 232.213 201.816 232.066 199.818 232.678C197.339 233.433 196.366 235.736 194.697 237.315C193.058 239.114 190.64 240.149 190.038 243.034C189.497 245.781 190.048 250.277 186.945 251.43C182.583 252.362 182.888 244.475 183.807 241.807C184.588 239.527 186.432 238.916 187.825 237.622C189.084 236.533 190.048 234.996 191.265 233.805C192.318 232.694 193.631 231.836 194.672 230.715L194.739 230.644V230.648Z" fill="white"/>
<path d="M66.3832 182.887C65.0255 181.27 62.4157 180.489 62.009 178.218C61.8553 176.704 63.703 175.016 65.208 175.522C67.9011 176.358 68.7113 180.847 71.7919 180.559C74.6483 179.787 74.5074 176.082 77.4567 175.192C80.4283 174.353 83.8067 174.76 86.8809 174.67C89.8462 174.613 92.5008 174.987 93.8906 177.68C95.0594 179.749 97.1633 181.071 98.8637 182.74C99.4081 183.3 99.9237 183.998 99.9173 184.792C99.9429 186.115 98.441 187.549 97.1249 187.402C94.5791 186.919 93.6472 183.684 91.5337 182.42C89.004 180.866 83.701 181.369 80.0857 181.536C74.9269 181.994 74.866 185.926 74.6034 190.111C74.1775 193.368 71.462 195.478 69.4638 193.323C67.1037 190.572 68.8042 185.663 66.4473 182.967L66.3801 182.887H66.3832Z" fill="white"/>
</svg>
