<svg width="309" height="302" viewBox="0 0 309 302" fill="none" xmlns="http://www.w3.org/2000/svg">
<path d="M83.9723 20.22C80.4723 20.22 78.9523 17.58 78.7923 15.44C78.7923 15.32 78.8723 15.24 78.9923 15.24H81.2523C81.3723 15.24 81.4323 15.3 81.4523 15.42C81.6523 16.76 82.5123 17.7 83.9723 17.7C85.1723 17.7 86.1123 16.98 86.1123 15.94C86.1123 12.84 79.0123 14.52 79.0123 9.1C79.0123 6.7 80.7923 4.78 83.6523 4.78C86.7523 4.78 88.2723 7.08 88.4323 9.28C88.4523 9.4 88.3723 9.48 88.2523 9.48H86.0123C85.8923 9.48 85.8123 9.42 85.7923 9.28C85.6523 8.18 84.8923 7.26 83.6523 7.26C82.3723 7.26 81.5723 8.06 81.5723 9.1C81.5723 12.02 88.6723 10.32 88.6723 15.94C88.6723 18.48 86.3923 20.22 83.9723 20.22ZM97.0842 20.22C93.0842 20.22 90.0642 16.92 90.0642 12.48C90.0642 8.06 93.0842 4.78 97.0842 4.78C101.064 4.78 104.084 8.06 104.084 12.48C104.084 16.92 101.064 20.22 97.0842 20.22ZM97.0842 17.52C99.5442 17.52 101.484 15.4 101.484 12.48C101.484 9.62 99.5442 7.46 97.0842 7.46C94.6042 7.46 92.6842 9.62 92.6842 12.48C92.6842 15.4 94.6042 17.52 97.0842 17.52ZM108.895 5.16C108.935 5.04 109.035 5 109.135 5H111.915C112.015 5 112.115 5.04 112.155 5.16L116.955 19.74C116.995 19.92 116.935 20 116.795 20H114.495C114.395 20 114.295 19.96 114.255 19.84L113.955 18.9C113.495 17.46 112.595 16.78 111.215 16.78H109.815C108.435 16.78 107.535 17.46 107.075 18.9L106.775 19.84C106.735 19.96 106.635 20 106.535 20H104.255C104.115 20 104.055 19.92 104.095 19.74L108.895 5.16ZM111.395 14.32C112.115 14.32 112.435 13.8 112.195 13.04L111.155 9.74C110.855 8.78 110.155 8.78 109.855 9.74L108.835 13.04C108.595 13.8 108.915 14.32 109.635 14.32H111.395ZM118.556 5.2C118.556 5.08 118.636 5 118.756 5H124.156C126.636 5 128.716 6.56 128.716 9.58C128.716 11.12 128.036 12.64 126.536 13.4C125.116 14.1 124.696 14.28 125.456 15.16L126.596 16.54L129.316 19.76C129.416 19.88 129.356 20 129.196 20H126.216C126.116 20 126.036 19.96 125.976 19.88L122.836 16.02C122.016 15 121.116 15.32 121.116 16.62V19.8C121.116 19.92 121.036 20 120.916 20H118.756C118.636 20 118.556 19.92 118.556 19.8V5.2ZM123.756 11.56C125.176 11.56 126.116 10.88 126.116 9.58C126.116 8.3 125.176 7.66 123.776 7.66H122.116C121.476 7.66 121.116 8.02 121.116 8.66V10.56C121.116 11.2 121.476 11.56 122.116 11.56H123.756ZM131.236 5.22C131.236 5.08 131.316 5 131.436 5H133.596C133.716 5 133.796 5.08 133.796 5.22V19.78C133.796 19.92 133.716 20 133.596 20H131.436C131.316 20 131.236 19.92 131.236 19.78V5.22ZM136.759 5.2C136.759 5.08 136.839 5 136.959 5H138.779C138.879 5 138.959 5.02 139.019 5.12L144.739 13.38C145.279 14.18 145.959 14.14 145.959 13.18V5.2C145.959 5.08 146.039 5 146.159 5H148.339C148.459 5 148.539 5.08 148.539 5.2V19.8C148.539 19.92 148.459 20 148.339 20H146.519C146.419 20 146.339 19.98 146.279 19.88C144.359 17.08 142.439 14.4 140.519 11.58C139.979 10.78 139.319 10.86 139.319 11.82V19.8C139.319 19.92 139.239 20 139.119 20H136.959C136.839 20 136.759 19.92 136.759 19.8V5.2ZM157.97 20.22C153.63 20.22 150.67 16.96 150.67 12.5C150.67 8.08 153.69 4.78 157.75 4.78C160.99 4.78 163.35 6.7 164.17 9.6C164.21 9.78 164.13 9.86 163.99 9.86H161.55C161.45 9.86 161.37 9.82 161.31 9.7C160.71 8.42 159.51 7.48 157.75 7.48C155.21 7.48 153.29 9.6 153.29 12.5C153.29 15.48 155.15 17.56 157.97 17.56C159.47 17.56 160.65 17.04 161.33 15.92C161.73 15.24 161.31 14.7 160.55 14.7H156.51C156.39 14.7 156.31 14.6 156.31 14.48V12.42C156.31 12.28 156.39 12.2 156.51 12.2H163.63C164.49 12.2 164.69 12.7 164.63 13.42C164.45 17.24 161.83 20.22 157.97 20.22ZM171.447 5.22C171.447 5.08 171.527 5 171.647 5H180.147C180.267 5 180.347 5.08 180.347 5.22V7.4C180.347 7.52 180.267 7.62 180.147 7.62H175.347C174.447 7.62 173.947 8.16 173.947 9.16V9.6C173.947 10.58 174.447 11.14 175.347 11.14H179.427C179.547 11.14 179.627 11.22 179.627 11.36V13.52C179.627 13.64 179.547 13.72 179.427 13.72H175.347C174.447 13.72 173.947 14.3 173.947 15.28V15.84C173.947 16.84 174.447 17.38 175.347 17.38H180.147C180.267 17.38 180.347 17.48 180.347 17.6V19.78C180.347 19.92 180.267 20 180.147 20H171.647C171.527 20 171.447 19.92 171.447 19.78V5.22ZM186.336 5.16C186.376 5.04 186.476 5 186.576 5H189.356C189.456 5 189.556 5.04 189.596 5.16L194.396 19.74C194.436 19.92 194.376 20 194.236 20H191.936C191.836 20 191.736 19.96 191.696 19.84L191.396 18.9C190.936 17.46 190.036 16.78 188.656 16.78H187.256C185.876 16.78 184.976 17.46 184.516 18.9L184.216 19.84C184.176 19.96 184.076 20 183.976 20H181.696C181.556 20 181.496 19.92 181.536 19.74L186.336 5.16ZM188.836 14.32C189.556 14.32 189.876 13.8 189.636 13.04L188.596 9.74C188.296 8.78 187.596 8.78 187.296 9.74L186.276 13.04C186.036 13.8 186.356 14.32 187.076 14.32H188.836ZM201.681 20.22C197.341 20.22 194.381 16.96 194.381 12.5C194.381 8.08 197.401 4.78 201.461 4.78C204.701 4.78 207.061 6.7 207.881 9.6C207.921 9.78 207.841 9.86 207.701 9.86H205.261C205.161 9.86 205.081 9.82 205.021 9.7C204.421 8.42 203.221 7.48 201.461 7.48C198.921 7.48 197.001 9.6 197.001 12.5C197.001 15.48 198.861 17.56 201.681 17.56C203.181 17.56 204.361 17.04 205.041 15.92C205.441 15.24 205.021 14.7 204.261 14.7H200.221C200.101 14.7 200.021 14.6 200.021 14.48V12.42C200.021 12.28 200.101 12.2 200.221 12.2H207.341C208.201 12.2 208.401 12.7 208.341 13.42C208.161 17.24 205.541 20.22 201.681 20.22ZM210.509 5.22C210.509 5.08 210.589 5 210.709 5H212.869C212.989 5 213.069 5.08 213.069 5.22V15.92C213.069 16.82 213.569 17.32 214.469 17.32H219.069C219.189 17.32 219.269 17.4 219.269 17.54V19.78C219.269 19.92 219.189 20 219.069 20H210.709C210.589 20 210.509 19.92 210.509 19.78V5.22ZM220.978 5.22C220.978 5.08 221.058 5 221.178 5H229.678C229.798 5 229.878 5.08 229.878 5.22V7.4C229.878 7.52 229.798 7.62 229.678 7.62H224.878C223.978 7.62 223.478 8.16 223.478 9.16V9.6C223.478 10.58 223.978 11.14 224.878 11.14H228.958C229.078 11.14 229.158 11.22 229.158 11.36V13.52C229.158 13.64 229.078 13.72 228.958 13.72H224.878C223.978 13.72 223.478 14.3 223.478 15.28V15.84C223.478 16.84 223.978 17.38 224.878 17.38H229.678C229.798 17.38 229.878 17.48 229.878 17.6V19.78C229.878 19.92 229.798 20 229.678 20H221.178C221.058 20 220.978 19.92 220.978 19.78V5.22Z" fill="#FFFF77"/>
<rect y="3.34375" width="19.2962" height="19.2962" fill="#6D6C69"/>
<rect y="281.961" width="19.2962" height="19.2962" fill="#6D6C69"/>
<rect x="288.94" y="3.34375" width="19.2962" height="19.2962" fill="#6D6C69"/>
<rect x="288.94" y="281.961" width="19.2962" height="19.2962" fill="#FFFF77"/>
<path d="M228.715 297.131C225.627 297.131 223.312 294.584 223.312 291.172C223.312 287.745 225.627 285.213 228.715 285.213C231.216 285.213 233.053 286.742 233.593 289.026C233.624 289.134 233.577 289.196 233.469 289.196H231.725C231.648 289.196 231.586 289.165 231.54 289.088C231.077 288.054 230.15 287.282 228.715 287.282C226.801 287.282 225.334 288.949 225.334 291.172C225.334 293.395 226.801 295.047 228.715 295.047C230.15 295.047 231.077 294.259 231.54 293.241C231.586 293.163 231.648 293.133 231.725 293.133H233.469C233.577 293.133 233.624 293.194 233.608 293.287C233.053 295.572 231.216 297.131 228.715 297.131ZM237.349 285.507C237.38 285.414 237.457 285.383 237.534 285.383H239.68C239.757 285.383 239.834 285.414 239.865 285.507L243.57 296.76C243.601 296.899 243.554 296.961 243.446 296.961H241.671C241.594 296.961 241.517 296.93 241.486 296.837L241.254 296.112C240.899 295 240.205 294.476 239.14 294.476H238.059C236.994 294.476 236.299 295 235.944 296.112L235.713 296.837C235.682 296.93 235.604 296.961 235.527 296.961H233.767C233.659 296.961 233.613 296.899 233.644 296.76L237.349 285.507ZM239.278 292.577C239.834 292.577 240.081 292.175 239.896 291.589L239.093 289.042C238.862 288.301 238.321 288.301 238.09 289.042L237.303 291.589C237.117 292.175 237.364 292.577 237.92 292.577H239.278ZM244.806 285.538C244.806 285.445 244.868 285.383 244.96 285.383H249.128C251.042 285.383 252.648 286.587 252.648 288.918C252.648 290.107 252.123 291.28 250.965 291.867C249.869 292.407 249.545 292.546 250.132 293.225L251.011 294.29L253.111 296.776C253.188 296.868 253.142 296.961 253.018 296.961H250.718C250.641 296.961 250.579 296.93 250.533 296.868L248.109 293.889C247.476 293.102 246.782 293.349 246.782 294.352V296.807C246.782 296.899 246.72 296.961 246.627 296.961H244.96C244.868 296.961 244.806 296.899 244.806 296.807V285.538ZM248.819 290.447C249.915 290.447 250.641 289.922 250.641 288.918C250.641 287.93 249.915 287.436 248.835 287.436H247.554C247.06 287.436 246.782 287.714 246.782 288.208V289.675C246.782 290.169 247.06 290.447 247.554 290.447H248.819ZM254.469 285.553C254.469 285.445 254.531 285.383 254.623 285.383H261.184C261.277 285.383 261.338 285.445 261.338 285.553V287.236C261.338 287.328 261.277 287.405 261.184 287.405H257.479C256.785 287.405 256.399 287.822 256.399 288.594V288.934C256.399 289.69 256.785 290.122 257.479 290.122H260.628C260.721 290.122 260.783 290.184 260.783 290.292V291.959C260.783 292.052 260.721 292.114 260.628 292.114H257.479C256.785 292.114 256.399 292.561 256.399 293.318V293.75C256.399 294.522 256.785 294.939 257.479 294.939H261.184C261.277 294.939 261.338 295.016 261.338 295.109V296.791C261.338 296.899 261.277 296.961 261.184 296.961H254.623C254.531 296.961 254.469 296.899 254.469 296.791V285.553ZM263.167 285.553C263.167 285.445 263.229 285.383 263.322 285.383H269.882C269.975 285.383 270.037 285.445 270.037 285.553V287.236C270.037 287.328 269.975 287.405 269.882 287.405H266.178C265.483 287.405 265.097 287.822 265.097 288.594V288.934C265.097 289.69 265.483 290.122 266.178 290.122H269.327C269.419 290.122 269.481 290.184 269.481 290.292V291.959C269.481 292.052 269.419 292.114 269.327 292.114H266.178C265.483 292.114 265.097 292.561 265.097 293.318V293.75C265.097 294.522 265.483 294.939 266.178 294.939H269.882C269.975 294.939 270.037 295.016 270.037 295.109V296.791C270.037 296.899 269.975 296.961 269.882 296.961H263.322C263.229 296.961 263.167 296.899 263.167 296.791V285.553ZM271.866 285.538C271.866 285.445 271.927 285.383 272.02 285.383H276.188C278.102 285.383 279.708 286.587 279.708 288.918C279.708 290.107 279.183 291.28 278.025 291.867C276.929 292.407 276.605 292.546 277.191 293.225L278.071 294.29L280.171 296.776C280.248 296.868 280.202 296.961 280.078 296.961H277.778C277.701 296.961 277.639 296.93 277.593 296.868L275.169 293.889C274.536 293.102 273.842 293.349 273.842 294.352V296.807C273.842 296.899 273.78 296.961 273.687 296.961H272.02C271.927 296.961 271.866 296.899 271.866 296.807V285.538ZM275.879 290.447C276.975 290.447 277.701 289.922 277.701 288.918C277.701 287.93 276.975 287.436 275.895 287.436H274.613C274.119 287.436 273.842 287.714 273.842 288.208V289.675C273.842 290.169 274.119 290.447 274.613 290.447H275.879Z" fill="#FFFF77"/>
<path d="M221.945 178.438C224.143 180.866 222.755 184.902 224.132 187.635C224.939 189.404 226.739 189.954 228.192 191.022C230.022 192.2 230.932 194.628 229.195 196.245C227.247 198.361 224.61 196.613 223.5 194.353C223.026 193.542 222.607 192.687 221.955 192.004C220.725 190.661 218.833 190.074 217.607 188.724C215.591 186.385 215.488 179.881 218.277 177.947C219.396 177.174 220.87 177.329 221.872 178.366L221.948 178.445L221.945 178.438Z" fill="white"/>
<path d="M236.705 178.222C237.588 179.294 237.753 181.516 236.746 182.584C235.706 183.446 232.673 183.587 231.176 182.745C229.867 181.629 229.964 178.792 231.464 177.886C232.67 177.271 235.52 177.182 236.63 178.147L236.705 178.222Z" fill="white"/>
<path d="M118.933 230.257C116.45 232.799 108.873 232.867 108.083 228.55C108.379 226.339 110.91 225.384 112.315 223.955C114.248 221.912 113.788 219.336 113.891 216.152C114.018 211.303 113.613 205.983 114.118 201.172C114.688 197.851 117.277 197.49 119.043 195.43C122.875 190.67 112.998 189.725 110.137 190.611C106.988 191.092 106.895 194.09 106.892 196.632C106.84 201.357 106.967 208.116 106.816 212.88C106.923 216.369 103.914 219.298 101.637 216.472C99.6898 214.257 100.15 210.795 99.233 208.041C98.4259 204.833 95.1461 203.617 94.4524 200.307C93.6384 196.594 94.2257 191.59 93.975 188.149C93.8582 186.782 93.8994 185.189 92.9138 184.189C90.8806 182.829 89.0157 183.451 85.365 183.289C77.8883 183.176 68.8937 183.513 62.3546 183.142C57.6942 182.599 59.851 176.431 57.9895 173.467C56.7875 170.813 54.1636 170.267 52.9066 167.488C51.7252 164.94 51.7802 161.385 52.601 158.851C53.408 156.66 55.8568 156.629 57.8899 156.567C63.33 156.495 71.3046 156.622 76.3016 156.498C78.5718 156.474 80.0795 156.031 79.9799 153.531C80.0348 151.769 79.997 148.946 80.0073 145.457C80.1997 132.407 79.6673 115.328 80.1894 104.4C80.6667 102.329 83.0536 102.119 84.4137 100.79C86.5498 99.1109 87.7313 96.7309 90.7879 95.5769C92.8004 94.8317 95.2114 94.8832 97.1003 93.8357C100.081 92.3693 100.384 88.358 104.079 88.1348C108.949 87.6883 116.309 88.097 121.515 87.9356C123.923 87.9768 126.344 87.4101 127.793 85.4251C133.405 78.0379 133.381 85.9952 138.694 87.4994C142.125 88.3649 146.806 87.6986 150.354 88.0936C153.747 88.2172 154.715 90.3568 154.726 93.4065C155.31 97.3113 152.895 108.603 159.036 108.394C161.529 108.147 161.938 104.269 161.79 101.975C161.952 94.6531 161.454 84.2952 162.017 77.3613C162.532 74.4662 165.754 73.903 167.368 71.7737C169.298 69.8882 169.006 66.6497 172.303 67.0309C182.06 67.024 216.692 67.0309 233.73 67.0274C237.92 67.0377 241.08 67 242.728 67.0515C244.957 66.9656 244.71 68.827 244.738 70.6266C245.033 80.4556 244.102 107.837 245.132 119.775C245.606 120.823 246.661 121.18 247.646 121.64C248.821 122.148 249.91 122.997 250.545 124.164C252.668 128.11 252.221 135.398 246.482 135.473C241.681 135.817 237.673 135.494 237.783 141.538C237.889 145.756 237.031 151.11 238.889 154.479C239.847 155.98 241.296 156.33 242.498 155.324C244.377 153.85 244.669 150.262 244.988 147.844C245.521 143.908 248.993 141.147 250.964 145.952C252.31 150.08 251.373 153.782 255.336 156.831C257.373 158.566 259.134 160.534 255.518 162.158C253.664 163.082 251.098 163.14 249.092 163.776C245.064 165.146 244.679 167.237 247.87 170.109C249.281 171.637 250.816 172.959 250.518 174.374C248.876 178.509 240.524 178.389 238.827 174.226C237.721 172.063 237.817 168.776 236.718 166.657C235.636 164.232 233.229 163.841 231.786 166.623C230.059 169.374 231.326 175.676 227.057 176.225C222.28 174.882 224.052 165.73 223.712 161.688C223.62 154.087 223.499 152.511 229.455 148.277C230.454 147.387 230.749 145.165 230.715 143.458C230.739 137.812 230.708 127.87 230.729 122.148C230.729 120.095 230.876 117.756 232.693 116.567C235.87 114.576 239.514 111.34 233.641 109.421C230.911 108.775 226.659 108.377 224.55 110.403C223.702 111.533 223.781 113.13 223.719 114.562C223.688 120.218 223.729 130.813 223.699 136.634C223.716 138.293 223.417 140.422 222.438 141.301C218.894 144.094 216.61 145.364 216.727 150.77C216.696 155.42 216.686 160.084 216.661 164.734C216.627 167.935 216.833 171.372 215.92 173.656C214.044 178.389 211.372 176.119 211.053 172.19C210.157 167.56 212.557 159.802 208.031 157.058C206.042 156.124 203.728 155.815 203.868 153.112C203.817 144.774 203.862 116.774 203.844 103.325C203.662 100.426 204.335 98.4274 203.271 96.3565C202.299 95.2095 200.643 94.9313 199.486 93.9388C196.962 92.1461 195.64 89.6356 192.222 88.5194C188.225 87.0942 184.2 89.2269 181.789 92.3452C180.302 94.0006 178.351 95.3159 177.128 97.2288C174.896 100.914 175.212 108.607 180.937 108.72C186.137 108.954 188.187 110.066 191.343 113.779C193.139 115.809 195.444 116.513 196.371 119.621C196.989 122.952 197.649 132.187 194.925 134.357C194.001 135.133 192.878 134.838 191.92 134.031C189.743 132.444 189.406 129.134 186.401 128.801C178.347 128.419 161.67 128.763 153.781 128.667C151.752 128.68 149.756 128.862 149.313 131.249C148.747 133.863 149.245 138.97 147.033 141.082C145.412 142.943 143.155 142.692 142.345 143.87C141.15 156.533 142.314 207.745 141.919 221.572C141.507 226.476 146.823 223.653 148.317 228.423C149.43 231.803 148.606 236.085 149.114 239.654C149.588 244.187 152.59 244.881 153.747 248.253C153.833 251.062 149.698 251.907 147.431 251.667C143.804 251.21 141.874 248.49 139.752 246.275C138.354 244.616 135.82 242.765 136.125 241.134C136.671 239.001 139.398 237.562 140.257 235.677C140.724 234.674 139.893 233.589 138.849 233.393C137.09 233.084 135.143 234.88 133.354 236.102C130.603 237.778 125.599 246.32 122.652 242.865C120.354 240.337 120.798 236.185 122.954 233.729C124.246 232.125 125.928 230.817 126.863 228.945C128.034 226.761 127.79 223.124 129.085 221.074C131.413 217.646 134.734 217.138 134.793 212.107C134.872 208.216 135.383 202.996 134.068 199.888C132.485 196.36 129.136 198.799 128.418 201.526C127.306 205.149 128.442 210.115 127.426 213.536C126.268 217.76 122.072 218.91 121.21 223.406C120.684 225.69 120.719 228.451 118.994 230.189L118.919 230.264L118.933 230.257Z" fill="white"/>
</svg>
