<svg width="309" height="302" viewBox="0 0 309 302" fill="none" xmlns="http://www.w3.org/2000/svg">
<path d="M74.777 5.22C74.777 5.08 74.857 5 74.977 5H79.277C83.437 5 86.317 8.3 86.317 12.5C86.317 16.7 83.437 20 79.277 20H74.977C74.857 20 74.777 19.92 74.777 19.78V5.22ZM79.417 17.34C81.937 17.34 83.697 15.18 83.697 12.5C83.697 9.82 81.937 7.68 79.417 7.68H78.337C77.697 7.68 77.337 8.08 77.337 8.8V16.2C77.337 16.92 77.697 17.32 78.337 17.32L79.417 17.34ZM88.4488 5.2C88.4488 5.08 88.5288 5 88.6488 5H94.0488C96.5288 5 98.6088 6.56 98.6088 9.58C98.6088 11.12 97.9288 12.64 96.4288 13.4C95.0088 14.1 94.5888 14.28 95.3488 15.16L96.4888 16.54L99.2088 19.76C99.3088 19.88 99.2488 20 99.0888 20H96.1088C96.0088 20 95.9288 19.96 95.8688 19.88L92.7288 16.02C91.9088 15 91.0088 15.32 91.0088 16.62V19.8C91.0088 19.92 90.9288 20 90.8088 20H88.6488C88.5288 20 88.4488 19.92 88.4488 19.8V5.2ZM93.6488 11.56C95.0688 11.56 96.0088 10.88 96.0088 9.58C96.0088 8.3 95.0688 7.66 93.6688 7.66H92.0088C91.3688 7.66 91.0088 8.02 91.0088 8.66V10.56C91.0088 11.2 91.3688 11.56 92.0088 11.56H93.6488ZM101.128 5.22C101.128 5.08 101.208 5 101.328 5H103.488C103.608 5 103.688 5.08 103.688 5.22V19.78C103.688 19.92 103.608 20 103.488 20H101.328C101.208 20 101.128 19.92 101.128 19.78V5.22ZM106.652 5.22C106.652 5.08 106.732 5 106.852 5H115.212C115.332 5 115.412 5.08 115.412 5.22V7.4C115.412 7.52 115.332 7.62 115.212 7.62H110.592C109.692 7.62 109.192 8.16 109.192 9.16V9.84C109.192 10.84 109.692 11.38 110.592 11.38H114.472C114.592 11.38 114.672 11.46 114.672 11.6V13.72C114.672 13.86 114.592 13.96 114.472 13.96H110.592C109.692 13.96 109.192 14.5 109.192 15.5V20H106.852C106.732 20 106.652 19.92 106.652 19.78V5.22ZM120.708 9.06C120.708 8.16 120.208 7.66 119.308 7.66H116.688C116.568 7.66 116.488 7.58 116.488 7.46V5.2C116.488 5.08 116.568 5 116.688 5H127.308C127.428 5 127.508 5.08 127.508 5.2V7.46C127.508 7.58 127.428 7.66 127.308 7.66H124.688C123.788 7.66 123.288 8.16 123.288 9.06V19.8C123.288 19.92 123.208 20 123.088 20H120.908C120.788 20 120.708 19.92 120.708 19.8V9.06ZM129.292 5.22C129.292 5.08 129.372 5 129.492 5H131.652C131.772 5 131.852 5.08 131.852 5.22V19.78C131.852 19.92 131.772 20 131.652 20H129.492C129.372 20 129.292 19.92 129.292 19.78V5.22ZM134.816 5.2C134.816 5.08 134.896 5 135.016 5H136.836C136.936 5 137.016 5.02 137.076 5.12L142.796 13.38C143.336 14.18 144.016 14.14 144.016 13.18V5.2C144.016 5.08 144.096 5 144.216 5H146.396C146.516 5 146.596 5.08 146.596 5.2V19.8C146.596 19.92 146.516 20 146.396 20H144.576C144.476 20 144.396 19.98 144.336 19.88C142.416 17.08 140.496 14.4 138.576 11.58C138.036 10.78 137.376 10.86 137.376 11.82V19.8C137.376 19.92 137.296 20 137.176 20H135.016C134.896 20 134.816 19.92 134.816 19.8V5.2ZM156.026 20.22C151.686 20.22 148.726 16.96 148.726 12.5C148.726 8.08 151.746 4.78 155.806 4.78C159.046 4.78 161.406 6.7 162.226 9.6C162.266 9.78 162.186 9.86 162.046 9.86H159.606C159.506 9.86 159.426 9.82 159.366 9.7C158.766 8.42 157.566 7.48 155.806 7.48C153.266 7.48 151.346 9.6 151.346 12.5C151.346 15.48 153.206 17.56 156.026 17.56C157.526 17.56 158.706 17.04 159.386 15.92C159.786 15.24 159.366 14.7 158.606 14.7H154.566C154.446 14.7 154.366 14.6 154.366 14.48V12.42C154.366 12.28 154.446 12.2 154.566 12.2H161.686C162.546 12.2 162.746 12.7 162.686 13.42C162.506 17.24 159.886 20.22 156.026 20.22ZM175.844 20.22C171.844 20.22 168.844 16.92 168.844 12.5C168.844 8.06 171.844 4.78 175.844 4.78C179.084 4.78 181.464 6.76 182.164 9.72C182.204 9.86 182.144 9.94 182.004 9.94H179.744C179.644 9.94 179.564 9.9 179.504 9.8C178.904 8.46 177.704 7.46 175.844 7.46C173.364 7.46 171.464 9.62 171.464 12.5C171.464 15.38 173.364 17.52 175.844 17.52C177.704 17.52 178.904 16.5 179.504 15.18C179.564 15.08 179.644 15.04 179.744 15.04H182.004C182.144 15.04 182.204 15.12 182.184 15.24C181.464 18.2 179.084 20.22 175.844 20.22ZM184.367 5.22C184.367 5.08 184.447 5 184.567 5H186.727C186.847 5 186.927 5.08 186.927 5.22V15.92C186.927 16.82 187.427 17.32 188.327 17.32H192.927C193.047 17.32 193.127 17.4 193.127 17.54V19.78C193.127 19.92 193.047 20 192.927 20H184.567C184.447 20 184.367 19.92 184.367 19.78V5.22ZM200.629 20.22C196.629 20.22 193.609 16.92 193.609 12.48C193.609 8.06 196.629 4.78 200.629 4.78C204.609 4.78 207.629 8.06 207.629 12.48C207.629 16.92 204.609 20.22 200.629 20.22ZM200.629 17.52C203.089 17.52 205.029 15.4 205.029 12.48C205.029 9.62 203.089 7.46 200.629 7.46C198.149 7.46 196.229 9.62 196.229 12.48C196.229 15.4 198.149 17.52 200.629 17.52ZM215.177 20.22C211.997 20.22 209.637 17.88 209.637 13.76V5.2C209.637 5.08 209.717 5 209.837 5H211.997C212.117 5 212.197 5.08 212.197 5.2V13.66C212.197 16.34 213.417 17.56 215.177 17.56C216.937 17.56 218.137 16.34 218.137 13.66V5.2C218.137 5.08 218.217 5 218.337 5H220.517C220.637 5 220.717 5.08 220.717 5.2V13.76C220.717 17.88 218.337 20.22 215.177 20.22ZM223.351 5.22C223.351 5.08 223.431 5 223.551 5H227.851C232.011 5 234.891 8.3 234.891 12.5C234.891 16.7 232.011 20 227.851 20H223.551C223.431 20 223.351 19.92 223.351 19.78V5.22ZM227.991 17.34C230.511 17.34 232.271 15.18 232.271 12.5C232.271 9.82 230.511 7.68 227.991 7.68H226.911C226.271 7.68 225.911 8.08 225.911 8.8V16.2C225.911 16.92 226.271 17.32 226.911 17.32L227.991 17.34Z" fill="#FFFF77"/>
<rect y="3.34375" width="19.2962" height="19.2962" fill="#6D6C69"/>
<rect y="281.961" width="19.2962" height="19.2962" fill="#6D6C69"/>
<rect x="288.94" y="3.34375" width="19.2962" height="19.2962" fill="#6D6C69"/>
<rect x="288.94" y="281.961" width="19.2962" height="19.2962" fill="#FFFF77"/>
<path d="M231.731 293.148C231.731 292.422 231.345 292.021 230.65 292.021H227.933C227.238 292.021 226.852 292.422 226.852 293.148V296.807C226.852 296.899 226.791 296.961 226.698 296.961H225.031C224.938 296.961 224.877 296.899 224.877 296.807V285.538C224.877 285.445 224.938 285.383 225.031 285.383H226.698C226.791 285.383 226.852 285.445 226.852 285.538V288.857C226.852 289.582 227.238 289.983 227.933 289.983H230.65C231.345 289.983 231.731 289.582 231.731 288.857V285.538C231.731 285.445 231.792 285.383 231.885 285.383H233.552C233.645 285.383 233.706 285.445 233.706 285.538V296.807C233.706 296.899 233.645 296.961 233.552 296.961H231.885C231.792 296.961 231.731 296.899 231.731 296.807V293.148ZM235.866 285.553C235.866 285.445 235.928 285.383 236.021 285.383H242.581C242.674 285.383 242.736 285.445 242.736 285.553V287.236C242.736 287.328 242.674 287.405 242.581 287.405H238.876C238.182 287.405 237.796 287.822 237.796 288.594V288.934C237.796 289.69 238.182 290.122 238.876 290.122H242.026C242.118 290.122 242.18 290.184 242.18 290.292V291.959C242.18 292.052 242.118 292.114 242.026 292.114H238.876C238.182 292.114 237.796 292.561 237.796 293.318V293.75C237.796 294.522 238.182 294.939 238.876 294.939H242.581C242.674 294.939 242.736 295.016 242.736 295.109V296.791C242.736 296.899 242.674 296.961 242.581 296.961H236.021C235.928 296.961 235.866 296.899 235.866 296.791V285.553ZM247.359 285.507C247.39 285.414 247.467 285.383 247.544 285.383H249.69C249.767 285.383 249.844 285.414 249.875 285.507L253.58 296.76C253.611 296.899 253.564 296.961 253.456 296.961H251.681C251.604 296.961 251.527 296.93 251.496 296.837L251.264 296.112C250.909 295 250.215 294.476 249.149 294.476H248.069C247.004 294.476 246.309 295 245.954 296.112L245.722 296.837C245.692 296.93 245.614 296.961 245.537 296.961H243.777C243.669 296.961 243.623 296.899 243.654 296.76L247.359 285.507ZM249.288 292.577C249.844 292.577 250.091 292.175 249.906 291.589L249.103 289.042C248.872 288.301 248.331 288.301 248.1 289.042L247.312 291.589C247.127 292.175 247.374 292.577 247.93 292.577H249.288ZM254.816 285.553C254.816 285.445 254.877 285.383 254.97 285.383H256.637C256.73 285.383 256.792 285.445 256.792 285.553V293.812C256.792 294.506 257.178 294.892 257.872 294.892H261.423C261.515 294.892 261.577 294.954 261.577 295.062V296.791C261.577 296.899 261.515 296.961 261.423 296.961H254.97C254.877 296.961 254.816 296.899 254.816 296.791V285.553ZM264.036 288.517C264.036 287.822 263.65 287.436 262.956 287.436H260.934C260.841 287.436 260.779 287.375 260.779 287.282V285.538C260.779 285.445 260.841 285.383 260.934 285.383H269.131C269.223 285.383 269.285 285.445 269.285 285.538V287.282C269.285 287.375 269.223 287.436 269.131 287.436H267.108C266.414 287.436 266.028 287.822 266.028 288.517V296.807C266.028 296.899 265.966 296.961 265.873 296.961H264.191C264.098 296.961 264.036 296.899 264.036 296.807V288.517ZM277.393 293.148C277.393 292.422 277.007 292.021 276.312 292.021H273.596C272.901 292.021 272.515 292.422 272.515 293.148V296.807C272.515 296.899 272.453 296.961 272.361 296.961H270.693C270.601 296.961 270.539 296.899 270.539 296.807V285.538C270.539 285.445 270.601 285.383 270.693 285.383H272.361C272.453 285.383 272.515 285.445 272.515 285.538V288.857C272.515 289.582 272.901 289.983 273.596 289.983H276.312C277.007 289.983 277.393 289.582 277.393 288.857V285.538C277.393 285.445 277.455 285.383 277.547 285.383H279.215C279.307 285.383 279.369 285.445 279.369 285.538V296.807C279.369 296.899 279.307 296.961 279.215 296.961H277.547C277.455 296.961 277.393 296.899 277.393 296.807V293.148Z" fill="#FFFF77"/>
<path d="M196.422 114.213C197.854 115.81 201.534 116.47 202.79 118.001C206.272 122.261 203.496 129.263 204.807 133.645C206.118 138.027 216.31 137.785 219.77 136.706C223.847 135.44 223.836 130.563 226.756 128.603C230.414 126.159 243.769 126.236 248.275 126.984C255.47 128.184 254.413 132.159 258.368 135.759C262.258 139.315 264.539 142.112 267.8 145.194C272.582 149.708 275.679 147.066 275.976 156.622C276.307 167.225 273.177 164.681 267.8 169.614C263.834 173.258 258.875 181.009 255.118 185.225C253.851 186.657 251.339 189.398 249.873 190.356C241.378 195.905 220.31 190.862 209.853 192.8C206.636 193.395 204.851 196.962 200.399 197.49C191.133 198.602 176.974 195.729 168.5 197.666C160.027 199.604 169.062 211.274 157.945 212.573C147.796 213.751 135.621 212.739 127.313 206.364C123.919 203.755 123.732 199.703 119.985 197.655C109.826 196.224 97.0335 198.932 87.2159 197.391C80.6708 196.367 83.5136 189.442 79.4147 188.22C68.396 184.906 54.5125 190.444 43.0091 186.877L41.3122 185.743C41.0147 180.502 32.3651 176.165 33.0372 171.75C33.6543 167.698 37.8634 167.412 39.99 165.441C41.5546 163.988 41.8962 161.775 43.2515 160.212C48.3311 154.343 53.5099 158.593 59.0632 156.215C63.1512 154.464 61.6857 149.246 65.8507 147.914C69.4759 146.758 77.5746 148.101 80.6157 145.701C83.3042 143.587 80.7259 133.029 84.0976 128.9C85.1995 127.557 88.8797 126.698 90.1468 125.52C92.4497 123.373 92.2293 118.54 95.3807 117.076C98.8185 115.479 108.195 117.032 110.983 114.279C112.438 112.837 112.162 107.222 115.622 106.187L190.934 106C194.328 106.639 194.46 112.033 196.411 114.202L196.422 114.213Z" fill="white"/>
</svg>
