<svg width="309" height="302" viewBox="0 0 309 302" fill="none" xmlns="http://www.w3.org/2000/svg">
<path d="M104.789 20.22C100.789 20.22 97.7888 16.92 97.7888 12.5C97.7888 8.06 100.789 4.78 104.789 4.78C108.029 4.78 110.409 6.76 111.109 9.72C111.149 9.86 111.089 9.94 110.949 9.94H108.689C108.589 9.94 108.509 9.9 108.449 9.8C107.849 8.46 106.649 7.46 104.789 7.46C102.309 7.46 100.409 9.62 100.409 12.5C100.409 15.38 102.309 17.52 104.789 17.52C106.649 17.52 107.849 16.5 108.449 15.18C108.509 15.08 108.589 15.04 108.689 15.04H110.949C111.089 15.04 111.149 15.12 111.129 15.24C110.409 18.2 108.029 20.22 104.789 20.22ZM115.975 5.16C116.015 5.04 116.115 5 116.215 5H118.995C119.095 5 119.195 5.04 119.235 5.16L124.035 19.74C124.075 19.92 124.015 20 123.875 20H121.575C121.475 20 121.375 19.96 121.335 19.84L121.035 18.9C120.575 17.46 119.675 16.78 118.295 16.78H116.895C115.515 16.78 114.615 17.46 114.155 18.9L113.855 19.84C113.815 19.96 113.715 20 113.615 20H111.335C111.195 20 111.135 19.92 111.175 19.74L115.975 5.16ZM118.475 14.32C119.195 14.32 119.515 13.8 119.275 13.04L118.235 9.74C117.935 8.78 117.235 8.78 116.935 9.74L115.915 13.04C115.675 13.8 115.995 14.32 116.715 14.32H118.475ZM125.636 5.22C125.636 5.08 125.716 5 125.836 5H127.996C128.116 5 128.196 5.08 128.196 5.22V15.92C128.196 16.82 128.696 17.32 129.596 17.32H134.196C134.316 17.32 134.396 17.4 134.396 17.54V19.78C134.396 19.92 134.316 20 134.196 20H125.836C125.716 20 125.636 19.92 125.636 19.78V5.22ZM136.105 5.2C136.105 5.08 136.185 5 136.305 5H139.465C139.565 5 139.665 5.04 139.705 5.16L143.085 14.34C143.405 15.22 144.085 15.22 144.405 14.34L147.785 5.16C147.825 5.04 147.925 5 148.025 5H151.185C151.305 5 151.385 5.08 151.385 5.2V19.8C151.385 19.92 151.305 20 151.185 20H149.005C148.885 20 148.805 19.92 148.805 19.8V12.26C148.805 11.3 148.005 11.16 147.665 12.06L144.865 19.66C144.825 19.78 144.745 19.82 144.645 19.82H142.845C142.745 19.82 142.665 19.78 142.625 19.66L139.805 12.04C139.465 11.14 138.665 11.3 138.665 12.26V19.8C138.665 19.92 138.585 20 138.465 20H136.305C136.185 20 136.105 19.92 136.105 19.8V5.2ZM158.839 5.22C158.839 5.08 158.919 5 159.039 5H167.399C167.519 5 167.599 5.08 167.599 5.22V7.4C167.599 7.52 167.519 7.62 167.399 7.62H162.779C161.879 7.62 161.379 8.16 161.379 9.16V9.84C161.379 10.84 161.879 11.38 162.779 11.38H166.659C166.779 11.38 166.859 11.46 166.859 11.6V13.72C166.859 13.86 166.779 13.96 166.659 13.96H162.779C161.879 13.96 161.379 14.5 161.379 15.5V20H159.039C158.919 20 158.839 19.92 158.839 19.78V5.22ZM169.855 5.2C169.855 5.08 169.935 5 170.055 5H175.455C177.935 5 180.015 6.56 180.015 9.58C180.015 11.12 179.335 12.64 177.835 13.4C176.415 14.1 175.995 14.28 176.755 15.16L177.895 16.54L180.615 19.76C180.715 19.88 180.655 20 180.495 20H177.515C177.415 20 177.335 19.96 177.275 19.88L174.135 16.02C173.315 15 172.415 15.32 172.415 16.62V19.8C172.415 19.92 172.335 20 172.215 20H170.055C169.935 20 169.855 19.92 169.855 19.8V5.2ZM175.055 11.56C176.475 11.56 177.415 10.88 177.415 9.58C177.415 8.3 176.475 7.66 175.075 7.66H173.415C172.775 7.66 172.415 8.02 172.415 8.66V10.56C172.415 11.2 172.775 11.56 173.415 11.56H175.055ZM188.735 20.22C184.735 20.22 181.715 16.92 181.715 12.48C181.715 8.06 184.735 4.78 188.735 4.78C192.715 4.78 195.735 8.06 195.735 12.48C195.735 16.92 192.715 20.22 188.735 20.22ZM188.735 17.52C191.195 17.52 193.135 15.4 193.135 12.48C193.135 9.62 191.195 7.46 188.735 7.46C186.255 7.46 184.335 9.62 184.335 12.48C184.335 15.4 186.255 17.52 188.735 17.52ZM204.522 20.22C200.182 20.22 197.222 16.96 197.222 12.5C197.222 8.08 200.242 4.78 204.302 4.78C207.542 4.78 209.902 6.7 210.722 9.6C210.762 9.78 210.682 9.86 210.542 9.86H208.102C208.002 9.86 207.922 9.82 207.862 9.7C207.262 8.42 206.062 7.48 204.302 7.48C201.762 7.48 199.842 9.6 199.842 12.5C199.842 15.48 201.702 17.56 204.522 17.56C206.022 17.56 207.202 17.04 207.882 15.92C208.282 15.24 207.862 14.7 207.102 14.7H203.062C202.942 14.7 202.862 14.6 202.862 14.48V12.42C202.862 12.28 202.942 12.2 203.062 12.2H210.182C211.042 12.2 211.242 12.7 211.182 13.42C211.002 17.24 208.382 20.22 204.522 20.22Z" fill="#FFFF77"/>
<rect y="3.34375" width="19.2962" height="19.2962" fill="#6D6C69"/>
<rect y="281.961" width="19.2962" height="19.2962" fill="#6D6C69"/>
<rect x="288.94" y="3.34375" width="19.2962" height="19.2962" fill="#6D6C69"/>
<rect x="288.94" y="281.961" width="19.2962" height="19.2962" fill="#FFFF77"/>
<path d="M231.731 293.148C231.731 292.422 231.345 292.021 230.65 292.021H227.933C227.238 292.021 226.852 292.422 226.852 293.148V296.807C226.852 296.899 226.791 296.961 226.698 296.961H225.031C224.938 296.961 224.877 296.899 224.877 296.807V285.538C224.877 285.445 224.938 285.383 225.031 285.383H226.698C226.791 285.383 226.852 285.445 226.852 285.538V288.857C226.852 289.582 227.238 289.983 227.933 289.983H230.65C231.345 289.983 231.731 289.582 231.731 288.857V285.538C231.731 285.445 231.792 285.383 231.885 285.383H233.552C233.645 285.383 233.706 285.445 233.706 285.538V296.807C233.706 296.899 233.645 296.961 233.552 296.961H231.885C231.792 296.961 231.731 296.899 231.731 296.807V293.148ZM235.866 285.553C235.866 285.445 235.928 285.383 236.021 285.383H242.581C242.674 285.383 242.736 285.445 242.736 285.553V287.236C242.736 287.328 242.674 287.405 242.581 287.405H238.876C238.182 287.405 237.796 287.822 237.796 288.594V288.934C237.796 289.69 238.182 290.122 238.876 290.122H242.026C242.118 290.122 242.18 290.184 242.18 290.292V291.959C242.18 292.052 242.118 292.114 242.026 292.114H238.876C238.182 292.114 237.796 292.561 237.796 293.318V293.75C237.796 294.522 238.182 294.939 238.876 294.939H242.581C242.674 294.939 242.736 295.016 242.736 295.109V296.791C242.736 296.899 242.674 296.961 242.581 296.961H236.021C235.928 296.961 235.866 296.899 235.866 296.791V285.553ZM247.359 285.507C247.39 285.414 247.467 285.383 247.544 285.383H249.69C249.767 285.383 249.844 285.414 249.875 285.507L253.58 296.76C253.611 296.899 253.564 296.961 253.456 296.961H251.681C251.604 296.961 251.527 296.93 251.496 296.837L251.264 296.112C250.909 295 250.215 294.476 249.149 294.476H248.069C247.004 294.476 246.309 295 245.954 296.112L245.722 296.837C245.692 296.93 245.614 296.961 245.537 296.961H243.777C243.669 296.961 243.623 296.899 243.654 296.76L247.359 285.507ZM249.288 292.577C249.844 292.577 250.091 292.175 249.906 291.589L249.103 289.042C248.872 288.301 248.331 288.301 248.1 289.042L247.312 291.589C247.127 292.175 247.374 292.577 247.93 292.577H249.288ZM254.816 285.553C254.816 285.445 254.877 285.383 254.97 285.383H256.637C256.73 285.383 256.792 285.445 256.792 285.553V293.812C256.792 294.506 257.178 294.892 257.872 294.892H261.423C261.515 294.892 261.577 294.954 261.577 295.062V296.791C261.577 296.899 261.515 296.961 261.423 296.961H254.97C254.877 296.961 254.816 296.899 254.816 296.791V285.553ZM264.036 288.517C264.036 287.822 263.65 287.436 262.956 287.436H260.934C260.841 287.436 260.779 287.375 260.779 287.282V285.538C260.779 285.445 260.841 285.383 260.934 285.383H269.131C269.223 285.383 269.285 285.445 269.285 285.538V287.282C269.285 287.375 269.223 287.436 269.131 287.436H267.108C266.414 287.436 266.028 287.822 266.028 288.517V296.807C266.028 296.899 265.966 296.961 265.873 296.961H264.191C264.098 296.961 264.036 296.899 264.036 296.807V288.517ZM277.393 293.148C277.393 292.422 277.007 292.021 276.312 292.021H273.596C272.901 292.021 272.515 292.422 272.515 293.148V296.807C272.515 296.899 272.453 296.961 272.361 296.961H270.693C270.601 296.961 270.539 296.899 270.539 296.807V285.538C270.539 285.445 270.601 285.383 270.693 285.383H272.361C272.453 285.383 272.515 285.445 272.515 285.538V288.857C272.515 289.582 272.901 289.983 273.596 289.983H276.312C277.007 289.983 277.393 289.582 277.393 288.857V285.538C277.393 285.445 277.455 285.383 277.547 285.383H279.215C279.307 285.383 279.369 285.445 279.369 285.538V296.807C279.369 296.899 279.307 296.961 279.215 296.961H277.547C277.455 296.961 277.393 296.899 277.393 296.807V293.148Z" fill="#FFFF77"/>
<path d="M156.274 212.996C157.099 215.718 171.818 215.259 174.723 214.966C182.724 214.16 180.552 209.533 184.906 207.81C186.821 207.05 188.846 207.627 189.259 209.872C190.322 215.635 184.346 214.6 182.761 218.292C181.267 221.783 183.861 231.385 177.848 231.367C174.137 231.358 171.131 221.673 166.841 225.925C163.267 229.47 169.582 249.298 159.839 247.933C156.769 247.502 155.578 242.582 152.929 241.437C149.428 239.925 141.775 241.226 140.19 237.698C137.779 232.338 144.873 232.027 145.918 228.527C147.907 221.866 137.688 224.431 133.838 222.864C130.191 221.38 130.621 217.468 129.063 216.469C125.434 214.151 114.849 218.402 113.85 210.687C113.236 205.941 115.353 185.179 112.356 183.136C100.111 180.589 110.99 205.501 101.688 206.372C94.9697 206.995 99.1398 191.813 94.6765 191.355C90.2131 190.897 90.6622 193.068 88.3985 195.359C86.4188 197.365 84.2926 198.694 82.4687 200.416C81.0023 201.8 79.1052 205.74 77.2355 206.225C73.093 207.288 71.0492 199.179 67.1724 199.289C63.983 199.372 61.9209 207.746 57.1551 206.234C53.0584 205.08 53.5808 187.351 55.203 184.153C58.7131 177.254 63.983 188.074 65.2294 188.688C70.0777 191.107 71.7182 185.326 73.9453 183.255C75.2467 182.046 77.2447 181.377 78.6103 180.076C80.1866 178.564 82.1938 174.624 84.0909 173.781C86.5105 172.709 90.5247 173.799 93.6775 172.379C97.1143 170.831 97.261 165.956 100.762 164.554C103.429 163.492 105.931 164.252 108.616 163.776C112.961 163.006 113.483 159.937 116.232 157.261C125.003 148.713 133.481 140.576 141.748 131.771C142.893 130.543 144.864 129.829 145.753 128.711C148.713 125.028 146.66 120.034 148.062 116.891C149.318 114.079 154.221 113.492 155.156 110.643C156.283 107.188 154.542 103.304 156.742 99.6752C158.62 96.5691 161.342 97.4854 163.313 96.0469C168.509 92.2811 158.584 65.6642 174.137 71.9588C177.179 73.1957 177.647 77.4471 181.056 77.5937C186.399 77.832 185.025 69.8973 194.3 71.4182C203.575 72.9392 195.308 90.0821 200.587 95.7262C202.227 97.4854 206.205 98.6673 206.562 100.811C206.7 101.993 206.544 103.038 205.802 104C202.209 108.673 176.556 103.267 174.329 107.253C173.092 109.461 173.165 124.249 174.063 126.952C175.631 131.652 181.386 129.517 182.11 134.575C183.897 147.063 180.974 163.235 182.147 176.154C183.155 187.277 189.323 177.574 192.357 174.514C193.566 173.295 195.326 172.526 196.737 171.041C198.781 168.879 199.084 165.077 203.006 164.747C205.948 164.829 207.79 170.684 209.431 171.829C213.005 174.322 219.971 172.132 222.271 175.275C225.039 179.059 219.21 182.284 216.699 184.73C215.452 185.949 214.453 188.34 213.234 189.11C209.633 191.4 200.724 189.22 199.771 192.921C197.434 201.992 214.032 195.02 214.444 201.992C214.811 208.159 203.3 207.471 199.075 207.087C189.479 206.207 192.311 201.946 187.105 199.436C182.999 197.457 175.072 200.27 173.715 195.56C171.845 189.055 174.907 175.522 173.532 168.284C172.762 164.243 166.163 163.611 165.87 160.294C165.522 156.372 173.944 154.265 172.414 150.637C169.728 144.278 165.283 152.561 163.322 154.109C161.141 155.823 156.293 155.933 156.293 159.634V212.987L156.274 212.996Z" fill="white"/>
</svg>
