<svg width="309" height="302" viewBox="0 0 309 302" fill="none" xmlns="http://www.w3.org/2000/svg">
<path d="M80.7708 15.76C80.7708 18.18 79.6508 19.94 77.1108 20.14C76.5908 20.18 75.2108 20.18 74.6908 20.06C74.5708 20.04 74.5108 19.98 74.5108 19.84V17.66C74.5108 17.54 74.5908 17.48 74.7108 17.48C75.1308 17.5 75.9708 17.56 76.3908 17.54C77.8508 17.5 78.2108 16.94 78.2108 15.52V5.2C78.2108 5.08 78.2908 5 78.4108 5H80.5708C80.6908 5 80.7708 5.08 80.7708 5.2V15.76ZM89.7795 20.22C85.7795 20.22 82.7595 16.92 82.7595 12.48C82.7595 8.06 85.7795 4.78 89.7795 4.78C93.7595 4.78 96.7795 8.06 96.7795 12.48C96.7795 16.92 93.7595 20.22 89.7795 20.22ZM89.7795 17.52C92.2395 17.52 94.1795 15.4 94.1795 12.48C94.1795 9.62 92.2395 7.46 89.7795 7.46C87.2995 7.46 85.3795 9.62 85.3795 12.48C85.3795 15.4 87.2995 17.52 89.7795 17.52ZM101.742 16.2C101.742 15.08 101.542 14.26 101.062 13.24L97.2619 5.24C97.2019 5.1 97.2619 5 97.4019 5H99.8419C99.9419 5 100.002 5.04 100.062 5.16L102.102 9.64C102.622 10.76 103.482 10.72 103.982 9.62L106.002 5.16C106.062 5.04 106.122 5 106.222 5H108.702C108.842 5 108.902 5.1 108.842 5.24L105.002 13.26C104.522 14.28 104.322 15.1 104.322 16.22V19.8C104.322 19.92 104.242 20 104.122 20H101.942C101.822 20 101.742 19.92 101.742 19.8V16.2ZM110.568 5.22C110.568 5.08 110.648 5 110.768 5H119.128C119.248 5 119.328 5.08 119.328 5.22V7.4C119.328 7.52 119.248 7.62 119.128 7.62H114.508C113.608 7.62 113.108 8.16 113.108 9.16V9.84C113.108 10.84 113.608 11.38 114.508 11.38H118.388C118.508 11.38 118.588 11.46 118.588 11.6V13.72C118.588 13.86 118.508 13.96 118.388 13.96H114.508C113.608 13.96 113.108 14.5 113.108 15.5V20H110.768C110.648 20 110.568 19.92 110.568 19.78V5.22ZM126.984 20.22C123.804 20.22 121.444 17.88 121.444 13.76V5.2C121.444 5.08 121.524 5 121.644 5H123.804C123.924 5 124.004 5.08 124.004 5.2V13.66C124.004 16.34 125.224 17.56 126.984 17.56C128.744 17.56 129.944 16.34 129.944 13.66V5.2C129.944 5.08 130.024 5 130.144 5H132.324C132.444 5 132.524 5.08 132.524 5.2V13.76C132.524 17.88 130.144 20.22 126.984 20.22ZM135.158 5.22C135.158 5.08 135.238 5 135.358 5H137.518C137.638 5 137.718 5.08 137.718 5.22V15.92C137.718 16.82 138.218 17.32 139.118 17.32H143.718C143.838 17.32 143.918 17.4 143.918 17.54V19.78C143.918 19.92 143.838 20 143.718 20H135.358C135.238 20 135.158 19.92 135.158 19.78V5.22ZM150.275 5.22C150.275 5.08 150.355 5 150.475 5H154.775C158.935 5 161.815 8.3 161.815 12.5C161.815 16.7 158.935 20 154.775 20H150.475C150.355 20 150.275 19.92 150.275 19.78V5.22ZM154.915 17.34C157.435 17.34 159.195 15.18 159.195 12.5C159.195 9.82 157.435 7.68 154.915 7.68H153.835C153.195 7.68 152.835 8.08 152.835 8.8V16.2C152.835 16.92 153.195 17.32 153.835 17.32L154.915 17.34ZM170.307 20.22C166.307 20.22 163.287 16.92 163.287 12.48C163.287 8.06 166.307 4.78 170.307 4.78C174.287 4.78 177.307 8.06 177.307 12.48C177.307 16.92 174.287 20.22 170.307 20.22ZM170.307 17.52C172.767 17.52 174.707 15.4 174.707 12.48C174.707 9.62 172.767 7.46 170.307 7.46C167.827 7.46 165.907 9.62 165.907 12.48C165.907 15.4 167.827 17.52 170.307 17.52ZM179.455 5.22C179.455 5.08 179.535 5 179.655 5H181.815C181.935 5 182.015 5.08 182.015 5.22V15.92C182.015 16.82 182.515 17.32 183.415 17.32H188.015C188.135 17.32 188.215 17.4 188.215 17.54V19.78C188.215 19.92 188.135 20 188.015 20H179.655C179.535 20 179.455 19.92 179.455 19.78V5.22ZM189.923 5.2C189.923 5.08 190.003 5 190.123 5H195.523C198.003 5 200.083 6.64 200.083 9.72C200.083 12.8 198.003 14.48 195.523 14.48H193.483C192.843 14.48 192.483 14.84 192.483 15.48V19.8C192.483 19.92 192.403 20 192.283 20H190.123C190.003 20 189.923 19.92 189.923 19.8V5.2ZM195.123 11.82C196.543 11.82 197.483 11.08 197.483 9.72C197.483 8.38 196.543 7.66 195.143 7.66H193.483C192.843 7.66 192.483 8.02 192.483 8.66V10.82C192.483 11.46 192.843 11.82 193.483 11.82H195.123ZM210.737 15.06C210.737 14.12 210.237 13.6 209.337 13.6H205.817C204.917 13.6 204.417 14.12 204.417 15.06V19.8C204.417 19.92 204.337 20 204.217 20H202.057C201.937 20 201.857 19.92 201.857 19.8V5.2C201.857 5.08 201.937 5 202.057 5H204.217C204.337 5 204.417 5.08 204.417 5.2V9.5C204.417 10.44 204.917 10.96 205.817 10.96H209.337C210.237 10.96 210.737 10.44 210.737 9.5V5.2C210.737 5.08 210.817 5 210.937 5H213.097C213.217 5 213.297 5.08 213.297 5.2V19.8C213.297 19.92 213.217 20 213.097 20H210.937C210.817 20 210.737 19.92 210.737 19.8V15.06ZM216.255 5.22C216.255 5.08 216.335 5 216.455 5H218.615C218.735 5 218.815 5.08 218.815 5.22V19.78C218.815 19.92 218.735 20 218.615 20H216.455C216.335 20 216.255 19.92 216.255 19.78V5.22ZM221.779 5.2C221.779 5.08 221.859 5 221.979 5H223.799C223.899 5 223.979 5.02 224.039 5.12L229.759 13.38C230.299 14.18 230.979 14.14 230.979 13.18V5.2C230.979 5.08 231.059 5 231.179 5H233.359C233.479 5 233.559 5.08 233.559 5.2V19.8C233.559 19.92 233.479 20 233.359 20H231.539C231.439 20 231.359 19.98 231.299 19.88C229.379 17.08 227.459 14.4 225.539 11.58C224.999 10.78 224.339 10.86 224.339 11.82V19.8C224.339 19.92 224.259 20 224.139 20H221.979C221.859 20 221.779 19.92 221.779 19.8V5.2Z" fill="#FFFF77"/>
<rect y="3.34375" width="19.2962" height="19.2962" fill="#6D6C69"/>
<rect y="281.961" width="19.2962" height="19.2962" fill="#6D6C69"/>
<rect x="288.94" y="3.34375" width="19.2962" height="19.2962" fill="#6D6C69"/>
<rect x="288.94" y="281.961" width="19.2962" height="19.2962" fill="#FFFF77"/>
<path d="M231.731 293.148C231.731 292.422 231.345 292.021 230.65 292.021H227.933C227.238 292.021 226.852 292.422 226.852 293.148V296.807C226.852 296.899 226.791 296.961 226.698 296.961H225.031C224.938 296.961 224.877 296.899 224.877 296.807V285.538C224.877 285.445 224.938 285.383 225.031 285.383H226.698C226.791 285.383 226.852 285.445 226.852 285.538V288.857C226.852 289.582 227.238 289.983 227.933 289.983H230.65C231.345 289.983 231.731 289.582 231.731 288.857V285.538C231.731 285.445 231.792 285.383 231.885 285.383H233.552C233.645 285.383 233.706 285.445 233.706 285.538V296.807C233.706 296.899 233.645 296.961 233.552 296.961H231.885C231.792 296.961 231.731 296.899 231.731 296.807V293.148ZM235.866 285.553C235.866 285.445 235.928 285.383 236.021 285.383H242.581C242.674 285.383 242.736 285.445 242.736 285.553V287.236C242.736 287.328 242.674 287.405 242.581 287.405H238.876C238.182 287.405 237.796 287.822 237.796 288.594V288.934C237.796 289.69 238.182 290.122 238.876 290.122H242.026C242.118 290.122 242.18 290.184 242.18 290.292V291.959C242.18 292.052 242.118 292.114 242.026 292.114H238.876C238.182 292.114 237.796 292.561 237.796 293.318V293.75C237.796 294.522 238.182 294.939 238.876 294.939H242.581C242.674 294.939 242.736 295.016 242.736 295.109V296.791C242.736 296.899 242.674 296.961 242.581 296.961H236.021C235.928 296.961 235.866 296.899 235.866 296.791V285.553ZM247.359 285.507C247.39 285.414 247.467 285.383 247.544 285.383H249.69C249.767 285.383 249.844 285.414 249.875 285.507L253.58 296.76C253.611 296.899 253.564 296.961 253.456 296.961H251.681C251.604 296.961 251.527 296.93 251.496 296.837L251.264 296.112C250.909 295 250.215 294.476 249.149 294.476H248.069C247.004 294.476 246.309 295 245.954 296.112L245.722 296.837C245.692 296.93 245.614 296.961 245.537 296.961H243.777C243.669 296.961 243.623 296.899 243.654 296.76L247.359 285.507ZM249.288 292.577C249.844 292.577 250.091 292.175 249.906 291.589L249.103 289.042C248.872 288.301 248.331 288.301 248.1 289.042L247.312 291.589C247.127 292.175 247.374 292.577 247.93 292.577H249.288ZM254.816 285.553C254.816 285.445 254.877 285.383 254.97 285.383H256.637C256.73 285.383 256.792 285.445 256.792 285.553V293.812C256.792 294.506 257.178 294.892 257.872 294.892H261.423C261.515 294.892 261.577 294.954 261.577 295.062V296.791C261.577 296.899 261.515 296.961 261.423 296.961H254.97C254.877 296.961 254.816 296.899 254.816 296.791V285.553ZM264.036 288.517C264.036 287.822 263.65 287.436 262.956 287.436H260.934C260.841 287.436 260.779 287.375 260.779 287.282V285.538C260.779 285.445 260.841 285.383 260.934 285.383H269.131C269.223 285.383 269.285 285.445 269.285 285.538V287.282C269.285 287.375 269.223 287.436 269.131 287.436H267.108C266.414 287.436 266.028 287.822 266.028 288.517V296.807C266.028 296.899 265.966 296.961 265.873 296.961H264.191C264.098 296.961 264.036 296.899 264.036 296.807V288.517ZM277.393 293.148C277.393 292.422 277.007 292.021 276.312 292.021H273.596C272.901 292.021 272.515 292.422 272.515 293.148V296.807C272.515 296.899 272.453 296.961 272.361 296.961H270.693C270.601 296.961 270.539 296.899 270.539 296.807V285.538C270.539 285.445 270.601 285.383 270.693 285.383H272.361C272.453 285.383 272.515 285.445 272.515 285.538V288.857C272.515 289.582 272.901 289.983 273.596 289.983H276.312C277.007 289.983 277.393 289.582 277.393 288.857V285.538C277.393 285.445 277.455 285.383 277.547 285.383H279.215C279.307 285.383 279.369 285.445 279.369 285.538V296.807C279.369 296.899 279.307 296.961 279.215 296.961H277.547C277.455 296.961 277.393 296.899 277.393 296.807V293.148Z" fill="#FFFF77"/>
<path d="M168.318 92.5808C169.782 93.8882 176.094 100.248 177.568 101.841C179.043 103.433 179.377 106.795 181.775 108.162C186.563 110.895 197.209 107.818 202.478 109.341C205.84 110.315 206.548 116.065 208.976 117.147C213.006 118.946 222.473 115.662 223.938 122.396C225.019 127.39 222.257 131.135 227.054 135.274C228.45 136.473 230.426 136.788 231.723 138.184C232.903 139.452 233.188 141.369 234.633 142.843C236.206 144.446 240.433 145.861 241.367 147.896C243.353 152.261 239.519 158.513 244.729 163.054C247.363 165.355 252.819 165.659 249.005 170.673C245.83 174.841 242.989 172.796 241.898 180.395C240.806 187.994 243.146 189.105 234.161 193.066L231.31 207.684L229.59 208.539C224.744 208.824 224.065 203.575 221.549 201.402C218.551 198.807 215.533 200.39 214.854 194.629C214.274 189.675 216.132 179.255 213.871 175.411C212.662 173.347 209.251 172.845 207.58 171.184C204.808 168.431 201.682 165.355 198.939 162.573C197.337 160.941 196.167 156.901 193.818 155.908C192.087 155.18 186.12 155.161 184.115 155.426C175.435 156.547 182.935 168.707 176.408 172.128C172.918 173.956 157.151 173.828 153.848 171.469C147.33 166.8 160.336 163.094 159.195 158.591C158.763 156.861 154.496 154.689 152.973 152.978C151.046 150.806 150.132 146.048 146.455 146.343C142.513 146.667 143.408 154.197 138.512 155.288C130.078 157.166 118.242 153.725 109.395 155.632C106.682 156.606 106.908 159.987 105.473 161.816C104.037 163.644 99.8201 164.843 98.6503 166.78C96.7531 169.936 98.8469 175.991 96.5663 179.844C95.0721 182.371 88.9773 182.882 89.5573 186.844C90.0193 189.97 94.3446 190.884 96.2026 192.919C97.51 194.354 97.8344 196.448 99.5154 198.031C101.196 199.613 104.932 200.567 105.856 202.631C106.593 204.273 106.633 212.845 106.112 214.644C104.804 219.205 92.7423 218.684 89.8522 216.108C87.6699 214.162 87.2472 208.372 82.7154 210.594C76.8467 213.474 83.6984 232.633 76.0209 235.101C71.3024 236.615 70.2407 231.572 67.5964 229.104C65.7188 227.354 61.9833 226.185 61.0396 223.884C58.641 218.025 61.1673 208.755 61.0002 202.356C61.7572 200.38 66.5347 199.456 68.3533 197.922C69.8279 196.684 70.7519 194.049 72.079 192.811C73.6617 191.336 76.9942 190.501 78.0558 189.105C81.1917 185.015 77.9673 172.55 79.7368 167.213C80.7198 164.234 85.1926 163.634 87.3062 161.314C88.4268 160.086 88.6922 158.188 90.2651 156.694C91.9362 155.111 95.6717 154.168 96.6056 152.093C98.3063 148.328 95.4948 142.647 98.6995 138.193C100.125 136.218 102.936 135.47 104.539 133.927C111.902 126.771 118.773 118.818 125.644 111.258C127.532 109.194 133.263 107.67 132.29 103.866C131.189 99.5603 120.493 101.202 117.22 98.6756C112.845 88.2751 125.458 92.7676 130.707 90.2314C133.263 88.9927 132.87 83.4386 137.234 82.4654C140.026 81.8362 154.27 81.8068 156.856 82.6129C160.159 83.645 160.404 87.2921 162.665 89.4351C164.454 91.1259 167.04 91.4208 168.347 92.5906L168.318 92.5808Z" fill="white"/>
<path d="M110.91 100.289C117.693 100.319 116.749 109.952 110.91 109.952C105.071 109.952 104.687 100.26 110.91 100.289Z" fill="white"/>
<path d="M143.528 173.338C148.699 168.747 156.71 181.644 146.978 182.146C141.424 182.431 141.237 175.383 143.528 173.338Z" fill="white"/>
</svg>
