<svg width="309" height="302" viewBox="0 0 309 302" fill="none" xmlns="http://www.w3.org/2000/svg">
<path d="M51.0927 20.22C46.7527 20.22 43.7927 16.96 43.7927 12.5C43.7927 8.08 46.8127 4.78 50.8727 4.78C54.1127 4.78 56.4727 6.7 57.2927 9.6C57.3327 9.78 57.2527 9.86 57.1127 9.86H54.6727C54.5727 9.86 54.4927 9.82 54.4327 9.7C53.8327 8.42 52.6327 7.48 50.8727 7.48C48.3327 7.48 46.4127 9.6 46.4127 12.5C46.4127 15.48 48.2727 17.56 51.0927 17.56C52.5927 17.56 53.7727 17.04 54.4527 15.92C54.8527 15.24 54.4327 14.7 53.6727 14.7H49.6327C49.5127 14.7 49.4327 14.6 49.4327 14.48V12.42C49.4327 12.28 49.5127 12.2 49.6327 12.2H56.7527C57.6127 12.2 57.8127 12.7 57.7527 13.42C57.5727 17.24 54.9527 20.22 51.0927 20.22ZM59.9215 5.2C59.9215 5.08 60.0015 5 60.1215 5H65.5215C68.0015 5 70.0815 6.56 70.0815 9.58C70.0815 11.12 69.4015 12.64 67.9015 13.4C66.4815 14.1 66.0615 14.28 66.8215 15.16L67.9615 16.54L70.6815 19.76C70.7815 19.88 70.7215 20 70.5615 20H67.5815C67.4815 20 67.4015 19.96 67.3415 19.88L64.2015 16.02C63.3815 15 62.4815 15.32 62.4815 16.62V19.8C62.4815 19.92 62.4015 20 62.2815 20H60.1215C60.0015 20 59.9215 19.92 59.9215 19.8V5.2ZM65.1215 11.56C66.5415 11.56 67.4815 10.88 67.4815 9.58C67.4815 8.3 66.5415 7.66 65.1415 7.66H63.4815C62.8415 7.66 62.4815 8.02 62.4815 8.66V10.56C62.4815 11.2 62.8415 11.56 63.4815 11.56H65.1215ZM78.801 20.22C74.801 20.22 71.781 16.92 71.781 12.48C71.781 8.06 74.801 4.78 78.801 4.78C82.781 4.78 85.801 8.06 85.801 12.48C85.801 16.92 82.781 20.22 78.801 20.22ZM78.801 17.52C81.261 17.52 83.201 15.4 83.201 12.48C83.201 9.62 81.261 7.46 78.801 7.46C76.321 7.46 74.401 9.62 74.401 12.48C74.401 15.4 76.321 17.52 78.801 17.52ZM85.8718 5.22C85.8318 5.08 85.9118 5 86.0518 5H88.4918C88.6118 5 88.6718 5.06 88.7118 5.18L90.9918 13.74C91.2518 14.72 91.7718 14.58 92.0118 13.6L94.0918 5.18C94.1118 5.06 94.1918 5 94.3118 5H97.1918C97.3118 5 97.3918 5.06 97.4118 5.18L99.4918 13.7C99.7318 14.68 100.452 14.66 100.692 13.68L102.792 5.18C102.812 5.06 102.892 5 103.012 5H105.452C105.592 5 105.672 5.08 105.632 5.22L101.672 19.82C101.652 19.92 101.572 20 101.452 20H98.8318C98.7118 20 98.6318 19.94 98.6118 19.82L96.3518 10.46C96.1118 9.48 95.3718 9.48 95.1318 10.46L92.8718 19.82C92.8518 19.94 92.7718 20 92.6518 20H90.0318C89.9118 20 89.8318 19.92 89.8118 19.82L85.8718 5.22ZM107.445 5.22C107.445 5.08 107.525 5 107.645 5H109.805C109.925 5 110.005 5.08 110.005 5.22V19.78C110.005 19.92 109.925 20 109.805 20H107.645C107.525 20 107.445 19.92 107.445 19.78V5.22ZM112.968 5.2C112.968 5.08 113.048 5 113.168 5H114.988C115.088 5 115.168 5.02 115.228 5.12L120.948 13.38C121.488 14.18 122.168 14.14 122.168 13.18V5.2C122.168 5.08 122.248 5 122.368 5H124.548C124.668 5 124.748 5.08 124.748 5.2V19.8C124.748 19.92 124.668 20 124.548 20H122.728C122.628 20 122.548 19.98 122.488 19.88C120.568 17.08 118.648 14.4 116.728 11.58C116.188 10.78 115.528 10.86 115.528 11.82V19.8C115.528 19.92 115.448 20 115.328 20H113.168C113.048 20 112.968 19.92 112.968 19.8V5.2ZM134.179 20.22C129.839 20.22 126.879 16.96 126.879 12.5C126.879 8.08 129.899 4.78 133.959 4.78C137.199 4.78 139.559 6.7 140.379 9.6C140.419 9.78 140.339 9.86 140.199 9.86H137.759C137.659 9.86 137.579 9.82 137.519 9.7C136.919 8.42 135.719 7.48 133.959 7.48C131.419 7.48 129.499 9.6 129.499 12.5C129.499 15.48 131.359 17.56 134.179 17.56C135.679 17.56 136.859 17.04 137.539 15.92C137.939 15.24 137.519 14.7 136.759 14.7H132.719C132.599 14.7 132.519 14.6 132.519 14.48V12.42C132.519 12.28 132.599 12.2 132.719 12.2H139.839C140.699 12.2 140.899 12.7 140.839 13.42C140.659 17.24 138.039 20.22 134.179 20.22ZM147.656 5.2C147.656 5.08 147.736 5 147.856 5H151.016C151.116 5 151.216 5.04 151.256 5.16L154.636 14.34C154.956 15.22 155.636 15.22 155.956 14.34L159.336 5.16C159.376 5.04 159.476 5 159.576 5H162.736C162.856 5 162.936 5.08 162.936 5.2V19.8C162.936 19.92 162.856 20 162.736 20H160.556C160.436 20 160.356 19.92 160.356 19.8V12.26C160.356 11.3 159.556 11.16 159.216 12.06L156.416 19.66C156.376 19.78 156.296 19.82 156.196 19.82H154.396C154.296 19.82 154.216 19.78 154.176 19.66L151.356 12.04C151.016 11.14 150.216 11.3 150.216 12.26V19.8C150.216 19.92 150.136 20 150.016 20H147.856C147.736 20 147.656 19.92 147.656 19.8V5.2ZM171.142 20.22C167.962 20.22 165.602 17.88 165.602 13.76V5.2C165.602 5.08 165.682 5 165.802 5H167.962C168.082 5 168.162 5.08 168.162 5.2V13.66C168.162 16.34 169.382 17.56 171.142 17.56C172.902 17.56 174.102 16.34 174.102 13.66V5.2C174.102 5.08 174.182 5 174.302 5H176.482C176.602 5 176.682 5.08 176.682 5.2V13.76C176.682 17.88 174.302 20.22 171.142 20.22ZM183.736 20.22C180.236 20.22 178.716 17.58 178.556 15.44C178.556 15.32 178.636 15.24 178.756 15.24H181.016C181.136 15.24 181.196 15.3 181.216 15.42C181.416 16.76 182.276 17.7 183.736 17.7C184.936 17.7 185.876 16.98 185.876 15.94C185.876 12.84 178.776 14.52 178.776 9.1C178.776 6.7 180.556 4.78 183.416 4.78C186.516 4.78 188.036 7.08 188.196 9.28C188.216 9.4 188.136 9.48 188.016 9.48H185.776C185.656 9.48 185.576 9.42 185.556 9.28C185.416 8.18 184.656 7.26 183.416 7.26C182.136 7.26 181.336 8.06 181.336 9.1C181.336 12.02 188.436 10.32 188.436 15.94C188.436 18.48 186.156 20.22 183.736 20.22ZM199.368 15.06C199.368 14.12 198.868 13.6 197.968 13.6H194.448C193.548 13.6 193.048 14.12 193.048 15.06V19.8C193.048 19.92 192.968 20 192.848 20H190.688C190.568 20 190.488 19.92 190.488 19.8V5.2C190.488 5.08 190.568 5 190.688 5H192.848C192.968 5 193.048 5.08 193.048 5.2V9.5C193.048 10.44 193.548 10.96 194.448 10.96H197.968C198.868 10.96 199.368 10.44 199.368 9.5V5.2C199.368 5.08 199.448 5 199.568 5H201.728C201.848 5 201.928 5.08 201.928 5.2V19.8C201.928 19.92 201.848 20 201.728 20H199.568C199.448 20 199.368 19.92 199.368 19.8V15.06ZM204.726 5.2C204.726 5.08 204.806 5 204.926 5H210.326C212.806 5 214.886 6.56 214.886 9.58C214.886 11.12 214.206 12.64 212.706 13.4C211.286 14.1 210.866 14.28 211.626 15.16L212.766 16.54L215.486 19.76C215.586 19.88 215.526 20 215.366 20H212.386C212.286 20 212.206 19.96 212.146 19.88L209.006 16.02C208.186 15 207.286 15.32 207.286 16.62V19.8C207.286 19.92 207.206 20 207.086 20H204.926C204.806 20 204.726 19.92 204.726 19.8V5.2ZM209.926 11.56C211.346 11.56 212.286 10.88 212.286 9.58C212.286 8.3 211.346 7.66 209.946 7.66H208.286C207.646 7.66 207.286 8.02 207.286 8.66V10.56C207.286 11.2 207.646 11.56 208.286 11.56H209.926ZM223.606 20.22C219.606 20.22 216.586 16.92 216.586 12.48C216.586 8.06 219.606 4.78 223.606 4.78C227.586 4.78 230.606 8.06 230.606 12.48C230.606 16.92 227.586 20.22 223.606 20.22ZM223.606 17.52C226.066 17.52 228.006 15.4 228.006 12.48C228.006 9.62 226.066 7.46 223.606 7.46C221.126 7.46 219.206 9.62 219.206 12.48C219.206 15.4 221.126 17.52 223.606 17.52ZM239.114 20.22C235.114 20.22 232.094 16.92 232.094 12.48C232.094 8.06 235.114 4.78 239.114 4.78C243.094 4.78 246.114 8.06 246.114 12.48C246.114 16.92 243.094 20.22 239.114 20.22ZM239.114 17.52C241.574 17.52 243.514 15.4 243.514 12.48C243.514 9.62 241.574 7.46 239.114 7.46C236.634 7.46 234.714 9.62 234.714 12.48C234.714 15.4 236.634 17.52 239.114 17.52ZM248.261 5.2C248.261 5.08 248.341 5 248.461 5H251.621C251.721 5 251.821 5.04 251.861 5.16L255.241 14.34C255.561 15.22 256.241 15.22 256.561 14.34L259.941 5.16C259.981 5.04 260.081 5 260.181 5H263.341C263.461 5 263.541 5.08 263.541 5.2V19.8C263.541 19.92 263.461 20 263.341 20H261.161C261.041 20 260.961 19.92 260.961 19.8V12.26C260.961 11.3 260.161 11.16 259.821 12.06L257.021 19.66C256.981 19.78 256.901 19.82 256.801 19.82H255.001C254.901 19.82 254.821 19.78 254.781 19.66L251.961 12.04C251.621 11.14 250.821 11.3 250.821 12.26V19.8C250.821 19.92 250.741 20 250.621 20H248.461C248.341 20 248.261 19.92 248.261 19.8V5.2Z" fill="#FFFF77"/>
<rect y="3.34375" width="19.2962" height="19.2962" fill="#6D6C69"/>
<rect y="281.961" width="19.2962" height="19.2962" fill="#6D6C69"/>
<rect x="288.94" y="3.34375" width="19.2962" height="19.2962" fill="#6D6C69"/>
<rect x="288.94" y="281.961" width="19.2962" height="19.2962" fill="#FFFF77"/>
<path d="M231.731 293.148C231.731 292.422 231.345 292.021 230.65 292.021H227.933C227.238 292.021 226.852 292.422 226.852 293.148V296.807C226.852 296.899 226.791 296.961 226.698 296.961H225.031C224.938 296.961 224.877 296.899 224.877 296.807V285.538C224.877 285.445 224.938 285.383 225.031 285.383H226.698C226.791 285.383 226.852 285.445 226.852 285.538V288.857C226.852 289.582 227.238 289.983 227.933 289.983H230.65C231.345 289.983 231.731 289.582 231.731 288.857V285.538C231.731 285.445 231.792 285.383 231.885 285.383H233.552C233.645 285.383 233.706 285.445 233.706 285.538V296.807C233.706 296.899 233.645 296.961 233.552 296.961H231.885C231.792 296.961 231.731 296.899 231.731 296.807V293.148ZM235.866 285.553C235.866 285.445 235.928 285.383 236.021 285.383H242.581C242.674 285.383 242.736 285.445 242.736 285.553V287.236C242.736 287.328 242.674 287.405 242.581 287.405H238.876C238.182 287.405 237.796 287.822 237.796 288.594V288.934C237.796 289.69 238.182 290.122 238.876 290.122H242.026C242.118 290.122 242.18 290.184 242.18 290.292V291.959C242.18 292.052 242.118 292.114 242.026 292.114H238.876C238.182 292.114 237.796 292.561 237.796 293.318V293.75C237.796 294.522 238.182 294.939 238.876 294.939H242.581C242.674 294.939 242.736 295.016 242.736 295.109V296.791C242.736 296.899 242.674 296.961 242.581 296.961H236.021C235.928 296.961 235.866 296.899 235.866 296.791V285.553ZM247.359 285.507C247.39 285.414 247.467 285.383 247.544 285.383H249.69C249.767 285.383 249.844 285.414 249.875 285.507L253.58 296.76C253.611 296.899 253.564 296.961 253.456 296.961H251.681C251.604 296.961 251.527 296.93 251.496 296.837L251.264 296.112C250.909 295 250.215 294.476 249.149 294.476H248.069C247.004 294.476 246.309 295 245.954 296.112L245.722 296.837C245.692 296.93 245.614 296.961 245.537 296.961H243.777C243.669 296.961 243.623 296.899 243.654 296.76L247.359 285.507ZM249.288 292.577C249.844 292.577 250.091 292.175 249.906 291.589L249.103 289.042C248.872 288.301 248.331 288.301 248.1 289.042L247.312 291.589C247.127 292.175 247.374 292.577 247.93 292.577H249.288ZM254.816 285.553C254.816 285.445 254.877 285.383 254.97 285.383H256.637C256.73 285.383 256.792 285.445 256.792 285.553V293.812C256.792 294.506 257.178 294.892 257.872 294.892H261.423C261.515 294.892 261.577 294.954 261.577 295.062V296.791C261.577 296.899 261.515 296.961 261.423 296.961H254.97C254.877 296.961 254.816 296.899 254.816 296.791V285.553ZM264.036 288.517C264.036 287.822 263.65 287.436 262.956 287.436H260.934C260.841 287.436 260.779 287.375 260.779 287.282V285.538C260.779 285.445 260.841 285.383 260.934 285.383H269.131C269.223 285.383 269.285 285.445 269.285 285.538V287.282C269.285 287.375 269.223 287.436 269.131 287.436H267.108C266.414 287.436 266.028 287.822 266.028 288.517V296.807C266.028 296.899 265.966 296.961 265.873 296.961H264.191C264.098 296.961 264.036 296.899 264.036 296.807V288.517ZM277.393 293.148C277.393 292.422 277.007 292.021 276.312 292.021H273.596C272.901 292.021 272.515 292.422 272.515 293.148V296.807C272.515 296.899 272.453 296.961 272.361 296.961H270.693C270.601 296.961 270.539 296.899 270.539 296.807V285.538C270.539 285.445 270.601 285.383 270.693 285.383H272.361C272.453 285.383 272.515 285.445 272.515 285.538V288.857C272.515 289.582 272.901 289.983 273.596 289.983H276.312C277.007 289.983 277.393 289.582 277.393 288.857V285.538C277.393 285.445 277.455 285.383 277.547 285.383H279.215C279.307 285.383 279.369 285.445 279.369 285.538V296.807C279.369 296.899 279.307 296.961 279.215 296.961H277.547C277.455 296.961 277.393 296.899 277.393 296.807V293.148Z" fill="#FFFF77"/>
<path d="M146.666 104.526C147.016 108.224 145.811 111.808 145.605 115.382C144.38 136.919 147.861 161.504 145.636 182.464C144.998 188.499 142.958 185.832 139.497 187.789C136.037 189.746 136.418 197.47 136.809 200.993C137.386 206.256 139.879 205.02 142.989 208.027C144.544 209.521 152.382 220.171 154.319 214.073C154.741 212.734 155.256 204.927 155.369 202.775C156.708 177.376 152.98 151.132 154.411 125.96C154.545 123.653 155.05 116.278 155.503 114.702C156.636 110.768 163.712 111.345 164.845 116.484L165.061 155.077C166.112 160.556 179.182 159.485 183.127 157.312C185.949 154.129 183.487 140.019 184.631 135.003C185.043 133.201 186 131.892 187.957 131.717C188.194 130.275 186.773 130.893 185.774 130.842C176.473 130.409 172.395 131.975 175.526 119.739C176.37 118.668 177.431 118.616 178.657 118.462C182.91 117.916 193.746 118.029 198.154 118.451C199.647 118.596 201.079 118.379 202.161 119.739V129.616C200.327 131.954 194.333 130.451 191.49 130.863C197.618 137.135 190.862 151.493 196.321 157.333C198.02 159.156 202.737 160.175 203.005 163.09C200.513 170.094 191.552 168.827 194.147 179.363C195.62 178.447 196.135 177.798 198.061 177.551C201.409 177.118 215.334 177.036 218.372 177.623C222.688 178.457 222.636 186.378 220.381 188.849C219.114 190.23 215.045 190.168 213.614 192.217C211.224 195.637 214.86 205.875 208.649 206.73C201.069 207.78 203.572 200.107 202.912 195.73C202.14 190.6 197.67 190.652 194.147 188.18C193.571 194.463 196.403 213.095 192.448 217.802C188.843 222.086 170.767 216.689 165.895 220.356C162.867 222.643 168.079 239.555 162.332 243.252C158.964 245.415 138.9 245.703 136.737 242.274C134.245 238.329 137.304 225.269 135.532 219.882C134.327 216.205 129.28 216.607 127.581 213.713C124.12 207.821 128.219 197.244 126.026 190.569C125.171 187.83 111.596 182.289 121.154 178.261C129.476 174.749 134.688 183.164 135.903 168.322C136.851 156.838 135.996 145.313 135.882 133.973C135.779 124.611 136.181 115.238 135.748 105.886C134.997 103.393 130.393 102.611 128.405 100.88C127.251 99.8709 126.623 98.0582 125.356 96.8737C122.174 93.8971 117.92 91.8166 117.374 87.2126C116.056 76.0169 119.897 71.0319 131.762 73.7098C135.882 74.6368 136.583 80.6209 139.456 81.898C144.637 84.1845 154.01 80.3428 155.277 88.1293C156.667 96.6677 155.627 102.363 146.645 104.537L146.666 104.526ZM165.051 168.775V204.495C168.131 207.832 181.335 207.904 183.405 204.33C185.022 201.528 184.867 179.868 184.486 175.357C184.291 173.019 184.064 170.475 182.251 168.775H165.051Z" fill="white"/>
<path d="M88.9862 141.645C90.5929 143.252 90.3045 151.564 89.8719 154.025C88.6051 161.101 80.1285 156.95 80.3139 168.342C80.6023 185.944 103.962 172.019 107.958 180.464C110.245 185.305 106.135 186.84 101.995 187.303C97.8542 187.767 76.4206 187.932 73.2792 186.912C65.6472 184.44 73.3822 164.49 67.6247 159.927C65.4927 158.238 62.238 158.794 60.7652 155.323C59.5086 152.357 59.6219 143.221 62.4543 141.367C66.0592 139.008 86.0199 138.658 88.9965 141.635L88.9862 141.645Z" fill="white"/>
<path d="M119.442 151.388C115.94 155.601 122.408 180.227 111.892 177.467C105.795 175.87 110.255 158.68 107.505 152.686C106.011 149.431 101.325 149.586 99.9756 146.104V133.23C103.107 128.111 109.111 130.645 113.458 130.676C116.908 130.706 121.461 128.595 124.973 131.685C128.485 134.775 127.61 144.838 124.54 148.092C123.232 149.483 120.276 150.389 119.452 151.378L119.442 151.388Z" fill="white"/>
<path d="M93.3563 93.1099C96.1681 92.461 113.245 92.5434 115.449 93.5734C117.983 94.7475 117.89 97.8271 119.59 100.021C122.237 103.451 128.828 103.77 126.717 109.682C125.254 111.896 121.783 112.154 120.115 113.699C117.55 116.057 118.189 120.96 113.461 121.238C107.663 121.578 109.403 114.945 104.861 112.998C100.319 111.052 90.9462 114.945 89.4013 108.178C88.4331 103.966 88.0932 94.3355 93.3666 93.1202L93.3563 93.1099Z" fill="white"/>
<path d="M205.364 131.023C207.157 130.498 226.18 130.487 227.952 131.023C231.083 131.96 231.701 136.935 230.815 139.716C229.599 143.557 226.489 143.032 224.223 144.598C222.41 145.854 221.061 148.316 218.908 148.985C216.756 149.655 207.414 149.809 205.364 149.202C201.708 148.12 201.729 132.104 205.364 131.033V131.023Z" fill="white"/>
<path d="M192.17 111.218C186.639 116.584 184.043 106.171 182.231 104.41C180.686 102.906 177.04 102.958 175.577 100.475C174.29 98.292 174.166 92.0813 176.504 90.7011C177.647 90.0317 196.547 89.8978 199.05 90.2274C201.975 90.6084 202.634 91.3088 203.015 94.1927C204.179 102.814 199.338 101.083 195.435 105.213C193.725 107.026 193.159 110.24 192.17 111.197V111.218Z" fill="white"/>
</svg>
