<svg width="706" height="178" viewBox="0 0 706 178" fill="none" xmlns="http://www.w3.org/2000/svg">
<path fill-rule="evenodd" clip-rule="evenodd" d="M706 175.163L706 0.00310564L58.4908 0.00316076C57.1285 0.00316088 56.8139 0.748257 56.8139 2.12935L56.8139 30.3182C56.8139 49.0288 24.7272 47.6478 24.6235 29.893L24.3089 2.44548C24.3089 0.84988 23.6796 -0.000584304 21.8953 -0.000584152L2.20247 -0.000582476C0.418232 -0.000582324 -4.63883e-05 0.849882 -4.6245e-05 2.44548L0.0777107 177.606L647.509 177.606C648.871 177.606 649.186 176.861 649.186 175.479L649.186 147.881C649.186 129.171 681.273 130.552 681.376 148.307L681.691 175.163C681.691 176.759 682.32 177.609 684.101 177.609L703.797 177.609C705.582 177.609 706 176.759 706 175.163Z" fill="white"/>
</svg>
