<svg width="309" height="302" viewBox="0 0 309 302" fill="none" xmlns="http://www.w3.org/2000/svg">
<path d="M64.6402 5.22C64.6402 5.08 64.7202 5 64.8402 5H73.2002C73.3202 5 73.4002 5.08 73.4002 5.22V7.4C73.4002 7.52 73.3202 7.62 73.2002 7.62H68.5802C67.6802 7.62 67.1802 8.16 67.1802 9.16V9.84C67.1802 10.84 67.6802 11.38 68.5802 11.38H72.4602C72.5802 11.38 72.6602 11.46 72.6602 11.6V13.72C72.6602 13.86 72.5802 13.96 72.4602 13.96H68.5802C67.6802 13.96 67.1802 14.5 67.1802 15.5V20H64.8402C64.7202 20 64.6402 19.92 64.6402 19.78V5.22ZM75.6559 5.22C75.6559 5.08 75.7359 5 75.8559 5H78.0159C78.1359 5 78.2159 5.08 78.2159 5.22V15.92C78.2159 16.82 78.7159 17.32 79.6159 17.32H84.2159C84.3359 17.32 84.4159 17.4 84.4159 17.54V19.78C84.4159 19.92 84.3359 20 84.2159 20H75.8559C75.7359 20 75.6559 19.92 75.6559 19.78V5.22ZM91.9182 20.22C87.9182 20.22 84.8982 16.92 84.8982 12.48C84.8982 8.06 87.9182 4.78 91.9182 4.78C95.8982 4.78 98.9182 8.06 98.9182 12.48C98.9182 16.92 95.8982 20.22 91.9182 20.22ZM91.9182 17.52C94.3782 17.52 96.3182 15.4 96.3182 12.48C96.3182 9.62 94.3782 7.46 91.9182 7.46C89.4382 7.46 87.5182 9.62 87.5182 12.48C87.5182 15.4 89.4382 17.52 91.9182 17.52ZM103.729 5.16C103.769 5.04 103.869 5 103.969 5H106.749C106.849 5 106.949 5.04 106.989 5.16L111.789 19.74C111.829 19.92 111.769 20 111.629 20H109.329C109.229 20 109.129 19.96 109.089 19.84L108.789 18.9C108.329 17.46 107.429 16.78 106.049 16.78H104.649C103.269 16.78 102.369 17.46 101.909 18.9L101.609 19.84C101.569 19.96 101.469 20 101.369 20H99.089C98.949 20 98.889 19.92 98.929 19.74L103.729 5.16ZM106.229 14.32C106.949 14.32 107.269 13.8 107.029 13.04L105.989 9.74C105.689 8.78 104.989 8.78 104.689 9.74L103.669 13.04C103.429 13.8 103.749 14.32 104.469 14.32H106.229ZM114.868 9.06C114.868 8.16 114.368 7.66 113.468 7.66H110.848C110.728 7.66 110.648 7.58 110.648 7.46V5.2C110.648 5.08 110.728 5 110.848 5H121.468C121.588 5 121.668 5.08 121.668 5.2V7.46C121.668 7.58 121.588 7.66 121.468 7.66H118.848C117.948 7.66 117.448 8.16 117.448 9.06V19.8C117.448 19.92 117.368 20 117.248 20H115.068C114.948 20 114.868 19.92 114.868 19.8V9.06ZM123.453 5.22C123.453 5.08 123.533 5 123.653 5H125.813C125.933 5 126.013 5.08 126.013 5.22V19.78C126.013 19.92 125.933 20 125.813 20H123.653C123.533 20 123.453 19.92 123.453 19.78V5.22ZM128.976 5.2C128.976 5.08 129.056 5 129.176 5H130.996C131.096 5 131.176 5.02 131.236 5.12L136.956 13.38C137.496 14.18 138.176 14.14 138.176 13.18V5.2C138.176 5.08 138.256 5 138.376 5H140.556C140.676 5 140.756 5.08 140.756 5.2V19.8C140.756 19.92 140.676 20 140.556 20H138.736C138.636 20 138.556 19.98 138.496 19.88C136.576 17.08 134.656 14.4 132.736 11.58C132.196 10.78 131.536 10.86 131.536 11.82V19.8C131.536 19.92 131.456 20 131.336 20H129.176C129.056 20 128.976 19.92 128.976 19.8V5.2ZM150.186 20.22C145.846 20.22 142.886 16.96 142.886 12.5C142.886 8.08 145.906 4.78 149.966 4.78C153.206 4.78 155.566 6.7 156.386 9.6C156.426 9.78 156.346 9.86 156.206 9.86H153.766C153.666 9.86 153.586 9.82 153.526 9.7C152.926 8.42 151.726 7.48 149.966 7.48C147.426 7.48 145.506 9.6 145.506 12.5C145.506 15.48 147.366 17.56 150.186 17.56C151.686 17.56 152.866 17.04 153.546 15.92C153.946 15.24 153.526 14.7 152.766 14.7H148.726C148.606 14.7 148.526 14.6 148.526 14.48V12.42C148.526 12.28 148.606 12.2 148.726 12.2H155.846C156.706 12.2 156.906 12.7 156.846 13.42C156.666 17.24 154.046 20.22 150.186 20.22ZM163.664 5.22C163.664 5.08 163.744 5 163.864 5H172.224C172.344 5 172.424 5.08 172.424 5.22V7.4C172.424 7.52 172.344 7.62 172.224 7.62H167.604C166.704 7.62 166.204 8.16 166.204 9.16V9.84C166.204 10.84 166.704 11.38 167.604 11.38H171.484C171.604 11.38 171.684 11.46 171.684 11.6V13.72C171.684 13.86 171.604 13.96 171.484 13.96H167.604C166.704 13.96 166.204 14.5 166.204 15.5V20H163.864C163.744 20 163.664 19.92 163.664 19.78V5.22ZM174.679 5.22C174.679 5.08 174.759 5 174.879 5H183.379C183.499 5 183.579 5.08 183.579 5.22V7.4C183.579 7.52 183.499 7.62 183.379 7.62H178.579C177.679 7.62 177.179 8.16 177.179 9.16V9.6C177.179 10.58 177.679 11.14 178.579 11.14H182.659C182.779 11.14 182.859 11.22 182.859 11.36V13.52C182.859 13.64 182.779 13.72 182.659 13.72H178.579C177.679 13.72 177.179 14.3 177.179 15.28V15.84C177.179 16.84 177.679 17.38 178.579 17.38H183.379C183.499 17.38 183.579 17.48 183.579 17.6V19.78C183.579 19.92 183.499 20 183.379 20H174.879C174.759 20 174.679 19.92 174.679 19.78V5.22ZM189.569 5.16C189.609 5.04 189.709 5 189.809 5H192.589C192.689 5 192.789 5.04 192.829 5.16L197.629 19.74C197.669 19.92 197.609 20 197.469 20H195.169C195.069 20 194.969 19.96 194.929 19.84L194.629 18.9C194.169 17.46 193.269 16.78 191.889 16.78H190.489C189.109 16.78 188.209 17.46 187.749 18.9L187.449 19.84C187.409 19.96 187.309 20 187.209 20H184.929C184.789 20 184.729 19.92 184.769 19.74L189.569 5.16ZM192.069 14.32C192.789 14.32 193.109 13.8 192.869 13.04L191.829 9.74C191.529 8.78 190.829 8.78 190.529 9.74L189.509 13.04C189.269 13.8 189.589 14.32 190.309 14.32H192.069ZM200.708 9.06C200.708 8.16 200.208 7.66 199.308 7.66H196.688C196.568 7.66 196.488 7.58 196.488 7.46V5.2C196.488 5.08 196.568 5 196.688 5H207.308C207.428 5 207.508 5.08 207.508 5.2V7.46C207.508 7.58 207.428 7.66 207.308 7.66H204.688C203.788 7.66 203.288 8.16 203.288 9.06V19.8C203.288 19.92 203.208 20 203.088 20H200.908C200.788 20 200.708 19.92 200.708 19.8V9.06ZM218.012 15.06C218.012 14.12 217.512 13.6 216.612 13.6H213.092C212.192 13.6 211.692 14.12 211.692 15.06V19.8C211.692 19.92 211.612 20 211.492 20H209.332C209.212 20 209.132 19.92 209.132 19.8V5.2C209.132 5.08 209.212 5 209.332 5H211.492C211.612 5 211.692 5.08 211.692 5.2V9.5C211.692 10.44 212.192 10.96 213.092 10.96H216.612C217.512 10.96 218.012 10.44 218.012 9.5V5.2C218.012 5.08 218.092 5 218.212 5H220.372C220.492 5 220.572 5.08 220.572 5.2V19.8C220.572 19.92 220.492 20 220.372 20H218.212C218.092 20 218.012 19.92 218.012 19.8V15.06ZM223.371 5.22C223.371 5.08 223.451 5 223.571 5H232.071C232.191 5 232.271 5.08 232.271 5.22V7.4C232.271 7.52 232.191 7.62 232.071 7.62H227.271C226.371 7.62 225.871 8.16 225.871 9.16V9.6C225.871 10.58 226.371 11.14 227.271 11.14H231.351C231.471 11.14 231.551 11.22 231.551 11.36V13.52C231.551 13.64 231.471 13.72 231.351 13.72H227.271C226.371 13.72 225.871 14.3 225.871 15.28V15.84C225.871 16.84 226.371 17.38 227.271 17.38H232.071C232.191 17.38 232.271 17.48 232.271 17.6V19.78C232.271 19.92 232.191 20 232.071 20H223.571C223.451 20 223.371 19.92 223.371 19.78V5.22ZM234.64 5.2C234.64 5.08 234.72 5 234.84 5H240.24C242.72 5 244.8 6.56 244.8 9.58C244.8 11.12 244.12 12.64 242.62 13.4C241.2 14.1 240.78 14.28 241.54 15.16L242.68 16.54L245.4 19.76C245.5 19.88 245.44 20 245.28 20H242.3C242.2 20 242.12 19.96 242.06 19.88L238.92 16.02C238.1 15 237.2 15.32 237.2 16.62V19.8C237.2 19.92 237.12 20 237 20H234.84C234.72 20 234.64 19.92 234.64 19.8V5.2ZM239.84 11.56C241.26 11.56 242.2 10.88 242.2 9.58C242.2 8.3 241.26 7.66 239.86 7.66H238.2C237.56 7.66 237.2 8.02 237.2 8.66V10.56C237.2 11.2 237.56 11.56 238.2 11.56H239.84Z" fill="#FFFF77"/>
<rect y="3.34375" width="19.2962" height="19.2962" fill="#6D6C69"/>
<rect y="281.961" width="19.2962" height="19.2962" fill="#6D6C69"/>
<rect x="288.94" y="3.34375" width="19.2962" height="19.2962" fill="#6D6C69"/>
<rect x="288.94" y="281.961" width="19.2962" height="19.2962" fill="#FFFF77"/>
<path d="M243.529 285.553C243.529 285.445 243.591 285.383 243.683 285.383H245.35C245.443 285.383 245.505 285.445 245.505 285.553V293.812C245.505 294.506 245.891 294.892 246.585 294.892H250.136C250.228 294.892 250.29 294.954 250.29 295.062V296.791C250.29 296.899 250.228 296.961 250.136 296.961H243.683C243.591 296.961 243.529 296.899 243.529 296.791V285.553ZM256.081 297.131C252.993 297.131 250.662 294.584 250.662 291.157C250.662 287.745 252.993 285.213 256.081 285.213C259.153 285.213 261.484 287.745 261.484 291.157C261.484 294.584 259.153 297.131 256.081 297.131ZM256.081 295.047C257.98 295.047 259.477 293.41 259.477 291.157C259.477 288.949 257.98 287.282 256.081 287.282C254.167 287.282 252.685 288.949 252.685 291.157C252.685 293.41 254.167 295.047 256.081 295.047ZM261.554 285.553C261.523 285.445 261.569 285.383 261.677 285.383H263.545C263.622 285.383 263.7 285.43 263.73 285.507L265.784 292.16C266.092 293.179 266.849 293.179 267.157 292.16L269.211 285.507C269.241 285.43 269.319 285.383 269.396 285.383H271.279C271.387 285.383 271.433 285.445 271.403 285.553L267.605 296.837C267.574 296.915 267.497 296.961 267.42 296.961H265.521C265.444 296.961 265.367 296.915 265.336 296.837L261.554 285.553ZM272.699 285.553C272.699 285.445 272.761 285.383 272.854 285.383H279.414C279.507 285.383 279.569 285.445 279.569 285.553V287.236C279.569 287.328 279.507 287.405 279.414 287.405H275.709C275.015 287.405 274.629 287.822 274.629 288.594V288.934C274.629 289.69 275.015 290.122 275.709 290.122H278.859C278.951 290.122 279.013 290.184 279.013 290.292V291.959C279.013 292.052 278.951 292.114 278.859 292.114H275.709C275.015 292.114 274.629 292.561 274.629 293.318V293.75C274.629 294.522 275.015 294.939 275.709 294.939H279.414C279.507 294.939 279.569 295.016 279.569 295.109V296.791C279.569 296.899 279.507 296.961 279.414 296.961H272.854C272.761 296.961 272.699 296.899 272.699 296.791V285.553Z" fill="#FFFF77"/>
<path d="M155.563 177.952C156.566 177.126 158.644 176.982 159.643 177.923C160.447 178.891 160.581 181.712 159.793 183.105C158.753 184.321 156.108 184.238 155.265 182.839C154.695 181.718 154.596 179.06 155.493 178.023L155.563 177.952Z" fill="white"/>
<path d="M178.418 131.552C179.747 130.13 180.099 127.639 182.072 126.729C183.932 125.647 186.503 127.539 186.311 129.582C186.065 132.381 182.792 132.826 181.108 134.466C179.647 135.967 179.186 138.648 177.047 139.311C175.171 139.919 173.073 138.087 173.307 136.166C173.592 133.633 176.797 133.149 178.341 131.628L178.415 131.555L178.418 131.552Z" fill="white"/>
<path d="M194.714 63.9546C196.267 62.4848 197.721 60.8645 199.251 59.3659C202.313 55.994 204.51 55.4176 205.797 60.0768C206.396 62.3183 206.088 66.4716 208.33 67.6628C210.053 67.951 211.106 65.7318 212.381 64.8192C214.251 62.8179 216.486 61.7163 217.594 58.7479C218.327 56.5736 218.186 53.8645 219.708 52.0681C221.494 49.929 223.579 51.2483 224.28 53.8581C224.921 57.0891 224.77 61.031 224.492 64.3773C224.002 68.1431 220.947 69.1582 218.817 71.4093C214.485 76.2959 212.81 74.1632 208.314 76.7538C204.042 80.3403 211.846 82.87 214.869 81.1792C217.184 80.3178 218.311 78.5214 219.708 77.2277C223.81 73.5132 225.401 81.8741 224.181 84.7497C223.323 87.5132 220.94 88.778 219.093 90.7506C216.47 93.2451 213.886 95.8837 211.478 98.4711C208.112 102.797 203.466 100.162 200.6 103.165C197.74 107.575 202.406 117.873 195.931 119.577C191.166 120.208 186.141 119.83 181.328 119.964C178.972 120.025 174.219 119.228 174.572 116.314C174.809 114.053 180.214 111.882 177.995 109.551C175.862 107.809 172.16 111.542 170.386 113.073C168.459 115.058 166.966 116.676 169.045 118.783C169.922 119.794 171.164 120.918 171.936 121.927C173.928 124.495 170.252 126.029 167.991 126.25C162.205 126.394 159.905 129.507 157.055 133.721C152.041 139.789 162.647 139.498 166.576 139.578C174.767 139.783 173.912 145.655 166.572 146.014C162.131 146.171 157.645 145.976 153.181 145.966C148.108 145.729 144.355 145.972 141.345 149.655C139.763 151.439 136.254 153.799 136.314 155.973C136.455 157.097 137.669 158.115 138.787 157.933C141.271 157.199 142.729 154.064 145.242 153.155C147.298 152.265 150.404 152.415 153.328 152.422C157.184 152.447 161.052 152.524 164.898 152.534C167.7 152.607 170.633 152.117 172.606 150.023C176.179 146.975 178.936 142.805 182.955 140.426C186.446 140.058 186.82 146.277 186.039 148.726C184.985 151.996 182.513 152.912 180.65 155.195C177.117 159.96 173.787 158.224 169.362 159.806C166.271 161.279 167.386 165.627 165.82 168.429C164.497 171.026 161.029 171.283 158.404 170.29C154.116 168.602 156.652 165.794 158.343 163.38C159.223 162.243 159.13 160.36 157.459 160.424C156.13 160.443 154.048 162.56 152.201 163.408C149.472 164.833 145.854 164.129 143.43 166.217C139.843 169.23 136.958 172.941 133.327 175.91C131.585 177.299 129.298 177.315 127.031 177.725C125.1 178.084 122.301 179.624 123.233 181.728C124.812 184.527 131.7 184.552 134.217 181.978C136.907 179.285 139.424 176.377 142.363 173.659C144.509 171.318 148.086 170.456 151.096 171.552C157.894 174.261 149.319 177.703 149.485 181.014C149.905 183.704 154.317 185.017 153.674 187.896C151.262 191.482 147.529 194.396 144.48 197.396C142.184 199.283 141.758 202.203 141.717 205.191C141.627 206.606 141.496 208.354 140.545 209.222C139.536 210.167 137.525 210.058 134.531 210.077C127.444 210.148 117.687 209.895 112.064 210.218C106.812 211.038 111.26 219.178 105.701 221.823C103.831 222.55 102.383 223.578 102.518 225.8C102.463 233.379 102.518 255.574 102.489 263.551C102.428 264.806 102.521 266.115 101.41 266.852C99.2291 267.941 96.2478 267.71 93.7084 267.281C90.346 266.609 90.5126 262.865 90.4966 260.102C90.551 257.178 90.2532 252.951 91.0826 250.931C92.6196 247.011 97.2853 248.721 97.0195 243.098C97.074 237.914 97.0196 227.872 97.0484 222.29C97.0484 220.824 97.1828 219.091 98.041 217.964C99.0658 216.523 101.445 215.217 101.419 213.266C100.984 211.054 99.0017 209.081 97.6408 207.394C95.9276 205.597 94.2176 204.156 92.3827 202.859C90.9481 201.831 90.5542 199.974 90.5286 198.229C90.4197 193.663 90.6151 186.656 90.4133 182C90.5254 178.91 87.7555 177.793 85.8533 176.012C82.6287 172.663 89.5455 170.799 90.0579 167.049C90.583 165.237 90.5958 163.123 91.5501 161.474C92.831 159.098 95.1046 158.768 96.2414 156.143C97.2533 153.895 96.8691 151.115 97.8618 148.877C98.688 146.69 100.629 145.521 101.548 143.42C102.672 141.208 102.29 138.025 103.302 135.844C105.983 129.821 109.72 139.049 112.819 138.614C116.38 137.323 114.904 131.45 116.697 128.735C118.209 126.004 120.793 126.974 121.699 130.336C122.231 132.177 122.068 134.233 122.724 136.049C123.749 139.145 126.509 140.061 128.014 137.618C129.276 134.88 128.459 130.208 128.687 126.602C128.703 121.636 128.655 116.186 128.712 112.839C128.427 108.773 131.854 108.263 134.089 105.769C137.477 101.468 139.533 101.792 144.765 101.087C149.226 100.171 147.695 94.9134 148.992 91.628C149.543 89.9596 151.189 88.3778 152.87 89.8508C155.297 91.5351 158.135 96.8444 159.787 91.2821C160.491 89.1014 160.206 86.3572 161.324 84.3878C162.739 81.4866 165.66 82.1655 166.432 85.1724C167.988 88.9894 164.456 101.039 170.854 101.074C173.057 100.828 173.496 98.3654 173.413 96.4601C173.425 89.7227 173.413 75.2295 173.419 68.015C173.374 65.6518 173.608 62.9043 176.48 62.6001C179.135 61.8828 187.627 62.7602 184.713 67.1696C183.163 69.0077 180.928 69.5553 180.304 72.7254C179.862 76.7026 179.519 81.9445 180.589 85.6943C181.498 88.1568 183.692 88.1344 185.008 86.3892C185.716 85.5086 186.132 84.4359 186.321 83.2863C186.801 71.2364 185.591 72.687 194.653 64.0315L194.724 63.9642L194.714 63.9546ZM205.163 89.1014C204.695 88.6756 203.991 88.6211 203.36 88.5827C202.057 88.5475 200.564 88.5154 199.927 89.1014C198.973 89.9468 199.015 93.5973 199.857 94.4747C200.734 95.3169 204.385 95.3585 205.23 94.4043C205.816 93.7638 205.784 92.2716 205.749 90.9683C205.71 90.3375 205.656 89.6298 205.23 89.1655L205.166 89.1014H205.163ZM192.165 102.096C191.697 101.67 190.993 101.616 190.362 101.577C189.059 101.542 187.566 101.51 186.929 102.096C185.975 102.941 186.017 106.592 186.859 107.469C187.736 108.311 191.387 108.353 192.232 107.399C192.818 106.758 192.786 105.266 192.751 103.963C192.712 103.332 192.658 102.624 192.232 102.16L192.168 102.096H192.165ZM140.541 113.883C139.072 113.188 136.577 113.265 135.741 114.892C135.431 115.542 135.392 116.391 135.37 117.188C135.546 122.606 134.947 132.478 135.639 137.826C136.382 139.888 139.869 139.92 141.166 138.543C141.966 137.547 141.809 136.228 141.858 134.934C141.858 132.744 141.858 130.445 141.858 128.095C141.858 125.222 141.858 122.219 141.858 119.778C141.729 116.708 142.306 115.036 140.612 113.925L140.541 113.886V113.883ZM154.26 114.008C153.792 113.582 153.088 113.528 152.457 113.489C151.154 113.454 149.661 113.422 149.024 114.008C148.07 114.853 148.111 118.504 148.954 119.381C149.831 120.224 153.482 120.265 154.327 119.311C154.913 118.67 154.881 117.178 154.846 115.875C154.807 115.244 154.753 114.536 154.327 114.072L154.263 114.008H154.26ZM127.793 146.552C126.41 145.633 123.915 145.687 122.923 147.18C122.253 148.208 122.372 150.276 122.356 152.556C122.407 154.176 122.183 156.005 122.778 157.487C123.595 159.258 126.4 159.335 127.79 158.326C128.472 157.788 128.68 156.982 128.779 156.107C128.933 154.192 128.85 151.922 128.853 150.001C128.831 148.358 128.626 147.199 127.864 146.606L127.79 146.549L127.793 146.552ZM114.798 164.965C113.415 164.046 110.921 164.1 109.928 165.592C109.259 166.62 109.377 168.689 109.361 170.969C109.412 172.589 109.188 174.417 109.784 175.9C110.6 177.671 113.405 177.748 114.795 176.739C115.477 176.201 115.686 175.394 115.785 174.52C115.938 172.605 115.855 170.335 115.858 168.413C115.836 166.771 115.631 165.611 114.869 165.019L114.795 164.961L114.798 164.965ZM101.541 171.209C100.597 170.69 99.3156 170.77 98.4702 171.465C97.4903 172.256 97.4775 173.7 97.4583 174.936C97.4871 180.069 97.3782 188.866 97.5031 193.976C97.4294 196.474 100.222 197.813 102.025 196.125C103.024 195.046 102.819 193.509 102.87 192.078C102.87 187.364 102.87 181.488 102.87 176.96C102.768 173.992 103.254 172.403 101.605 171.244L101.541 171.206V171.209ZM134.72 197.867C133.733 196.548 130.627 196.932 128.773 196.865C127.21 196.9 125.59 196.743 124.139 197.169C121.847 197.867 121.725 201.94 123.838 202.952C125.321 203.548 127.15 203.324 128.77 203.375C131.053 203.359 133.119 203.477 134.146 202.808C135.639 201.815 135.69 199.321 134.774 197.938L134.716 197.864L134.72 197.867Z" fill="white"/>
</svg>
