<svg width="309" height="302" viewBox="0 0 309 302" fill="none" xmlns="http://www.w3.org/2000/svg">
<path d="M51.0927 20.22C46.7527 20.22 43.7927 16.96 43.7927 12.5C43.7927 8.08 46.8127 4.78 50.8727 4.78C54.1127 4.78 56.4727 6.7 57.2927 9.6C57.3327 9.78 57.2527 9.86 57.1127 9.86H54.6727C54.5727 9.86 54.4927 9.82 54.4327 9.7C53.8327 8.42 52.6327 7.48 50.8727 7.48C48.3327 7.48 46.4127 9.6 46.4127 12.5C46.4127 15.48 48.2727 17.56 51.0927 17.56C52.5927 17.56 53.7727 17.04 54.4527 15.92C54.8527 15.24 54.4327 14.7 53.6727 14.7H49.6327C49.5127 14.7 49.4327 14.6 49.4327 14.48V12.42C49.4327 12.28 49.5127 12.2 49.6327 12.2H56.7527C57.6127 12.2 57.8127 12.7 57.7527 13.42C57.5727 17.24 54.9527 20.22 51.0927 20.22ZM59.9215 5.2C59.9215 5.08 60.0015 5 60.1215 5H65.5215C68.0015 5 70.0815 6.56 70.0815 9.58C70.0815 11.12 69.4015 12.64 67.9015 13.4C66.4815 14.1 66.0615 14.28 66.8215 15.16L67.9615 16.54L70.6815 19.76C70.7815 19.88 70.7215 20 70.5615 20H67.5815C67.4815 20 67.4015 19.96 67.3415 19.88L64.2015 16.02C63.3815 15 62.4815 15.32 62.4815 16.62V19.8C62.4815 19.92 62.4015 20 62.2815 20H60.1215C60.0015 20 59.9215 19.92 59.9215 19.8V5.2ZM65.1215 11.56C66.5415 11.56 67.4815 10.88 67.4815 9.58C67.4815 8.3 66.5415 7.66 65.1415 7.66H63.4815C62.8415 7.66 62.4815 8.02 62.4815 8.66V10.56C62.4815 11.2 62.8415 11.56 63.4815 11.56H65.1215ZM78.801 20.22C74.801 20.22 71.781 16.92 71.781 12.48C71.781 8.06 74.801 4.78 78.801 4.78C82.781 4.78 85.801 8.06 85.801 12.48C85.801 16.92 82.781 20.22 78.801 20.22ZM78.801 17.52C81.261 17.52 83.201 15.4 83.201 12.48C83.201 9.62 81.261 7.46 78.801 7.46C76.321 7.46 74.401 9.62 74.401 12.48C74.401 15.4 76.321 17.52 78.801 17.52ZM85.8718 5.22C85.8318 5.08 85.9118 5 86.0518 5H88.4918C88.6118 5 88.6718 5.06 88.7118 5.18L90.9918 13.74C91.2518 14.72 91.7718 14.58 92.0118 13.6L94.0918 5.18C94.1118 5.06 94.1918 5 94.3118 5H97.1918C97.3118 5 97.3918 5.06 97.4118 5.18L99.4918 13.7C99.7318 14.68 100.452 14.66 100.692 13.68L102.792 5.18C102.812 5.06 102.892 5 103.012 5H105.452C105.592 5 105.672 5.08 105.632 5.22L101.672 19.82C101.652 19.92 101.572 20 101.452 20H98.8318C98.7118 20 98.6318 19.94 98.6118 19.82L96.3518 10.46C96.1118 9.48 95.3718 9.48 95.1318 10.46L92.8718 19.82C92.8518 19.94 92.7718 20 92.6518 20H90.0318C89.9118 20 89.8318 19.92 89.8118 19.82L85.8718 5.22ZM107.445 5.22C107.445 5.08 107.525 5 107.645 5H109.805C109.925 5 110.005 5.08 110.005 5.22V19.78C110.005 19.92 109.925 20 109.805 20H107.645C107.525 20 107.445 19.92 107.445 19.78V5.22ZM112.968 5.2C112.968 5.08 113.048 5 113.168 5H114.988C115.088 5 115.168 5.02 115.228 5.12L120.948 13.38C121.488 14.18 122.168 14.14 122.168 13.18V5.2C122.168 5.08 122.248 5 122.368 5H124.548C124.668 5 124.748 5.08 124.748 5.2V19.8C124.748 19.92 124.668 20 124.548 20H122.728C122.628 20 122.548 19.98 122.488 19.88C120.568 17.08 118.648 14.4 116.728 11.58C116.188 10.78 115.528 10.86 115.528 11.82V19.8C115.528 19.92 115.448 20 115.328 20H113.168C113.048 20 112.968 19.92 112.968 19.8V5.2ZM134.179 20.22C129.839 20.22 126.879 16.96 126.879 12.5C126.879 8.08 129.899 4.78 133.959 4.78C137.199 4.78 139.559 6.7 140.379 9.6C140.419 9.78 140.339 9.86 140.199 9.86H137.759C137.659 9.86 137.579 9.82 137.519 9.7C136.919 8.42 135.719 7.48 133.959 7.48C131.419 7.48 129.499 9.6 129.499 12.5C129.499 15.48 131.359 17.56 134.179 17.56C135.679 17.56 136.859 17.04 137.539 15.92C137.939 15.24 137.519 14.7 136.759 14.7H132.719C132.599 14.7 132.519 14.6 132.519 14.48V12.42C132.519 12.28 132.599 12.2 132.719 12.2H139.839C140.699 12.2 140.899 12.7 140.839 13.42C140.659 17.24 138.039 20.22 134.179 20.22ZM147.656 5.2C147.656 5.08 147.736 5 147.856 5H151.016C151.116 5 151.216 5.04 151.256 5.16L154.636 14.34C154.956 15.22 155.636 15.22 155.956 14.34L159.336 5.16C159.376 5.04 159.476 5 159.576 5H162.736C162.856 5 162.936 5.08 162.936 5.2V19.8C162.936 19.92 162.856 20 162.736 20H160.556C160.436 20 160.356 19.92 160.356 19.8V12.26C160.356 11.3 159.556 11.16 159.216 12.06L156.416 19.66C156.376 19.78 156.296 19.82 156.196 19.82H154.396C154.296 19.82 154.216 19.78 154.176 19.66L151.356 12.04C151.016 11.14 150.216 11.3 150.216 12.26V19.8C150.216 19.92 150.136 20 150.016 20H147.856C147.736 20 147.656 19.92 147.656 19.8V5.2ZM171.142 20.22C167.962 20.22 165.602 17.88 165.602 13.76V5.2C165.602 5.08 165.682 5 165.802 5H167.962C168.082 5 168.162 5.08 168.162 5.2V13.66C168.162 16.34 169.382 17.56 171.142 17.56C172.902 17.56 174.102 16.34 174.102 13.66V5.2C174.102 5.08 174.182 5 174.302 5H176.482C176.602 5 176.682 5.08 176.682 5.2V13.76C176.682 17.88 174.302 20.22 171.142 20.22ZM183.736 20.22C180.236 20.22 178.716 17.58 178.556 15.44C178.556 15.32 178.636 15.24 178.756 15.24H181.016C181.136 15.24 181.196 15.3 181.216 15.42C181.416 16.76 182.276 17.7 183.736 17.7C184.936 17.7 185.876 16.98 185.876 15.94C185.876 12.84 178.776 14.52 178.776 9.1C178.776 6.7 180.556 4.78 183.416 4.78C186.516 4.78 188.036 7.08 188.196 9.28C188.216 9.4 188.136 9.48 188.016 9.48H185.776C185.656 9.48 185.576 9.42 185.556 9.28C185.416 8.18 184.656 7.26 183.416 7.26C182.136 7.26 181.336 8.06 181.336 9.1C181.336 12.02 188.436 10.32 188.436 15.94C188.436 18.48 186.156 20.22 183.736 20.22ZM199.368 15.06C199.368 14.12 198.868 13.6 197.968 13.6H194.448C193.548 13.6 193.048 14.12 193.048 15.06V19.8C193.048 19.92 192.968 20 192.848 20H190.688C190.568 20 190.488 19.92 190.488 19.8V5.2C190.488 5.08 190.568 5 190.688 5H192.848C192.968 5 193.048 5.08 193.048 5.2V9.5C193.048 10.44 193.548 10.96 194.448 10.96H197.968C198.868 10.96 199.368 10.44 199.368 9.5V5.2C199.368 5.08 199.448 5 199.568 5H201.728C201.848 5 201.928 5.08 201.928 5.2V19.8C201.928 19.92 201.848 20 201.728 20H199.568C199.448 20 199.368 19.92 199.368 19.8V15.06ZM204.726 5.2C204.726 5.08 204.806 5 204.926 5H210.326C212.806 5 214.886 6.56 214.886 9.58C214.886 11.12 214.206 12.64 212.706 13.4C211.286 14.1 210.866 14.28 211.626 15.16L212.766 16.54L215.486 19.76C215.586 19.88 215.526 20 215.366 20H212.386C212.286 20 212.206 19.96 212.146 19.88L209.006 16.02C208.186 15 207.286 15.32 207.286 16.62V19.8C207.286 19.92 207.206 20 207.086 20H204.926C204.806 20 204.726 19.92 204.726 19.8V5.2ZM209.926 11.56C211.346 11.56 212.286 10.88 212.286 9.58C212.286 8.3 211.346 7.66 209.946 7.66H208.286C207.646 7.66 207.286 8.02 207.286 8.66V10.56C207.286 11.2 207.646 11.56 208.286 11.56H209.926ZM223.606 20.22C219.606 20.22 216.586 16.92 216.586 12.48C216.586 8.06 219.606 4.78 223.606 4.78C227.586 4.78 230.606 8.06 230.606 12.48C230.606 16.92 227.586 20.22 223.606 20.22ZM223.606 17.52C226.066 17.52 228.006 15.4 228.006 12.48C228.006 9.62 226.066 7.46 223.606 7.46C221.126 7.46 219.206 9.62 219.206 12.48C219.206 15.4 221.126 17.52 223.606 17.52ZM239.114 20.22C235.114 20.22 232.094 16.92 232.094 12.48C232.094 8.06 235.114 4.78 239.114 4.78C243.094 4.78 246.114 8.06 246.114 12.48C246.114 16.92 243.094 20.22 239.114 20.22ZM239.114 17.52C241.574 17.52 243.514 15.4 243.514 12.48C243.514 9.62 241.574 7.46 239.114 7.46C236.634 7.46 234.714 9.62 234.714 12.48C234.714 15.4 236.634 17.52 239.114 17.52ZM248.261 5.2C248.261 5.08 248.341 5 248.461 5H251.621C251.721 5 251.821 5.04 251.861 5.16L255.241 14.34C255.561 15.22 256.241 15.22 256.561 14.34L259.941 5.16C259.981 5.04 260.081 5 260.181 5H263.341C263.461 5 263.541 5.08 263.541 5.2V19.8C263.541 19.92 263.461 20 263.341 20H261.161C261.041 20 260.961 19.92 260.961 19.8V12.26C260.961 11.3 260.161 11.16 259.821 12.06L257.021 19.66C256.981 19.78 256.901 19.82 256.801 19.82H255.001C254.901 19.82 254.821 19.78 254.781 19.66L251.961 12.04C251.621 11.14 250.821 11.3 250.821 12.26V19.8C250.821 19.92 250.741 20 250.621 20H248.461C248.341 20 248.261 19.92 248.261 19.8V5.2Z" fill="#FFFF77"/>
<rect y="3.34375" width="19.2962" height="19.2962" fill="#6D6C69"/>
<rect y="281.961" width="19.2962" height="19.2962" fill="#6D6C69"/>
<rect x="288.94" y="3.34375" width="19.2962" height="19.2962" fill="#6D6C69"/>
<rect x="288.94" y="281.961" width="19.2962" height="19.2962" fill="#FFFF77"/>
<path d="M243.529 285.553C243.529 285.445 243.591 285.383 243.683 285.383H245.35C245.443 285.383 245.505 285.445 245.505 285.553V293.812C245.505 294.506 245.891 294.892 246.585 294.892H250.136C250.228 294.892 250.29 294.954 250.29 295.062V296.791C250.29 296.899 250.228 296.961 250.136 296.961H243.683C243.591 296.961 243.529 296.899 243.529 296.791V285.553ZM256.081 297.131C252.993 297.131 250.662 294.584 250.662 291.157C250.662 287.745 252.993 285.213 256.081 285.213C259.153 285.213 261.484 287.745 261.484 291.157C261.484 294.584 259.153 297.131 256.081 297.131ZM256.081 295.047C257.98 295.047 259.477 293.41 259.477 291.157C259.477 288.949 257.98 287.282 256.081 287.282C254.167 287.282 252.685 288.949 252.685 291.157C252.685 293.41 254.167 295.047 256.081 295.047ZM261.554 285.553C261.523 285.445 261.569 285.383 261.677 285.383H263.545C263.622 285.383 263.7 285.43 263.73 285.507L265.784 292.16C266.092 293.179 266.849 293.179 267.157 292.16L269.211 285.507C269.241 285.43 269.319 285.383 269.396 285.383H271.279C271.387 285.383 271.433 285.445 271.403 285.553L267.605 296.837C267.574 296.915 267.497 296.961 267.42 296.961H265.521C265.444 296.961 265.367 296.915 265.336 296.837L261.554 285.553ZM272.699 285.553C272.699 285.445 272.761 285.383 272.854 285.383H279.414C279.507 285.383 279.569 285.445 279.569 285.553V287.236C279.569 287.328 279.507 287.405 279.414 287.405H275.709C275.015 287.405 274.629 287.822 274.629 288.594V288.934C274.629 289.69 275.015 290.122 275.709 290.122H278.859C278.951 290.122 279.013 290.184 279.013 290.292V291.959C279.013 292.052 278.951 292.114 278.859 292.114H275.709C275.015 292.114 274.629 292.561 274.629 293.318V293.75C274.629 294.522 275.015 294.939 275.709 294.939H279.414C279.507 294.939 279.569 295.016 279.569 295.109V296.791C279.569 296.899 279.507 296.961 279.414 296.961H272.854C272.761 296.961 272.699 296.899 272.699 296.791V285.553Z" fill="#FFFF77"/>
<path d="M218.376 97.2136C219.991 95.2968 220.192 92.3468 220.182 89.8525C220.38 83.1732 219.705 76.3477 220.446 69.7345C222.523 61.8968 227.366 67.8247 230.09 71.6792C233.409 75.7842 231.6 76.7339 228.952 80.0597C226.023 84.0847 227.87 90.0125 226.868 94.681C226.124 98.9217 222.888 99.1583 221.267 102.192C219.034 107.302 221.149 112.531 213.555 113.355C208.597 113.731 206.019 116.065 205.908 121.2C205.546 136.712 206.277 152.356 206.138 167.858C206.204 171.977 205.379 176.878 210.914 176.52C221.587 176.704 240.509 176.238 251.822 176.697C257.207 178.259 250.323 188.104 259.834 191.621C261.316 192.54 261.347 194.488 261.33 196.161C260.902 206.848 262.214 229.154 260.787 238.168C259.187 240.248 252.706 239.848 250.225 238.704C247.529 237.552 246.854 234.484 244.089 233.364C241.229 232.299 236.623 231.861 234.132 233.952C233.022 235.166 233.106 237.625 233.092 241.104C233.109 245.56 233.092 251.266 233.082 255.374C233.196 261.636 231.506 260.982 225.946 261.062C219.764 261.079 209.707 261.027 204.381 261.09C198.676 260.453 197.962 268.646 192.908 264.746C188.354 261.712 184.979 257.447 181.083 253.676C178.749 251.443 177.928 249.999 180.551 247.578C181.612 246.458 182.711 245.341 183.755 244.21C185.174 242.725 186.284 240.986 188.809 240.186C190.048 239.789 191.391 239.653 192.695 239.747C196.665 239.765 198.923 243.003 201.358 245.585C203.862 247.964 205.971 250.945 208.945 252.706C211.433 253.349 213.687 249.206 215.625 247.926C219.601 245.07 220.269 244.221 220.151 238.898C220.158 234.978 220.151 230.511 220.151 226.632C220.14 223.052 220.203 220.61 218.919 219.473C216.807 217.873 213.214 218.109 210.636 218.579C209.206 218.92 208.016 219.57 206.997 220.551C205.445 221.967 204.256 224.086 202.735 224.03C201.448 223.953 200.599 222.83 199.75 221.943C197.451 218.756 194.396 218.039 190.239 218.206C187.968 218.199 185.515 218.217 183.577 218.186C180.944 218.036 178.314 218.377 177.924 215.559C177.58 208.174 177.879 191.608 177.781 182.594C177.768 179.348 177.785 177.678 176.08 177.052C172.17 176.092 167.237 176.694 163.069 176.572C159.646 176.631 157.51 176.802 157.785 180.865C157.611 190.647 158.094 213.82 157.59 223.633C156.88 225.853 155.071 225.147 151.613 225.348C149.543 225.348 146.913 225.348 144.102 225.348C138.536 225.383 132.657 225.275 127.188 225.397C119.312 225.989 126.099 233.43 114.285 232.49C108.844 232.494 102.457 232.49 97.089 232.49C92.3125 232.529 88.6702 231.805 88.4893 236.891C88.3884 243.748 87.2821 244.798 82.5926 249.116C81.041 250.695 79.8338 252.65 77.0507 253.447C74.5564 254.16 71.0323 254.01 69.2337 252.16C67.4212 249.999 67.2995 246.479 67.8735 243.772C68.2422 239.605 77.6874 236.254 71.4324 233.047C70.4965 232.657 69.2302 232.564 68.117 232.518C64.1789 232.459 58.0909 232.497 53.9371 232.497C51.314 232.483 47.9639 232.532 47.5186 235.771C46.7672 238.773 47.8908 243.39 45.1599 245.536C42.7178 247.181 38.4735 247.018 35.84 245.741C33.5996 244.565 32.2951 242.29 30.4304 240.666C28.5031 239.104 26.3045 236.755 26.1305 233.718C25.9322 231.468 25.8939 229.029 26.4958 226.879C27.0768 225.188 28.5101 225.366 31.2166 225.345C46.0053 225.355 74.5738 225.338 84.5825 225.345C88.2388 225.533 88.3153 224.413 88.3362 220.718C88.3571 218.224 88.3431 214.425 88.3466 210.376C88.3466 206.476 88.3466 202.378 88.3466 199.111C88.3466 196.314 88.3849 194.213 87.6682 192.943C85.9845 189.767 82.9091 192.376 81.3784 194.627C79.4512 197.911 75.4818 198.071 72.0064 197.967C67.7482 197.762 64.1789 198.676 61.4271 196.186C58.8145 192.964 66.6663 190.209 66.8229 186.024C67.3621 183.213 67.1638 180.107 69.1259 177.936C71.0845 175.852 73.1822 174.092 75.2487 171.963C77.0786 169.855 79.6982 168.867 80.6931 166.174C82.4708 162.135 79.3155 152.026 83.6049 148.856C90.1904 146.571 87.8213 160.291 88.4788 164C88.5623 166.776 90.3226 168.658 92.57 170.001C96.3132 172.624 94.5355 178.099 96.8385 181.561C98.2718 183.777 100.519 183.905 101.646 186.348C102.805 189.085 102.366 192.199 102.467 195.152C102.478 200.315 101.866 205.317 108.674 205.008C112.921 205.171 115.287 201.724 117.948 199.07C124.878 193.984 120.37 189.214 125.007 184.539C127.22 183.064 129.31 181.355 129.38 178.44C130.232 173.406 127.665 165.704 132.678 162.285C136.866 158.792 140.839 154.304 144.635 150.314C151.387 144.918 153.568 152.558 165.233 137.446C166.416 135.494 168.709 134.889 170.949 134.903C175.788 134.802 182.781 134.993 187.425 134.781C193.179 134.865 191.168 128.133 192.532 124.345C193.983 120.664 197.701 118.793 200.178 115.846C206.002 109.539 212.57 103.677 218.3 97.3006L218.366 97.2171L218.376 97.2136ZM214.094 203.735C215.026 204.806 216.595 204.844 217.955 204.928C221.626 205.074 226.625 204.778 230.003 205.133C232.64 205.46 232.995 207.008 233.064 210.157C233.109 212.606 233.071 215.903 233.092 218.439C233.196 220.433 232.911 222.496 234.313 223.898C236.453 225.404 239.462 224.861 242.391 224.934C245.094 224.854 247.289 224.59 247.181 221.292C247.261 214.724 247.188 202.319 247.209 195.726C247.147 194.119 247.376 192.095 245.679 191.381C244.868 191.044 243.883 190.957 242.968 190.901C240.519 190.804 237.263 190.693 235.468 191.684C233.652 192.575 232.921 194.742 231.624 196.109C230.511 197.292 229.394 196.513 228.521 195.392C227.414 194.043 226.472 192.38 224.802 191.628C222.387 190.599 218.349 190.557 215.569 191.378C213.162 192.262 213.165 195.1 213.095 197.341C213.109 199.33 212.963 202.225 214.042 203.658L214.101 203.731L214.094 203.735Z" fill="white"/>
<path d="M126.337 112.209C127.84 114.067 127.903 118.112 126.024 119.859C124.194 121.198 120.468 121.181 118.802 119.64C117.25 117.98 117.229 114.247 118.572 112.411C120.294 110.515 124.441 110.609 126.233 112.104L126.337 112.209Z" fill="white"/>
<path d="M226.629 52.6544C227.092 53.1623 227.151 53.9276 227.192 54.6129C227.231 56.0288 227.265 57.6499 226.629 58.3422C225.71 59.3789 221.745 59.3336 220.791 58.4187C219.876 57.4655 219.831 53.4997 220.868 52.5813C221.564 51.9446 223.185 51.9795 224.601 52.0177C225.286 52.0595 226.055 52.1186 226.559 52.5813L226.629 52.6509V52.6544Z" fill="white"/>
</svg>
