<svg width="309" height="302" viewBox="0 0 309 302" fill="none" xmlns="http://www.w3.org/2000/svg">
<path d="M94.2209 20.22C90.2209 20.22 87.2009 16.9 87.2009 12.48C87.2009 8.06 90.2209 4.76 94.2209 4.76C98.2009 4.76 101.221 8.06 101.221 12.48C101.221 13.66 101.001 14.78 100.581 15.78C100.001 17.22 99.9009 18.28 100.801 19.48L100.981 19.72C101.081 19.84 101.021 19.98 100.861 19.98H98.6209C98.5209 19.98 98.4409 19.94 98.3809 19.84C98.0409 19.38 97.3409 19.62 96.0209 19.98C95.4409 20.14 94.8409 20.22 94.2209 20.22ZM94.7209 17.48C95.5009 17.38 95.6409 16.68 95.1409 16.02L93.4009 13.78C93.3009 13.64 93.3409 13.5 93.5009 13.5H95.9609C96.0609 13.5 96.1609 13.56 96.2209 13.64L96.9009 14.58C97.3609 15.22 97.9809 15.2 98.3009 14.46C99.5809 11.42 97.6409 7.46 94.2209 7.46C91.7409 7.46 89.8209 9.6 89.8209 12.48C89.8209 15.78 92.2209 17.78 94.7209 17.48ZM108.769 20.22C105.589 20.22 103.229 17.88 103.229 13.76V5.2C103.229 5.08 103.309 5 103.429 5H105.589C105.709 5 105.789 5.08 105.789 5.2V13.66C105.789 16.34 107.009 17.56 108.769 17.56C110.529 17.56 111.729 16.34 111.729 13.66V5.2C111.729 5.08 111.809 5 111.929 5H114.109C114.229 5 114.309 5.08 114.309 5.2V13.76C114.309 17.88 111.929 20.22 108.769 20.22ZM117.103 5.22C117.103 5.08 117.183 5 117.303 5H119.463C119.583 5 119.663 5.08 119.663 5.22V19.78C119.663 19.92 119.583 20 119.463 20H117.303C117.183 20 117.103 19.92 117.103 19.78V5.22ZM128.967 20.22C124.967 20.22 121.967 16.92 121.967 12.5C121.967 8.06 124.967 4.78 128.967 4.78C132.207 4.78 134.587 6.76 135.287 9.72C135.327 9.86 135.267 9.94 135.127 9.94H132.867C132.767 9.94 132.687 9.9 132.627 9.8C132.027 8.46 130.827 7.46 128.967 7.46C126.487 7.46 124.587 9.62 124.587 12.5C124.587 15.38 126.487 17.52 128.967 17.52C130.827 17.52 132.027 16.5 132.627 15.18C132.687 15.08 132.767 15.04 132.867 15.04H135.127C135.267 15.04 135.327 15.12 135.307 15.24C134.587 18.2 132.207 20.22 128.967 20.22ZM141.75 14.88C140.99 13.76 140.05 14.04 140.05 15.4V19.8C140.05 19.92 139.97 20 139.85 20H137.69C137.57 20 137.49 19.92 137.49 19.8V5.2C137.49 5.08 137.57 5 137.69 5H139.85C139.97 5 140.05 5.08 140.05 5.2V9C140.05 10.32 140.97 10.66 141.77 9.58L145.13 5.12C145.19 5.02 145.29 5 145.39 5H148.21C148.37 5 148.43 5.1 148.33 5.24L144.11 10.5C143.23 11.6 143.21 12.7 144.03 13.86L148.27 19.76C148.37 19.88 148.31 20 148.15 20H145.41C145.31 20 145.23 19.98 145.17 19.88L141.75 14.88ZM154.834 5.2C154.834 5.08 154.914 5 155.034 5H160.434C162.914 5 164.994 6.56 164.994 9.58C164.994 11.12 164.314 12.64 162.814 13.4C161.394 14.1 160.974 14.28 161.734 15.16L162.874 16.54L165.594 19.76C165.694 19.88 165.634 20 165.474 20H162.494C162.394 20 162.314 19.96 162.254 19.88L159.114 16.02C158.294 15 157.394 15.32 157.394 16.62V19.8C157.394 19.92 157.314 20 157.194 20H155.034C154.914 20 154.834 19.92 154.834 19.8V5.2ZM160.034 11.56C161.454 11.56 162.394 10.88 162.394 9.58C162.394 8.3 161.454 7.66 160.054 7.66H158.394C157.754 7.66 157.394 8.02 157.394 8.66V10.56C157.394 11.2 157.754 11.56 158.394 11.56H160.034ZM170.973 5.16C171.013 5.04 171.113 5 171.213 5H173.993C174.093 5 174.193 5.04 174.233 5.16L179.033 19.74C179.073 19.92 179.013 20 178.873 20H176.573C176.473 20 176.373 19.96 176.333 19.84L176.033 18.9C175.573 17.46 174.673 16.78 173.293 16.78H171.893C170.513 16.78 169.613 17.46 169.153 18.9L168.853 19.84C168.813 19.96 168.713 20 168.613 20H166.333C166.193 20 166.133 19.92 166.173 19.74L170.973 5.16ZM173.473 14.32C174.193 14.32 174.513 13.8 174.273 13.04L173.233 9.74C172.933 8.78 172.233 8.78 171.933 9.74L170.913 13.04C170.673 13.8 170.993 14.32 171.713 14.32H173.473ZM180.634 5.2C180.634 5.08 180.714 5 180.834 5H185.514C188.414 5 190.074 6.36 190.074 9.06C190.074 9.74 189.874 10.34 189.554 10.84C188.694 12.18 188.654 12.12 189.794 13.2C190.414 13.84 190.834 14.68 190.834 15.72C190.834 18.54 188.814 20 186.094 20H180.834C180.714 20 180.634 19.92 180.634 19.78V5.2ZM185.894 17.46C187.354 17.46 188.274 16.84 188.274 15.5C188.274 14.1 187.334 13.58 185.774 13.58H184.134C183.494 13.58 183.134 13.98 183.134 14.68V16.36C183.134 17.06 183.494 17.46 184.134 17.46H185.894ZM185.534 11.06C186.794 11.06 187.534 10.44 187.534 9.32C187.534 8.22 186.814 7.54 185.574 7.54H184.134C183.494 7.54 183.134 7.94 183.134 8.64V9.96C183.134 10.66 183.494 11.06 184.134 11.06H185.534ZM193.213 5.2C193.213 5.08 193.293 5 193.413 5H198.093C200.993 5 202.653 6.36 202.653 9.06C202.653 9.74 202.453 10.34 202.133 10.84C201.273 12.18 201.233 12.12 202.372 13.2C202.993 13.84 203.413 14.68 203.413 15.72C203.413 18.54 201.393 20 198.673 20H193.413C193.293 20 193.213 19.92 193.213 19.78V5.2ZM198.473 17.46C199.933 17.46 200.853 16.84 200.853 15.5C200.853 14.1 199.913 13.58 198.353 13.58H196.713C196.073 13.58 195.713 13.98 195.713 14.68V16.36C195.713 17.06 196.073 17.46 196.713 17.46H198.473ZM198.113 11.06C199.373 11.06 200.113 10.44 200.113 9.32C200.113 8.22 199.393 7.54 198.153 7.54H196.713C196.073 7.54 195.713 7.94 195.713 8.64V9.96C195.713 10.66 196.073 11.06 196.713 11.06H198.113ZM205.951 5.22C205.951 5.08 206.031 5 206.151 5H208.311C208.431 5 208.511 5.08 208.511 5.22V19.78C208.511 19.92 208.431 20 208.311 20H206.151C206.031 20 205.951 19.92 205.951 19.78V5.22ZM214.514 9.06C214.514 8.16 214.014 7.66 213.114 7.66H210.494C210.374 7.66 210.294 7.58 210.294 7.46V5.2C210.294 5.08 210.374 5 210.494 5H221.114C221.234 5 221.314 5.08 221.314 5.2V7.46C221.314 7.58 221.234 7.66 221.114 7.66H218.494C217.594 7.66 217.094 8.16 217.094 9.06V19.8C217.094 19.92 217.014 20 216.894 20H214.714C214.594 20 214.514 19.92 214.514 19.8V9.06Z" fill="#FFFF77"/>
<rect y="3.34375" width="19.2962" height="19.2962" fill="#6D6C69"/>
<rect y="281.961" width="19.2962" height="19.2962" fill="#6D6C69"/>
<rect x="288.94" y="3.34375" width="19.2962" height="19.2962" fill="#6D6C69"/>
<rect x="288.94" y="281.961" width="19.2962" height="19.2962" fill="#FFFF77"/>
<path d="M243.529 285.553C243.529 285.445 243.591 285.383 243.683 285.383H245.35C245.443 285.383 245.505 285.445 245.505 285.553V293.812C245.505 294.506 245.891 294.892 246.585 294.892H250.136C250.228 294.892 250.29 294.954 250.29 295.062V296.791C250.29 296.899 250.228 296.961 250.136 296.961H243.683C243.591 296.961 243.529 296.899 243.529 296.791V285.553ZM256.081 297.131C252.993 297.131 250.662 294.584 250.662 291.157C250.662 287.745 252.993 285.213 256.081 285.213C259.153 285.213 261.484 287.745 261.484 291.157C261.484 294.584 259.153 297.131 256.081 297.131ZM256.081 295.047C257.98 295.047 259.477 293.41 259.477 291.157C259.477 288.949 257.98 287.282 256.081 287.282C254.167 287.282 252.685 288.949 252.685 291.157C252.685 293.41 254.167 295.047 256.081 295.047ZM261.554 285.553C261.523 285.445 261.569 285.383 261.677 285.383H263.545C263.622 285.383 263.7 285.43 263.73 285.507L265.784 292.16C266.092 293.179 266.849 293.179 267.157 292.16L269.211 285.507C269.241 285.43 269.319 285.383 269.396 285.383H271.279C271.387 285.383 271.433 285.445 271.403 285.553L267.605 296.837C267.574 296.915 267.497 296.961 267.42 296.961H265.521C265.444 296.961 265.367 296.915 265.336 296.837L261.554 285.553ZM272.699 285.553C272.699 285.445 272.761 285.383 272.854 285.383H279.414C279.507 285.383 279.569 285.445 279.569 285.553V287.236C279.569 287.328 279.507 287.405 279.414 287.405H275.709C275.015 287.405 274.629 287.822 274.629 288.594V288.934C274.629 289.69 275.015 290.122 275.709 290.122H278.859C278.951 290.122 279.013 290.184 279.013 290.292V291.959C279.013 292.052 278.951 292.114 278.859 292.114H275.709C275.015 292.114 274.629 292.561 274.629 293.318V293.75C274.629 294.522 275.015 294.939 275.709 294.939H279.414C279.507 294.939 279.569 295.016 279.569 295.109V296.791C279.569 296.899 279.507 296.961 279.414 296.961H272.854C272.761 296.961 272.699 296.899 272.699 296.791V285.553Z" fill="#FFFF77"/>
<path d="M246.319 164.109C245.403 163.101 245.285 160.161 246.236 159.092C247.501 158.064 250.271 158.025 251.529 159.021C252.506 160.254 252.567 163.017 251.407 164.189C250.158 165.128 247.603 165.109 246.389 164.173L246.319 164.106V164.109Z" fill="white"/>
<path d="M113.368 81.1493C112.155 79.9261 112.084 77.6909 113.602 76.7111C114.806 75.8753 117.233 76.0162 120.25 76.0002C122.181 76.0098 124.166 75.9873 126.084 76.0162C128.633 76.0514 130.183 76.4869 130.744 77.723C131.477 79.3433 130.424 81.2421 128.826 81.9274C126.024 82.9905 122.008 82.3245 118.902 82.4974C116.615 82.4974 114.726 82.475 113.439 81.2197L113.368 81.1461V81.1493Z" fill="white"/>
<path d="M132.78 83.7211C135.307 81.4923 143.162 81.3034 143.582 85.6008C143.028 88.0056 140.117 89.12 138.74 91.0541C136.344 94.6213 135.563 95.3802 130.869 95.3482C128.147 95.3962 124.8 95.2426 122.232 95.4987C119.395 95.6749 118.943 97.6826 118.895 100.011C119.001 103.728 118.293 109.124 119.638 111.993C120.5 113.732 122.536 113.931 123.917 115.064C125.502 116.435 125.492 118.67 125.53 120.956C125.537 122.762 125.534 124.831 125.53 126.659C125.598 132.84 124.522 132.17 120.356 135.545C119.014 136.701 118.008 138.453 116.503 139.356C112.568 140.807 111.761 134.053 112.568 131.427C113.093 129.131 114.736 128.084 116.202 126.698C117.019 125.913 118.063 124.952 117.874 123.729C117.032 120.879 113.413 119.813 112.622 116.726C112.299 115.708 112.203 114.497 112.177 113.373C112.151 107.635 112.103 101.813 112.148 96.0495C112.148 93.27 112.872 90.1319 115.792 89.2833C119.369 88.0344 125.162 89.6227 128.486 87.775C130.219 86.8176 131.211 85.0307 132.697 83.7851L132.777 83.7211H132.78Z" fill="white"/>
<path d="M104.136 90.4964C105.424 91.9951 105.696 94.3007 105.741 96.3084C105.776 101.339 105.846 106.498 105.891 111.567C105.882 114.026 106.163 116.815 107.79 118.692C108.895 120.395 111.991 122.032 110.928 124.363C109.59 126.608 107.255 127.562 106.378 130.588C105.68 132.717 105.962 135.532 106.954 137.338C107.835 139.516 111.325 141.094 111.249 143.192C111.181 143.992 110.557 144.697 110.003 145.321C107.72 147.838 105.078 150.326 102.66 152.622C99.7237 154.8 98.7085 159.427 99.8325 162.597C100.05 163.244 100.419 163.823 101.005 164.176C102.196 164.861 103.781 164.762 105.203 164.807C110.749 164.8 120.525 164.835 125.688 164.791C127.247 164.755 128.864 164.541 129.844 163.404C131.141 161.665 132.204 160.167 133.972 158.405C136.405 156.077 138.253 154.114 142.025 153.151C143.899 152.747 146.118 152.779 147.799 151.876C149.535 151.063 150.217 149.554 151.37 148.219C154.77 144.972 160.871 146.919 165.165 146.167C170.013 145.904 169.741 141.008 174.263 140.153C176.299 139.673 178.614 139.781 180.408 138.821C183.591 137.104 185.093 133.838 187.318 131.158C188.881 129.467 190.607 128.036 192.137 126.291C195.814 122.096 199.186 118.58 205.203 121.081C208.017 122.157 208.027 125.416 210.835 126.31C216.068 127.248 223.664 126.505 228.883 126.749C232.784 126.742 234.298 127.082 234.097 131.635C234.065 137.216 234.177 147.371 234.068 153.519C234.093 155.674 233.152 157.304 231.333 158.293C228.441 160.416 225.531 163.529 222.969 166.267C219.164 170.25 225.816 171.598 229.056 171.336C234.161 171.4 237.52 171.701 240.565 167.247C240.879 166.917 241.206 166.59 241.574 166.35C243.886 164.89 245.686 168.22 247.424 169.29C251.267 172.866 253.618 164.073 257.255 165.953C259.961 168.656 258.837 172.895 259.106 176.978C259.065 178.864 259.202 181.045 258.36 182.688C256.548 185.14 252.73 184.145 250.015 184.391C246.15 184.279 243.313 184.814 240.882 182.864C237.984 179.172 238.561 177.872 232.947 177.872C229.3 177.862 224.186 177.849 220.67 177.881C218.703 177.91 216.446 178.144 215.283 179.828C214.147 181.592 213.509 183.382 211.124 183.965C207.479 184.667 202.907 184.506 199.131 184.138C195.052 183.619 195.052 179.607 191.67 178.928C189.041 179.364 187.763 182.367 185.285 183.382C183.065 184.686 179.86 184.273 178.025 182.63C176.642 181.548 176.245 179.921 174.874 178.893C173.811 178.115 172.351 177.948 170.996 177.9C165.853 177.644 158.626 178.304 153.509 177.535C150.697 176.828 150.085 174.224 147.889 172.873C145.279 171.467 143.418 176.53 140.764 177.135C138.468 178.16 135.016 177.663 133.094 178.425C130.36 179.642 131.022 181.999 130.853 185.422C130.853 187.158 130.853 189.14 130.853 191.116C130.888 194.392 130.76 197.68 130.949 200.854C131.141 203.249 131.929 203.828 134.414 203.934C142.259 204.014 151.402 204.024 159.077 203.928C162.67 203.985 162.856 201.283 164.806 199.281C166.974 197.334 171.06 196.985 173.888 198.42C177.519 200.649 179.537 204.69 183.293 206.883C185.128 208.459 188.058 211.213 186.841 213.784C177.718 228.585 178.813 217.495 172.607 216.253C168.726 215.456 163.721 216.564 159.862 215.372C158.059 214.812 157.086 213.31 155.91 211.972C153.554 209.176 148.27 208.808 145.647 210.937C143.326 212.964 142.57 215.677 138.839 215.808C135.249 216.298 130.962 215.251 127.593 216.916C125.249 218.219 125.428 220.662 122.754 221.777C119.523 222.958 115.674 222.273 112.296 222.5C109.19 222.484 106.772 223.506 105.648 226.225C104.665 228.508 102.071 229.043 99.7525 228.985C94.1966 229.225 87.0876 228.485 82.1145 229.42C78.2109 231.134 81.0193 237.17 78.5087 240.164C76.7603 242.261 73.4043 242.264 71.0251 241.413C67.8164 240.234 67.5794 236.155 68.2999 233.276C68.8283 231.246 70.042 230.013 71.2044 228.818C72.386 227.624 73.5164 226.494 73.1706 225.315C71.1243 220.538 67.2976 226.99 64.9664 228.021C60.352 229.132 61.4759 220.259 61.2902 217.326C61.1365 213.49 61.9435 210.774 64.9056 208.834C66.9742 207.226 68.95 205.449 71.4862 204.568C76.1455 202.631 85.2014 209.688 86.0116 214.434C86.2678 216.906 87.3277 222.856 90.7253 221.216C93.2327 219.513 93.2359 213.454 91.148 210.928C89.9984 209.327 88.2916 208.363 87.3469 206.618C85.9315 204.142 85.8067 196.258 87.0908 193.284C88.9865 190.261 93.7322 191.087 97.1106 190.917C99.6852 191.01 102.378 190.802 104.345 192.355C106.919 194.914 101.398 197.667 100.633 199.867C99.7717 201.686 102.106 203.713 103.797 202.493C105.683 201.481 107.063 198.686 109.33 198.43C111.12 198.644 112.405 201.568 112.056 204.13C111.745 206.358 110.201 208.132 108.703 209.682C107.079 211.213 105.577 213.464 108.19 214.815C110.24 216.077 113.945 216.118 116.18 215.526C118.034 215.033 118.716 213.794 118.838 211.386C118.969 208.712 118.873 205.058 118.902 202.109C118.767 199.14 119.296 196.118 118.29 193.354C117.31 191.093 115.117 191.106 113.724 188.951C111.63 186.159 113.253 181.705 110.727 179.229C109.148 177.827 106.634 178.022 104.62 177.702C96.8929 176.386 101.591 170.606 91.0712 171.342C86.7545 171.477 82.0728 171.025 77.785 171.621C75.0567 172.232 74.586 174.259 72.9592 175.857C71.4798 177.494 69.6993 179.232 68.2551 180.917C67.1856 182.239 66.1512 183.517 64.39 183.965C62.6416 184.455 60.5729 184.375 58.7188 184.391C54.8089 184.199 51.4593 185.044 49.2273 182.361C48.5837 181.227 49.4323 180.103 50.2136 179.245C52.705 176.466 55.6446 173.76 58.3089 171.24C61.6873 168.803 60.7682 164.214 62.2573 160.9C64.3259 157.073 68.4569 155.78 71.2108 152.721C73.3627 150.8 74.5443 148.117 77.2823 146.926C81.5285 145.385 87.0652 147.447 91.052 145.324C93.8635 142.913 91.9262 138.103 94.1549 135.234C95.6248 132.964 97.988 133.223 98.8751 131.481C100.069 122.653 98.9487 102.088 99.3522 92.9654C99.1921 89.8849 101.6 87.6657 104.082 90.4292L104.143 90.4997L104.136 90.4964Z" fill="white"/>
</svg>
