<svg width="309" height="302" viewBox="0 0 309 302" fill="none" xmlns="http://www.w3.org/2000/svg">
<path d="M57.6168 5.22C57.6168 5.08 57.6968 5 57.8168 5H66.3168C66.4368 5 66.5168 5.08 66.5168 5.22V7.4C66.5168 7.52 66.4368 7.62 66.3168 7.62H61.5168C60.6168 7.62 60.1168 8.16 60.1168 9.16V9.6C60.1168 10.58 60.6168 11.14 61.5168 11.14H65.5968C65.7168 11.14 65.7968 11.22 65.7968 11.36V13.52C65.7968 13.64 65.7168 13.72 65.5968 13.72H61.5168C60.6168 13.72 60.1168 14.3 60.1168 15.28V15.84C60.1168 16.84 60.6168 17.38 61.5168 17.38H66.3168C66.4368 17.38 66.5168 17.48 66.5168 17.6V19.78C66.5168 19.92 66.4368 20 66.3168 20H57.8168C57.6968 20 57.6168 19.92 57.6168 19.78V5.22ZM68.8863 5.22C68.8863 5.08 68.9663 5 69.0863 5H71.2463C71.3663 5 71.4463 5.08 71.4463 5.22V15.92C71.4463 16.82 71.9463 17.32 72.8463 17.32H77.4463C77.5663 17.32 77.6463 17.4 77.6463 17.54V19.78C77.6463 19.92 77.5663 20 77.4463 20H69.0863C68.9663 20 68.8863 19.92 68.8863 19.78V5.22ZM79.3551 5.22C79.3551 5.08 79.4351 5 79.5551 5H88.0551C88.1751 5 88.2551 5.08 88.2551 5.22V7.4C88.2551 7.52 88.1751 7.62 88.0551 7.62H83.2551C82.3551 7.62 81.8551 8.16 81.8551 9.16V9.6C81.8551 10.58 82.3551 11.14 83.2551 11.14H87.3351C87.4551 11.14 87.5351 11.22 87.5351 11.36V13.52C87.5351 13.64 87.4551 13.72 87.3351 13.72H83.2551C82.3551 13.72 81.8551 14.3 81.8551 15.28V15.84C81.8551 16.84 82.3551 17.38 83.2551 17.38H88.0551C88.1751 17.38 88.2551 17.48 88.2551 17.6V19.78C88.2551 19.92 88.1751 20 88.0551 20H79.5551C79.4351 20 79.3551 19.92 79.3551 19.78V5.22ZM97.2646 20.22C92.9246 20.22 89.9646 16.96 89.9646 12.5C89.9646 8.08 92.9846 4.78 97.0446 4.78C100.285 4.78 102.645 6.7 103.465 9.6C103.505 9.78 103.425 9.86 103.285 9.86H100.845C100.745 9.86 100.665 9.82 100.605 9.7C100.005 8.42 98.8046 7.48 97.0446 7.48C94.5046 7.48 92.5846 9.6 92.5846 12.5C92.5846 15.48 94.4446 17.56 97.2646 17.56C98.7646 17.56 99.9446 17.04 100.625 15.92C101.025 15.24 100.605 14.7 99.8446 14.7H95.8046C95.6846 14.7 95.6046 14.6 95.6046 14.48V12.42C95.6046 12.28 95.6846 12.2 95.8046 12.2H102.925C103.785 12.2 103.985 12.7 103.925 13.42C103.745 17.24 101.125 20.22 97.2646 20.22ZM108.756 5.16C108.796 5.04 108.896 5 108.996 5H111.776C111.876 5 111.976 5.04 112.016 5.16L116.816 19.74C116.856 19.92 116.796 20 116.656 20H114.356C114.256 20 114.156 19.96 114.116 19.84L113.816 18.9C113.356 17.46 112.456 16.78 111.076 16.78H109.676C108.296 16.78 107.396 17.46 106.936 18.9L106.636 19.84C106.596 19.96 106.496 20 106.396 20H104.116C103.976 20 103.916 19.92 103.956 19.74L108.756 5.16ZM111.256 14.32C111.976 14.32 112.296 13.8 112.056 13.04L111.016 9.74C110.716 8.78 110.016 8.78 109.716 9.74L108.696 13.04C108.456 13.8 108.776 14.32 109.496 14.32H111.256ZM118.418 5.2C118.418 5.08 118.498 5 118.618 5H120.438C120.538 5 120.618 5.02 120.678 5.12L126.398 13.38C126.938 14.18 127.618 14.14 127.618 13.18V5.2C127.618 5.08 127.698 5 127.818 5H129.998C130.118 5 130.198 5.08 130.198 5.2V19.8C130.198 19.92 130.118 20 129.998 20H128.178C128.078 20 127.998 19.98 127.938 19.88C126.018 17.08 124.098 14.4 122.178 11.58C121.638 10.78 120.978 10.86 120.978 11.82V19.8C120.978 19.92 120.898 20 120.778 20H118.618C118.498 20 118.418 19.92 118.418 19.8V5.2ZM136.028 9.06C136.028 8.16 135.528 7.66 134.628 7.66H132.008C131.888 7.66 131.808 7.58 131.808 7.46V5.2C131.808 5.08 131.888 5 132.008 5H142.628C142.748 5 142.828 5.08 142.828 5.2V7.46C142.828 7.58 142.748 7.66 142.628 7.66H140.008C139.108 7.66 138.608 8.16 138.608 9.06V19.8C138.608 19.92 138.528 20 138.408 20H136.228C136.108 20 136.028 19.92 136.028 19.8V9.06ZM149.101 5.22C149.101 5.08 149.181 5 149.301 5H157.661C157.781 5 157.861 5.08 157.861 5.22V7.4C157.861 7.52 157.781 7.62 157.661 7.62H153.041C152.141 7.62 151.641 8.16 151.641 9.16V9.84C151.641 10.84 152.141 11.38 153.041 11.38H156.921C157.041 11.38 157.121 11.46 157.121 11.6V13.72C157.121 13.86 157.041 13.96 156.921 13.96H153.041C152.141 13.96 151.641 14.5 151.641 15.5V20H149.301C149.181 20 149.101 19.92 149.101 19.78V5.22ZM160.117 5.22C160.117 5.08 160.197 5 160.317 5H162.477C162.597 5 162.677 5.08 162.677 5.22V15.92C162.677 16.82 163.177 17.32 164.077 17.32H168.677C168.797 17.32 168.877 17.4 168.877 17.54V19.78C168.877 19.92 168.797 20 168.677 20H160.317C160.197 20 160.117 19.92 160.117 19.78V5.22ZM174.206 5.16C174.246 5.04 174.346 5 174.446 5H177.226C177.326 5 177.426 5.04 177.466 5.16L182.266 19.74C182.306 19.92 182.246 20 182.106 20H179.806C179.706 20 179.606 19.96 179.566 19.84L179.266 18.9C178.806 17.46 177.906 16.78 176.526 16.78H175.126C173.746 16.78 172.846 17.46 172.386 18.9L172.086 19.84C172.046 19.96 171.946 20 171.846 20H169.566C169.426 20 169.366 19.92 169.406 19.74L174.206 5.16ZM176.706 14.32C177.426 14.32 177.746 13.8 177.506 13.04L176.466 9.74C176.166 8.78 175.466 8.78 175.166 9.74L174.146 13.04C173.906 13.8 174.226 14.32 174.946 14.32H176.706ZM183.867 5.2C183.867 5.08 183.947 5 184.067 5H187.227C187.327 5 187.427 5.04 187.467 5.16L190.847 14.34C191.167 15.22 191.847 15.22 192.167 14.34L195.547 5.16C195.587 5.04 195.687 5 195.787 5H198.947C199.067 5 199.147 5.08 199.147 5.2V19.8C199.147 19.92 199.067 20 198.947 20H196.767C196.647 20 196.567 19.92 196.567 19.8V12.26C196.567 11.3 195.767 11.16 195.427 12.06L192.627 19.66C192.587 19.78 192.507 19.82 192.407 19.82H190.607C190.507 19.82 190.427 19.78 190.387 19.66L187.567 12.04C187.227 11.14 186.427 11.3 186.427 12.26V19.8C186.427 19.92 186.347 20 186.227 20H184.067C183.947 20 183.867 19.92 183.867 19.8V5.2ZM202.113 5.22C202.113 5.08 202.193 5 202.313 5H204.473C204.593 5 204.673 5.08 204.673 5.22V19.78C204.673 19.92 204.593 20 204.473 20H202.313C202.193 20 202.113 19.92 202.113 19.78V5.22ZM207.636 5.2C207.636 5.08 207.716 5 207.836 5H209.656C209.756 5 209.836 5.02 209.896 5.12L215.616 13.38C216.156 14.18 216.836 14.14 216.836 13.18V5.2C216.836 5.08 216.916 5 217.036 5H219.216C219.336 5 219.416 5.08 219.416 5.2V19.8C219.416 19.92 219.336 20 219.216 20H217.396C217.296 20 217.216 19.98 217.156 19.88C215.236 17.08 213.316 14.4 211.396 11.58C210.856 10.78 210.196 10.86 210.196 11.82V19.8C210.196 19.92 210.116 20 209.996 20H207.836C207.716 20 207.636 19.92 207.636 19.8V5.2ZM228.847 20.22C224.507 20.22 221.547 16.96 221.547 12.5C221.547 8.08 224.567 4.78 228.627 4.78C231.867 4.78 234.227 6.7 235.047 9.6C235.087 9.78 235.007 9.86 234.867 9.86H232.427C232.327 9.86 232.247 9.82 232.187 9.7C231.587 8.42 230.387 7.48 228.627 7.48C226.087 7.48 224.167 9.6 224.167 12.5C224.167 15.48 226.027 17.56 228.847 17.56C230.347 17.56 231.527 17.04 232.207 15.92C232.607 15.24 232.187 14.7 231.427 14.7H227.387C227.267 14.7 227.187 14.6 227.187 14.48V12.42C227.187 12.28 227.267 12.2 227.387 12.2H234.507C235.367 12.2 235.567 12.7 235.507 13.42C235.327 17.24 232.707 20.22 228.847 20.22ZM244.035 20.22C240.035 20.22 237.015 16.92 237.015 12.48C237.015 8.06 240.035 4.78 244.035 4.78C248.015 4.78 251.035 8.06 251.035 12.48C251.035 16.92 248.015 20.22 244.035 20.22ZM244.035 17.52C246.495 17.52 248.435 15.4 248.435 12.48C248.435 9.62 246.495 7.46 244.035 7.46C241.555 7.46 239.635 9.62 239.635 12.48C239.635 15.4 241.555 17.52 244.035 17.52Z" fill="#FFFF77"/>
<rect y="3.34375" width="19.2962" height="19.2962" fill="#6D6C69"/>
<rect y="281.961" width="19.2962" height="19.2962" fill="#6D6C69"/>
<rect x="288.94" y="3.34375" width="19.2962" height="19.2962" fill="#6D6C69"/>
<rect x="288.94" y="281.961" width="19.2962" height="19.2962" fill="#FFFF77"/>
<path d="M243.529 285.553C243.529 285.445 243.591 285.383 243.683 285.383H245.35C245.443 285.383 245.505 285.445 245.505 285.553V293.812C245.505 294.506 245.891 294.892 246.585 294.892H250.136C250.228 294.892 250.29 294.954 250.29 295.062V296.791C250.29 296.899 250.228 296.961 250.136 296.961H243.683C243.591 296.961 243.529 296.899 243.529 296.791V285.553ZM256.081 297.131C252.993 297.131 250.662 294.584 250.662 291.157C250.662 287.745 252.993 285.213 256.081 285.213C259.153 285.213 261.484 287.745 261.484 291.157C261.484 294.584 259.153 297.131 256.081 297.131ZM256.081 295.047C257.98 295.047 259.477 293.41 259.477 291.157C259.477 288.949 257.98 287.282 256.081 287.282C254.167 287.282 252.685 288.949 252.685 291.157C252.685 293.41 254.167 295.047 256.081 295.047ZM261.554 285.553C261.523 285.445 261.569 285.383 261.677 285.383H263.545C263.622 285.383 263.7 285.43 263.73 285.507L265.784 292.16C266.092 293.179 266.849 293.179 267.157 292.16L269.211 285.507C269.241 285.43 269.319 285.383 269.396 285.383H271.279C271.387 285.383 271.433 285.445 271.403 285.553L267.605 296.837C267.574 296.915 267.497 296.961 267.42 296.961H265.521C265.444 296.961 265.367 296.915 265.336 296.837L261.554 285.553ZM272.699 285.553C272.699 285.445 272.761 285.383 272.854 285.383H279.414C279.507 285.383 279.569 285.445 279.569 285.553V287.236C279.569 287.328 279.507 287.405 279.414 287.405H275.709C275.015 287.405 274.629 287.822 274.629 288.594V288.934C274.629 289.69 275.015 290.122 275.709 290.122H278.859C278.951 290.122 279.013 290.184 279.013 290.292V291.959C279.013 292.052 278.951 292.114 278.859 292.114H275.709C275.015 292.114 274.629 292.561 274.629 293.318V293.75C274.629 294.522 275.015 294.939 275.709 294.939H279.414C279.507 294.939 279.569 295.016 279.569 295.109V296.791C279.569 296.899 279.507 296.961 279.414 296.961H272.854C272.761 296.961 272.699 296.899 272.699 296.791V285.553Z" fill="#FFFF77"/>
<path d="M66.1578 191.105C69.6644 184.957 56.5381 187.73 56.9127 182.654C57.4635 181.082 59.1608 179.766 60.1599 178.466C63.3206 175.235 56.3075 172.846 56.0929 167.941C55.7151 165.117 56.4964 162.552 58.3121 160.832C59.734 159.58 61.159 158.799 61.8027 156.798C63.5319 148.277 60.1471 144.947 68.0088 138.052C72.8507 133.928 73.9427 132.292 74.7817 126.022C76.1491 121.93 79.3322 120.639 81.4553 117.444C82.7651 115.727 85.0035 115.398 87.1202 115.394C90.9278 115.366 96.5542 115.372 100.407 115.391C104.787 115.116 106.1 117.252 108.582 120.223C110.654 122.782 113.251 124.831 115.384 127.313C116.626 128.952 117.994 130.771 118.532 133.525C118.906 136.013 119.608 142.263 123.338 140.047C125.474 138.968 127.614 135.065 130.147 136.842C131.543 137.944 132.929 139.308 134.246 140.499C135.693 141.93 137.358 142.846 137.973 145.593C138.995 149.804 137.121 155.277 140.061 158.808C146.523 163.426 143.273 166.202 146.507 171.495C147.711 173.067 149.437 173.932 150.318 175.808C151.647 178.197 150.981 181.38 152.271 183.785C153.821 186.366 157.597 186.475 160.498 185.652C163.492 184.653 164.626 182.565 166.659 180.839C168.847 179.103 171.107 178.104 170.845 174.825C170.89 169.92 170.854 160.201 170.864 153.986C171.021 150.102 170.473 147.05 171.264 143.941C171.774 142.523 172.907 141.776 173.865 140.697C176.846 137.31 177.775 134.613 183.212 134.988C186.543 134.972 190.232 134.988 193.553 134.982C198.276 135.02 202.333 135.468 202.244 129.778C202.801 124.709 199.173 121.613 195.813 118.641C192.518 115.366 189.236 112.087 185.982 108.76C183.801 106.672 182.396 103.921 179.453 102.842C175.805 101.584 170.208 103.207 166.592 101.276C163.255 99.0093 161.42 95.1123 157.847 93.0406C155.073 91.3915 153.37 88.6537 150.882 86.6396C149.005 84.792 146.779 83.1525 145.655 80.6805C144.743 78.7176 144.925 75.9062 144.045 73.9145C142.082 69.9022 138.149 69.3258 138.441 63.8503C138.418 60.059 141.409 57.6446 143.804 55.1854C145.226 53.738 146.088 52.0602 148.787 51.4453C152.71 51.0387 159.733 50.2926 162.894 52.6109C164.434 53.975 165.359 55.9731 167.386 56.7576C172.875 58.538 173.884 58.0353 178.207 62.4477C185.066 66.9371 196.281 60.8019 202.247 67.3726C204.155 69.2298 206.701 71.1478 207.624 73.6999C207.828 75.1697 206.157 76.537 204.754 75.8677C199.743 72.243 199.461 70.2449 192.028 70.6547C188.656 70.6099 185.255 70.9141 181.928 70.5234C176.539 69.7421 175.094 64.1737 169.487 64.2537C166.256 64.1833 161.446 63.6902 159.643 65.8132C157.875 67.9105 157.59 71.1639 158.497 73.7063C159.464 76.7419 162.208 77.3311 163.483 80.2354C165.388 87.232 164.245 88.2246 170.464 92.9765C175.315 98.1511 183.526 93.444 188.445 97.8245C194.267 104.514 201.257 110.476 207.095 117.194C210.121 121.539 208.402 127.457 208.824 132.465C209.587 139.897 203.102 143.477 198.862 148.299C196.23 151.232 191.737 152.539 189.886 156.099C189.354 157.374 189.341 159.007 189.313 160.454C189.309 164.569 189.29 170.397 189.322 174.07C189.396 175.511 189.322 177.147 190.148 178.287C191.641 179.936 194.327 179.504 196.409 179.644C200.441 179.359 205.196 180.631 207.889 177.377C209.039 175.709 208.783 172.088 208.828 169.254C208.834 163.045 208.844 156.823 208.847 150.617C208.837 147.989 209.049 145.158 210.787 143.115C212.571 140.835 214.704 138.84 216.805 136.858C219.117 134.524 221.141 131.808 223.914 130.105C224.698 129.749 225.502 130.127 225.854 130.848C226.754 133.188 223.901 135.44 223.107 137.345C221.355 141.142 227.324 141.677 230.177 141.796C235.839 141.805 241.93 142.148 239.644 149.881C238.769 152.558 236.108 153.704 234.853 156.096C233.469 158.482 234.104 162.132 232.752 164.262C230.914 167.166 225.954 166.913 223.501 164.745C221.579 162.452 225.147 160.144 225.809 157.95C226.53 156.538 225.54 154.546 224.032 155.116C222.303 155.981 220.904 157.771 219.398 158.943C218.361 159.894 217.112 160.499 216.295 161.645C215.376 162.99 215.405 164.78 215.344 166.404C215.325 169.75 215.344 174.46 215.338 178.86C215.149 183.013 215.943 189.091 214.685 191.867C214.243 192.898 210.669 192.696 208.312 192.722C201.818 192.715 193.392 192.728 186.629 192.722C184.131 192.773 181.989 192.597 179.635 192.85C177.118 193.183 176.606 195.143 175.29 196.772C174.178 198.265 173.09 200.352 171.447 201.55C168.715 203.302 166.413 205.764 164.523 208.313C163.512 210.26 161.811 211.39 159.537 211.224C155.983 211.259 150.059 211.23 144.211 211.24C140.455 211.233 137.105 211.246 133.749 211.24C129.391 211.579 126.153 210.023 125.494 214.086C125.09 217.458 125.442 221.361 125.218 224.957C124.952 232.3 117.738 230.218 118.977 239.578C119.188 243.802 123.345 244.023 126.701 243.92C129.599 243.885 133.23 244.093 135.161 243.344C140.81 240.558 136.75 236.984 146.565 237.388C151.141 237.247 156.191 237.705 160.729 237.122C165.077 236.213 164.485 230.705 170.909 231.077C179.209 232.777 173.291 236.35 172.228 240.654C172.062 242.575 174.31 243.965 175.226 246.056C176.792 249.969 176.663 255.653 175.45 259.723C172.987 264.586 165.327 261.103 161.244 263.286C158.59 264.157 156.88 268.125 153.946 267.58C152.153 266.767 149.902 264.558 148.403 262.883C147.353 261.673 146.334 260.651 146.341 259.78C147.49 255.662 151.932 260.789 154.113 261.151C157.165 261.602 157.924 256.578 157.85 254.106C157.85 251.195 158.007 247.753 156.537 246.101C154.122 243.533 149.418 243.475 146.61 245.489C142.988 248.992 144.336 250.6 138.162 250.459C132.462 250.459 123.137 250.472 118.304 250.452C114.183 250.526 113.238 249.767 113.37 245.502C113.36 240.113 113.347 229.229 113.376 223.424C113.386 222.268 113.527 220.919 113.962 219.984C114.519 218.726 115.451 218.166 116.364 217.211C118.785 214.707 119.579 209.578 117.513 206.673C115.653 204.195 111.727 205.204 109.303 203.727C105.828 201.739 107.842 196.577 105.056 194.137C100.307 191.271 97.5374 194.323 92.7179 188.505C88.8943 185.258 85.6664 180.679 88.4428 175.613C89.6532 173.343 91.6547 172.789 92.8171 170.422C94.002 168.194 93.6433 165.328 94.7097 163.038C95.8113 160.512 97.8512 159.894 99.1225 157.675C101.092 154.511 100.432 149.128 96.3749 148.414C93.8067 147.896 90.3513 147.857 88.5548 150.08C87.2291 151.777 87.5141 154.675 86.5438 156.791C85.5703 159.426 82.7747 160.445 81.6891 163.038C80.3377 165.872 80.6387 175.536 75.3869 170.775C73.4847 169.033 70.6283 165.933 69.0847 169.308C68.5564 171.268 71.2495 173.08 72.3223 174.633C74.5607 177.227 74.3814 180.848 74.3013 184.64C74.5735 188.748 72.0853 191.947 69.2929 194.621C67.6533 195.978 65.4565 199.148 63.8938 197.025C62.8146 194.947 65.1203 193.039 66.1098 191.178L66.1578 191.102V191.105ZM170.24 250.465C169.772 250.039 169.068 249.985 168.437 249.946C167.133 249.911 165.641 249.879 165.004 250.465C164.05 251.311 164.091 254.961 164.933 255.838C165.811 256.681 169.461 256.722 170.307 255.768C170.893 255.127 170.861 253.635 170.826 252.332C170.787 251.701 170.733 250.994 170.307 250.529L170.243 250.465H170.24Z" fill="white"/>
</svg>
