<svg width="309" height="303" viewBox="0 0 309 303" fill="none" xmlns="http://www.w3.org/2000/svg">
<path d="M85.0759 20.22C81.5759 20.22 80.0559 17.58 79.8959 15.44C79.8959 15.32 79.9759 15.24 80.0959 15.24H82.3559C82.4759 15.24 82.5359 15.3 82.5559 15.42C82.7559 16.76 83.6159 17.7 85.0759 17.7C86.2759 17.7 87.2159 16.98 87.2159 15.94C87.2159 12.84 80.1159 14.52 80.1159 9.1C80.1159 6.7 81.8959 4.78 84.7559 4.78C87.8559 4.78 89.3759 7.08 89.5359 9.28C89.5559 9.4 89.4759 9.48 89.3559 9.48H87.1159C86.9959 9.48 86.9159 9.42 86.8959 9.28C86.7559 8.18 85.9959 7.26 84.7559 7.26C83.4759 7.26 82.6759 8.06 82.6759 9.1C82.6759 12.02 89.7759 10.32 89.7759 15.94C89.7759 18.48 87.4959 20.22 85.0759 20.22ZM100.708 15.06C100.708 14.12 100.208 13.6 99.3077 13.6H95.7877C94.8877 13.6 94.3877 14.12 94.3877 15.06V19.8C94.3877 19.92 94.3077 20 94.1877 20H92.0277C91.9077 20 91.8277 19.92 91.8277 19.8V5.2C91.8277 5.08 91.9077 5 92.0277 5H94.1877C94.3077 5 94.3877 5.08 94.3877 5.2V9.5C94.3877 10.44 94.8877 10.96 95.7877 10.96H99.3077C100.208 10.96 100.708 10.44 100.708 9.5V5.2C100.708 5.08 100.788 5 100.908 5H103.068C103.188 5 103.268 5.08 103.268 5.2V19.8C103.268 19.92 103.188 20 103.068 20H100.908C100.788 20 100.708 19.92 100.708 19.8V15.06ZM106.226 5.22C106.226 5.08 106.306 5 106.426 5H108.586C108.706 5 108.786 5.08 108.786 5.22V19.78C108.786 19.92 108.706 20 108.586 20H106.426C106.306 20 106.226 19.92 106.226 19.78V5.22ZM111.75 5.22C111.75 5.08 111.83 5 111.95 5H120.45C120.57 5 120.65 5.08 120.65 5.22V7.4C120.65 7.52 120.57 7.62 120.45 7.62H115.65C114.75 7.62 114.25 8.16 114.25 9.16V9.6C114.25 10.58 114.75 11.14 115.65 11.14H119.73C119.85 11.14 119.93 11.22 119.93 11.36V13.52C119.93 13.64 119.85 13.72 119.73 13.72H115.65C114.75 13.72 114.25 14.3 114.25 15.28V15.84C114.25 16.84 114.75 17.38 115.65 17.38H120.45C120.57 17.38 120.65 17.48 120.65 17.6V19.78C120.65 19.92 120.57 20 120.45 20H111.95C111.83 20 111.75 19.92 111.75 19.78V5.22ZM123.019 5.22C123.019 5.08 123.099 5 123.219 5H125.379C125.499 5 125.579 5.08 125.579 5.22V15.92C125.579 16.82 126.079 17.32 126.979 17.32H131.579C131.699 17.32 131.779 17.4 131.779 17.54V19.78C131.779 19.92 131.699 20 131.579 20H123.219C123.099 20 123.019 19.92 123.019 19.78V5.22ZM133.488 5.22C133.488 5.08 133.568 5 133.688 5H137.988C142.148 5 145.028 8.3 145.028 12.5C145.028 16.7 142.148 20 137.988 20H133.688C133.568 20 133.488 19.92 133.488 19.78V5.22ZM138.128 17.34C140.648 17.34 142.408 15.18 142.408 12.5C142.408 9.82 140.648 7.68 138.128 7.68H137.048C136.408 7.68 136.048 8.08 136.048 8.8V16.2C136.048 16.92 136.408 17.32 137.048 17.32L138.128 17.34ZM147.32 5.22C147.32 5.08 147.4 5 147.52 5H149.68C149.8 5 149.88 5.08 149.88 5.22V19.78C149.88 19.92 149.8 20 149.68 20H147.52C147.4 20 147.32 19.92 147.32 19.78V5.22ZM152.843 5.2C152.843 5.08 152.923 5 153.043 5H154.863C154.963 5 155.043 5.02 155.103 5.12L160.823 13.38C161.363 14.18 162.043 14.14 162.043 13.18V5.2C162.043 5.08 162.123 5 162.243 5H164.423C164.543 5 164.623 5.08 164.623 5.2V19.8C164.623 19.92 164.543 20 164.423 20H162.603C162.503 20 162.423 19.98 162.363 19.88C160.443 17.08 158.523 14.4 156.603 11.58C156.063 10.78 155.403 10.86 155.403 11.82V19.8C155.403 19.92 155.323 20 155.203 20H153.043C152.923 20 152.843 19.92 152.843 19.8V5.2ZM174.054 20.22C169.714 20.22 166.754 16.96 166.754 12.5C166.754 8.08 169.774 4.78 173.834 4.78C177.074 4.78 179.434 6.7 180.254 9.6C180.294 9.78 180.214 9.86 180.074 9.86H177.634C177.534 9.86 177.454 9.82 177.394 9.7C176.794 8.42 175.594 7.48 173.834 7.48C171.294 7.48 169.374 9.6 169.374 12.5C169.374 15.48 171.234 17.56 174.054 17.56C175.554 17.56 176.734 17.04 177.414 15.92C177.814 15.24 177.394 14.7 176.634 14.7H172.594C172.474 14.7 172.394 14.6 172.394 14.48V12.42C172.394 12.28 172.474 12.2 172.594 12.2H179.714C180.574 12.2 180.774 12.7 180.714 13.42C180.534 17.24 177.914 20.22 174.054 20.22ZM194.171 20.22C189.831 20.22 186.871 16.96 186.871 12.5C186.871 8.08 189.891 4.78 193.951 4.78C197.191 4.78 199.551 6.7 200.371 9.6C200.411 9.78 200.331 9.86 200.191 9.86H197.751C197.651 9.86 197.571 9.82 197.511 9.7C196.911 8.42 195.711 7.48 193.951 7.48C191.411 7.48 189.491 9.6 189.491 12.5C189.491 15.48 191.351 17.56 194.171 17.56C195.671 17.56 196.851 17.04 197.531 15.92C197.931 15.24 197.511 14.7 196.751 14.7H192.711C192.591 14.7 192.511 14.6 192.511 14.48V12.42C192.511 12.28 192.591 12.2 192.711 12.2H199.831C200.691 12.2 200.891 12.7 200.831 13.42C200.651 17.24 198.031 20.22 194.171 20.22ZM208.4 20.22C205.22 20.22 202.86 17.88 202.86 13.76V5.2C202.86 5.08 202.94 5 203.06 5H205.22C205.34 5 205.42 5.08 205.42 5.2V13.66C205.42 16.34 206.64 17.56 208.4 17.56C210.16 17.56 211.36 16.34 211.36 13.66V5.2C211.36 5.08 211.44 5 211.56 5H213.74C213.86 5 213.94 5.08 213.94 5.2V13.76C213.94 17.88 211.56 20.22 208.4 20.22ZM216.574 5.2C216.574 5.08 216.654 5 216.774 5H218.594C218.694 5 218.774 5.02 218.834 5.12L224.554 13.38C225.094 14.18 225.774 14.14 225.774 13.18V5.2C225.774 5.08 225.854 5 225.974 5H228.154C228.274 5 228.354 5.08 228.354 5.2V19.8C228.354 19.92 228.274 20 228.154 20H226.334C226.234 20 226.154 19.98 226.094 19.88C224.174 17.08 222.254 14.4 220.334 11.58C219.794 10.78 219.134 10.86 219.134 11.82V19.8C219.134 19.92 219.054 20 218.934 20H216.774C216.654 20 216.574 19.92 216.574 19.8V5.2Z" fill="#FFFF77"/>
<rect y="3.34375" width="19.2962" height="19.2962" fill="#6D6C69"/>
<rect y="281.961" width="19.2962" height="19.2962" fill="#6D6C69"/>
<rect x="288.94" y="3.34375" width="19.2962" height="19.2962" fill="#6D6C69"/>
<rect x="288.94" y="281.961" width="19.2962" height="19.2962" fill="#FFFF77"/>
<path d="M275.099 285.961C277.259 285.961 279.355 287.657 279.355 291.001V297.785C279.355 298.009 279.291 298.137 279.035 298.137H276.395C276.123 298.137 276.043 298.009 276.043 297.785L275.995 291.065C275.979 288.505 271.339 288.297 271.339 291.001V297.833C271.339 298.025 271.291 298.137 271.099 298.137H239.323C237.163 298.137 235.051 296.457 235.051 293.113V286.313C235.051 286.089 235.115 285.961 235.371 285.961H238.027C238.283 285.961 238.363 286.089 238.363 286.313L238.411 293.049C238.427 295.593 243.083 295.801 243.083 293.113V286.265C243.083 286.073 243.131 285.961 243.339 285.961H275.099Z" fill="#FFFF77"/>
<path d="M102.788 87.133C104.97 85.5904 108.625 85.7056 110.839 86.9794C114.895 89.655 111.137 97.7553 117.204 98.6194C126.456 98.6162 129.266 105.651 135.5 110.151C141.331 111.997 149.763 108.653 153.488 115.3C161.289 121.925 165.092 107.93 173.447 111.418C174.065 111.62 174.632 111.895 175.158 112.231C181.549 120.107 184.826 116.1 193.255 117.813C199.21 120.69 196.221 124.38 205.893 123.842C216.683 124.998 213.306 117.416 221.844 117.38C238.147 118.597 231.368 112.125 241.152 111.002C245.041 110.941 246.941 113.94 249.359 116.225C255.155 119.531 266.838 114.721 271.829 119.208C273.78 125.708 261.949 123.205 258.493 124.05C253.402 124.37 254.953 130.249 253.569 133.552C252.419 136.772 250.179 136.1 248.395 134.138C230.58 115.646 241.808 130.867 226.633 130.345C221.196 130.966 214.767 128.684 210.551 132.272C208.988 134.628 205.342 137.214 204.605 139.748C204.672 141.403 206.284 142.536 207.187 143.832C210.567 146.853 206.7 149.212 204.82 151.657C202.962 154.109 203.551 157.879 201.453 160.138C198.441 162.708 195.741 155.223 190.83 156.352C185.364 156.336 175.747 156.34 170.211 156.352C166.985 156.051 165.053 157.597 163.096 159.735C160.745 161.883 156.721 161.377 154.305 162.923C150.797 165.33 153.607 172.911 148.878 173.961C141.911 170.277 150.589 160.673 137.265 161.761C125.377 162.19 129.843 159.93 122.394 156.634C116.33 156.365 109.109 155.565 103.298 157.178C100.981 158.461 100.28 160.839 97.3132 161.361C92.8986 162.376 76.4033 160.046 84.9313 168.152C88.5802 170.828 87.4397 175.821 89.5669 179.312C90.9541 181.357 93.4465 182.001 94.132 184.625C94.9009 188.702 95.0322 194.466 93.895 198.025C92.9691 200.33 90.4319 200.999 89.2882 203.201C87.7889 205.649 87.7633 210.101 90.5152 211.695C93.2318 213.365 97.5375 211.851 99.9209 214.21C102.163 218.444 101.074 225.028 100.786 229.332C99.9882 232.437 96.775 232.03 93.8822 232.158C90.2589 231.806 85.2356 233.301 82.5991 230.289C80.6288 225.354 82.6631 221.117 76.3168 218.073C75.1923 217.065 75.077 215.138 75.093 213.586C75.0802 206.939 75.093 193.708 75.0866 186.974C75.8298 180.701 70.6753 182.554 69.0767 177.891C68.468 174.07 67.7055 167.125 69.9673 163.365C72.9851 160.932 75.0129 158.385 75.4518 154.282C76.2207 151.171 78.8925 149.34 80.8915 147.071C87.2219 138.679 98.0789 148.77 103.813 136.932C106.168 132.49 110.467 130.265 115.41 129.913C119.085 128.752 120.51 126.198 123.016 123.695C124.826 122.088 127.459 118.424 123.701 117.476C113.53 117.118 83.3679 117.464 72.7063 117.352C70.0089 116.929 67.7536 119.365 69.932 121.685C71.8286 124.05 76.9832 127.942 71.678 129.651C68.5897 130.646 64.8319 130.342 62.4869 132.986C61.0452 134.295 59.9176 135.988 58.6073 135.665C56.1661 134.436 55.6151 130.448 56.1982 127.932C56.3968 123.877 65.0145 120.856 59.3697 117.925C53.2989 116.414 45.6647 118.139 39.8502 116.977C35.9418 115.595 36.81 108.922 38.0306 105.99C38.9916 104.534 40.8786 104.46 42.5092 104.38C46.7155 104.246 52.9337 104.515 57.3066 104.22C60.4974 104.06 61.4745 102.028 63.5697 100.322C67.7055 98.2738 76.6308 98.0337 80.5872 100.687C84.3354 105.555 91.1847 104.291 96.6789 104.236C105.268 103.494 98.2967 91.4376 102.705 87.1938L102.779 87.133H102.788ZM163.134 137.684C161.93 136.647 159.54 136.89 157.816 136.839C156.109 136.929 154.113 136.647 152.931 137.943C152.063 139.153 152.226 140.837 152.162 142.286C152.281 144.965 151.784 147.221 153.049 148.866C154.203 150.009 156.551 149.782 158.278 149.836C160.001 149.75 162.013 150.041 163.259 148.799C164.432 147.157 163.977 144.93 164.086 142.286C164.012 140.773 164.246 138.935 163.198 137.742L163.134 137.681V137.684ZM195.936 137.815C195.033 136.785 193.447 136.926 192.146 136.855C189.269 136.842 184.861 136.836 181.885 136.858C180.53 136.884 178.822 136.974 177.954 138.014C177.035 139.156 176.859 140.776 175.766 141.825C174.578 143.131 172.684 143.64 171.56 145.004C170.493 146.137 170.355 148.114 171.618 149.139C172.547 149.875 173.963 149.804 175.167 149.833C180.607 149.785 189.266 149.945 194.123 149.763C196.439 149.67 196.628 147.83 196.683 145.666C196.628 143.435 197.083 139.614 195.984 137.883L195.933 137.819L195.936 137.815Z" fill="white"/>
</svg>
