<svg width="309" height="303" viewBox="0 0 309 303" fill="none" xmlns="http://www.w3.org/2000/svg">
<path d="M76.6617 5.2C76.6617 5.08 76.7417 5 76.8617 5H81.5417C84.4417 5 86.1017 6.36 86.1017 9.06C86.1017 9.74 85.9017 10.34 85.5817 10.84C84.7217 12.18 84.6817 12.12 85.8217 13.2C86.4417 13.84 86.8617 14.68 86.8617 15.72C86.8617 18.54 84.8417 20 82.1217 20H76.8617C76.7417 20 76.6617 19.92 76.6617 19.78V5.2ZM81.9217 17.46C83.3817 17.46 84.3017 16.84 84.3017 15.5C84.3017 14.1 83.3617 13.58 81.8017 13.58H80.1617C79.5217 13.58 79.1617 13.98 79.1617 14.68V16.36C79.1617 17.06 79.5217 17.46 80.1617 17.46H81.9217ZM81.5617 11.06C82.8217 11.06 83.5617 10.44 83.5617 9.32C83.5617 8.22 82.8417 7.54 81.6017 7.54H80.1617C79.5217 7.54 79.1617 7.94 79.1617 8.64V9.96C79.1617 10.66 79.5217 11.06 80.1617 11.06H81.5617ZM89.2398 5.22C89.2398 5.08 89.3198 5 89.4398 5H91.5998C91.7198 5 91.7998 5.08 91.7998 5.22V15.92C91.7998 16.82 92.2998 17.32 93.1998 17.32H97.7998C97.9198 17.32 97.9998 17.4 97.9998 17.54V19.78C97.9998 19.92 97.9198 20 97.7998 20H89.4398C89.3198 20 89.2398 19.92 89.2398 19.78V5.22ZM105.502 20.22C101.502 20.22 98.4822 16.92 98.4822 12.48C98.4822 8.06 101.502 4.78 105.502 4.78C109.482 4.78 112.502 8.06 112.502 12.48C112.502 16.92 109.482 20.22 105.502 20.22ZM105.502 17.52C107.962 17.52 109.902 15.4 109.902 12.48C109.902 9.62 107.962 7.46 105.502 7.46C103.022 7.46 101.102 9.62 101.102 12.48C101.102 15.4 103.022 17.52 105.502 17.52ZM121.01 20.22C117.01 20.22 113.99 16.92 113.99 12.48C113.99 8.06 117.01 4.78 121.01 4.78C124.99 4.78 128.01 8.06 128.01 12.48C128.01 16.92 124.99 20.22 121.01 20.22ZM121.01 17.52C123.47 17.52 125.41 15.4 125.41 12.48C125.41 9.62 123.47 7.46 121.01 7.46C118.53 7.46 116.61 9.62 116.61 12.48C116.61 15.4 118.53 17.52 121.01 17.52ZM130.158 5.2C130.158 5.08 130.238 5 130.358 5H133.518C133.618 5 133.718 5.04 133.758 5.16L137.138 14.34C137.458 15.22 138.138 15.22 138.458 14.34L141.838 5.16C141.878 5.04 141.978 5 142.078 5H145.238C145.358 5 145.438 5.08 145.438 5.2V19.8C145.438 19.92 145.358 20 145.238 20H143.058C142.938 20 142.858 19.92 142.858 19.8V12.26C142.858 11.3 142.058 11.16 141.718 12.06L138.918 19.66C138.878 19.78 138.798 19.82 138.698 19.82H136.898C136.798 19.82 136.718 19.78 136.678 19.66L133.858 12.04C133.518 11.14 132.718 11.3 132.718 12.26V19.8C132.718 19.92 132.638 20 132.518 20H130.358C130.238 20 130.158 19.92 130.158 19.8V5.2ZM148.404 5.22C148.404 5.08 148.484 5 148.604 5H150.764C150.884 5 150.964 5.08 150.964 5.22V19.78C150.964 19.92 150.884 20 150.764 20H148.604C148.484 20 148.404 19.92 148.404 19.78V5.22ZM153.927 5.2C153.927 5.08 154.007 5 154.127 5H155.947C156.047 5 156.127 5.02 156.187 5.12L161.907 13.38C162.447 14.18 163.127 14.14 163.127 13.18V5.2C163.127 5.08 163.207 5 163.327 5H165.507C165.627 5 165.707 5.08 165.707 5.2V19.8C165.707 19.92 165.627 20 165.507 20H163.687C163.587 20 163.507 19.98 163.447 19.88C161.527 17.08 159.607 14.4 157.687 11.58C157.147 10.78 156.487 10.86 156.487 11.82V19.8C156.487 19.92 156.407 20 156.287 20H154.127C154.007 20 153.927 19.92 153.927 19.8V5.2ZM175.138 20.22C170.798 20.22 167.838 16.96 167.838 12.5C167.838 8.08 170.858 4.78 174.918 4.78C178.158 4.78 180.518 6.7 181.338 9.6C181.378 9.78 181.298 9.86 181.158 9.86H178.718C178.618 9.86 178.538 9.82 178.478 9.7C177.878 8.42 176.678 7.48 174.918 7.48C172.378 7.48 170.458 9.6 170.458 12.5C170.458 15.48 172.318 17.56 175.138 17.56C176.638 17.56 177.818 17.04 178.498 15.92C178.898 15.24 178.478 14.7 177.718 14.7H173.678C173.558 14.7 173.478 14.6 173.478 14.48V12.42C173.478 12.28 173.558 12.2 173.678 12.2H180.798C181.658 12.2 181.858 12.7 181.798 13.42C181.618 17.24 178.998 20.22 175.138 20.22ZM191.655 9.06C191.655 8.16 191.155 7.66 190.255 7.66H187.635C187.515 7.66 187.435 7.58 187.435 7.46V5.2C187.435 5.08 187.515 5 187.635 5H198.255C198.375 5 198.455 5.08 198.455 5.2V7.46C198.455 7.58 198.375 7.66 198.255 7.66H195.635C194.735 7.66 194.235 8.16 194.235 9.06V19.8C194.235 19.92 194.155 20 194.035 20H191.855C191.735 20 191.655 19.92 191.655 19.8V9.06ZM200.08 5.2C200.08 5.08 200.16 5 200.28 5H205.68C208.16 5 210.24 6.56 210.24 9.58C210.24 11.12 209.56 12.64 208.06 13.4C206.64 14.1 206.22 14.28 206.98 15.16L208.12 16.54L210.84 19.76C210.94 19.88 210.88 20 210.72 20H207.74C207.64 20 207.56 19.96 207.5 19.88L204.36 16.02C203.54 15 202.64 15.32 202.64 16.62V19.8C202.64 19.92 202.56 20 202.44 20H200.28C200.16 20 200.08 19.92 200.08 19.8V5.2ZM205.28 11.56C206.7 11.56 207.64 10.88 207.64 9.58C207.64 8.3 206.7 7.66 205.3 7.66H203.64C203 7.66 202.64 8.02 202.64 8.66V10.56C202.64 11.2 203 11.56 203.64 11.56H205.28ZM212.599 5.22C212.599 5.08 212.679 5 212.799 5H221.299C221.419 5 221.499 5.08 221.499 5.22V7.4C221.499 7.52 221.419 7.62 221.299 7.62H216.499C215.599 7.62 215.099 8.16 215.099 9.16V9.6C215.099 10.58 215.599 11.14 216.499 11.14H220.579C220.699 11.14 220.779 11.22 220.779 11.36V13.52C220.779 13.64 220.699 13.72 220.579 13.72H216.499C215.599 13.72 215.099 14.3 215.099 15.28V15.84C215.099 16.84 215.599 17.38 216.499 17.38H221.299C221.419 17.38 221.499 17.48 221.499 17.6V19.78C221.499 19.92 221.419 20 221.299 20H212.799C212.679 20 212.599 19.92 212.599 19.78V5.22ZM223.869 5.22C223.869 5.08 223.949 5 224.069 5H232.569C232.689 5 232.769 5.08 232.769 5.22V7.4C232.769 7.52 232.689 7.62 232.569 7.62H227.769C226.869 7.62 226.369 8.16 226.369 9.16V9.6C226.369 10.58 226.869 11.14 227.769 11.14H231.849C231.969 11.14 232.049 11.22 232.049 11.36V13.52C232.049 13.64 231.969 13.72 231.849 13.72H227.769C226.869 13.72 226.369 14.3 226.369 15.28V15.84C226.369 16.84 226.869 17.38 227.769 17.38H232.569C232.689 17.38 232.769 17.48 232.769 17.6V19.78C232.769 19.92 232.689 20 232.569 20H224.069C223.949 20 223.869 19.92 223.869 19.78V5.22Z" fill="#FFFF77"/>
<rect y="3.34375" width="19.2962" height="19.2962" fill="#6D6C69"/>
<rect y="281.961" width="19.2962" height="19.2962" fill="#6D6C69"/>
<rect x="288.94" y="3.34375" width="19.2962" height="19.2962" fill="#6D6C69"/>
<rect x="288.94" y="281.961" width="19.2962" height="19.2962" fill="#FFFF77"/>
<path d="M275.098 285.961C277.258 285.961 279.354 287.657 279.354 291.001V297.785C279.354 298.009 279.29 298.137 279.034 298.137H276.394C276.122 298.137 276.042 298.009 276.042 297.785L275.994 291.065C275.978 288.505 271.338 288.297 271.338 291.001V297.833C271.338 298.025 271.29 298.137 271.098 298.137H239.322C237.162 298.137 235.05 296.457 235.05 293.113V286.313C235.05 286.089 235.114 285.961 235.37 285.961H238.026C238.282 285.961 238.362 286.089 238.362 286.313L238.41 293.049C238.426 295.593 243.082 295.801 243.082 293.113V286.265C243.082 286.073 243.13 285.961 243.338 285.961H275.098Z" fill="#FFFF77"/>
<path d="M211.594 83.3471C214.304 85.8371 234.284 84.7571 226.304 93.0171C221.884 97.5871 195.594 91.4571 193.464 97.8871C192.914 99.5671 193.374 102.067 195.064 102.887C196.594 103.637 221.854 103.717 224.434 103.127C228.044 102.307 228.074 98.7471 230.234 96.9371C234.944 93.0071 237.394 99.2371 240.434 102.037C242.284 103.737 245.434 104.207 246.254 106.487C246.374 109.017 247.154 111.457 247.334 113.967C247.834 121.047 247.904 134.327 247.284 141.387C247.134 143.047 246.514 147.107 245.644 148.317C243.914 150.707 239.024 150.127 238.054 154.437C236.324 162.187 239.714 175.847 237.484 182.987C236.454 186.297 233.394 186.277 231.444 188.077C228.774 190.527 226.654 195.897 222.434 194.597C217.504 193.067 218.324 181.087 221.614 178.247C224.034 176.157 227.574 177.527 228.394 172.187C229.424 165.557 229.164 144.147 228.344 137.217C228.194 135.967 227.834 134.667 227.384 133.487C226.174 132.077 212.514 130.987 210.884 134.117L210.294 202.037C208.854 206.837 190.634 206.067 192.814 199.177C194.164 194.917 200.264 197.007 201.064 190.227C202.204 180.517 201.994 157.297 201.084 147.357C200.894 145.267 200.844 143.037 198.754 141.917C192.354 140.567 191.704 151.217 185.394 149.377C179.864 147.767 182.874 136.827 180.114 134.067C177.354 131.307 164.824 130.697 164.174 136.207C163.864 138.807 163.904 154.847 164.644 156.377C167.834 162.917 173.864 152.367 175.364 151.677C182.554 148.347 183.554 161.247 181.574 165.597C179.024 171.187 167.134 165.727 164.654 170.937C163.604 173.137 163.744 193.647 165.654 194.097C172.164 195.657 172.244 189.097 175.374 187.637C182.674 184.247 183.644 197.047 180.864 201.697C179.194 204.477 175.794 204.667 174.454 206.427C170.134 212.127 174.604 240.527 172.374 248.877C170.644 252.377 157.104 252.487 154.874 249.227C152.304 245.477 155.164 205.427 154.844 197.017C154.644 191.747 153.264 186.297 153.924 180.807C153.424 177.257 146.534 176.897 146.534 173.077C146.534 169.877 151.614 168.747 152.844 167.267C154.344 165.467 154.414 148.837 153.984 145.627C153.824 144.417 153.804 143.427 152.744 142.587C148.004 140.687 143.214 140.567 138.324 141.817L137.394 142.837C136.964 144.017 136.874 145.237 136.784 146.477C135.574 162.997 138.734 182.757 136.834 198.767C136.514 201.497 135.694 203.377 132.824 204.137C130.584 204.337 128.044 201.507 127.574 199.427C126.284 193.647 127.714 183.077 127.384 176.497C127.224 173.217 126.934 167.547 126.474 164.557C125.874 160.557 123.074 159.577 119.584 161.157C116.254 167.627 119.194 175.787 117.774 182.287C117.104 185.387 114.904 186.357 111.984 185.037C106.954 182.747 110.164 171.477 106.264 170.187C97.0137 167.127 103.484 186.827 94.4637 185.507C87.7937 184.537 93.1537 173.037 87.9437 169.687C82.5337 166.207 60.1937 172.317 63.2937 162.097C65.3137 155.447 79.0837 163.817 80.3037 153.377C81.0737 146.797 78.6937 128.927 81.3037 124.407C82.5437 122.257 84.6037 121.747 86.8937 122.727C96.9637 127.037 84.7837 151.777 96.6237 154.257C97.3937 153.967 98.1937 153.607 98.6537 152.887C100.844 149.517 100.594 127.047 98.3337 123.517C97.7137 122.547 95.5637 122.327 94.4037 121.247C89.2837 116.457 90.4237 114.217 82.3337 112.767C79.0137 112.167 72.6037 114.037 72.5237 108.847C72.4537 104.437 76.1537 103.757 79.9537 103.347C84.2637 102.877 93.3437 102.727 97.0037 104.947C100.204 106.887 103.144 115.747 107.754 108.807C108.104 104.297 98.4237 102.267 101.654 96.7871C102.984 94.5271 111.734 91.0471 106.484 86.9071C105.164 85.8671 87.5537 85.6771 85.0137 86.1571C80.7337 86.9671 79.5537 95.0471 74.8937 93.7371C70.5537 92.5071 69.9237 78.0571 74.0337 76.8871C75.0437 76.6071 81.9537 75.8571 83.3337 75.8271C85.8537 75.7771 88.0137 76.8571 90.1437 76.7871C101.764 76.3871 119.934 74.0771 131.044 76.0571C140.664 77.7771 134.404 89.4471 138.094 92.9871C141.074 95.2271 151.054 95.3171 153.174 92.6371C155.294 89.9571 152.304 74.0271 160.784 77.9971C163.474 79.2571 163.894 84.4171 168.974 85.2171C172.944 85.8371 193.394 85.8972 197.004 85.0872C201.384 84.0972 201.274 77.4771 205.744 77.4771C209.674 77.4771 209.644 81.5171 211.574 83.2971L211.594 83.3471ZM120.244 86.3071C116.674 87.4871 119.014 97.8671 125.164 93.7971C129.824 90.7171 126.564 84.2071 120.244 86.3071Z" fill="white"/>
<path d="M171.731 75.6925C165.731 81.6925 158.191 67.4825 168.111 67.2825C173.381 67.1825 174.321 73.0925 171.731 75.6925Z" fill="white"/>
<path d="M119.044 212.713C115.654 209.323 119.464 201.423 125.314 205.163C131.874 209.353 123.654 217.323 119.044 212.713Z" fill="white"/>
<path d="M199.994 68.4035C206.174 74.5835 191.404 81.7635 191.604 72.0535C191.714 66.9835 197.234 65.6535 199.994 68.4035Z" fill="white"/>
<path d="M108.362 187.443C114.432 193.523 99.9922 200.893 99.9922 191.093C99.9922 186.153 105.782 184.853 108.362 187.443Z" fill="white"/>
</svg>
