<svg width="309" height="303" viewBox="0 0 309 303" fill="none" xmlns="http://www.w3.org/2000/svg">
<path d="M74.7281 5.2C74.7281 5.08 74.8081 5 74.9281 5H78.0881C78.1881 5 78.2881 5.04 78.3281 5.16L81.7081 14.34C82.0281 15.22 82.7081 15.22 83.0281 14.34L86.4081 5.16C86.4481 5.04 86.5481 5 86.6481 5H89.8081C89.9281 5 90.0081 5.08 90.0081 5.2V19.8C90.0081 19.92 89.9281 20 89.8081 20H87.6281C87.5081 20 87.4281 19.92 87.4281 19.8V12.26C87.4281 11.3 86.6281 11.16 86.2881 12.06L83.4881 19.66C83.4481 19.78 83.3681 19.82 83.2681 19.82H81.4681C81.3681 19.82 81.2881 19.78 81.2481 19.66L78.4281 12.04C78.0881 11.14 77.2881 11.3 77.2881 12.26V19.8C77.2881 19.92 77.2081 20 77.0881 20H74.9281C74.8081 20 74.7281 19.92 74.7281 19.8V5.2ZM96.2341 16.2C96.2341 15.08 96.0341 14.26 95.5541 13.24L91.7541 5.24C91.6941 5.1 91.7541 5 91.8941 5H94.3341C94.4341 5 94.4941 5.04 94.5541 5.16L96.5941 9.64C97.1141 10.76 97.9741 10.72 98.4741 9.62L100.494 5.16C100.554 5.04 100.614 5 100.714 5H103.194C103.334 5 103.394 5.1 103.334 5.24L99.4941 13.26C99.0141 14.28 98.8141 15.1 98.8141 16.22V19.8C98.8141 19.92 98.7341 20 98.6141 20H96.4341C96.3141 20 96.2341 19.92 96.2341 19.8V16.2ZM109.48 20.22C105.98 20.22 104.46 17.58 104.3 15.44C104.3 15.32 104.38 15.24 104.5 15.24H106.76C106.88 15.24 106.94 15.3 106.96 15.42C107.16 16.76 108.02 17.7 109.48 17.7C110.68 17.7 111.62 16.98 111.62 15.94C111.62 12.84 104.52 14.52 104.52 9.1C104.52 6.7 106.3 4.78 109.16 4.78C112.26 4.78 113.78 7.08 113.94 9.28C113.96 9.4 113.88 9.48 113.76 9.48H111.52C111.4 9.48 111.32 9.42 111.3 9.28C111.16 8.18 110.4 7.26 109.16 7.26C107.88 7.26 107.08 8.06 107.08 9.1C107.08 12.02 114.18 10.32 114.18 15.94C114.18 18.48 111.9 20.22 109.48 20.22ZM118.51 9.06C118.51 8.16 118.01 7.66 117.11 7.66H114.49C114.37 7.66 114.29 7.58 114.29 7.46V5.2C114.29 5.08 114.37 5 114.49 5H125.11C125.23 5 125.31 5.08 125.31 5.2V7.46C125.31 7.58 125.23 7.66 125.11 7.66H122.49C121.59 7.66 121.09 8.16 121.09 9.06V19.8C121.09 19.92 121.01 20 120.89 20H118.71C118.59 20 118.51 19.92 118.51 19.8V9.06ZM126.935 5.22C126.935 5.08 127.015 5 127.135 5H135.635C135.755 5 135.835 5.08 135.835 5.22V7.4C135.835 7.52 135.755 7.62 135.635 7.62H130.835C129.935 7.62 129.435 8.16 129.435 9.16V9.6C129.435 10.58 129.935 11.14 130.835 11.14H134.915C135.035 11.14 135.115 11.22 135.115 11.36V13.52C135.115 13.64 135.035 13.72 134.915 13.72H130.835C129.935 13.72 129.435 14.3 129.435 15.28V15.84C129.435 16.84 129.935 17.38 130.835 17.38H135.635C135.755 17.38 135.835 17.48 135.835 17.6V19.78C135.835 19.92 135.755 20 135.635 20H127.135C127.015 20 126.935 19.92 126.935 19.78V5.22ZM138.205 5.2C138.205 5.08 138.285 5 138.405 5H143.805C146.285 5 148.365 6.56 148.365 9.58C148.365 11.12 147.685 12.64 146.185 13.4C144.765 14.1 144.345 14.28 145.105 15.16L146.245 16.54L148.965 19.76C149.065 19.88 149.005 20 148.845 20H145.865C145.765 20 145.685 19.96 145.625 19.88L142.485 16.02C141.665 15 140.765 15.32 140.765 16.62V19.8C140.765 19.92 140.685 20 140.565 20H138.405C138.285 20 138.205 19.92 138.205 19.8V5.2ZM143.405 11.56C144.825 11.56 145.765 10.88 145.765 9.58C145.765 8.3 144.825 7.66 143.425 7.66H141.765C141.125 7.66 140.765 8.02 140.765 8.66V10.56C140.765 11.2 141.125 11.56 141.765 11.56H143.405ZM150.884 5.22C150.884 5.08 150.964 5 151.084 5H153.244C153.364 5 153.444 5.08 153.444 5.22V19.78C153.444 19.92 153.364 20 153.244 20H151.084C150.964 20 150.884 19.92 150.884 19.78V5.22ZM162.768 20.22C158.768 20.22 155.748 16.92 155.748 12.48C155.748 8.06 158.768 4.78 162.768 4.78C166.748 4.78 169.768 8.06 169.768 12.48C169.768 16.92 166.748 20.22 162.768 20.22ZM162.768 17.52C165.228 17.52 167.168 15.4 167.168 12.48C167.168 9.62 165.228 7.46 162.768 7.46C160.288 7.46 158.368 9.62 158.368 12.48C158.368 15.4 160.288 17.52 162.768 17.52ZM177.316 20.22C174.136 20.22 171.776 17.88 171.776 13.76V5.2C171.776 5.08 171.856 5 171.976 5H174.136C174.256 5 174.336 5.08 174.336 5.2V13.66C174.336 16.34 175.556 17.56 177.316 17.56C179.076 17.56 180.276 16.34 180.276 13.66V5.2C180.276 5.08 180.356 5 180.476 5H182.656C182.776 5 182.856 5.08 182.856 5.2V13.76C182.856 17.88 180.476 20.22 177.316 20.22ZM189.91 20.22C186.41 20.22 184.89 17.58 184.73 15.44C184.73 15.32 184.81 15.24 184.93 15.24H187.19C187.31 15.24 187.37 15.3 187.39 15.42C187.59 16.76 188.45 17.7 189.91 17.7C191.11 17.7 192.05 16.98 192.05 15.94C192.05 12.84 184.95 14.52 184.95 9.1C184.95 6.7 186.73 4.78 189.59 4.78C192.69 4.78 194.21 7.08 194.37 9.28C194.39 9.4 194.31 9.48 194.19 9.48H191.95C191.83 9.48 191.75 9.42 191.73 9.28C191.59 8.18 190.83 7.26 189.59 7.26C188.31 7.26 187.51 8.06 187.51 9.1C187.51 12.02 194.61 10.32 194.61 15.94C194.61 18.48 192.33 20.22 189.91 20.22ZM201.31 5.2C201.31 5.08 201.39 5 201.51 5H206.19C209.09 5 210.75 6.36 210.75 9.06C210.75 9.74 210.55 10.34 210.23 10.84C209.37 12.18 209.33 12.12 210.47 13.2C211.09 13.84 211.51 14.68 211.51 15.72C211.51 18.54 209.49 20 206.77 20H201.51C201.39 20 201.31 19.92 201.31 19.78V5.2ZM206.57 17.46C208.03 17.46 208.95 16.84 208.95 15.5C208.95 14.1 208.01 13.58 206.45 13.58H204.81C204.17 13.58 203.81 13.98 203.81 14.68V16.36C203.81 17.06 204.17 17.46 204.81 17.46H206.57ZM206.21 11.06C207.47 11.06 208.21 10.44 208.21 9.32C208.21 8.22 207.49 7.54 206.25 7.54H204.81C204.17 7.54 203.81 7.94 203.81 8.64V9.96C203.81 10.66 204.17 11.06 204.81 11.06H206.21ZM217.508 5.16C217.548 5.04 217.648 5 217.748 5H220.528C220.628 5 220.728 5.04 220.768 5.16L225.568 19.74C225.608 19.92 225.548 20 225.408 20H223.108C223.008 20 222.908 19.96 222.868 19.84L222.568 18.9C222.108 17.46 221.208 16.78 219.828 16.78H218.428C217.048 16.78 216.148 17.46 215.688 18.9L215.388 19.84C215.348 19.96 215.248 20 215.148 20H212.868C212.728 20 212.668 19.92 212.708 19.74L217.508 5.16ZM220.008 14.32C220.728 14.32 221.048 13.8 220.808 13.04L219.768 9.74C219.468 8.78 218.768 8.78 218.468 9.74L217.448 13.04C217.208 13.8 217.528 14.32 218.248 14.32H220.008ZM228.647 9.06C228.647 8.16 228.147 7.66 227.247 7.66H224.627C224.507 7.66 224.427 7.58 224.427 7.46V5.2C224.427 5.08 224.507 5 224.627 5H235.247C235.367 5 235.447 5.08 235.447 5.2V7.46C235.447 7.58 235.367 7.66 235.247 7.66H232.627C231.727 7.66 231.227 8.16 231.227 9.06V19.8C231.227 19.92 231.147 20 231.027 20H228.847C228.727 20 228.647 19.92 228.647 19.8V9.06Z" fill="#FFFF77"/>
<rect y="3.34375" width="19.2962" height="19.2962" fill="#6D6C69"/>
<rect y="281.961" width="19.2962" height="19.2962" fill="#6D6C69"/>
<rect x="288.94" y="3.34375" width="19.2962" height="19.2962" fill="#6D6C69"/>
<rect x="288.94" y="281.961" width="19.2962" height="19.2962" fill="#FFFF77"/>
<path d="M275.099 285.961C277.259 285.961 279.355 287.657 279.355 291.001V297.785C279.355 298.009 279.291 298.137 279.035 298.137H276.395C276.123 298.137 276.043 298.009 276.043 297.785L275.995 291.065C275.979 288.505 271.339 288.297 271.339 291.001V297.833C271.339 298.025 271.291 298.137 271.099 298.137H239.323C237.163 298.137 235.051 296.457 235.051 293.113V286.313C235.051 286.089 235.115 285.961 235.371 285.961H238.027C238.283 285.961 238.363 286.089 238.363 286.313L238.411 293.049C238.427 295.593 243.083 295.801 243.083 293.113V286.265C243.083 286.073 243.131 285.961 243.339 285.961H275.099Z" fill="#FFFF77"/>
<path d="M172.719 135.651C172.917 136.363 174.592 137.471 175.466 137.606C182.988 138.714 178.718 125.22 182.916 123.436C189.546 120.625 189.888 129.516 193.897 129.138C197.383 127.94 198.302 121.463 203.058 123.031C205.931 123.976 205.292 133.057 206.463 135.849C207.733 138.876 212.552 138.885 212.85 141.848C213.327 146.551 205.058 147.334 206.76 152.496C207.697 155.342 217.345 155.09 219.434 153.838C221.011 152.892 222.002 149.694 223.29 148.433C224.875 146.875 227.208 146.749 228.578 144.461C230.505 141.245 229.271 138.209 229.956 135.038C230.974 130.318 236.135 130.228 237.838 134.516L238.279 189.645C237.433 197.095 231.127 195.843 230.01 204.517C228.316 217.696 233.487 232.1 227.938 244.874L223.362 245.45C222.083 245.009 221.551 243.306 221.353 242.045C219.092 227.488 223.299 207.454 221.335 192.69C221.137 191.186 220.885 189.897 219.218 189.411C217.101 188.789 207.265 188.663 206.256 190.789C203.328 196.96 208.418 214.651 204.409 220.39C203.526 221.651 199.139 221.993 198.103 220.363C194.707 214.985 197.581 192.095 196.662 184.204C196.536 183.132 196.689 182.069 195.365 181.628C191.311 180.259 189.51 185.222 187.285 187.249C185.843 188.564 183.916 189.492 182.438 190.888C180.853 192.393 176.205 200.716 173.277 194.473C170.241 188.006 176.97 180.106 163.035 180.745C155.234 181.106 157.747 182.898 154.216 186.582C152.766 188.096 150.892 188.906 149.532 190.384C147.577 192.51 147.064 195.491 144.397 196.816L108.707 196.572C100.942 191.204 115.986 187.862 112.608 182.862C108.014 178.772 106.933 185.501 104.501 187.006C99.7174 189.96 98.4293 184.538 95.9701 182.313C92.6551 179.304 90.1328 180.709 89.3942 174.232C88.9978 170.737 88.4574 156.505 92.2498 155.433C99.6904 154.766 97.4384 164.215 98.8166 168.656C100.348 173.584 114.545 172.935 118.301 171.503C126.336 168.449 119.76 151.775 124.129 148.019C128.111 144.596 143.74 149.523 146.127 144.515C147.586 141.452 141.92 138.173 139.893 136.056C137.065 133.102 138.812 131.246 132.966 130.642C128.138 130.138 115.301 132.976 114.869 127.102C114.121 116.833 134.488 126.201 137.614 119.842C139.857 115.293 131.011 113.914 130.327 108.609C130.12 106.996 130.714 101.222 131.489 99.8349C132.624 97.7991 137.858 95.7993 137.668 93.5653C137.443 91.007 129.336 85.0527 127.408 82.2061C114.815 79.4587 99.8886 82.9358 87.5295 81.1972C80.7735 80.2424 78.7196 72.8197 85.899 72L187.573 72.1802C189.483 72.8378 192.041 74.198 190.645 76.4139L172.701 97.8621V135.66L172.719 135.651ZM137.821 173.26C133.326 168.701 130.705 177.89 129.165 179.268C127.354 180.889 122.4 181.106 122.742 184.898C123.183 189.879 136.596 189.294 138.083 187.411C139.281 185.889 139.227 174.683 137.821 173.26Z" fill="white"/>
<path d="M73.3985 88.797C68.3179 83.7345 78.506 77.3478 81.2895 83.5994C84.073 89.851 75.9748 91.3733 73.3985 88.797Z" fill="white"/>
</svg>
