<svg width="309" height="303" viewBox="0 0 309 303" fill="none" xmlns="http://www.w3.org/2000/svg">
<path d="M92.7585 15.06C92.7585 14.12 92.2585 13.6 91.3585 13.6H87.8385C86.9385 13.6 86.4385 14.12 86.4385 15.06V19.8C86.4385 19.92 86.3585 20 86.2385 20H84.0785C83.9585 20 83.8785 19.92 83.8785 19.8V5.2C83.8785 5.08 83.9585 5 84.0785 5H86.2385C86.3585 5 86.4385 5.08 86.4385 5.2V9.5C86.4385 10.44 86.9385 10.96 87.8385 10.96H91.3585C92.2585 10.96 92.7585 10.44 92.7585 9.5V5.2C92.7585 5.08 92.8385 5 92.9585 5H95.1185C95.2385 5 95.3185 5.08 95.3185 5.2V19.8C95.3185 19.92 95.2385 20 95.1185 20H92.9585C92.8385 20 92.7585 19.92 92.7585 19.8V15.06ZM98.1168 5.22C98.1168 5.08 98.1968 5 98.3168 5H106.817C106.937 5 107.017 5.08 107.017 5.22V7.4C107.017 7.52 106.937 7.62 106.817 7.62H102.017C101.117 7.62 100.617 8.16 100.617 9.16V9.6C100.617 10.58 101.117 11.14 102.017 11.14H106.097C106.217 11.14 106.297 11.22 106.297 11.36V13.52C106.297 13.64 106.217 13.72 106.097 13.72H102.017C101.117 13.72 100.617 14.3 100.617 15.28V15.84C100.617 16.84 101.117 17.38 102.017 17.38H106.817C106.937 17.38 107.017 17.48 107.017 17.6V19.78C107.017 19.92 106.937 20 106.817 20H98.3168C98.1968 20 98.1168 19.92 98.1168 19.78V5.22ZM109.386 5.22C109.386 5.08 109.466 5 109.586 5H111.746C111.866 5 111.946 5.08 111.946 5.22V15.92C111.946 16.82 112.446 17.32 113.346 17.32H117.946C118.066 17.32 118.146 17.4 118.146 17.54V19.78C118.146 19.92 118.066 20 117.946 20H109.586C109.466 20 109.386 19.92 109.386 19.78V5.22ZM119.855 5.2C119.855 5.08 119.935 5 120.055 5H125.455C127.935 5 130.015 6.64 130.015 9.72C130.015 12.8 127.935 14.48 125.455 14.48H123.415C122.775 14.48 122.415 14.84 122.415 15.48V19.8C122.415 19.92 122.335 20 122.215 20H120.055C119.935 20 119.855 19.92 119.855 19.8V5.2ZM125.055 11.82C126.475 11.82 127.415 11.08 127.415 9.72C127.415 8.38 126.475 7.66 125.075 7.66H123.415C122.775 7.66 122.415 8.02 122.415 8.66V10.82C122.415 11.46 122.775 11.82 123.415 11.82H125.055ZM131.949 5.22C131.949 5.08 132.029 5 132.149 5H134.309C134.429 5 134.509 5.08 134.509 5.22V19.78C134.509 19.92 134.429 20 134.309 20H132.149C132.029 20 131.949 19.92 131.949 19.78V5.22ZM137.472 5.2C137.472 5.08 137.552 5 137.672 5H139.492C139.592 5 139.672 5.02 139.732 5.12L145.452 13.38C145.992 14.18 146.672 14.14 146.672 13.18V5.2C146.672 5.08 146.752 5 146.872 5H149.052C149.172 5 149.252 5.08 149.252 5.2V19.8C149.252 19.92 149.172 20 149.052 20H147.232C147.132 20 147.052 19.98 146.992 19.88C145.072 17.08 143.152 14.4 141.232 11.58C140.692 10.78 140.032 10.86 140.032 11.82V19.8C140.032 19.92 139.952 20 139.832 20H137.672C137.552 20 137.472 19.92 137.472 19.8V5.2ZM158.683 20.22C154.343 20.22 151.383 16.96 151.383 12.5C151.383 8.08 154.403 4.78 158.463 4.78C161.703 4.78 164.063 6.7 164.883 9.6C164.923 9.78 164.843 9.86 164.703 9.86H162.263C162.163 9.86 162.083 9.82 162.023 9.7C161.423 8.42 160.223 7.48 158.463 7.48C155.923 7.48 154.003 9.6 154.003 12.5C154.003 15.48 155.863 17.56 158.683 17.56C160.183 17.56 161.363 17.04 162.043 15.92C162.443 15.24 162.023 14.7 161.263 14.7H157.223C157.103 14.7 157.023 14.6 157.023 14.48V12.42C157.023 12.28 157.103 12.2 157.223 12.2H164.343C165.203 12.2 165.403 12.7 165.343 13.42C165.163 17.24 162.543 20.22 158.683 20.22ZM181.04 15.06C181.04 14.12 180.54 13.6 179.64 13.6H176.12C175.22 13.6 174.72 14.12 174.72 15.06V19.8C174.72 19.92 174.64 20 174.52 20H172.36C172.24 20 172.16 19.92 172.16 19.8V5.2C172.16 5.08 172.24 5 172.36 5H174.52C174.64 5 174.72 5.08 174.72 5.2V9.5C174.72 10.44 175.22 10.96 176.12 10.96H179.64C180.54 10.96 181.04 10.44 181.04 9.5V5.2C181.04 5.08 181.12 5 181.24 5H183.4C183.52 5 183.6 5.08 183.6 5.2V19.8C183.6 19.92 183.52 20 183.4 20H181.24C181.12 20 181.04 19.92 181.04 19.8V15.06ZM190.018 5.16C190.058 5.04 190.158 5 190.258 5H193.038C193.138 5 193.238 5.04 193.278 5.16L198.078 19.74C198.118 19.92 198.058 20 197.918 20H195.618C195.518 20 195.418 19.96 195.378 19.84L195.078 18.9C194.618 17.46 193.718 16.78 192.338 16.78H190.938C189.558 16.78 188.658 17.46 188.198 18.9L187.898 19.84C187.858 19.96 187.758 20 187.658 20H185.378C185.238 20 185.178 19.92 185.218 19.74L190.018 5.16ZM192.518 14.32C193.238 14.32 193.558 13.8 193.318 13.04L192.278 9.74C191.978 8.78 191.278 8.78 190.978 9.74L189.958 13.04C189.718 13.8 190.038 14.32 190.758 14.32H192.518ZM199.679 5.2C199.679 5.08 199.759 5 199.879 5H201.699C201.799 5 201.879 5.02 201.939 5.12L207.659 13.38C208.199 14.18 208.879 14.14 208.879 13.18V5.2C208.879 5.08 208.959 5 209.079 5H211.259C211.379 5 211.459 5.08 211.459 5.2V19.8C211.459 19.92 211.379 20 211.259 20H209.439C209.339 20 209.259 19.98 209.199 19.88C207.279 17.08 205.359 14.4 203.439 11.58C202.899 10.78 202.239 10.86 202.239 11.82V19.8C202.239 19.92 202.159 20 202.039 20H199.879C199.759 20 199.679 19.92 199.679 19.8V5.2ZM214.25 5.22C214.25 5.08 214.33 5 214.45 5H218.75C222.91 5 225.79 8.3 225.79 12.5C225.79 16.7 222.91 20 218.75 20H214.45C214.33 20 214.25 19.92 214.25 19.78V5.22ZM218.89 17.34C221.41 17.34 223.17 15.18 223.17 12.5C223.17 9.82 221.41 7.68 218.89 7.68H217.81C217.17 7.68 216.81 8.08 216.81 8.8V16.2C216.81 16.92 217.17 17.32 217.81 17.32L218.89 17.34Z" fill="#FFFF77"/>
<rect y="3.34375" width="19.2962" height="19.2962" fill="#6D6C69"/>
<rect y="281.961" width="19.2962" height="19.2962" fill="#6D6C69"/>
<rect x="288.94" y="3.34375" width="19.2962" height="19.2962" fill="#6D6C69"/>
<rect x="288.94" y="281.961" width="19.2962" height="19.2962" fill="#FFFF77"/>
<path d="M275.099 285.961C277.259 285.961 279.355 287.657 279.355 291.001V297.785C279.355 298.009 279.291 298.137 279.035 298.137H276.395C276.123 298.137 276.043 298.009 276.043 297.785L275.995 291.065C275.979 288.505 271.339 288.297 271.339 291.001V297.833C271.339 298.025 271.291 298.137 271.099 298.137H239.323C237.163 298.137 235.051 296.457 235.051 293.113V286.313C235.051 286.089 235.115 285.961 235.371 285.961H238.027C238.283 285.961 238.363 286.089 238.363 286.313L238.411 293.049C238.427 295.593 243.083 295.801 243.083 293.113V286.265C243.083 286.073 243.131 285.961 243.339 285.961H275.099Z" fill="#FFFF77"/>
<path d="M134.995 67.8302C143.794 61.9093 136.142 51.9065 147.218 52.0102C154.759 51.6991 153.436 58.6223 159.658 58.8677C166.08 59.635 174.274 57.658 180.04 59.9599C182.6 62.4658 180.897 67.2253 182.714 70.1736C183.999 72.918 187.416 73.4123 188.227 76.4263C189.012 78.8976 190.383 97.9977 183.384 92.2497C181.215 89.7023 182.12 85.6791 180.603 82.8206C179.705 80.5774 176.575 79.461 175.214 81.8943C173.507 90.8637 175.062 107.517 174.537 115.674C175.041 119.497 171.956 120.634 169.562 122.735C167.441 125.023 166.94 129.334 168.491 132.213C169.811 134.954 172.188 135.648 173.5 138.389C175.963 142.734 173.186 147.884 169.728 150.376C167.9 152.004 168.501 153.812 170.377 155.146C172.726 156.587 174.872 158.001 174.53 161.133C174.568 168.149 174.53 183.814 174.551 191.259C174.523 193.208 174.727 195.354 176.547 196.35C180.437 198.244 188.265 209.522 188.763 198.942C188.773 190.979 188.763 171.993 188.766 162.695C188.866 160.275 188.431 158.613 189.882 157.137C193.513 155.875 198.885 147.293 202.084 150.065C202.751 150.635 202.941 151.586 202.965 152.46C203.034 167.205 202.965 193.167 202.989 205.115C202.979 207.746 203.317 209.629 200.92 210.625C196.961 212.187 195.993 216.193 191.454 217.541C185.951 219.283 182.973 214.945 179.131 212.128C175.732 209.844 165.081 211.444 169.583 216.432C172.046 218.488 175.131 219.221 174.544 223.13C174.544 232.176 174.561 254.836 174.537 262.226C174.488 263.816 174.568 265.52 172.706 265.762C164.207 266.29 147.66 265.748 138.54 265.927C133.648 266.221 131.91 262.654 136.087 259.689C141.711 256.896 139.915 250.159 140.177 244.885C139.586 239.825 142.544 230.928 135.237 230.969C131.047 231.211 126.808 229.279 124.555 226.082C123.18 224.343 120.849 223.828 119.425 222.252C117.878 213.591 119.325 199.924 118.845 186.33C118.448 179.852 119.712 175.563 118.223 170.396C116.727 168.505 112.295 168.975 111.939 165.28C111.435 159.069 111.87 152.229 111.732 145.955C111.88 139.82 112.292 136.599 107.13 133.295C103.897 130.498 108.388 128.252 110.778 126.918C113.345 113.728 110.93 82.3886 111.735 70.26C111.618 68.3279 112.188 66.8036 114.157 66.1365C117.767 64.6053 118.914 60.6892 123.139 59.4345C126.106 58.5773 130.342 59.2444 131.675 61.3805C132.539 63.0845 130.663 64.5604 129.589 65.8566C124.611 69.942 126.189 76.8929 125.958 83.0799C126.431 90.9536 124.352 91.6863 119.373 96.2108C117.919 106.545 119.266 126.72 118.845 136.761C118.43 140.539 121.011 141.466 123.744 143.501C125.609 144.863 127.233 147.635 129.665 147.787C131.067 147.666 132.29 146.056 131.717 144.725C128.932 140.757 125.201 138.497 125.761 132.731C126.003 121.37 124.963 109.559 126.521 98.3192C127.45 95.5644 129.686 94.1577 131.226 92.0631C135.697 85.2781 130.497 74.463 134.93 67.9027L134.995 67.8233V67.8302ZM173.594 66.5755C173.089 66.1158 172.329 66.057 171.649 66.0156C170.243 65.9775 168.633 65.943 167.945 66.5755C166.916 67.488 166.961 71.4283 167.869 72.3753C168.816 73.2844 172.754 73.3293 173.666 72.2993C174.298 71.608 174.264 69.9974 174.226 68.5906C174.184 67.9097 174.126 67.1458 173.666 66.6446L173.597 66.5755H173.594ZM146.022 73.2325C142.993 72.3754 139.984 73.7579 140.16 77.2904C140.025 82.4715 140.267 91.911 140.042 97.3203C139.956 99.128 138.982 100.345 137.431 101.064C135.859 101.941 133.161 103.231 133.824 104.793C135.12 106.953 138.388 106.881 139.507 109.255C140.775 112.684 139.801 119.78 140.194 123.409C140.239 124.972 140.889 126.807 142.278 127.439C144.219 128.355 147.159 128.151 147.646 126.085C147.95 116.776 147.66 92.4675 147.757 78.0197C147.708 75.3064 148.088 73.9031 146.098 73.2567L146.019 73.2325H146.022ZM159.16 94.562C158.003 93.7878 156.117 93.85 155.125 94.8973C154.103 96.1727 154.438 98.0116 154.365 100.49C154.472 102.298 154.023 104.472 155.06 106.003C155.985 107.119 158.006 107.202 159.16 106.355C160.28 105.46 160.162 103.919 160.214 102.56C160 100.276 160.888 96.1244 159.236 94.6208L159.157 94.562H159.16ZM158.711 114.191C156.117 113.268 154.117 114.744 154.376 117.537C154.369 124.961 154.365 145.243 154.376 152.526C154.386 153.484 154.462 154.552 155.091 155.181C156.289 156.408 158.981 156.311 159.841 154.69C160.48 153.49 160.124 149.778 160.214 147.649C160.214 140.439 160.214 129.952 160.214 122.839C160.214 121.892 160.214 120.986 160.214 120.074C160.083 116.894 160.725 115.249 158.777 114.215L158.708 114.184L158.711 114.191ZM146.72 142.558C146.216 142.098 145.456 142.039 144.775 141.998C143.369 141.96 141.759 141.925 141.072 142.558C140.042 143.47 140.087 147.411 140.996 148.358C141.942 149.267 145.881 149.312 146.793 148.282C147.425 147.59 147.39 145.98 147.352 144.573C147.311 143.892 147.252 143.128 146.793 142.627L146.724 142.558H146.72Z" fill="white"/>
</svg>
