<svg width="309" height="303" viewBox="0 0 309 303" fill="none" xmlns="http://www.w3.org/2000/svg">
<path d="M95.0251 20.22C91.5251 20.22 90.0051 17.58 89.8451 15.44C89.8451 15.32 89.9251 15.24 90.0451 15.24H92.3051C92.4251 15.24 92.4851 15.3 92.5051 15.42C92.7051 16.76 93.5651 17.7 95.0251 17.7C96.2251 17.7 97.1651 16.98 97.1651 15.94C97.1651 12.84 90.0651 14.52 90.0651 9.1C90.0651 6.7 91.8451 4.78 94.7051 4.78C97.8051 4.78 99.3251 7.08 99.4851 9.28C99.5051 9.4 99.4251 9.48 99.3051 9.48H97.0651C96.9451 9.48 96.8651 9.42 96.8451 9.28C96.7051 8.18 95.9451 7.26 94.7051 7.26C93.4251 7.26 92.6251 8.06 92.6251 9.1C92.6251 12.02 99.7251 10.32 99.7251 15.94C99.7251 18.48 97.4451 20.22 95.0251 20.22ZM104.055 9.06C104.055 8.16 103.555 7.66 102.655 7.66H100.035C99.9152 7.66 99.8352 7.58 99.8352 7.46V5.2C99.8352 5.08 99.9152 5 100.035 5H110.655C110.775 5 110.855 5.08 110.855 5.2V7.46C110.855 7.58 110.775 7.66 110.655 7.66H108.035C107.135 7.66 106.635 8.16 106.635 9.06V19.8C106.635 19.92 106.555 20 106.435 20H104.255C104.135 20 104.055 19.92 104.055 19.8V9.06ZM112.48 5.22C112.48 5.08 112.56 5 112.68 5H121.18C121.3 5 121.38 5.08 121.38 5.22V7.4C121.38 7.52 121.3 7.62 121.18 7.62H116.38C115.48 7.62 114.98 8.16 114.98 9.16V9.6C114.98 10.58 115.48 11.14 116.38 11.14H120.46C120.58 11.14 120.66 11.22 120.66 11.36V13.52C120.66 13.64 120.58 13.72 120.46 13.72H116.38C115.48 13.72 114.98 14.3 114.98 15.28V15.84C114.98 16.84 115.48 17.38 116.38 17.38H121.18C121.3 17.38 121.38 17.48 121.38 17.6V19.78C121.38 19.92 121.3 20 121.18 20H112.68C112.56 20 112.48 19.92 112.48 19.78V5.22ZM127.37 5.16C127.41 5.04 127.51 5 127.61 5H130.39C130.49 5 130.59 5.04 130.63 5.16L135.43 19.74C135.47 19.92 135.41 20 135.27 20H132.97C132.87 20 132.77 19.96 132.73 19.84L132.43 18.9C131.97 17.46 131.07 16.78 129.69 16.78H128.29C126.91 16.78 126.01 17.46 125.55 18.9L125.25 19.84C125.21 19.96 125.11 20 125.01 20H122.73C122.59 20 122.53 19.92 122.57 19.74L127.37 5.16ZM129.87 14.32C130.59 14.32 130.91 13.8 130.67 13.04L129.63 9.74C129.33 8.78 128.63 8.78 128.33 9.74L127.31 13.04C127.07 13.8 127.39 14.32 128.11 14.32H129.87ZM137.031 5.22C137.031 5.08 137.111 5 137.231 5H141.531C145.691 5 148.571 8.3 148.571 12.5C148.571 16.7 145.691 20 141.531 20H137.231C137.111 20 137.031 19.92 137.031 19.78V5.22ZM141.671 17.34C144.191 17.34 145.951 15.18 145.951 12.5C145.951 9.82 144.191 7.68 141.671 7.68H140.591C139.951 7.68 139.591 8.08 139.591 8.8V16.2C139.591 16.92 139.951 17.32 140.591 17.32L141.671 17.34ZM153.517 16.2C153.517 15.08 153.317 14.26 152.837 13.24L149.037 5.24C148.977 5.1 149.037 5 149.177 5H151.617C151.717 5 151.777 5.04 151.837 5.16L153.877 9.64C154.397 10.76 155.257 10.72 155.757 9.62L157.777 5.16C157.837 5.04 157.897 5 157.997 5H160.477C160.617 5 160.677 5.1 160.617 5.24L156.777 13.26C156.297 14.28 156.097 15.1 156.097 16.22V19.8C156.097 19.92 156.017 20 155.897 20H153.717C153.597 20 153.517 19.92 153.517 19.8V16.2ZM173.632 20.22C169.292 20.22 166.332 16.96 166.332 12.5C166.332 8.08 169.352 4.78 173.412 4.78C176.652 4.78 179.012 6.7 179.832 9.6C179.872 9.78 179.792 9.86 179.652 9.86H177.212C177.112 9.86 177.032 9.82 176.972 9.7C176.372 8.42 175.172 7.48 173.412 7.48C170.872 7.48 168.952 9.6 168.952 12.5C168.952 15.48 170.812 17.56 173.632 17.56C175.132 17.56 176.312 17.04 176.992 15.92C177.392 15.24 176.972 14.7 176.212 14.7H172.172C172.052 14.7 171.972 14.6 171.972 14.48V12.42C171.972 12.28 172.052 12.2 172.172 12.2H179.292C180.152 12.2 180.352 12.7 180.292 13.42C180.112 17.24 177.492 20.22 173.632 20.22ZM188.821 20.22C184.821 20.22 181.801 16.92 181.801 12.48C181.801 8.06 184.821 4.78 188.821 4.78C192.801 4.78 195.821 8.06 195.821 12.48C195.821 16.92 192.801 20.22 188.821 20.22ZM188.821 17.52C191.281 17.52 193.221 15.4 193.221 12.48C193.221 9.62 191.281 7.46 188.821 7.46C186.341 7.46 184.421 9.62 184.421 12.48C184.421 15.4 186.341 17.52 188.821 17.52ZM200.631 5.16C200.671 5.04 200.771 5 200.871 5H203.651C203.751 5 203.851 5.04 203.891 5.16L208.691 19.74C208.731 19.92 208.671 20 208.531 20H206.231C206.131 20 206.031 19.96 205.991 19.84L205.691 18.9C205.231 17.46 204.331 16.78 202.951 16.78H201.551C200.171 16.78 199.271 17.46 198.811 18.9L198.511 19.84C198.471 19.96 198.371 20 198.271 20H195.991C195.851 20 195.791 19.92 195.831 19.74L200.631 5.16ZM203.131 14.32C203.851 14.32 204.171 13.8 203.931 13.04L202.891 9.74C202.591 8.78 201.891 8.78 201.591 9.74L200.571 13.04C200.331 13.8 200.651 14.32 201.371 14.32H203.131ZM211.77 9.06C211.77 8.16 211.27 7.66 210.37 7.66H207.75C207.63 7.66 207.55 7.58 207.55 7.46V5.2C207.55 5.08 207.63 5 207.75 5H218.37C218.49 5 218.57 5.08 218.57 5.2V7.46C218.57 7.58 218.49 7.66 218.37 7.66H215.75C214.85 7.66 214.35 8.16 214.35 9.06V19.8C214.35 19.92 214.27 20 214.15 20H211.97C211.85 20 211.77 19.92 211.77 19.8V9.06Z" fill="#FFFF77"/>
<rect y="3.34375" width="19.2962" height="19.2962" fill="#6D6C69"/>
<rect y="281.961" width="19.2962" height="19.2962" fill="#6D6C69"/>
<rect x="288.94" y="3.34375" width="19.2962" height="19.2962" fill="#6D6C69"/>
<rect x="288.94" y="281.961" width="19.2962" height="19.2962" fill="#FFFF77"/>
<path d="M275.099 285.961C277.259 285.961 279.355 287.657 279.355 291.001V297.785C279.355 298.009 279.291 298.137 279.035 298.137H276.395C276.123 298.137 276.043 298.009 276.043 297.785L275.995 291.065C275.979 288.505 271.339 288.297 271.339 291.001V297.833C271.339 298.025 271.291 298.137 271.099 298.137H239.323C237.163 298.137 235.051 296.457 235.051 293.113V286.313C235.051 286.089 235.115 285.961 235.371 285.961H238.027C238.283 285.961 238.363 286.089 238.363 286.313L238.411 293.049C238.427 295.593 243.083 295.801 243.083 293.113V286.265C243.083 286.073 243.131 285.961 243.339 285.961H275.099Z" fill="#FFFF77"/>
<path d="M138.992 76.7768C140.353 75.2312 140.344 72.8438 140.8 70.9018C141.625 67.6641 144.738 65.8772 146.311 63.4008C147.33 61.5105 149.258 60.7233 151.403 60.8555C156.381 60.7549 165.269 60.9847 170.823 60.7635C174.412 60.6141 174.664 57.3851 177.663 57.0001C179.135 56.9829 180.92 59.195 182.801 59.9132C184.97 60.9962 187.716 60.6429 189.862 61.7374C191.835 62.7544 193.01 64.6332 194.674 66.018C198.294 68.5173 198.171 71.5367 198.099 75.7971C198.111 77.7736 198.16 80.454 197.375 82.0254C196.286 84.3697 194.055 84.1858 192.967 86.5329C192.044 88.5784 192.282 91.1755 192.245 94.1431C192.262 95.6312 192.233 97.2314 192.617 98.6477C193.382 101.322 195.897 102.46 197.695 104.414C199.09 105.629 200.279 106.919 201.519 108.257C202.164 108.973 203.183 109.723 202.972 110.725C202.825 111.96 199.162 112.736 196.699 112.595C194.029 112.593 191.065 112.762 189 112.009C187.144 111.409 185.786 109.593 184.019 108.964C181.229 108.424 180.069 113.423 181.209 115.517C182.541 119.117 186.668 118.243 186.373 122.656C186.413 128.747 186.367 142.91 186.396 149.19C186.273 151.204 187.02 152.715 188.699 153.574C192.806 156.176 190.509 156.768 187.88 159.897C186.001 162.209 186.797 165.714 185.305 168.173C184.443 169.776 182.873 170.196 181.71 171.405C180.756 172.434 180.596 174.025 180.55 175.453C180.504 178.809 180.533 183.971 180.533 187.585C180.498 189.714 180.748 192.182 182.658 193.268C188.155 196.1 184.712 201.995 189.372 205.609C190.016 206.244 190.85 206.868 190.95 207.71C190.363 210.87 186.012 209.769 186.39 214.794C186.373 219.747 186.39 229.405 186.382 236.274C186.496 239.719 186.061 241.707 186.78 243.85C188.922 246.976 195.424 243.706 197.369 247.757C198.334 249.943 198.383 253.247 196.733 255.034C195.731 255.991 193.852 256.134 191.429 256.149C189.32 256.154 186.926 256.169 185.127 256.126C181.959 256.097 180.395 255.663 180.541 252.397C180.344 245.694 180.845 231.597 180.341 224.274C179.739 221.292 174.128 221.827 171.837 222.522C170.156 223.019 169.78 225.174 169.806 227.081C169.875 231.402 169.548 237.53 169.992 241.974C170.508 244.815 172.244 245.088 173.435 247.171C173.934 248.036 174.3 249.018 174.438 250.029C174.65 251.661 174.114 253.833 172.9 254.827C171.934 255.39 171.081 254.517 170.256 253.916C169.162 253.055 167.907 252.264 166.552 251.825C159.211 250.19 157.765 252.741 158.077 243.706C158.077 239.673 158.077 235.033 158.077 230.968C158.237 227.771 157.596 225.599 158.885 223.398C161.872 220.83 165.226 218.147 167.913 214.986C169.909 213.131 172.014 211.122 173.186 208.606C173.707 207.373 172.908 206.494 172.072 205.598C170.514 204.139 169.763 202.171 169.809 199.999C169.508 195.19 170.362 188.924 169.322 184.319C168.526 182.193 166.612 182.158 165.318 180.357C163.886 178.51 164.115 175.933 163.499 173.767C162.666 171.064 160.83 170.095 159.26 168.331C157.773 166.863 157.135 165.194 154.431 164.623C151.947 164.183 149.252 164.401 146.734 164.364C144.85 164.453 143.257 164.327 141.868 165.433C139.706 167.662 141.241 171.943 139.121 174.517C138.233 176.088 135.876 177.033 135.824 178.927C137.113 182.529 140.814 181.618 140.499 187.229C140.508 192.067 140.516 200.504 140.493 205.21C140.548 206.782 140.107 208.85 139.01 209.485C136.558 210.887 134.487 210.625 134.656 214.285C134.991 222.852 133.946 241.882 135.077 249.946C135.386 250.466 135.945 250.753 136.535 250.906C138.428 251.411 141.954 251.012 144.148 252.236C148.184 254.485 143.667 256.444 140.934 256.143C135.993 256.151 127.452 256.16 122.844 256.137C119.962 256.218 118.238 255.407 118.161 252.161C117.863 249.576 119.066 246.927 120.925 245.306C121.893 244.361 122.829 243.548 122.743 242.609C121.283 238.613 117.774 240.072 118.06 233.332C118.06 229.773 118.037 224.789 118.075 221.476C118.04 219.414 118.584 217.394 120.369 216.282C124.218 213.087 130.577 207.928 127.948 202.036C127.412 200.918 126.713 200.206 125.668 200.895C123.525 202.547 121.729 204.739 119.753 206.563C117.479 208.333 114.878 209.677 113.331 212.194C111.788 214.449 112.638 217.868 111.378 220.229C110.639 221.496 109.104 221.781 107.723 221.881C104.69 222.077 100.6 221.812 97.7355 222.111C94.0721 222.568 94.7967 225.05 94.6335 228.463C94.6392 231.899 94.6191 236.541 94.6449 239.753C94.347 244.358 97.1855 245.062 100.018 247.892C101.975 249.509 103.392 251.569 105.432 253.066C109.307 255.465 116.221 261.854 107.041 261.992C102.181 262.006 93.525 261.998 88.4695 261.995C87.1577 262.001 85.6683 261.969 84.5885 261.351C81.0712 258.763 86.983 256.315 87.4871 253.747C87.5788 252.546 85.5165 251.472 84.3565 249.774C82.5348 247.464 83.3168 244.005 81.8359 241.575C78.9974 237.851 76.9323 239.521 77.064 233.324C77.2789 228.624 76.5743 223.085 77.4622 218.655C78.184 216.555 80.3923 215.808 81.7471 214.208C86.7395 208.135 89.3231 211.944 93.376 208.672C94.6993 207.264 94.4272 204.65 95.1949 202.668C96.4523 198.608 100.763 200.128 100.477 195.457C100.477 188.456 100.499 171.21 100.474 162.106C100.54 160.512 100.087 159 98.357 158.773C95.5357 158.144 90.2884 159.25 89.2314 155.493C88.6586 153.657 88.7474 151.508 87.6905 149.825C86.5419 147.834 84.6715 147.351 83.6776 145.076C81.3518 139.695 85.1355 136.23 88.9078 132.958C90.95 130.835 92.8089 129.847 94.0606 133.291C95.1547 136.851 94.0463 141.261 98.8239 141.703C101.934 142.235 104.87 140.993 106.798 138.632C108.488 136.745 111 134.524 112.24 132.346C112.707 131.456 113.131 130.493 114.234 130.286C126.845 129.913 142.011 130.275 154.663 130.154C157.53 130.143 159.847 130.18 161.325 130.128C162.703 130.143 163.508 129.476 163.697 127.942C164.038 125.81 163.717 123.242 164.645 121.185C165.599 118.91 167.429 118.361 168.603 116.451C171.032 113.029 168.354 109.131 165.831 106.718C162.723 103.187 168.867 101.911 169.405 98.0732C169.735 96.8579 169.786 95.5393 170.067 94.3155C170.336 93.1089 170.766 92.1235 171.396 91.1266C172.728 89.0294 174.552 87.6447 173.051 85.5993C171.74 83.8037 170.373 82.0484 169.998 79.7243C169.566 77.4835 169.892 74.5359 167.569 73.3092C165.905 72.3756 163.175 72.7375 161.202 71.9705C157.673 70.9966 156.272 65.0182 152.681 69.1723C151.042 70.5887 149.645 72.163 148.149 73.7287C145.743 76.1246 142.942 78.3367 141.255 81.3561C140.407 83.1344 140.628 85.786 139.557 87.5787C138.809 88.8312 137.766 89.6845 136.589 88.9864C134.816 87.9952 134.232 83.5481 135.358 81.2383C136.048 79.3594 137.683 78.2706 138.926 76.8199L138.981 76.7509L138.992 76.7768ZM185.548 67.733C185.13 67.351 184.5 67.3021 183.936 67.2676C182.77 67.236 181.435 67.2073 180.865 67.733C180.012 68.4915 180.049 71.7665 180.802 72.5537C181.587 73.3092 184.852 73.3466 185.608 72.4905C186.132 71.9159 186.104 70.5772 186.072 69.4079C186.038 68.842 185.989 68.2071 185.608 67.7905L185.551 67.733H185.548Z" fill="white"/>
</svg>
