<svg width="309" height="302" viewBox="0 0 309 302" fill="none" xmlns="http://www.w3.org/2000/svg">
<path d="M92.1462 20.22C88.6462 20.22 87.1262 17.58 86.9662 15.44C86.9662 15.32 87.0462 15.24 87.1662 15.24H89.4262C89.5462 15.24 89.6062 15.3 89.6262 15.42C89.8262 16.76 90.6862 17.7 92.1462 17.7C93.3462 17.7 94.2862 16.98 94.2862 15.94C94.2862 12.84 87.1862 14.52 87.1862 9.1C87.1862 6.7 88.9662 4.78 91.8262 4.78C94.9262 4.78 96.4462 7.08 96.6062 9.28C96.6262 9.4 96.5462 9.48 96.4262 9.48H94.1862C94.0662 9.48 93.9862 9.42 93.9662 9.28C93.8262 8.18 93.0662 7.26 91.8262 7.26C90.5462 7.26 89.7462 8.06 89.7462 9.1C89.7462 12.02 96.8462 10.32 96.8462 15.94C96.8462 18.48 94.5662 20.22 92.1462 20.22ZM105.258 20.22C101.258 20.22 98.238 16.92 98.238 12.48C98.238 8.06 101.258 4.78 105.258 4.78C109.238 4.78 112.258 8.06 112.258 12.48C112.258 16.92 109.238 20.22 105.258 20.22ZM105.258 17.52C107.718 17.52 109.658 15.4 109.658 12.48C109.658 9.62 107.718 7.46 105.258 7.46C102.778 7.46 100.858 9.62 100.858 12.48C100.858 15.4 102.778 17.52 105.258 17.52ZM117.069 5.16C117.109 5.04 117.209 5 117.309 5H120.089C120.189 5 120.289 5.04 120.329 5.16L125.129 19.74C125.169 19.92 125.109 20 124.969 20H122.669C122.569 20 122.469 19.96 122.429 19.84L122.129 18.9C121.669 17.46 120.769 16.78 119.389 16.78H117.989C116.609 16.78 115.709 17.46 115.249 18.9L114.949 19.84C114.909 19.96 114.809 20 114.709 20H112.429C112.289 20 112.229 19.92 112.269 19.74L117.069 5.16ZM119.569 14.32C120.289 14.32 120.609 13.8 120.369 13.04L119.329 9.74C119.029 8.78 118.329 8.78 118.029 9.74L117.009 13.04C116.769 13.8 117.089 14.32 117.809 14.32H119.569ZM126.73 5.2C126.73 5.08 126.81 5 126.93 5H132.33C134.81 5 136.89 6.56 136.89 9.58C136.89 11.12 136.21 12.64 134.71 13.4C133.29 14.1 132.87 14.28 133.63 15.16L134.77 16.54L137.49 19.76C137.59 19.88 137.53 20 137.37 20H134.39C134.29 20 134.21 19.96 134.15 19.88L131.01 16.02C130.19 15 129.29 15.32 129.29 16.62V19.8C129.29 19.92 129.21 20 129.09 20H126.93C126.81 20 126.73 19.92 126.73 19.8V5.2ZM131.93 11.56C133.35 11.56 134.29 10.88 134.29 9.58C134.29 8.3 133.35 7.66 131.95 7.66H130.29C129.65 7.66 129.29 8.02 129.29 8.66V10.56C129.29 11.2 129.65 11.56 130.29 11.56H131.93ZM139.41 5.22C139.41 5.08 139.49 5 139.61 5H141.77C141.89 5 141.97 5.08 141.97 5.22V19.78C141.97 19.92 141.89 20 141.77 20H139.61C139.49 20 139.41 19.92 139.41 19.78V5.22ZM144.933 5.2C144.933 5.08 145.013 5 145.133 5H146.953C147.053 5 147.133 5.02 147.193 5.12L152.913 13.38C153.453 14.18 154.133 14.14 154.133 13.18V5.2C154.133 5.08 154.213 5 154.333 5H156.513C156.633 5 156.713 5.08 156.713 5.2V19.8C156.713 19.92 156.633 20 156.513 20H154.693C154.593 20 154.513 19.98 154.453 19.88C152.533 17.08 150.613 14.4 148.693 11.58C148.153 10.78 147.493 10.86 147.493 11.82V19.8C147.493 19.92 147.413 20 147.293 20H145.133C145.013 20 144.933 19.92 144.933 19.8V5.2ZM166.144 20.22C161.804 20.22 158.844 16.96 158.844 12.5C158.844 8.08 161.864 4.78 165.924 4.78C169.164 4.78 171.524 6.7 172.344 9.6C172.384 9.78 172.304 9.86 172.164 9.86H169.724C169.624 9.86 169.544 9.82 169.484 9.7C168.884 8.42 167.684 7.48 165.924 7.48C163.384 7.48 161.464 9.6 161.464 12.5C161.464 15.48 163.324 17.56 166.144 17.56C167.644 17.56 168.824 17.04 169.504 15.92C169.904 15.24 169.484 14.7 168.724 14.7H164.684C164.564 14.7 164.484 14.6 164.484 14.48V12.42C164.484 12.28 164.564 12.2 164.684 12.2H171.804C172.664 12.2 172.864 12.7 172.804 13.42C172.624 17.24 170.004 20.22 166.144 20.22ZM179.621 5.2C179.621 5.08 179.701 5 179.821 5H184.501C187.401 5 189.061 6.36 189.061 9.06C189.061 9.74 188.861 10.34 188.541 10.84C187.681 12.18 187.641 12.12 188.781 13.2C189.401 13.84 189.821 14.68 189.821 15.72C189.821 18.54 187.801 20 185.081 20H179.821C179.701 20 179.621 19.92 179.621 19.78V5.2ZM184.881 17.46C186.341 17.46 187.261 16.84 187.261 15.5C187.261 14.1 186.321 13.58 184.761 13.58H183.121C182.481 13.58 182.121 13.98 182.121 14.68V16.36C182.121 17.06 182.481 17.46 183.121 17.46H184.881ZM184.521 11.06C185.781 11.06 186.521 10.44 186.521 9.32C186.521 8.22 185.801 7.54 184.561 7.54H183.121C182.481 7.54 182.121 7.94 182.121 8.64V9.96C182.121 10.66 182.481 11.06 183.121 11.06H184.521ZM192.359 5.22C192.359 5.08 192.439 5 192.559 5H194.719C194.839 5 194.919 5.08 194.919 5.22V19.78C194.919 19.92 194.839 20 194.719 20H192.559C192.439 20 192.359 19.92 192.359 19.78V5.22ZM197.882 5.2C197.882 5.08 197.962 5 198.082 5H203.482C205.962 5 208.042 6.56 208.042 9.58C208.042 11.12 207.362 12.64 205.862 13.4C204.442 14.1 204.022 14.28 204.782 15.16L205.922 16.54L208.642 19.76C208.742 19.88 208.682 20 208.522 20H205.542C205.442 20 205.362 19.96 205.302 19.88L202.162 16.02C201.342 15 200.442 15.32 200.442 16.62V19.8C200.442 19.92 200.362 20 200.242 20H198.082C197.962 20 197.882 19.92 197.882 19.8V5.2ZM203.082 11.56C204.502 11.56 205.442 10.88 205.442 9.58C205.442 8.3 204.502 7.66 203.102 7.66H201.442C200.802 7.66 200.442 8.02 200.442 8.66V10.56C200.442 11.2 200.802 11.56 201.442 11.56H203.082ZM210.402 5.22C210.402 5.08 210.482 5 210.602 5H214.902C219.062 5 221.942 8.3 221.942 12.5C221.942 16.7 219.062 20 214.902 20H210.602C210.482 20 210.402 19.92 210.402 19.78V5.22ZM215.042 17.34C217.562 17.34 219.322 15.18 219.322 12.5C219.322 9.82 217.562 7.68 215.042 7.68H213.962C213.322 7.68 212.962 8.08 212.962 8.8V16.2C212.962 16.92 213.322 17.32 213.962 17.32L215.042 17.34Z" fill="#FFFF77"/>
<rect y="3.34375" width="19.2962" height="19.2962" fill="#6D6C69"/>
<rect y="281.961" width="19.2962" height="19.2962" fill="#6D6C69"/>
<rect x="288.94" y="3.34375" width="19.2962" height="19.2962" fill="#6D6C69"/>
<rect x="288.94" y="281.961" width="19.2962" height="19.2962" fill="#FFFF77"/>
<path d="M226.203 285.538C226.203 285.445 226.265 285.383 226.357 285.383H228.797C228.874 285.383 228.951 285.414 228.982 285.507L231.591 292.592C231.838 293.272 232.362 293.272 232.609 292.592L235.218 285.507C235.249 285.414 235.326 285.383 235.404 285.383H237.843C237.935 285.383 237.997 285.445 237.997 285.538V296.807C237.997 296.899 237.935 296.961 237.843 296.961H236.16C236.067 296.961 236.006 296.899 236.006 296.807V290.987C236.006 290.246 235.388 290.138 235.126 290.832L232.964 296.699C232.934 296.791 232.872 296.822 232.795 296.822H231.405C231.328 296.822 231.266 296.791 231.236 296.699L229.059 290.817C228.797 290.122 228.179 290.246 228.179 290.987V296.807C228.179 296.899 228.117 296.961 228.025 296.961H226.357C226.265 296.961 226.203 296.899 226.203 296.807V285.538ZM245.072 297.131C241.984 297.131 239.653 294.584 239.653 291.157C239.653 287.745 241.984 285.213 245.072 285.213C248.144 285.213 250.475 287.745 250.475 291.157C250.475 294.584 248.144 297.131 245.072 297.131ZM245.072 295.047C246.97 295.047 248.468 293.41 248.468 291.157C248.468 288.949 246.97 287.282 245.072 287.282C243.157 287.282 241.676 288.949 241.676 291.157C241.676 293.41 243.157 295.047 245.072 295.047ZM252.132 285.538C252.132 285.445 252.194 285.383 252.287 285.383H253.691C253.769 285.383 253.83 285.399 253.877 285.476L258.292 291.851C258.708 292.469 259.233 292.438 259.233 291.697V285.538C259.233 285.445 259.295 285.383 259.388 285.383H261.07C261.163 285.383 261.225 285.445 261.225 285.538V296.807C261.225 296.899 261.163 296.961 261.07 296.961H259.666C259.588 296.961 259.527 296.946 259.48 296.868C257.998 294.707 256.516 292.639 255.034 290.462C254.618 289.845 254.108 289.906 254.108 290.647V296.807C254.108 296.899 254.047 296.961 253.954 296.961H252.287C252.194 296.961 252.132 296.899 252.132 296.807V285.538ZM263.378 285.553C263.378 285.445 263.44 285.383 263.533 285.383H270.093C270.186 285.383 270.248 285.445 270.248 285.553V287.236C270.248 287.328 270.186 287.405 270.093 287.405H266.389C265.694 287.405 265.308 287.822 265.308 288.594V288.934C265.308 289.69 265.694 290.122 266.389 290.122H269.538C269.63 290.122 269.692 290.184 269.692 290.292V291.959C269.692 292.052 269.63 292.114 269.538 292.114H266.389C265.694 292.114 265.308 292.561 265.308 293.318V293.75C265.308 294.522 265.694 294.939 266.389 294.939H270.093C270.186 294.939 270.248 295.016 270.248 295.109V296.791C270.248 296.899 270.186 296.961 270.093 296.961H263.533C263.44 296.961 263.378 296.899 263.378 296.791V285.553ZM274.716 294.028C274.716 293.163 274.562 292.531 274.192 291.743L271.259 285.568C271.212 285.46 271.259 285.383 271.367 285.383H273.25C273.327 285.383 273.373 285.414 273.42 285.507L274.994 288.965C275.396 289.829 276.059 289.798 276.445 288.949L278.005 285.507C278.051 285.414 278.097 285.383 278.174 285.383H280.088C280.197 285.383 280.243 285.46 280.197 285.568L277.233 291.759C276.862 292.546 276.708 293.179 276.708 294.043V296.807C276.708 296.899 276.646 296.961 276.553 296.961H274.871C274.778 296.961 274.716 296.899 274.716 296.807V294.028Z" fill="#FFFF77"/>
<path d="M195.628 79.2817C197.26 81.3033 197.445 95.1077 196.136 97.5846C195.474 98.8347 192.432 99.9998 191.185 101.211C185.303 106.89 180.159 114.383 174.092 119.761C172.752 120.949 169.819 121.845 169.133 123.38C166.985 128.164 170.92 144.029 167.501 148.172C165.792 150.24 159.832 150.811 163.821 155.117C166.454 157.964 171.682 161.815 174.084 164.647C177.988 169.253 175.378 181.298 168.802 174.909C168.979 177.363 168.117 180.82 169.811 182.818C171.274 184.547 173.753 183.86 175.07 186.8C177.357 191.924 174.716 201.145 176.379 204.648C177.449 206.901 182.115 205.844 182.677 210.227C183.793 218.93 181.892 230.212 182.508 239.201L181.33 240.659C170.773 243.19 178.704 222.85 172.945 221.245C172.044 220.991 170.258 221.33 169.611 221.978C168.464 223.136 168.464 235.767 168.933 237.866C169.657 241.107 173.692 241.848 175.008 244.332C177.179 248.43 175.37 257.188 170.412 254.225C169.164 253.484 165.006 247.072 162.958 250.32C160.764 253.785 167.747 255.853 168.002 258.592C165.014 266.439 161.88 258.492 159.155 256.925C155.975 255.097 148.729 256.586 148.329 252.504C148.083 249.988 151.863 248.383 153.265 246.879C154.034 246.053 154.296 244.618 155.251 243.584C158.077 240.544 160.941 242.488 161.549 236.678C162.104 231.346 162.304 215.312 161.511 210.288C160.826 205.929 155.744 207.024 154.597 203.344C153.188 198.837 155.567 190.326 153.865 186.283C152.903 183.999 147.628 185.056 145.465 184.755C141.646 184.223 139.952 180.874 137.511 178.189C136.641 177.232 135.17 176.753 134.508 175.912C131.844 172.525 134.824 167.201 131.39 164.315C129.858 163.034 127.486 163.026 126.331 160.974C124.714 158.088 126.039 154.114 124.56 151.514L111.933 140.379L110.855 100.494C108.53 97.5306 90.6361 102.616 91.0056 95.9951C91.2982 90.7326 99.0517 93.1324 102.478 90.9024C104.542 89.5597 104.318 86.5041 107.606 85.4701C110.232 84.6445 121.981 84.5133 123.975 86.0257C126.57 87.9933 126.408 97.9627 125.916 101.173C125.153 106.188 120.495 105.81 119.217 109.653C118.331 112.3 118.262 117.5 120.01 119.73C120.919 120.895 123.144 121.582 124.314 122.686C126.062 124.337 127.117 127.632 130.143 127.832C131.975 127.362 132.884 126.127 133.176 124.298C134.416 116.505 132.245 105.926 133.199 97.8933C133.785 92.9858 136.372 93.3098 138.912 90.7326C141.453 88.1554 141.361 85.5319 146.058 85.0071C149.392 84.629 154.943 85.7402 157.807 84.8914C160.009 84.2355 161.934 79.5286 164.221 78.7956C167.386 77.777 177.88 78.7261 174.023 72.8695C173.137 71.5268 171.212 71.3879 170.111 70.1842C167.301 67.0977 167.986 61.5883 169.618 58.0851C171.143 56.565 179.243 56.7734 181.052 57.8999C184.201 59.8521 181.345 65.894 183.963 69.5206C185.141 71.1487 187.027 71.3339 188.275 72.4682C189.522 73.6025 190.045 75.6087 191.277 76.7276C192.294 77.6535 194.927 78.3712 195.651 79.274L195.628 79.2817ZM183.455 86.5272C179.974 90.015 185.865 94.8917 188.629 91.3885C191.539 87.7078 186.419 83.5488 183.455 86.5272ZM169.603 98.7575C172.983 102.16 177.842 95.5476 174.069 93.3021C170.296 91.0567 166.893 96.026 169.603 98.7575ZM164.652 192.201C159.586 192.981 160.764 200.705 167.054 198.606C169.118 197.919 168.902 191.545 164.652 192.201Z" fill="white"/>
</svg>
