<svg width="309" height="302" viewBox="0 0 309 302" fill="none" xmlns="http://www.w3.org/2000/svg">
<path d="M98.1533 20.22C93.8133 20.22 90.8533 16.96 90.8533 12.5C90.8533 8.08 93.8733 4.78 97.9333 4.78C101.173 4.78 103.533 6.7 104.353 9.6C104.393 9.78 104.313 9.86 104.173 9.86H101.733C101.633 9.86 101.553 9.82 101.493 9.7C100.893 8.42 99.6933 7.48 97.9333 7.48C95.3933 7.48 93.4733 9.6 93.4733 12.5C93.4733 15.48 95.3333 17.56 98.1533 17.56C99.6533 17.56 100.833 17.04 101.513 15.92C101.913 15.24 101.493 14.7 100.733 14.7H96.6933C96.5733 14.7 96.4933 14.6 96.4933 14.48V12.42C96.4933 12.28 96.5733 12.2 96.6933 12.2H103.813C104.673 12.2 104.873 12.7 104.813 13.42C104.633 17.24 102.013 20.22 98.1533 20.22ZM106.982 5.22C106.982 5.08 107.062 5 107.182 5H109.342C109.462 5 109.542 5.08 109.542 5.22V15.92C109.542 16.82 110.042 17.32 110.942 17.32H115.542C115.662 17.32 115.742 17.4 115.742 17.54V19.78C115.742 19.92 115.662 20 115.542 20H107.182C107.062 20 106.982 19.92 106.982 19.78V5.22ZM117.611 5.22C117.611 5.08 117.691 5 117.811 5H119.971C120.091 5 120.171 5.08 120.171 5.22V19.78C120.171 19.92 120.091 20 119.971 20H117.811C117.691 20 117.611 19.92 117.611 19.78V5.22ZM123.134 5.22C123.134 5.08 123.214 5 123.334 5H127.634C131.794 5 134.674 8.3 134.674 12.5C134.674 16.7 131.794 20 127.634 20H123.334C123.214 20 123.134 19.92 123.134 19.78V5.22ZM127.774 17.34C130.294 17.34 132.054 15.18 132.054 12.5C132.054 9.82 130.294 7.68 127.774 7.68H126.694C126.054 7.68 125.694 8.08 125.694 8.8V16.2C125.694 16.92 126.054 17.32 126.694 17.32L127.774 17.34ZM136.966 5.22C136.966 5.08 137.046 5 137.166 5H139.326C139.446 5 139.526 5.08 139.526 5.22V19.78C139.526 19.92 139.446 20 139.326 20H137.166C137.046 20 136.966 19.92 136.966 19.78V5.22ZM142.49 5.2C142.49 5.08 142.57 5 142.69 5H144.51C144.61 5 144.69 5.02 144.75 5.12L150.47 13.38C151.01 14.18 151.69 14.14 151.69 13.18V5.2C151.69 5.08 151.77 5 151.89 5H154.07C154.19 5 154.27 5.08 154.27 5.2V19.8C154.27 19.92 154.19 20 154.07 20H152.25C152.15 20 152.07 19.98 152.01 19.88C150.09 17.08 148.17 14.4 146.25 11.58C145.71 10.78 145.05 10.86 145.05 11.82V19.8C145.05 19.92 144.97 20 144.85 20H142.69C142.57 20 142.49 19.92 142.49 19.8V5.2ZM163.7 20.22C159.36 20.22 156.4 16.96 156.4 12.5C156.4 8.08 159.42 4.78 163.48 4.78C166.72 4.78 169.08 6.7 169.9 9.6C169.94 9.78 169.86 9.86 169.72 9.86H167.28C167.18 9.86 167.1 9.82 167.04 9.7C166.44 8.42 165.24 7.48 163.48 7.48C160.94 7.48 159.02 9.6 159.02 12.5C159.02 15.48 160.88 17.56 163.7 17.56C165.2 17.56 166.38 17.04 167.06 15.92C167.46 15.24 167.04 14.7 166.28 14.7H162.24C162.12 14.7 162.04 14.6 162.04 14.48V12.42C162.04 12.28 162.12 12.2 162.24 12.2H169.36C170.22 12.2 170.42 12.7 170.36 13.42C170.18 17.24 167.56 20.22 163.7 20.22ZM177.177 5.22C177.177 5.08 177.257 5 177.377 5H185.737C185.857 5 185.937 5.08 185.937 5.22V7.4C185.937 7.52 185.857 7.62 185.737 7.62H181.117C180.217 7.62 179.717 8.16 179.717 9.16V9.84C179.717 10.84 180.217 11.38 181.117 11.38H184.997C185.117 11.38 185.197 11.46 185.197 11.6V13.72C185.197 13.86 185.117 13.96 184.997 13.96H181.117C180.217 13.96 179.717 14.5 179.717 15.5V20H177.377C177.257 20 177.177 19.92 177.177 19.78V5.22ZM188.353 5.22C188.353 5.08 188.433 5 188.553 5H190.713C190.833 5 190.913 5.08 190.913 5.22V19.78C190.913 19.92 190.833 20 190.713 20H188.553C188.433 20 188.353 19.92 188.353 19.78V5.22ZM198.297 20.22C194.797 20.22 193.277 17.58 193.117 15.44C193.117 15.32 193.197 15.24 193.317 15.24H195.577C195.697 15.24 195.757 15.3 195.777 15.42C195.977 16.76 196.837 17.7 198.297 17.7C199.497 17.7 200.437 16.98 200.437 15.94C200.437 12.84 193.337 14.52 193.337 9.1C193.337 6.7 195.117 4.78 197.977 4.78C201.077 4.78 202.597 7.08 202.757 9.28C202.777 9.4 202.697 9.48 202.577 9.48H200.337C200.217 9.48 200.137 9.42 200.117 9.28C199.977 8.18 199.217 7.26 197.977 7.26C196.697 7.26 195.897 8.06 195.897 9.1C195.897 12.02 202.997 10.32 202.997 15.94C202.997 18.48 200.717 20.22 198.297 20.22ZM213.928 15.06C213.928 14.12 213.428 13.6 212.528 13.6H209.008C208.108 13.6 207.608 14.12 207.608 15.06V19.8C207.608 19.92 207.528 20 207.408 20H205.248C205.128 20 205.048 19.92 205.048 19.8V5.2C205.048 5.08 205.128 5 205.248 5H207.408C207.528 5 207.608 5.08 207.608 5.2V9.5C207.608 10.44 208.108 10.96 209.008 10.96H212.528C213.428 10.96 213.928 10.44 213.928 9.5V5.2C213.928 5.08 214.008 5 214.128 5H216.288C216.408 5 216.488 5.08 216.488 5.2V19.8C216.488 19.92 216.408 20 216.288 20H214.128C214.008 20 213.928 19.92 213.928 19.8V15.06Z" fill="#FFFF77"/>
<rect y="3.34375" width="19.2962" height="19.2962" fill="#6D6C69"/>
<rect y="281.961" width="19.2962" height="19.2962" fill="#6D6C69"/>
<rect x="288.94" y="3.34375" width="19.2962" height="19.2962" fill="#6D6C69"/>
<rect x="288.94" y="281.961" width="19.2962" height="19.2962" fill="#FFFF77"/>
<path d="M226.203 285.538C226.203 285.445 226.265 285.383 226.357 285.383H228.797C228.874 285.383 228.951 285.414 228.982 285.507L231.591 292.592C231.838 293.272 232.362 293.272 232.609 292.592L235.218 285.507C235.249 285.414 235.326 285.383 235.404 285.383H237.843C237.935 285.383 237.997 285.445 237.997 285.538V296.807C237.997 296.899 237.935 296.961 237.843 296.961H236.16C236.067 296.961 236.006 296.899 236.006 296.807V290.987C236.006 290.246 235.388 290.138 235.126 290.832L232.964 296.699C232.934 296.791 232.872 296.822 232.795 296.822H231.405C231.328 296.822 231.266 296.791 231.236 296.699L229.059 290.817C228.797 290.122 228.179 290.246 228.179 290.987V296.807C228.179 296.899 228.117 296.961 228.025 296.961H226.357C226.265 296.961 226.203 296.899 226.203 296.807V285.538ZM245.072 297.131C241.984 297.131 239.653 294.584 239.653 291.157C239.653 287.745 241.984 285.213 245.072 285.213C248.144 285.213 250.475 287.745 250.475 291.157C250.475 294.584 248.144 297.131 245.072 297.131ZM245.072 295.047C246.97 295.047 248.468 293.41 248.468 291.157C248.468 288.949 246.97 287.282 245.072 287.282C243.157 287.282 241.676 288.949 241.676 291.157C241.676 293.41 243.157 295.047 245.072 295.047ZM252.132 285.538C252.132 285.445 252.194 285.383 252.287 285.383H253.691C253.769 285.383 253.83 285.399 253.877 285.476L258.292 291.851C258.708 292.469 259.233 292.438 259.233 291.697V285.538C259.233 285.445 259.295 285.383 259.388 285.383H261.07C261.163 285.383 261.225 285.445 261.225 285.538V296.807C261.225 296.899 261.163 296.961 261.07 296.961H259.666C259.588 296.961 259.527 296.946 259.48 296.868C257.998 294.707 256.516 292.639 255.034 290.462C254.618 289.845 254.108 289.906 254.108 290.647V296.807C254.108 296.899 254.047 296.961 253.954 296.961H252.287C252.194 296.961 252.132 296.899 252.132 296.807V285.538ZM263.378 285.553C263.378 285.445 263.44 285.383 263.533 285.383H270.093C270.186 285.383 270.248 285.445 270.248 285.553V287.236C270.248 287.328 270.186 287.405 270.093 287.405H266.389C265.694 287.405 265.308 287.822 265.308 288.594V288.934C265.308 289.69 265.694 290.122 266.389 290.122H269.538C269.63 290.122 269.692 290.184 269.692 290.292V291.959C269.692 292.052 269.63 292.114 269.538 292.114H266.389C265.694 292.114 265.308 292.561 265.308 293.318V293.75C265.308 294.522 265.694 294.939 266.389 294.939H270.093C270.186 294.939 270.248 295.016 270.248 295.109V296.791C270.248 296.899 270.186 296.961 270.093 296.961H263.533C263.44 296.961 263.378 296.899 263.378 296.791V285.553ZM274.716 294.028C274.716 293.163 274.562 292.531 274.192 291.743L271.259 285.568C271.212 285.46 271.259 285.383 271.367 285.383H273.25C273.327 285.383 273.373 285.414 273.42 285.507L274.994 288.965C275.396 289.829 276.059 289.798 276.445 288.949L278.005 285.507C278.051 285.414 278.097 285.383 278.174 285.383H280.088C280.197 285.383 280.243 285.46 280.197 285.568L277.233 291.759C276.862 292.546 276.708 293.179 276.708 294.043V296.807C276.708 296.899 276.646 296.961 276.553 296.961H274.871C274.778 296.961 274.716 296.899 274.716 296.807V294.028Z" fill="#FFFF77"/>
<path d="M258.414 135.243C254.471 138.174 242.277 134.949 239.947 139.492C236.757 145.695 244.878 146.201 247.103 148.52C250.434 151.992 250.716 174.143 247.998 177.744C244.572 182.311 234.392 177.368 229.86 181.781C224.846 186.678 231.002 194.104 224.881 200.001C218.761 205.898 216.607 193.846 216.254 189.42C215.642 181.593 217.596 170.306 216.254 163.208C215.995 161.855 215.501 160.854 214.277 160.148C208.309 157.594 207.026 163.632 203.731 166.751C198.281 171.906 191.714 177.45 186.511 182.794C184.77 184.583 184.381 187.466 182.416 188.773C177.684 191.927 167.48 189.655 164.867 192.398C161.406 197.541 164.961 202.249 163.184 207.863C161.724 212.477 159.076 211.653 156.286 214.054C149.942 219.527 154.627 225.295 152.026 230.968C149.801 235.817 135.995 235.593 132.205 233.133C130.298 231.898 130.039 229.261 128.592 227.684C126.026 224.895 119.753 221.01 119.929 217.585C120.117 213.607 127.733 212.595 129.145 208.087C130.263 204.533 130.051 195.317 127.615 192.374C126.12 190.573 122.954 190.032 120.977 187.925C118.058 184.83 118.434 180.463 113.02 179.757C102.945 178.439 90.2807 181.016 79.8997 179.616C76.8277 178.698 76.2628 173.295 74.203 171.2C68.8359 165.727 53.1231 170.965 46.9674 168.199C44.4369 167.057 43.6012 162.938 41.9299 161.137C39.9173 158.959 33.9499 155.97 33.8675 153.122C33.7616 149.532 37.3514 147.884 40.3763 147.531C62.1035 144.989 88.7036 149.414 110.984 147.59C113.62 147.378 117.916 147.225 118.517 144.035C119.788 137.279 116.61 123.956 119.729 118.036C120.882 115.846 123.684 115.599 125.579 113.81C127.697 111.821 130.722 107.172 132.052 106.171C138.161 101.616 160.618 105.913 169.186 103.994C173.765 102.97 174.718 97.9914 178.002 95.6727C183.593 91.7533 195.61 91.8122 194.103 100.628C193.503 104.123 189.478 104.535 187.382 106.56C183.769 110.044 182.722 114.575 176.484 115.305C167.903 116.317 148.165 112.657 142.257 118.365C140.832 119.742 139.809 122.614 138.196 124.391C136.584 126.169 132.97 127.546 132.099 129.405C129.792 134.313 136.101 136.35 138.655 138.974C140.574 140.952 143.151 146.283 146.27 146.578C150.966 147.037 153.167 138.303 157.758 136.891C161.347 135.796 177.131 135.926 180.356 137.574C185.417 140.163 184.464 146.213 190.819 147.284C194.939 147.978 197.163 146.472 200.6 146.472C205.885 146.472 223.045 149.355 225.835 145.483C229.636 138.939 224.634 121.213 229.425 116.823C231.731 114.716 236.098 114.787 237.699 110.985C239.3 107.184 237.934 100.44 240.406 96.5554C243.207 92.177 251.234 94.0249 255.33 92.33C259.65 90.541 263.192 78.8417 269.654 84.5619C272.632 87.1866 272.479 98.2738 270.584 101.546C266.747 108.172 251.564 102.064 250.493 108.737C249.692 113.692 254.483 113.645 257.096 116.27C261.486 120.672 260.803 129.829 258.379 135.196L258.414 135.243Z" fill="white"/>
<path d="M236.18 199.697C238.464 196.919 236.451 191.434 242.23 190.104C245.985 189.245 258.096 188.904 259.497 193.623C261.403 201.262 254.153 200.85 251.046 203.957C248.127 206.865 249.339 211.231 243.595 212.644C238.652 213.856 226.294 214.021 227.376 206.582C228.036 201.992 234.344 201.933 236.192 199.697H236.18Z" fill="white"/>
<path d="M258.386 232.99C255.785 235.591 249.829 234.202 248.758 230.495C247.228 225.199 248.087 207.344 256.973 213.158C260.646 215.559 260.646 230.73 258.386 232.99Z" fill="white"/>
<path d="M270.492 203.235C276.801 216.806 252.743 216.018 261.065 202.906C263.383 201.117 268.033 201.811 270.492 203.235Z" fill="white"/>
<path d="M146.403 125.684C154.453 125.237 155.406 137.324 146.226 136.983C138.434 136.701 138.611 126.119 146.403 125.684Z" fill="white"/>
<path d="M187.773 115.491C197.659 112.443 198.33 127.979 188.82 126.237C182.97 125.166 182.982 116.963 187.773 115.491Z" fill="white"/>
</svg>
