<svg width="309" height="302" viewBox="0 0 309 302" fill="none" xmlns="http://www.w3.org/2000/svg">
<path d="M68.4145 5.16C68.4545 5.04 68.5545 5 68.6545 5H71.4345C71.5345 5 71.6345 5.04 71.6745 5.16L76.4745 19.74C76.5145 19.92 76.4545 20 76.3145 20H74.0145C73.9145 20 73.8145 19.96 73.7745 19.84L73.4745 18.9C73.0145 17.46 72.1145 16.78 70.7345 16.78H69.3345C67.9545 16.78 67.0545 17.46 66.5945 18.9L66.2945 19.84C66.2545 19.96 66.1545 20 66.0545 20H63.7745C63.6345 20 63.5745 19.92 63.6145 19.74L68.4145 5.16ZM70.9145 14.32C71.6345 14.32 71.9545 13.8 71.7145 13.04L70.6745 9.74C70.3745 8.78 69.6745 8.78 69.3745 9.74L68.3545 13.04C68.1145 13.8 68.4345 14.32 69.1545 14.32H70.9145ZM78.0758 5.22C78.0758 5.08 78.1558 5 78.2758 5H82.5758C86.7358 5 89.6158 8.3 89.6158 12.5C89.6158 16.7 86.7358 20 82.5758 20H78.2758C78.1558 20 78.0758 19.92 78.0758 19.78V5.22ZM82.7158 17.34C85.2358 17.34 86.9958 15.18 86.9958 12.5C86.9958 9.82 85.2358 7.68 82.7158 7.68H81.6358C80.9958 7.68 80.6358 8.08 80.6358 8.8V16.2C80.6358 16.92 80.9958 17.32 81.6358 17.32L82.7158 17.34ZM94.4106 5.16C94.4506 5.04 94.5506 5 94.6506 5H97.4306C97.5306 5 97.6306 5.04 97.6706 5.16L102.471 19.74C102.511 19.92 102.451 20 102.311 20H100.011C99.9106 20 99.8106 19.96 99.7706 19.84L99.4706 18.9C99.0106 17.46 98.1106 16.78 96.7306 16.78H95.3306C93.9506 16.78 93.0506 17.46 92.5906 18.9L92.2906 19.84C92.2506 19.96 92.1506 20 92.0506 20H89.7706C89.6306 20 89.5706 19.92 89.6106 19.74L94.4106 5.16ZM96.9106 14.32C97.6306 14.32 97.9506 13.8 97.7106 13.04L96.6706 9.74C96.3706 8.78 95.6706 8.78 95.3706 9.74L94.3506 13.04C94.1106 13.8 94.4306 14.32 95.1506 14.32H96.9106ZM104.072 5.2C104.072 5.08 104.152 5 104.272 5H109.672C112.152 5 114.232 6.64 114.232 9.72C114.232 12.8 112.152 14.48 109.672 14.48H107.632C106.992 14.48 106.632 14.84 106.632 15.48V19.8C106.632 19.92 106.552 20 106.432 20H104.272C104.152 20 104.072 19.92 104.072 19.8V5.2ZM109.272 11.82C110.692 11.82 111.632 11.08 111.632 9.72C111.632 8.38 110.692 7.66 109.292 7.66H107.632C106.992 7.66 106.632 8.02 106.632 8.66V10.82C106.632 11.46 106.992 11.82 107.632 11.82H109.272ZM119.045 9.06C119.045 8.16 118.545 7.66 117.645 7.66H115.025C114.905 7.66 114.825 7.58 114.825 7.46V5.2C114.825 5.08 114.905 5 115.025 5H125.645C125.765 5 125.845 5.08 125.845 5.2V7.46C125.845 7.58 125.765 7.66 125.645 7.66H123.025C122.125 7.66 121.625 8.16 121.625 9.06V19.8C121.625 19.92 121.545 20 121.425 20H119.245C119.125 20 119.045 19.92 119.045 19.8V9.06ZM129.528 5.16C129.568 5.04 129.668 5 129.768 5H132.548C132.648 5 132.748 5.04 132.788 5.16L137.588 19.74C137.628 19.92 137.568 20 137.428 20H135.128C135.028 20 134.928 19.96 134.888 19.84L134.588 18.9C134.128 17.46 133.228 16.78 131.848 16.78H130.448C129.068 16.78 128.168 17.46 127.708 18.9L127.408 19.84C127.368 19.96 127.268 20 127.168 20H124.888C124.748 20 124.688 19.92 124.728 19.74L129.528 5.16ZM132.028 14.32C132.748 14.32 133.068 13.8 132.828 13.04L131.788 9.74C131.488 8.78 130.788 8.78 130.488 9.74L129.468 13.04C129.228 13.8 129.548 14.32 130.268 14.32H132.028ZM139.189 5.2C139.189 5.08 139.269 5 139.389 5H144.069C146.969 5 148.629 6.36 148.629 9.06C148.629 9.74 148.429 10.34 148.109 10.84C147.249 12.18 147.209 12.12 148.349 13.2C148.969 13.84 149.389 14.68 149.389 15.72C149.389 18.54 147.369 20 144.649 20H139.389C139.269 20 139.189 19.92 139.189 19.78V5.2ZM144.449 17.46C145.909 17.46 146.829 16.84 146.829 15.5C146.829 14.1 145.889 13.58 144.329 13.58H142.689C142.049 13.58 141.689 13.98 141.689 14.68V16.36C141.689 17.06 142.049 17.46 142.689 17.46H144.449ZM144.089 11.06C145.349 11.06 146.089 10.44 146.089 9.32C146.089 8.22 145.369 7.54 144.129 7.54H142.689C142.049 7.54 141.689 7.94 141.689 8.64V9.96C141.689 10.66 142.049 11.06 142.689 11.06H144.089ZM151.767 5.22C151.767 5.08 151.847 5 151.967 5H154.127C154.247 5 154.327 5.08 154.327 5.22V15.92C154.327 16.82 154.827 17.32 155.727 17.32H160.327C160.447 17.32 160.527 17.4 160.527 17.54V19.78C160.527 19.92 160.447 20 160.327 20H151.967C151.847 20 151.767 19.92 151.767 19.78V5.22ZM162.236 5.22C162.236 5.08 162.316 5 162.436 5H170.936C171.056 5 171.136 5.08 171.136 5.22V7.4C171.136 7.52 171.056 7.62 170.936 7.62H166.136C165.236 7.62 164.736 8.16 164.736 9.16V9.6C164.736 10.58 165.236 11.14 166.136 11.14H170.216C170.336 11.14 170.416 11.22 170.416 11.36V13.52C170.416 13.64 170.336 13.72 170.216 13.72H166.136C165.236 13.72 164.736 14.3 164.736 15.28V15.84C164.736 16.84 165.236 17.38 166.136 17.38H170.936C171.056 17.38 171.136 17.48 171.136 17.6V19.78C171.136 19.92 171.056 20 170.936 20H162.436C162.316 20 162.236 19.92 162.236 19.78V5.22ZM178.154 5.22C178.154 5.08 178.234 5 178.354 5H180.514C180.634 5 180.714 5.08 180.714 5.22V15.92C180.714 16.82 181.214 17.32 182.114 17.32H186.714C186.834 17.32 186.914 17.4 186.914 17.54V19.78C186.914 19.92 186.834 20 186.714 20H178.354C178.234 20 178.154 19.92 178.154 19.78V5.22ZM188.783 5.22C188.783 5.08 188.863 5 188.983 5H191.143C191.263 5 191.343 5.08 191.343 5.22V19.78C191.343 19.92 191.263 20 191.143 20H188.983C188.863 20 188.783 19.92 188.783 19.78V5.22ZM193.566 17.76C193.566 17.66 193.586 17.68 193.646 17.6L199.586 9.3C200.266 8.36 199.666 7.6 198.506 7.6H193.986C193.866 7.6 193.786 7.52 193.786 7.4V5.2C193.786 5.08 193.866 5 193.986 5H204.126C204.246 5 204.326 5.08 204.326 5.2V6.96C204.326 7.06 204.326 7.3 204.246 7.4L198.306 15.7C197.626 16.64 198.026 17.4 199.186 17.4H204.066C204.186 17.4 204.266 17.48 204.266 17.6V19.8C204.266 19.92 204.186 20 204.066 20H193.766C193.646 20 193.566 19.92 193.566 19.8V17.76ZM210.153 5.16C210.193 5.04 210.293 5 210.393 5H213.173C213.273 5 213.373 5.04 213.413 5.16L218.213 19.74C218.253 19.92 218.193 20 218.053 20H215.753C215.653 20 215.553 19.96 215.513 19.84L215.213 18.9C214.753 17.46 213.853 16.78 212.473 16.78H211.073C209.693 16.78 208.793 17.46 208.333 18.9L208.033 19.84C207.993 19.96 207.893 20 207.793 20H205.513C205.373 20 205.313 19.92 205.353 19.74L210.153 5.16ZM212.653 14.32C213.373 14.32 213.693 13.8 213.453 13.04L212.413 9.74C212.113 8.78 211.413 8.78 211.113 9.74L210.093 13.04C209.853 13.8 210.173 14.32 210.893 14.32H212.653ZM219.814 5.2C219.814 5.08 219.894 5 220.014 5H225.414C227.894 5 229.974 6.56 229.974 9.58C229.974 11.12 229.294 12.64 227.794 13.4C226.374 14.1 225.954 14.28 226.714 15.16L227.854 16.54L230.574 19.76C230.674 19.88 230.614 20 230.454 20H227.474C227.374 20 227.294 19.96 227.234 19.88L224.094 16.02C223.274 15 222.374 15.32 222.374 16.62V19.8C222.374 19.92 222.294 20 222.174 20H220.014C219.894 20 219.814 19.92 219.814 19.8V5.2ZM225.014 11.56C226.434 11.56 227.374 10.88 227.374 9.58C227.374 8.3 226.434 7.66 225.034 7.66H223.374C222.734 7.66 222.374 8.02 222.374 8.66V10.56C222.374 11.2 222.734 11.56 223.374 11.56H225.014ZM232.334 5.22C232.334 5.08 232.414 5 232.534 5H236.834C240.994 5 243.874 8.3 243.874 12.5C243.874 16.7 240.994 20 236.834 20H232.534C232.414 20 232.334 19.92 232.334 19.78V5.22ZM236.974 17.34C239.494 17.34 241.254 15.18 241.254 12.5C241.254 9.82 239.494 7.68 236.974 7.68H235.894C235.254 7.68 234.894 8.08 234.894 8.8V16.2C234.894 16.92 235.254 17.32 235.894 17.32L236.974 17.34Z" fill="#FFFF77"/>
<rect y="3.34375" width="19.2962" height="19.2962" fill="#6D6C69"/>
<rect y="281.961" width="19.2962" height="19.2962" fill="#6D6C69"/>
<rect x="288.94" y="3.34375" width="19.2962" height="19.2962" fill="#6D6C69"/>
<rect x="288.94" y="281.961" width="19.2962" height="19.2962" fill="#FFFF77"/>
<path d="M226.203 285.538C226.203 285.445 226.265 285.383 226.357 285.383H228.797C228.874 285.383 228.951 285.414 228.982 285.507L231.591 292.592C231.838 293.272 232.362 293.272 232.609 292.592L235.218 285.507C235.249 285.414 235.326 285.383 235.404 285.383H237.843C237.935 285.383 237.997 285.445 237.997 285.538V296.807C237.997 296.899 237.935 296.961 237.843 296.961H236.16C236.067 296.961 236.006 296.899 236.006 296.807V290.987C236.006 290.246 235.388 290.138 235.126 290.832L232.964 296.699C232.934 296.791 232.872 296.822 232.795 296.822H231.405C231.328 296.822 231.266 296.791 231.236 296.699L229.059 290.817C228.797 290.122 228.179 290.246 228.179 290.987V296.807C228.179 296.899 228.117 296.961 228.025 296.961H226.357C226.265 296.961 226.203 296.899 226.203 296.807V285.538ZM245.072 297.131C241.984 297.131 239.653 294.584 239.653 291.157C239.653 287.745 241.984 285.213 245.072 285.213C248.144 285.213 250.475 287.745 250.475 291.157C250.475 294.584 248.144 297.131 245.072 297.131ZM245.072 295.047C246.97 295.047 248.468 293.41 248.468 291.157C248.468 288.949 246.97 287.282 245.072 287.282C243.157 287.282 241.676 288.949 241.676 291.157C241.676 293.41 243.157 295.047 245.072 295.047ZM252.132 285.538C252.132 285.445 252.194 285.383 252.287 285.383H253.691C253.769 285.383 253.83 285.399 253.877 285.476L258.292 291.851C258.708 292.469 259.233 292.438 259.233 291.697V285.538C259.233 285.445 259.295 285.383 259.388 285.383H261.07C261.163 285.383 261.225 285.445 261.225 285.538V296.807C261.225 296.899 261.163 296.961 261.07 296.961H259.666C259.588 296.961 259.527 296.946 259.48 296.868C257.998 294.707 256.516 292.639 255.034 290.462C254.618 289.845 254.108 289.906 254.108 290.647V296.807C254.108 296.899 254.047 296.961 253.954 296.961H252.287C252.194 296.961 252.132 296.899 252.132 296.807V285.538ZM263.378 285.553C263.378 285.445 263.44 285.383 263.533 285.383H270.093C270.186 285.383 270.248 285.445 270.248 285.553V287.236C270.248 287.328 270.186 287.405 270.093 287.405H266.389C265.694 287.405 265.308 287.822 265.308 288.594V288.934C265.308 289.69 265.694 290.122 266.389 290.122H269.538C269.63 290.122 269.692 290.184 269.692 290.292V291.959C269.692 292.052 269.63 292.114 269.538 292.114H266.389C265.694 292.114 265.308 292.561 265.308 293.318V293.75C265.308 294.522 265.694 294.939 266.389 294.939H270.093C270.186 294.939 270.248 295.016 270.248 295.109V296.791C270.248 296.899 270.186 296.961 270.093 296.961H263.533C263.44 296.961 263.378 296.899 263.378 296.791V285.553ZM274.716 294.028C274.716 293.163 274.562 292.531 274.192 291.743L271.259 285.568C271.212 285.46 271.259 285.383 271.367 285.383H273.25C273.327 285.383 273.373 285.414 273.42 285.507L274.994 288.965C275.396 289.829 276.059 289.798 276.445 288.949L278.005 285.507C278.051 285.414 278.097 285.383 278.174 285.383H280.088C280.197 285.383 280.243 285.46 280.197 285.568L277.233 291.759C276.862 292.546 276.708 293.179 276.708 294.043V296.807C276.708 296.899 276.646 296.961 276.553 296.961H274.871C274.778 296.961 274.716 296.899 274.716 296.807V294.028Z" fill="#FFFF77"/>
<path d="M180.089 92.3601C184.071 89.0938 193.931 89.9063 198.844 90.7933C200.974 91.1746 202.407 91.9539 201.997 94.4657C201.099 99.9785 189.974 96.8781 188.121 100.658C183.769 109.512 205.493 104.853 208.838 106.992C211.311 108.567 211.521 118.067 208.603 120.198C203.573 123.257 199.054 108.915 196.354 118.026C196.639 120.878 204.814 123.978 201.234 127.476C198.928 129.723 185.488 129.557 182.461 128.289C175.888 125.528 182.168 115.887 173.608 114.328C165.668 112.886 162.91 116.948 164.125 124.409C164.997 129.739 170.95 127.924 174.857 129.408C182.093 132.168 176.836 141.279 181.984 142.954C183.442 143.426 187.769 143.882 189.538 144.006C201.166 144.811 214.925 142.68 226.202 143.965C231.785 144.603 232.942 150.017 227.283 151.451C224.038 152.272 207.681 149.901 211.093 156.756C213.567 161.73 229.463 155.563 230.746 162.253C231.4 165.676 227.92 166.356 226.193 168.114C222.68 171.695 222.982 173.685 216.778 174.422C213.994 174.754 205.509 174.472 203.531 172.582C198.551 167.807 206.306 153.664 196.58 151.957C194.275 151.55 188.657 151.724 187.869 154.41C186.997 158.804 192.833 158.215 194.409 161.2C197.243 166.572 193.319 172.748 196.035 178.766C197.519 182.049 200.102 180.864 201.368 182.721C202.634 184.578 203.455 194.716 203.606 197.543C204.42 212.879 200.923 230.918 202.927 245.782C203.615 250.889 206.063 249.106 208.545 251.585C214.623 257.653 200.144 259.129 196.396 257.214L195.121 254.926C194.317 238.951 196.019 222.794 194.124 206.927C193.403 204.846 187.836 205.8 186.662 202.235L186.192 170.045C185.748 166.605 180.659 166.53 179.544 163.844C177.833 159.733 181.321 152.628 173.801 151.774C170.774 151.434 152.429 151.443 150.61 152.305C145.764 154.601 151.113 169.034 147.08 173.137C141.748 176.503 130.203 172.06 126.346 176.594C124.787 178.426 125.173 180.756 121.936 181.46C116.604 182.621 111.599 181.087 106.996 181.601C100.246 182.356 101.454 189.427 107.708 190.148C113.72 190.845 125.072 186.965 120.846 197.087L110.24 197.949C110.551 201.613 109.15 205.062 104.891 204.341C102.091 203.868 101.345 199.632 98.5696 198.488C95.7945 197.344 87.8547 198.604 87.2259 194.733C86.597 190.861 91.9797 189.891 93.187 187.123C94.3188 184.553 93.405 181.386 93.8996 178.592C95.1824 171.314 102.703 175.168 107.189 173.27C110.048 172.06 109.746 168.18 113.083 167.036C118.658 165.121 125.399 168.238 130.874 165.511C132.307 164.798 133.431 161.921 134.663 160.686C135.98 159.359 139.275 157.701 140.029 156.052C140.784 154.402 140.633 149.246 140.08 147.513C139.241 144.877 134.848 143.6 133.624 141.13C131.88 137.615 134.345 133.296 131.83 130.303C129.448 127.468 116.378 129.541 112.395 129.441C107.842 133.644 113.334 141.669 106.124 143.832C101.571 145.2 98.7876 144.073 94.8051 144.015C91.5689 143.973 84.6016 144.603 82.0361 143.857C77.0307 142.407 79.9903 133.022 75.7815 130.104C73.0902 128.72 70.1557 136.33 66.9194 136.048C62.1572 135.634 61.9979 124.998 65.0246 122.378C68.0513 119.758 76.2678 123.547 77.8272 117.935C78.7579 111.477 62.0399 117.247 64.0269 108.716C64.312 108.02 65.3181 107.323 65.9972 107.05C68.94 105.881 84.6603 105.359 86.1778 108.509C88.2068 112.728 84.4339 133.064 87.9553 135.145C91.7701 137.399 93.6146 132.202 95.4926 130.502C96.4987 129.59 98.0582 129.292 99.1146 128.405C103.969 124.301 100.498 106.826 101.73 100.459L109.15 95.7341C109.955 91.6306 111.54 80.5055 109.117 77.3138C106.14 73.401 91.2754 78.6651 87.6451 73.7077C82.0948 66.1307 98.7708 68.2612 101.965 68.0374C110.374 67.4405 107.465 65.6416 111.64 61.9857C115.112 58.9433 123.756 59.1837 125.256 64.1991C125.91 66.3794 125.617 71.7264 126.388 73.0196C127.302 74.5533 132.559 75.7636 133.196 79.0713C134.563 86.2172 132.567 98.1216 133.188 106.055C133.808 113.989 135.041 111.866 139.711 115.928C143.282 119.037 142.368 121.574 149.369 121.35C158.064 121.076 153.838 112.007 157.586 108.119C160.118 105.491 166.464 107.017 169.818 104.596C171.956 103.046 177.112 94.8554 180.105 92.4098L180.089 92.3601Z" fill="white"/>
</svg>
