<svg width="309" height="302" viewBox="0 0 309 302" fill="none" xmlns="http://www.w3.org/2000/svg">
<path d="M64.2275 20.22C59.8875 20.22 56.9275 16.96 56.9275 12.5C56.9275 8.08 59.9475 4.78 64.0075 4.78C67.2475 4.78 69.6075 6.7 70.4275 9.6C70.4675 9.78 70.3875 9.86 70.2475 9.86H67.8075C67.7075 9.86 67.6275 9.82 67.5675 9.7C66.9675 8.42 65.7675 7.48 64.0075 7.48C61.4675 7.48 59.5475 9.6 59.5475 12.5C59.5475 15.48 61.4075 17.56 64.2275 17.56C65.7275 17.56 66.9075 17.04 67.5875 15.92C67.9875 15.24 67.5675 14.7 66.8075 14.7H62.7675C62.6475 14.7 62.5675 14.6 62.5675 14.48V12.42C62.5675 12.28 62.6475 12.2 62.7675 12.2H69.8875C70.7475 12.2 70.9475 12.7 70.8875 13.42C70.7075 17.24 68.0875 20.22 64.2275 20.22ZM73.0563 5.22C73.0563 5.08 73.1363 5 73.2563 5H75.4163C75.5363 5 75.6163 5.08 75.6163 5.22V15.92C75.6163 16.82 76.1163 17.32 77.0163 17.32H81.6163C81.7363 17.32 81.8163 17.4 81.8163 17.54V19.78C81.8163 19.92 81.7363 20 81.6163 20H73.2563C73.1363 20 73.0563 19.92 73.0563 19.78V5.22ZM83.685 5.22C83.685 5.08 83.765 5 83.885 5H86.045C86.165 5 86.245 5.08 86.245 5.22V19.78C86.245 19.92 86.165 20 86.045 20H83.885C83.765 20 83.685 19.92 83.685 19.78V5.22ZM89.2086 5.2C89.2086 5.08 89.2886 5 89.4086 5H92.5686C92.6686 5 92.7686 5.04 92.8086 5.16L96.1886 14.34C96.5086 15.22 97.1886 15.22 97.5086 14.34L100.889 5.16C100.929 5.04 101.029 5 101.129 5H104.289C104.409 5 104.489 5.08 104.489 5.2V19.8C104.489 19.92 104.409 20 104.289 20H102.109C101.989 20 101.909 19.92 101.909 19.8V12.26C101.909 11.3 101.109 11.16 100.769 12.06L97.9686 19.66C97.9286 19.78 97.8486 19.82 97.7486 19.82H95.9486C95.8486 19.82 95.7686 19.78 95.7286 19.66L92.9086 12.04C92.5686 11.14 91.7686 11.3 91.7686 12.26V19.8C91.7686 19.92 91.6886 20 91.5686 20H89.4086C89.2886 20 89.2086 19.92 89.2086 19.8V5.2ZM107.295 5.2C107.295 5.08 107.375 5 107.495 5H110.655C110.755 5 110.855 5.04 110.895 5.16L114.275 14.34C114.595 15.22 115.275 15.22 115.595 14.34L118.975 5.16C119.015 5.04 119.115 5 119.215 5H122.375C122.495 5 122.575 5.08 122.575 5.2V19.8C122.575 19.92 122.495 20 122.375 20H120.195C120.075 20 119.995 19.92 119.995 19.8V12.26C119.995 11.3 119.195 11.16 118.855 12.06L116.055 19.66C116.015 19.78 115.935 19.82 115.835 19.82H114.035C113.935 19.82 113.855 19.78 113.815 19.66L110.995 12.04C110.655 11.14 109.855 11.3 109.855 12.26V19.8C109.855 19.92 109.775 20 109.655 20H107.495C107.375 20 107.295 19.92 107.295 19.8V5.2ZM125.38 5.22C125.38 5.08 125.46 5 125.58 5H134.08C134.2 5 134.28 5.08 134.28 5.22V7.4C134.28 7.52 134.2 7.62 134.08 7.62H129.28C128.38 7.62 127.88 8.16 127.88 9.16V9.6C127.88 10.58 128.38 11.14 129.28 11.14H133.36C133.48 11.14 133.56 11.22 133.56 11.36V13.52C133.56 13.64 133.48 13.72 133.36 13.72H129.28C128.38 13.72 127.88 14.3 127.88 15.28V15.84C127.88 16.84 128.38 17.38 129.28 17.38H134.08C134.2 17.38 134.28 17.48 134.28 17.6V19.78C134.28 19.92 134.2 20 134.08 20H125.58C125.46 20 125.38 19.92 125.38 19.78V5.22ZM136.65 5.2C136.65 5.08 136.73 5 136.85 5H142.25C144.73 5 146.81 6.56 146.81 9.58C146.81 11.12 146.13 12.64 144.63 13.4C143.21 14.1 142.79 14.28 143.55 15.16L144.69 16.54L147.41 19.76C147.51 19.88 147.45 20 147.29 20H144.31C144.21 20 144.13 19.96 144.07 19.88L140.93 16.02C140.11 15 139.21 15.32 139.21 16.62V19.8C139.21 19.92 139.13 20 139.01 20H136.85C136.73 20 136.65 19.92 136.65 19.8V5.2ZM141.85 11.56C143.27 11.56 144.21 10.88 144.21 9.58C144.21 8.3 143.27 7.66 141.87 7.66H140.21C139.57 7.66 139.21 8.02 139.21 8.66V10.56C139.21 11.2 139.57 11.56 140.21 11.56H141.85ZM149.33 5.22C149.33 5.08 149.41 5 149.53 5H151.69C151.81 5 151.89 5.08 151.89 5.22V19.78C151.89 19.92 151.81 20 151.69 20H149.53C149.41 20 149.33 19.92 149.33 19.78V5.22ZM154.853 5.2C154.853 5.08 154.933 5 155.053 5H156.873C156.973 5 157.053 5.02 157.113 5.12L162.833 13.38C163.373 14.18 164.053 14.14 164.053 13.18V5.2C164.053 5.08 164.133 5 164.253 5H166.433C166.553 5 166.633 5.08 166.633 5.2V19.8C166.633 19.92 166.553 20 166.433 20H164.613C164.513 20 164.433 19.98 164.373 19.88C162.453 17.08 160.533 14.4 158.613 11.58C158.073 10.78 157.413 10.86 157.413 11.82V19.8C157.413 19.92 157.333 20 157.213 20H155.053C154.933 20 154.853 19.92 154.853 19.8V5.2ZM176.063 20.22C171.723 20.22 168.763 16.96 168.763 12.5C168.763 8.08 171.783 4.78 175.843 4.78C179.083 4.78 181.443 6.7 182.263 9.6C182.303 9.78 182.223 9.86 182.083 9.86H179.643C179.543 9.86 179.463 9.82 179.403 9.7C178.803 8.42 177.603 7.48 175.843 7.48C173.303 7.48 171.383 9.6 171.383 12.5C171.383 15.48 173.243 17.56 176.063 17.56C177.563 17.56 178.743 17.04 179.423 15.92C179.823 15.24 179.403 14.7 178.643 14.7H174.603C174.483 14.7 174.403 14.6 174.403 14.48V12.42C174.403 12.28 174.483 12.2 174.603 12.2H181.723C182.583 12.2 182.783 12.7 182.723 13.42C182.543 17.24 179.923 20.22 176.063 20.22ZM189.541 5.2C189.541 5.08 189.621 5 189.741 5H192.901C193.001 5 193.101 5.04 193.141 5.16L196.521 14.34C196.841 15.22 197.521 15.22 197.841 14.34L201.221 5.16C201.261 5.04 201.361 5 201.461 5H204.621C204.741 5 204.821 5.08 204.821 5.2V19.8C204.821 19.92 204.741 20 204.621 20H202.441C202.321 20 202.241 19.92 202.241 19.8V12.26C202.241 11.3 201.441 11.16 201.101 12.06L198.301 19.66C198.261 19.78 198.181 19.82 198.081 19.82H196.281C196.181 19.82 196.101 19.78 196.061 19.66L193.241 12.04C192.901 11.14 192.101 11.3 192.101 12.26V19.8C192.101 19.92 192.021 20 191.901 20H189.741C189.621 20 189.541 19.92 189.541 19.8V5.2ZM213.987 20.22C209.987 20.22 206.967 16.92 206.967 12.48C206.967 8.06 209.987 4.78 213.987 4.78C217.967 4.78 220.987 8.06 220.987 12.48C220.987 16.92 217.967 20.22 213.987 20.22ZM213.987 17.52C216.447 17.52 218.387 15.4 218.387 12.48C218.387 9.62 216.447 7.46 213.987 7.46C211.507 7.46 209.587 9.62 209.587 12.48C209.587 15.4 211.507 17.52 213.987 17.52ZM229.494 20.22C225.494 20.22 222.474 16.92 222.474 12.48C222.474 8.06 225.494 4.78 229.494 4.78C233.474 4.78 236.494 8.06 236.494 12.48C236.494 16.92 233.474 20.22 229.494 20.22ZM229.494 17.52C231.954 17.52 233.894 15.4 233.894 12.48C233.894 9.62 231.954 7.46 229.494 7.46C227.014 7.46 225.094 9.62 225.094 12.48C225.094 15.4 227.014 17.52 229.494 17.52ZM238.642 5.2C238.642 5.08 238.722 5 238.842 5H240.662C240.762 5 240.842 5.02 240.902 5.12L246.622 13.38C247.162 14.18 247.842 14.14 247.842 13.18V5.2C247.842 5.08 247.922 5 248.042 5H250.222C250.342 5 250.422 5.08 250.422 5.2V19.8C250.422 19.92 250.342 20 250.222 20H248.402C248.302 20 248.222 19.98 248.162 19.88C246.242 17.08 244.322 14.4 242.402 11.58C241.862 10.78 241.202 10.86 241.202 11.82V19.8C241.202 19.92 241.122 20 241.002 20H238.842C238.722 20 238.642 19.92 238.642 19.8V5.2Z" fill="#FFFF77"/>
<rect y="3.34375" width="19.2962" height="19.2962" fill="#6D6C69"/>
<rect y="281.961" width="19.2962" height="19.2962" fill="#6D6C69"/>
<rect x="288.94" y="3.34375" width="19.2962" height="19.2962" fill="#6D6C69"/>
<rect x="288.94" y="281.961" width="19.2962" height="19.2962" fill="#FFFF77"/>
<path d="M226.203 285.538C226.203 285.445 226.265 285.383 226.357 285.383H228.797C228.874 285.383 228.951 285.414 228.982 285.507L231.591 292.592C231.838 293.272 232.362 293.272 232.609 292.592L235.218 285.507C235.249 285.414 235.326 285.383 235.404 285.383H237.843C237.935 285.383 237.997 285.445 237.997 285.538V296.807C237.997 296.899 237.935 296.961 237.843 296.961H236.16C236.067 296.961 236.006 296.899 236.006 296.807V290.987C236.006 290.246 235.388 290.138 235.126 290.832L232.964 296.699C232.934 296.791 232.872 296.822 232.795 296.822H231.405C231.328 296.822 231.266 296.791 231.236 296.699L229.059 290.817C228.797 290.122 228.179 290.246 228.179 290.987V296.807C228.179 296.899 228.117 296.961 228.025 296.961H226.357C226.265 296.961 226.203 296.899 226.203 296.807V285.538ZM245.072 297.131C241.984 297.131 239.653 294.584 239.653 291.157C239.653 287.745 241.984 285.213 245.072 285.213C248.144 285.213 250.475 287.745 250.475 291.157C250.475 294.584 248.144 297.131 245.072 297.131ZM245.072 295.047C246.97 295.047 248.468 293.41 248.468 291.157C248.468 288.949 246.97 287.282 245.072 287.282C243.157 287.282 241.676 288.949 241.676 291.157C241.676 293.41 243.157 295.047 245.072 295.047ZM252.132 285.538C252.132 285.445 252.194 285.383 252.287 285.383H253.691C253.769 285.383 253.83 285.399 253.877 285.476L258.292 291.851C258.708 292.469 259.233 292.438 259.233 291.697V285.538C259.233 285.445 259.295 285.383 259.388 285.383H261.07C261.163 285.383 261.225 285.445 261.225 285.538V296.807C261.225 296.899 261.163 296.961 261.07 296.961H259.666C259.588 296.961 259.527 296.946 259.48 296.868C257.998 294.707 256.516 292.639 255.034 290.462C254.618 289.845 254.108 289.906 254.108 290.647V296.807C254.108 296.899 254.047 296.961 253.954 296.961H252.287C252.194 296.961 252.132 296.899 252.132 296.807V285.538ZM263.378 285.553C263.378 285.445 263.44 285.383 263.533 285.383H270.093C270.186 285.383 270.248 285.445 270.248 285.553V287.236C270.248 287.328 270.186 287.405 270.093 287.405H266.389C265.694 287.405 265.308 287.822 265.308 288.594V288.934C265.308 289.69 265.694 290.122 266.389 290.122H269.538C269.63 290.122 269.692 290.184 269.692 290.292V291.959C269.692 292.052 269.63 292.114 269.538 292.114H266.389C265.694 292.114 265.308 292.561 265.308 293.318V293.75C265.308 294.522 265.694 294.939 266.389 294.939H270.093C270.186 294.939 270.248 295.016 270.248 295.109V296.791C270.248 296.899 270.186 296.961 270.093 296.961H263.533C263.44 296.961 263.378 296.899 263.378 296.791V285.553ZM274.716 294.028C274.716 293.163 274.562 292.531 274.192 291.743L271.259 285.568C271.212 285.46 271.259 285.383 271.367 285.383H273.25C273.327 285.383 273.373 285.414 273.42 285.507L274.994 288.965C275.396 289.829 276.059 289.798 276.445 288.949L278.005 285.507C278.051 285.414 278.097 285.383 278.174 285.383H280.088C280.197 285.383 280.243 285.46 280.197 285.568L277.233 291.759C276.862 292.546 276.708 293.179 276.708 294.043V296.807C276.708 296.899 276.646 296.961 276.553 296.961H274.871C274.778 296.961 274.716 296.899 274.716 296.807V294.028Z" fill="#FFFF77"/>
<path d="M131.525 80.6368C128.634 84.1688 117.451 81.3499 114.39 86.0853C111.881 89.9628 113.58 97.6285 110.644 101.205C109.654 102.409 107.662 102.62 106.256 103.779C100.878 108.191 103.59 110.81 102.802 116.581C101.328 127.423 91.2699 122.631 92.2375 136.737C92.9463 147.077 101.272 142.108 102.656 151.244C103.702 158.141 101.789 165.406 103.59 172.259L112.016 179.178C113.018 182.353 112.286 185.585 112.77 188.927C114.12 198.298 118.474 194.521 125.439 195.468C132.549 196.437 131.885 200.649 135.733 204.359C137.275 205.852 139.75 206.554 141.415 208.27C143.08 209.986 144.025 213.161 145.735 214.487C150.101 217.886 156.21 215.111 160.463 217.072C163.928 218.666 163.939 225.596 167.967 225.964C172.94 226.298 174.2 217.607 177.946 216.794C184.506 216.237 184.989 227.858 190.919 226.643C194.328 225.941 196.409 218.12 199.244 216.861C202.878 215.256 208.526 217.496 213.083 214.342C215.187 212.883 215.839 209.93 217.549 208.27C219.147 206.71 223.58 204.515 224.334 203.301C226.854 199.267 224.716 182.576 233.931 187.256C238.172 189.406 237.598 209.841 234.752 213.874C233.323 215.891 230.465 216.571 228.71 218.387C226.73 220.426 225.706 224.426 223.838 225.964C219.912 229.184 213.15 226.576 208.92 229.317C204.183 232.393 208.144 237.306 197.793 238.331C189.692 239.134 173.705 236.638 167.157 238.521C163.095 239.691 163.388 247 158.28 247C153.172 247 153.555 239.824 149.403 238.532C142.54 236.404 128.915 240.95 124.032 235.98C122.75 234.677 122.3 232.281 120.736 230.654C118.778 228.615 116.067 227.434 114.424 225.462C111.6 222.086 111.96 217.295 106.2 216.437C102.431 215.869 95.7477 217.663 93.1825 214.064C90.5273 210.354 94.5776 202.654 89.4585 197.707C87.3433 195.668 84.4181 195.746 82.8542 192.794C80.3228 188.014 83.608 179.468 78.2076 176.403C76.565 175.467 74.4161 175.612 73.0435 174.832C69.3758 172.771 69.702 162.52 71.3447 158.899C73.6511 153.818 80.154 155.401 80.6716 150.03C79.8615 145.551 73.8423 145.919 71.7497 142.62C69.5107 139.066 69.792 134.409 70.5571 130.442C71.9297 123.4 75.7099 125.762 79.6815 122.32C81.4591 120.771 82.2467 117.818 84.0693 116.169C86.027 114.397 89.211 114.152 90.7636 111.345C93.3626 106.654 91.2587 100.938 92.4738 96.8263C93.2726 94.1299 98.9992 92.336 100.721 88.7705C103.657 82.6981 99.3368 73.283 108.157 72.2802C112.174 71.8234 128.274 71.6897 130.783 73.7621C132.673 75.322 133.022 78.7983 131.514 80.6256L131.525 80.6368Z" fill="white"/>
</svg>
