<svg width="466" height="73" viewBox="0 0 466 73" fill="none" xmlns="http://www.w3.org/2000/svg">
<path fill-rule="evenodd" clip-rule="evenodd" d="M465.236 71.9544L465.236 0.436096L24.8092 0.437667C24.2479 0.437667 24.1182 0.741889 24.1182 1.30579L24.1182 12.8154C24.1182 20.455 10.8964 19.8911 10.8537 12.6418L10.7241 1.43487C10.7241 0.783379 10.4648 0.436135 9.72955 0.436135L1.61483 0.436136C0.879602 0.436136 0.707208 0.78338 0.707208 1.43487L0.739288 72.9532L441.134 72.9516C441.696 72.9516 441.825 72.6474 441.825 72.0835L441.825 60.8152C441.825 53.1756 455.047 53.7395 455.09 60.9888L455.219 71.9544C455.219 72.6059 455.479 72.9531 456.212 72.9531L464.329 72.9531C465.064 72.9531 465.236 72.6059 465.236 71.9544Z" fill="white"/>
</svg>
