<svg width="67" height="19" viewBox="0 0 67 19" fill="none" xmlns="http://www.w3.org/2000/svg">
<path d="M60.2578 -1.43051e-06C63.4978 -1.43051e-06 66.6418 2.544 66.6418 7.56V17.736C66.6418 18.072 66.5458 18.264 66.1618 18.264H62.2018C61.7938 18.264 61.6738 18.072 61.6738 17.736L61.6018 7.656C61.5778 3.816 54.6178 3.504 54.6178 7.56V17.808C54.6178 18.096 54.5458 18.264 54.2578 18.264H6.59383C3.35383 18.264 0.185828 15.744 0.185828 10.728V0.527999C0.185828 0.191999 0.281828 -1.43051e-06 0.665828 -1.43051e-06H4.64983C5.03383 -1.43051e-06 5.15383 0.191999 5.15383 0.527999L5.22583 10.632C5.24983 14.448 12.2338 14.76 12.2338 10.728V0.456C12.2338 0.167999 12.3058 -1.43051e-06 12.6178 -1.43051e-06H60.2578Z" fill="#FFFF77"/>
</svg>
